<?xml version="1.0" encoding="utf-8"?>
<!-- Generator: Adobe Illustrator 22.1.0, SVG Export Plug-In . SVG Version: 6.00 Build 0)  -->
<svg version="1.1" xmlns="http://www.w3.org/2000/svg" xmlns:xlink="http://www.w3.org/1999/xlink" x="0px" y="0px"
	 viewBox="0 0 100 100" style="enable-background:new 0 0 100 100;" xml:space="preserve">
<style type="text/css">
	.st0{display:none;}
	.st1{display:inline;fill:#F2F2F2;}
	.st2{opacity:5.000000e-02;}
	.st3{fill:#B97233;}
	.st4{fill:#40220F;}
	.st5{fill:#FAE345;}
	.st6{fill:#FFFFFF;}
	.st7{fill:#C9CACA;}
	.st8{fill:#75391C;}
	.st9{fill:#3DAE2B;}
	.st10{fill:#FF5100;}
	.st11{fill:#F5333F;}
	.st12{fill:#00AE42;}
	.st13{opacity:0.1;fill:#FAE345;}
	.st14{opacity:0.5;fill:#FAE345;}
	.st15{fill:#FFFFFF;stroke:#FAE345;stroke-width:2.1997;stroke-miterlimit:10;}
	.st16{fill:#FFFFFF;stroke:#40220F;stroke-width:4.4154;stroke-miterlimit:10;}
	.st17{fill:#FFFFFF;stroke:#40220F;stroke-width:2.7389;stroke-miterlimit:10;}
	.st18{fill:none;stroke:#B97233;stroke-width:5.2757;stroke-miterlimit:10;}
	.st19{fill:none;stroke:#FAE345;stroke-width:2;stroke-miterlimit:10;}
	.st20{fill:#C1272D;}
	.st21{fill:none;stroke:#E6E6E6;stroke-width:2;stroke-miterlimit:10;}
	.st22{fill:#EDCB00;}
	.st23{fill:none;stroke:#FF0000;stroke-width:5;stroke-miterlimit:10;}
	.st24{opacity:0.58;}
	.st25{fill:#FF0000;}
	.st26{fill:none;stroke:#F2F2F2;stroke-width:2;stroke-miterlimit:10;}
	.st27{fill:#FAE345;stroke:#75391C;stroke-width:1.5466;stroke-miterlimit:10;}
	.st28{fill:#FFFFFF;stroke:#75391C;stroke-width:1.5466;stroke-miterlimit:10;}
	.st29{fill:#FED44F;}
	.st30{fill:#FCEBB1;}
	.st31{fill:#FEBF07;}
	.st32{fill:#FEF8E0;}
	.st33{fill:#FDC008;}
	.st34{opacity:0.3;fill:#75391C;}
	.st35{fill:none;stroke:#75391C;stroke-width:2;stroke-miterlimit:10;}
	.st36{fill:#FFFFFF;stroke:#B97233;stroke-width:2;stroke-miterlimit:10;}
	.st37{fill:#333333;}
	.st38{fill:#FFFFFF;stroke:#FAE345;stroke-miterlimit:10;}
	.st39{fill:#FBB03B;}
	.st40{fill:none;stroke:#FED44F;stroke-width:6;stroke-linecap:round;stroke-linejoin:round;stroke-miterlimit:10;}
	.st41{fill:none;stroke:#FFFFFF;stroke-linecap:round;stroke-linejoin:round;stroke-miterlimit:10;}
	.st42{fill:none;stroke:#B97233;stroke-width:3;stroke-miterlimit:10;}
	.st43{fill:none;stroke:#FFFFFF;stroke-width:2;stroke-miterlimit:10;}
	.st44{fill:none;stroke:#E6E6E6;stroke-miterlimit:10;}
	.st45{fill:none;stroke:#B97233;stroke-miterlimit:10;}
	.st46{fill:none;stroke:#75391C;stroke-miterlimit:10;}
	.st47{fill:none;stroke:#75391C;stroke-linejoin:round;stroke-miterlimit:10;}
	.st48{fill:none;stroke:#FFFFFF;stroke-linejoin:round;stroke-miterlimit:10;}
	.st49{fill:none;stroke:#75391C;stroke-width:10;stroke-miterlimit:10;}
	.st50{fill:none;stroke:#FAE345;stroke-width:10;stroke-linecap:round;stroke-linejoin:round;stroke-miterlimit:10;}
	.st51{fill:none;stroke:#75391C;stroke-width:4;stroke-miterlimit:10;}
	.st52{fill:none;stroke:#FAE345;stroke-width:4;stroke-linecap:round;stroke-linejoin:round;stroke-miterlimit:10;}
	.st53{fill:none;stroke:#CCCCCC;stroke-miterlimit:10;}
	.st54{fill:none;stroke:#75391C;stroke-width:6;stroke-miterlimit:10;}
	.st55{fill:none;stroke:#FAE345;stroke-width:6;stroke-linecap:round;stroke-linejoin:round;stroke-miterlimit:10;}
	.st56{fill:#FFFFFF;stroke:#FAE345;stroke-width:3;stroke-miterlimit:10;}
	.st57{opacity:0.7;fill:#4D4D4D;}
	.st58{fill:none;stroke:#FFFFFF;stroke-width:5;stroke-linecap:round;stroke-linejoin:round;stroke-miterlimit:10;}
	.st59{fill:#FFFFFF;stroke:#75391C;stroke-width:3;stroke-miterlimit:10;}
	.st60{fill:none;stroke:#FFFFFF;stroke-width:4;stroke-linecap:round;stroke-linejoin:round;stroke-miterlimit:10;}
	.st61{display:inline;}
</style>
<g id="圖層_2" class="st0">
</g>
<g id="圖層_1">
	<g>
		<g>
			<g>
				<path class="st30" d="M5.6,47.1c0.2-24.7,20-44.7,44.9-44.6c24.6,0.1,44.7,20,44.6,44.8C95,72,75.1,92,50.2,92
					C25.6,91.9,5.7,72,5.6,47.1z"/>
				<path class="st6" d="M94,47.2c0.1,24-19.7,43.7-43.7,43.7c-24,0-43.7-19.7-43.7-43.8c0-24,19.7-43.6,43.7-43.6
					C74.3,3.6,94.1,23.2,94,47.2z"/>
				<path class="st31" d="M86.3,47.2c0.2,19.6-16.2,36-36,36c-19.7,0-36-16.4-35.9-36.1c0.1-19.5,16.3-36,36.2-35.9
					C70.1,11.3,86.5,27.6,86.3,47.2z"/>
				<path class="st31" d="M50.2,41.4c-0.9-0.3-1.5-0.7-2.1-1.1c-1.4-1-1.9-2.3-1.5-3.8c0.4-1.3,1.8-2.4,3.2-2.6
					c0.4,0,0.4,0.1,0.4,0.4C50.2,36.6,50.2,39,50.2,41.4z"/>
				<path class="st33" d="M53.3,50.9c2.5,1,3.5,2.4,3.4,4.6c-0.1,1.6-1.4,2.8-3.1,3.3c-0.5,0.1-0.4-0.3-0.4-0.5c0-1.4,0-2.7,0-4.1
					C53.3,53.1,53.3,52,53.3,50.9z"/>
			</g>
			<path class="st5" d="M30.1,72.6c0,0-2.2,0.3-5.5,3c-2.3,1.9-2.9,7.4-3,10.7c-0.1-3.4-0.7-8.8-3-10.7c-3.3-2.7-5.5-3-5.5-3
				s3.9-0.2,6-1.7c2.2-1.6,2.5-8.2,2.5-8.2s0.3,6.6,2.5,8.2C26.2,72.4,30.1,72.6,30.1,72.6z"/>
			<path class="st5" d="M27.2,18c0,0-2.2,0.3-5.5,3c-2.3,1.9-2.9,7.4-3,10.7c-0.1-3.4-0.7-8.8-3-10.7c-3.3-2.7-5.5-3-5.5-3
				s3.9-0.2,6-1.7c2.2-1.6,2.5-8.2,2.5-8.2s0.3,6.6,2.5,8.2C23.4,17.8,27.2,18,27.2,18z"/>
			<path class="st34" d="M50.3,83.4c-9.7,0-18.7-3.8-25.6-10.6C17.9,66,14.2,56.9,14.2,47.2s3.8-18.7,10.6-25.6
				C31.6,14.8,40.7,11,50.3,11s18.7,3.8,25.6,10.6c6.8,6.8,10.6,15.9,10.6,25.6S82.8,66,75.9,72.8C69.1,79.6,60,83.4,50.3,83.4z
				 M50.3,11.5c-19.7,0-35.7,16-35.7,35.7s16,35.7,35.7,35.7s35.7-16,35.7-35.7S70,11.5,50.3,11.5z"/>
			<path class="st5" d="M92.9,82.7c0,0-2.9,0.4-7.2,3.9c-3,2.5-3.7,9.5-3.9,13.9C81.7,96.1,81,89,78,86.6c-4.3-3.5-7.2-3.9-7.2-3.9
				s5-0.3,7.8-2.2c2.9-2,3.3-10.6,3.3-10.6s0.4,8.6,3.3,10.6C87.9,82.4,92.9,82.7,92.9,82.7z"/>
		</g>
	</g>
</g>
<g id="圖層_3" class="st0">
</g>
</svg>
