<?xml version="1.0" encoding="utf-8"?>
<!-- Generator: Adobe Illustrator 22.1.0, SVG Export Plug-In . SVG Version: 6.00 Build 0)  -->
<svg version="1.1" id="圖層_1" xmlns="http://www.w3.org/2000/svg" xmlns:xlink="http://www.w3.org/1999/xlink" x="0px" y="0px"
	 viewBox="0 0 239.7 443" style="enable-background:new 0 0 239.7 443;" xml:space="preserve">
<style type="text/css">
	.st0{fill:#C34B2D;stroke:#231815;stroke-width:5;stroke-miterlimit:10;}
	.st1{fill:none;stroke:#040000;stroke-width:5;stroke-miterlimit:10;}
	.st2{fill:#040000;}
	.st3{fill:#FFFFFF;}
	.st4{fill:#C30D23;stroke:#040000;stroke-width:4;stroke-miterlimit:10;}
	.st5{fill:#A1A1A1;}
	.st6{fill:#CD4B2D;}
	.st7{fill:#F5F5F5;}
</style>
<title>資產 1</title>
<g id="圖層_2_1_">
	<g id="圖層_1-2">
		<path class="st0" d="M33.9,242.6c0,0,37.1,49.7,117.1,36.6c2.1-1.3,36.5-8.2,49.1-36.6c0,0,15.1,25.5-3.6,44.3
			c1.7,3.5,29.5,62.2,28.3,82.9c0,0,15.1,9.9,9.4,25.1c-4,10.8-41.3,33.4-111.5,33.9S13.7,408,7.1,397.1s-0.2-28.2,6.4-29.7
			c0,0,14.7-68.8,27.1-83.8C40.6,283.6,22.5,257.9,33.9,242.6z"/>
		<path class="st1" d="M40.6,283.6c22.7,32,132.5,34.5,155.9,3.3"/>
		<path class="st1" d="M14.2,370"/>
		<path class="st2" d="M119.7,438.6c-9.3,0-18.6-0.1-27.9,0.1c-3.4,0.1-4.6-1.1-4.6-4.4c0.1-17.5-0.1-35,0.1-52.5
			c0.1-7.9,7.4-15,15.2-15.2c11.3-0.2,22.6-0.2,33.9,0c8.6,0.2,16.1,8,16.2,17.5c0.3,16,0.1,32.1,0.1,48.1c0,4.5-1.6,6.8-6.8,6.5
			C137.2,438.2,128.4,438.6,119.7,438.6z"/>
		<path class="st3" d="M91.7,406.3c0-7.7,0-15.4,0-23.1c0-6.9,3.2-11,10-11.2c11.6-0.4,23.2-0.4,34.8,0c7.1,0.2,11,4.5,11.2,11.9
			c0.2,15.8,0,31.6,0.2,47.3c0,3.2-1.4,3.5-4,3.5c-16.1-0.1-32.2-0.2-48.2,0c-3.4,0-4-1.3-3.9-4.2C91.8,422.5,91.7,414.4,91.7,406.3
			z"/>
		<path class="st4" d="M150.9,399.1c0.8,12.2-60.8,10.5-61.4,0v30c0,3.9,2.6,7.1,5.7,7.1h50c3.2,0,5.7-3.2,5.7-7.1L150.9,399.1z"/>
		<path class="st5" d="M102.1,23.9c0.2,0.9,0.5,1.9,0.7,2.8c0.1,0.5,0.7,1.2-0.3,1.4c-0.6,0.1-1.1-0.4-1.2-1.1
			C102.8,26.3,101.4,24.9,102.1,23.9z"/>
		<path class="st6" d="M93,64.2c-2.9,0.4-6.2-0.3-9.5-0.6c-3.9-0.4-7.4-2.5-9.7-5.6c-7-9-6.4-18.2,1.4-26c6.3-6.4,16.5-6.9,23.5-1.3
			c2,1.6,4,3.1,6.6,1.3c2.2-1.5,2.6-4.1,1.7-7.2c-1.2-4,0.2-7.9,2.2-11.2c4.9-8.1,14.3-11.1,23.1-8c6.4,2.3,14.1,12.8,11.1,20.4
			c-0.7,1.6-0.3,3.5,1.1,4.6c1.6,1.3,3.8,1.5,5.6,0.4c3.1-1.9,6.3-3.7,10-4c5.3-0.6,10.7,1.2,14.4,5c5.4,5.2,7,11.4,5.4,18.6
			c-1.3,5.9-7.4,12-13.2,12.9c-8.4,1.4-16.7,0.4-25.1-0.2c-6.9-0.5-13.5-2.8-20.5-2c-4.2,0.5-8.3,1.7-12.5,2
			C103.6,63.5,98.6,64.4,93,64.2z"/>
		<path class="st2" d="M102.1,23.9c-0.4-10.7,6.6-20.2,16.9-23.1c12.2-3.5,24.8,3.6,28.3,15.7c0.6,2.2,0.9,4.6,0.9,6.9
			c0,1.1-0.1,2.1-0.2,3.6c4.5-3,9.2-4.8,14.5-4.5c6.7,0.4,11.9,3.1,16.7,8.1c7.7,7.8,7.4,23.2-0.5,30.7c-1.1,1-0.8,1.7,0.1,2.6
			c19.9,19.4,32.9,43.1,42.2,68.9c6.6,18.5,8.2,37.6,5.8,57.2c-1.3,10.8-2.9,21.5-6.6,31.8c-4.8,13.1-11.3,25.3-21.7,35.1
			c-10.2,9.6-21.5,17.5-34.6,22.3c-10.8,4-22.2,6.6-33.7,7.6c-25.5,2.2-49.6-3.1-71.3-16.3c-16.5-9.9-29.4-24.9-36.6-42.8
			c-3.8-9.1-6.4-18.6-7.9-28.4c-1.9-13.1-2.8-26.2-1.2-39.5C16,137.4,24.4,117,35.8,97.5C43.1,85,51.2,73.3,62.1,63.8
			c4-3.5,6.3-5.8,3.8-12c-3.8-9.6,0.8-19.8,9.6-25.7c7.5-5,18.4-4.6,25.8,1C103.4,26.4,102.2,25,102.1,23.9z"/>
		<path class="st7" d="M223.7,181.1c-0.2,8.9-1.8,24.5-7.3,39.4c-5.8,15.9-14.8,29.9-28.6,40.4c-7.5,5.7-15.4,10.6-24.2,14
			c-26.1,9.9-52.6,11.5-79.4,2.5c-9.3-3.1-18.4-6.7-26.4-12.5c-14.3-10.4-25.5-23.2-32.1-40.1c-4.5-11.5-6.5-23.2-8.1-35.3
			c-2-15.2-0.6-30.1,2.6-45c1.9-8.9,5.3-17.3,9.2-25.6c6.3-13.4,13.2-26.5,22.4-38.2c5.1-6.5,10.9-12.5,17.3-17.8
			c1.3-1,2.2-1.3,3.7,0.1c5,4.8,11.5,5.1,18,5.4c11,0.4,21.7-1.4,32.5-2.9c4.2-0.6,8.8,0.8,13.1,1.4c10,1.3,19.9,2.7,30,1.1
			c2.2-0.3,4.3-1,6.2-2c1.3-0.8,2-0.5,3,0.5c11.5,11.3,21.1,24.3,28.4,38.7c4.5,8.8,9.1,17.5,12.5,26.8
			C221.5,145.6,223.9,159.7,223.7,181.1z"/>
	</g>
</g>
<path class="st1" d="M149.3,404.3c21.3-3.4,41.6-11.6,59.7-23.3c5.4-3.5,10.7-7.3,15.7-11.3"/>
<path class="st1" d="M13.5,367.4C36,382,61,394,87.8,400.9"/>
<path class="st6" d="M93,64.2c-2.9,0.4-6.2-0.3-9.5-0.6c-3.9-0.4-7.4-2.5-9.7-5.6c-7-9-6.4-18.2,1.4-26c6.3-6.4,16.5-6.9,23.5-1.3
	c2,1.6,4,3.1,6.6,1.3c2.2-1.5,2.6-4.1,1.7-7.2c-1.2-4,0.2-7.9,2.2-11.2c4.9-8.1,14.3-11.1,23.1-8c6.4,2.3,14.1,12.8,11.1,20.4
	c-0.7,1.6-0.3,3.5,1.1,4.6c1.6,1.3,3.8,1.5,5.6,0.4c3.1-1.9,6.3-3.7,10-4c5.3-0.6,10.7,1.2,14.4,5c5.4,5.2,7,11.4,5.4,18.6
	c-1.3,5.9-7.4,12-13.2,12.9c-8.4,1.4-16.7,0.4-25.1-0.2c-6.9-0.5-13.5-2.8-20.5-2c-4.2,0.5-8.3,1.7-12.5,2
	C103.6,63.5,98.6,64.4,93,64.2z"/>
</svg>
