<?xml version="1.0" encoding="utf-8"?>
<!-- Generator: Adobe Illustrator 22.1.0, SVG Export Plug-In . SVG Version: 6.00 Build 0)  -->
<svg version="1.1" id="圖層_1" xmlns="http://www.w3.org/2000/svg" xmlns:xlink="http://www.w3.org/1999/xlink" x="0px" y="0px"
	 viewBox="0 0 244 48" style="enable-background:new 0 0 244 48;" xml:space="preserve">
<style type="text/css">
	.st0{fill:#BB7232;}
	.st1{fill:#EAAE07;}
	.st2{fill:#F9F3DC;}
	.st3{fill:#5B3824;}
	.st4{fill:#FFFFFF;}
</style>
<g>
	<polygon class="st0" points="243.5,45.1 19.6,45.1 19.6,6.8 243.5,6.8 223.3,25.9 	"/>
	<g>
		<g>
			<g>
				<g>
					<ellipse class="st1" cx="17.8" cy="18.3" rx="17.8" ry="18"/>
					<polygon class="st1" points="17.8,48 2.1,26.7 33.4,26.7 					"/>
				</g>
				<ellipse class="st2" cx="17.8" cy="18.3" rx="13.8" ry="14"/>
			</g>
		</g>
		<path class="st1" d="M15.3,14.7l2.4-2.5c0.1-0.1,0.2-0.1,0.2,0l2.4,2.5c0.1,0.1,0,0.3-0.1,0.3h-4.8C15.3,15,15.2,14.8,15.3,14.7z"
			/>
		<path class="st1" d="M15.9,15.6h3.8c0.2,0,0.3,0.3,0.2,0.3L18,18c-0.1,0.1-0.2,0.1-0.3,0l-1.9-2C15.6,15.9,15.7,15.6,15.9,15.6z"
			/>
		<ellipse class="st3" cx="23.7" cy="10.2" rx="1" ry="1"/>
		<ellipse class="st3" cx="11.8" cy="10.2" rx="1" ry="1"/>
	</g>
</g>
<g>
	<path class="st4" d="M46.3,33.2c-1.1,0-2-0.9-2-2V19c0-1.1,0.9-2,2-2H50c1.1,0,2,0.9,2,2v12.1c0,1.1-0.9,2-2,2H46.3z M47.2,19.4
		c-0.3,0-0.5,0.3-0.5,0.5v10.3c0,0.3,0.3,0.5,0.5,0.5h1.8c0.3,0,0.5-0.2,0.5-0.5V19.9c0-0.3-0.2-0.5-0.5-0.5H47.2z M57.8,20.7
		c-0.3,0-0.6,0.2-0.7,0.5l-0.8,2.1c-0.3,0.7-1,1.2-1.7,1.2c-0.6,0-1.1-0.6-0.9-1.2l2.2-6.1c0.3-0.7,1-1.2,1.7-1.2
		c0.6,0,1.1,0.6,0.8,1.2l-0.2,0.6c-0.1,0.3,0.1,0.5,0.3,0.5h8.3c0.7,0,1.2,0.5,1.2,1.2c0,0.6-0.5,1.2-1.2,1.2H57.8z M57.7,34.9
		c0,0.3,0.3,0.5,0.6,0.5h8.8c0.7,0,1.2,0.6,1.2,1.2c0,0.7-0.6,1.2-1.2,1.2h-9.8c-1.1,0-2-0.9-2-2v-1c0-1.3,0.6-2.5,1.5-3.4l6.6-5.7
		c0.1-0.1,0.1-0.3-0.1-0.3h-5c-0.7,0-1.2-0.6-1.2-1.2c0-0.7,0.5-1.2,1.2-1.2H65c0.9,0,1.6,0.7,1.6,1.6c0,1-0.4,2-1.2,2.6l-7.3,6.3
		c-0.3,0.2-0.4,0.6-0.4,0.9V34.9z"/>
	<path class="st4" d="M76.5,16.2c0.3-0.7,1.1-1.2,1.9-1.2c0.6,0,1,0.6,0.8,1.2l-1.7,3.9c-0.2,0.3-0.2,0.7-0.2,1v16.6
		c0,0.7-0.6,1.2-1.2,1.2s-1.2-0.6-1.2-1.2V26.3c0,0,0,0,0,0c-0.1,0.2-0.3,0.3-0.5,0.3h-1c-0.6,0-1-0.6-0.8-1.2L76.5,16.2z
		 M95.3,23.5c0.6,0,1.2,0.5,1.2,1.2s-0.5,1.2-1.2,1.2h-5c-0.3,0-0.5,0.2-0.5,0.5v11.1c0,0.7-0.6,1.2-1.2,1.2c-0.7,0-1.2-0.6-1.2-1.2
		V26.4c0-0.3-0.2-0.5-0.5-0.5h-4.9c-0.7,0-1.2-0.5-1.2-1.2s0.5-1.2,1.2-1.2h4.9c0.3,0,0.5-0.3,0.5-0.6V16c0-0.7,0.6-1.2,1.2-1.2
		c0.7,0,1.2,0.6,1.2,1.2v6.9c0,0.3,0.3,0.6,0.5,0.6H95.3z"/>
	<path class="st4" d="M122.2,16c0.6,0,1.1,0.5,1.1,1.1c0,0.6-0.5,1.1-1.1,1.1h-17.6c-0.3,0-0.6,0.3-0.6,0.5v5.5L103,37.6
		c-0.1,0.6-0.6,1.1-1.2,1.1c-0.6,0-1.1-0.5-1-1.1l1.2-13.5v-6c0-1.1,0.9-2,2-2h7.9c0.2,0,0.3-0.1,0.3-0.3v0c0-0.6,0.5-1.1,1.1-1.1
		c0.6,0,1.1,0.5,1.1,1.1v0c0,0.2,0.1,0.3,0.3,0.3H122.2z M106.6,28.3c-0.1,0.5-0.6,0.9-1.1,0.9c-0.5,0-0.8-0.4-0.7-0.9l0.8-3.9
		c0.1-0.5,0.6-0.9,1.1-0.9c0.5,0,0.8,0.4,0.8,0.9L106.6,28.3z M111.9,20.6c0.5,0,0.9,0.4,0.9,0.9c0,0.5-0.4,0.9-0.9,0.9h-1.5
		c-0.3,0-0.6,0.3-0.6,0.6v5.3c0,0.5-0.4,0.9-0.9,0.9c-0.5,0-0.9-0.4-0.9-0.9V23c0-0.3-0.3-0.6-0.6-0.6h-1.7c-0.5,0-0.9-0.4-0.9-0.9
		c0-0.5,0.4-0.9,0.9-0.9h1.9c0.2,0,0.4-0.2,0.4-0.4v-0.4c0-0.5,0.4-0.9,0.9-0.9c0.5,0,0.9,0.4,0.9,0.9v0.4c0,0.2,0.2,0.4,0.4,0.4
		H111.9z M120.5,38c-0.1-0.1-0.2-0.2-0.4-0.2l-13.1,1c-0.6,0-0.9-0.8-0.4-1.1l2.1-1.7c0.2-0.2,0.2-0.5,0-0.7l-0.6-0.6
		c-0.8-0.8-0.7-2,0.1-2.8l0.5-0.4c0.8-0.6,1.7-1,2.6-1c0.4,0,0.7,0.7,0.4,1L110,33c-0.2,0.2-0.2,0.5,0,0.7l0.3,0.3
		c0.2,0.2,0.6,0.2,0.8,0l2-1.6c0.8-0.6,1.8-1,2.8-1c0.4,0,0.7,0.7,0.3,1l-4.6,3.7c-0.1,0.1-0.1,0.3,0.1,0.3l7.2-0.5
		c0.2,0,0.3-0.2,0.2-0.4l-0.2-0.4c-0.3-0.4,0.1-1,0.6-1c0.7,0,1.4,0.4,1.8,1l1.6,2.7c0.3,0.4-0.1,1-0.6,1h-0.2
		C121.4,38.9,120.8,38.5,120.5,38z M112.6,27.6c0,0.5-0.4,0.9-0.9,0.9s-0.9-0.4-0.9-0.9v-3.3c0-0.5,0.4-0.9,0.9-0.9s0.9,0.4,0.9,0.9
		V27.6z M116.3,28.3c-0.1,0.5-0.6,0.9-1.1,0.9c-0.5,0-0.9-0.4-0.8-0.9l0.7-3.5c0.1-0.5,0.6-0.9,1.1-0.9c0.5,0,0.9,0.4,0.8,0.9
		L116.3,28.3z M119.4,28.4c0,0.5-0.4,0.9-0.9,0.9s-0.9-0.4-0.9-0.9V23c0-0.3-0.3-0.6-0.6-0.6h-1.6c-0.5,0-0.9-0.4-0.9-0.9
		c0-0.5,0.4-0.9,0.9-0.9h1.7c0.2,0,0.4-0.2,0.4-0.4v-0.4c0-0.5,0.4-0.9,0.9-0.9s0.9,0.4,0.9,0.9v0.4c0,0.2,0.2,0.4,0.4,0.4h2.9
		c0.5,0,0.9,0.4,0.9,0.9c0,0.5-0.4,0.9-0.9,0.9H120c-0.3,0-0.6,0.3-0.6,0.6V28.4z M122.1,26.9c0,0.3,0.2,0.4,0.4,0.4h0.7
		c0.5,0,1,0.4,1,0.9s-0.4,0.9-1,0.9h-1c-1.1,0-2-0.9-2-2v-3c0-0.5,0.4-0.9,0.9-0.9c0.5,0,0.9,0.4,0.9,0.9V26.9z"/>
	<path class="st4" d="M129.7,31.8c-0.6,0-1.1-0.6-0.9-1.2l2.2-8c0.2-0.7,0.9-1.2,1.6-1.2c0.6,0,1.1,0.6,0.9,1.2l-2.2,8
		C131.1,31.4,130.4,31.8,129.7,31.8z M140.4,37.5c-0.6,0-1.2-0.6-1.2-1.2V16.5c0-0.6,0.6-1.2,1.2-1.2c0.7,0,1.2,0.6,1.2,1.2v19.8
		C141.6,36.9,141,37.5,140.4,37.5z M148.1,21.5c0.8,0,1.4,0.5,1.6,1.2l2.3,7.9c0.2,0.6-0.3,1.2-0.9,1.2c-0.8,0-1.4-0.5-1.6-1.2
		l-2.3-7.9C147,22.1,147.5,21.5,148.1,21.5z"/>
	<path class="st4" d="M162.3,33.3c0,0.3,0.1,0.7,0.4,1l1.5,1.5c0.3,0.3,0.6,0.4,1,0.4h14.4c0.6,0,1.1,0.5,1.1,1.1
		c0,0.6-0.5,1.1-1.1,1.1h-13.9c-1.3,0-2.5-0.5-3.5-1.4l-0.8-0.8c-0.3-0.2-0.6-0.3-0.9-0.1l-2.7,2c-0.5,0.4-1.1,0-1.1-0.6
		c0-0.9,0.4-1.8,1.2-2.4l1.6-1.2c0.3-0.2,0.4-0.6,0.4-0.9v-5.5c0-0.3-0.3-0.6-0.6-0.6h-1.5c-0.6,0-1.1-0.5-1.1-1.1
		c0-0.6,0.5-1.1,1.1-1.1h2.4c1.1,0,2,0.9,2,2V33.3z M161,20.2c0.2,0.6-0.3,1.2-0.8,1.2c-0.8,0-1.4-0.5-1.7-1.2l-0.3-0.8
		c-0.2-0.6,0.3-1.2,0.9-1.2c0.8,0,1.4,0.5,1.7,1.2L161,20.2z M165.3,32.1c-0.6,0-1-0.4-1-1l1.1-11.1c0-0.3-0.2-0.5-0.4-0.5h-0.6
		c-0.6,0-1-0.4-1-1c0-0.6,0.4-1,1-1h0.9c0.3,0,0.5-0.3,0.5-0.5v-1.1c0-0.6,0.5-1.1,1.1-1.1c0.6,0,1.1,0.5,1.1,1.1v1.1
		c0,0.3,0.3,0.6,0.6,0.6h1.3c0.6,0,1,0.4,1,1c0,0.6-0.4,1-1,1H168c-0.3,0-0.6,0.3-0.6,0.6l-0.1,1.2c0,0.3,0.3,0.6,0.5,0.6h1.2
		c1.1,0,2,0.9,2,2l-0.3,9.3c0,0.6-0.5,1-1.1,1c-0.6,0-1-0.5-1-1l0.3-8.7c0-0.3-0.3-0.6-0.6-0.6h-0.7c-0.3,0-0.6,0.3-0.6,0.6
		l-0.6,6.7C166.3,31.7,165.8,32.1,165.3,32.1z M174.2,16.7c-0.1,0.2,0.1,0.4,0.3,0.4h5.1c0.6,0,1,0.4,1,1c0,0.6-0.4,1-1,1h-5.8
		c-0.2,0-0.4,0.1-0.4,0.3l0,0.1c-0.2,0.6-0.7,1-1.3,1c-0.5,0-0.9-0.5-0.8-1l0.9-3.4c0.1-0.6,0.7-1,1.3-1c0.5,0,0.9,0.5,0.7,1
		L174.2,16.7z M175.4,26.6c0.2,0,0.3-0.1,0.3-0.3c0-0.6,0.1-1.3,0.3-1.9l0.4-1.1c0.1-0.3-0.1-0.5-0.4-0.5h-1.8c-0.6,0-1-0.4-1-1
		c0-0.6,0.4-1,1-1h3.1c1,0,1.6,1,1.3,1.9l-1,2.5c-0.1,0.3-0.2,0.6-0.2,0.9c0,0.3,0.2,0.5,0.5,0.5h1.4c0.6,0,1.1,0.4,1.1,1.1
		c0,0.6-0.5,1.1-1.1,1.1h-1.3c-0.3,0-0.6,0.3-0.6,0.6V34c0,0.5-0.4,1-1,1c-0.5,0-0.9-0.4-0.9-1v-4.7c0-0.3-0.3-0.6-0.6-0.6h-1.9
		c-0.6,0-1.1-0.4-1.1-1.1c0-0.6,0.5-1.1,1.1-1.1H175.4z"/>
	<path class="st4" d="M192.7,17.5c-0.2,0-0.4,0.2-0.4,0.4c0,0.2,0.2,0.4,0.4,0.4h4.5c0.8,0,1.4,0.6,1.2,1.5l-0.1,0.5
		c-0.1,0.5-0.5,1-1.1,1h-0.3c-0.4,0-0.6-0.3-0.6-0.7c0-0.1-0.1-0.3-0.3-0.3h-3.7c-0.3,0-0.6,0.3-0.6,0.6V21c0,0.3,0.3,0.6,0.6,0.6
		l2-0.2c0.5-0.1,0.8,0.3,0.8,0.8c0,0.5-0.3,0.9-0.8,1l-2.4,0.2c-0.2,0-0.3,0.2-0.3,0.3c0,0.1,0.2,0.3,0.3,0.3h4.9
		c0.5,0,0.9,0.3,0.9,0.8c0,0.5-0.3,0.8-0.9,0.8h-5.3c-0.9,0-1.5-0.6-1.5-1.5V24c0-0.2-0.3-0.4-0.4-0.4l-0.5,0.1
		c-0.5,0-0.9-0.3-0.9-0.8c0-0.5,0.3-0.9,0.9-1l0.5-0.1c0.3,0,0.4-0.3,0.4-0.5v-0.4c0-0.3-0.3-0.6-0.6-0.6h-1.6
		c-0.3,0-0.6,0.3-0.6,0.6v2.5l-0.7,14.3c0,0.6-0.4,1-1,1c-0.6,0-1-0.4-0.9-1l0.6-14.3v-3c0-1.2,0.8-2,1.9-2h2.5
		c0.3,0,0.6-0.3,0.6-0.6v-2c0-0.6,0.4-1,1-1h0.4c0.4,0,0.6,0.2,0.6,0.6c0,0.1,0.2,0.3,0.3,0.3h3.6c0.6,0,1,0.4,1,1c0,0.6-0.4,1-1,1
		H192.7z M196.1,34c0.5,0,0.8,0.4,0.6,0.9c0,0.1,0.1,0.3,0.3,0.3l0,0c0.6-0.1,1,0.3,1,0.8c0,0.6-0.4,1.1-1,1.2l-8.1,1.3
		c-0.6,0.1-1-0.3-1-0.9c0-0.6,0.4-1.1,1-1.1l0.5-0.1c0.3-0.1,0.4-0.3,0.3-0.5l-0.1-0.5c-0.2-0.5,0.2-1,0.7-1c0.7,0,1.2,0.4,1.4,1
		l0.1,0.2c0.1,0.3,0.3,0.4,0.5,0.3l1.8-0.3c0.2,0,0.4-0.2,0.5-0.4l0.1-0.2C194.9,34.4,195.4,34,196.1,34L196.1,34z M189,27.9
		c-0.5,0-0.8-0.3-0.8-0.8c0-0.5,0.3-0.8,0.8-0.8h8.7c0.5,0,0.8,0.3,0.8,0.8c0,0.5-0.3,0.8-0.8,0.8H189z M195.6,29c1.1,0,2,0.9,2,2
		v0.4c0,1.1-0.9,2-2,2H191c-1.1,0-2-0.8-2-2V31c0-1.1,0.9-2,2-2H195.6z M195.4,31.8c0.3,0,0.6-0.3,0.6-0.6v-0.1
		c0-0.3-0.3-0.6-0.6-0.6h-4.2c-0.3,0-0.6,0.3-0.6,0.6v0.1c0,0.3,0.3,0.6,0.6,0.6H195.4z M202,14.9c0.6,0,1,0.4,1,1v5
		c0,0.3,0.3,0.6,0.7,0.6l3.1-0.4c0.6-0.1,1,0.3,1,0.9c0,0.7-0.4,1.1-1,1.2l-2.9,0.4c-0.4,0-0.6,0.4-0.5,0.7l0.7,2.6
		c0,0.2,0.3,0.2,0.4,0c0.3-0.6,0.9-1.1,1.7-1.1c0.5,0,0.9,0.5,0.6,1.1l-1.5,3.3c-0.1,0.3-0.2,0.7-0.1,1L207,38c0.1,0.6-0.2,1-0.8,1
		c-0.7,0-1.2-0.5-1.4-1l-0.9-3.4c-0.1-0.3-0.4-0.3-0.5,0l-1.5,3c-0.3,0.6-0.9,1.1-1.7,1.1c-0.5,0-0.9-0.5-0.6-1.1l2.9-6.6
		c0.1-0.3,0.2-0.7,0.1-1l-1.4-5.4c-0.1-0.3-0.4-0.5-0.6-0.4l-0.5,0.1c-0.6,0.1-1.1-0.3-1.1-0.9c0-0.7,0.4-1.1,1.1-1.2l0.3,0
		c0.3,0,0.5-0.3,0.5-0.5V16C201,15.4,201.4,14.9,202,14.9z M207.5,18.1c0.2,0.6-0.3,1.2-0.9,1.2c-0.7,0-1.3-0.5-1.6-1.2l-0.3-1
		c-0.2-0.6,0.3-1.1,0.8-1.1c0.7,0,1.3,0.5,1.6,1.1L207.5,18.1z"/>
</g>
</svg>
