<?xml version="1.0" encoding="utf-8"?>
<!-- Generator: Adobe Illustrator 22.1.0, SVG Export Plug-In . SVG Version: 6.00 Build 0)  -->
<svg version="1.1" id="圖層_1" xmlns="http://www.w3.org/2000/svg" xmlns:xlink="http://www.w3.org/1999/xlink" x="0px" y="0px"
	 viewBox="0 0 300 300" style="enable-background:new 0 0 300 300;" xml:space="preserve">
<style type="text/css">
	.st0{fill:#EFECE1;}
	.st1{fill:#FEFDF2;}
	.st2{fill:#9A5E09;}
	.st3{fill:#F2F1EA;}
	.st4{fill:#F5F4EC;}
	.st5{fill:#F5F4EB;}
	.st6{fill:#FDFCF1;}
	.st7{fill:#F2F1E7;}
	.st8{fill:#EEEDE3;}
	.st9{fill:#AB7932;}
	.st10{fill:#AB7831;}
</style>
<g>
	<g>
		<path class="st0" d="M161.6,300c30.3-0.5,66.2-15,95.3-44.8c29.3-30,43.6-66.4,42.6-108.4c-1-40.3-16.1-74.8-44.9-102.9
			c-30-29.3-66.5-43.5-108.5-42.4c-40.2,1.1-74.7,16.2-102.7,45C14.1,76.6,0,113.2,1.1,155.2C2.9,233.4,67.4,300.1,161.6,300z"/>
		<path class="st1" d="M256.5,242.9c2.5-2.1,4.3-4.8,6.2-7.4c9-12.2,16-25.6,20.7-40c2.9-8.8,4.7-17.9,5.8-27.2
			c1-7.9,1-15.9,0.7-23.8c-0.3-7.7-1.5-15.3-3.1-22.8c-0.4-2-1.2-2.6-3-1.6c-0.4,0.2-0.8,0.1-1.3,0.2c-7.1,1.3-13.5,3.9-17.4,10.5
			c-0.6,0.9-1.1,1.9-1.7,2.8c-1.4,2.4-1.8,2.6-4.5,1.6c-3.5-1.3-6.8-3.1-10.1-4.9c-2.8-1.5-5.7-2.9-8.5-4.3c-2.9-1.4-5.6-1.1-8.1,1
			c-0.6,0.5-1.3,0.9-1.9,1.4c-5.8,4.6-12.3,5.3-19.3,3.7c-5-1.1-9.7-2.9-14.4-4.8c-5.4-2.1-10.9-3.8-16.8-4
			c-6-0.2-11.2,1.6-15.4,5.8c-3.9,3.9-8.4,5-13.7,3.5c-8.8-2.5-17.9-3.2-27.1-3.2c-12.3,0-24.6,0.7-36.9,0.4
			c-2.2-0.1-3.9,0.9-5.5,2.2c-2.4,1.8-4.7,3.7-6.7,5.8c-5.9,6-12.3,11.6-18.2,17.7c-1.9,1.9-4,3.5-6,5.3c-2.2,2-4.7,2.1-7.3,1.1
			c-4.6-1.8-8.5-4.6-11.8-8.3c-2.2-2.5-4.2-5.2-6.9-7.2c-3.6-2.7-8.3-1.7-11,2.4c-0.3,3.7,0.7,7.2,1.3,10.8c0.1,0.5,0.3,0.9,0.3,1.3
			c0.5,3.1,1.9,5.7,3.4,8.4c1.3,2.5,1.7,5,1.2,7.8c-1,5,0.9,9.2,3.4,13.3c1.1,1.8,2.4,3.6,3.6,5.4c1.8,2.7,3.4,5.4,4.2,8.5
			c1.6,6.3,4.4,11.9,9.2,16.4c4.5,4.2,6.8,9.8,9.8,15c0.9,1.6,1.5,3.3,2.6,4.8c0.9,1.2,4.3,1.9,5.5,1c0.8-0.6,0.5-1.6,0.4-2.4
			c-0.8-4-2-8-2.6-12.1c-0.1-1-0.5-2,0.2-3.1c1.3,1.1,1.6,2.6,2,4c0.8,2.7,1.4,5.5,2.3,8.2c0.8,2.6,2,5.1,4.3,6.9
			c0.9,0.7,1.4,1.9,1.8,2.9c1.1,2.7,2.4,5.3,5.1,6.8c0.7,0.4,1.1,1,1.4,1.6c1.8,5.1,5.9,8,10.5,10.1c6.4,2.8,11.7,7.1,16.6,12
			c1.1,1.1,2.5,2,3.6,3.1c1.2,0.8,2.3,1.8,3.5,2.5c5.5,3.3,11.4,4.7,17.8,4.4c1.4,0,2.7-0.1,4.1,0.1c2.4,0,4.7-0.5,7.1-0.6
			c7.4-0.4,14.5,0.8,21.8,1.8c4.3,0.6,8.2-0.5,11.7-2.9c3.5-2.4,6.9-4.8,11.3-5.2c2.7-0.3,5.3-0.7,8-0.7c7.6,0.1,14.7-2,21.5-5.2
			c8.9-4.2,16.7-10,24.9-15.4c2.1-1.4,4.2-2.8,6.3-4.3c3.3-2.7,7-4.8,10.4-7.3C253,245.7,254.7,244.3,256.5,242.9z"/>
		<path class="st2" d="M13.5,148.6c4-4.3,7.7-4.5,12-0.5c3.2,3,5.4,6.8,8.9,9.5c2.7,2.1,5.5,4,8.8,5c2.6,0.8,4.9,0.5,7.1-1.3
			c5.9-4.9,11.2-10.5,16.7-15.8c4.4-4.3,8.8-8.6,13.5-12.6c2.2-1.8,4.5-2.7,7.5-2.7c13.1,0,26.2-0.2,39.3-0.3c7.7,0,15.3,0.8,22.7,3
			c5.6,1.7,10.5,0.7,14.7-3.6c6.5-6.6,14.4-6.5,22.6-4.5c6.1,1.5,11.7,4.3,17.6,6.1c5.4,1.7,10.9,3,16.6,2c3.5-0.6,6.6-2,9.1-4.4
			c3.8-3.5,7.5-3.5,11.8-1c4.4,2.5,8.9,4.7,13.4,7c0.6,0.3,1.2,0.5,1.8,0.8c4.2,1.7,4.7,1.6,6.7-2.3c3.1-6,8-9.7,14.6-11.4
			c1.3-0.3,2.5-0.8,3.6-1.4c1.1-1.1,4.6,4.7,4.8,3.5c0.3-1.5-2.7-10.1-3.3-11.9C268.9,62.6,228.2,25.6,177.6,16
			c-43.6-8.3-82.4,2.7-115.8,31.7c-25.9,22.5-41.7,51-48,84.8c-1.1,5.8-1.8,11.7-1.9,17.7C13.2,150.6,12.9,149.1,13.5,148.6z"/>
		<path class="st3" d="M106.1,281.6c-0.9-0.9-1.8-1.8-3-2.2c0.3,2.1,0.3,2.1-1.8,1.5c-0.6-0.2-1.1-0.3-1.7-0.5
			c-0.2-0.1-0.4-0.1-0.5-0.2c-1-0.4-2.1-0.6-2.9-1.4c-1.1-0.9-2.5-1.1-3.7-1.7c-6.4-3.1-12.6-6.5-18.4-10.6
			c-9.7-6.9-18.9-14.5-26.7-23.7c-6.7-7.9-12.7-16.3-17.7-25.4c-4.2-7.5-7.2-15.6-9.9-23.8c-2.4-7.4-3.7-15-5.3-22.6
			c-0.4-0.9-0.2-1.9-0.3-2.9c0-0.2-0.1-0.4-0.1-0.6c-0.4-1.5-0.1-3-0.3-4.5c-0.1-1.3,1.1-1.6,1.6-2.4c0-0.4-0.1-0.7-0.4-0.9
			c-0.4-0.6-0.9-1.2-1.7-0.9c-0.8,0.3-0.8,1-0.9,1.7c-0.2,1.3,0.5,2.6,0,4c0.5,8.1,2,16,4.1,23.8c4.8,18.1,13,34.5,24.4,49.3
			c3.5,4.5,7.2,8.8,11.3,12.8c9.6,9.5,20.3,17.7,32.3,24.2c5.7,3.1,11.6,5.6,17.5,8c1.1-0.4,2,0.5,3.1,0.5
			C106.2,283.4,106.7,282.9,106.1,281.6z"/>
		<path class="st1" d="M126.9,289.4c3,1.1,6.1,1.4,9.2,1.7c7.6,0.7,15.3,0.9,22.9,0.4c17.4-1,34.1-5.2,50-12.5
			c10.2-4.7,19.5-10.6,28.3-17.4c3.4-2.6,6.9-5.3,9.5-8.7c-0.4-0.5-1-0.5-1.5-0.3c-2,1.2-3.4,3.1-5,4.7c-2,1.9-4.1,3.8-6.5,5.2
			c-3.2,1.9-6.1,4.1-9.2,6.1c-8.1,5.3-16.8,9.3-25.8,12.8c-7,2.8-14.4,4.4-21.6,6.4c-11.7,2.5-23.6,2.5-35.5,2.3
			c-0.5,0-1-0.1-1.5-0.3c-1.5-0.5-3.1-0.7-4.7-0.6c-2.2,0.2-4.4-0.3-6.5-0.8c-1.2-0.3-2-1-2.2-2.2c-0.8-0.1-1.6-0.1-2.3,0
			c-0.7,0-1.6-0.3-1.7,0.8c-0.1,0.9,0.5,1.3,1.3,1.7C125,289,126.1,288.9,126.9,289.4z"/>
		<path class="st4" d="M126.9,289.4c-0.6-1.1-1.8-0.6-2.6-1.1c-0.6-0.3-1.3-0.5-1.1-1.3c0.1-0.8,0.9-0.6,1.4-0.6c0.8,0,1.6,0,2.4,0
			c0.4,0.4,0.9,0.4,1.3,0c-0.3-0.1-0.6-0.4-0.9-0.4c-7.5,0.4-14.6-0.8-21.2-4.4c0.1,1.2-0.3,1.6-1.6,1.4c-0.9-0.1-1.8-1.1-2.7-0.1
			c6.7,2.1,13.4,4.6,20.3,5.8C123.7,289,125.3,289.2,126.9,289.4z"/>
		<path class="st1" d="M256.5,242.9c-3.7,1.9-6.7,4.6-10.1,6.8c-1.9,1.3-4,2.2-5.5,4.1c1.6,0.6,2.6-1.2,4-1.2c1.1-0.8,2.6-0.4,3.8-1
			C251.2,248.6,254.3,246.2,256.5,242.9z"/>
		<path class="st5" d="M12.2,164.7c0.9-1.1,0.4-2.3,0.4-3.5c0-2,0.6-2.3,2.2-1.3c-0.2-3.8-1.5-7.4-1.3-11.2c-0.6,0.5-1.1,1-1.7,1.5
			c0,3.4,0,6.8,0,10.2c0.6,1-0.1,2.1,0.4,3C12.2,163.8,12.2,164.2,12.2,164.7z"/>
		<path class="st6" d="M247.5,251.6c-1.4-0.1-2.9-0.6-3.9,0.9c-0.1,0.4,0,0.6,0.4,0.4c0.6,0,1.2,0,1.7,0
			C246.7,252.9,247.5,252.7,247.5,251.6z"/>
		<path class="st7" d="M12.2,163.4c-0.2-1,0.4-2.1-0.4-3C11.9,161.3,11.4,162.4,12.2,163.4z"/>
		<path class="st8" d="M97.1,253.3c3.9,3.1,7.8,6,11.9,8.5c2.3,1.4,4.6,2.7,7.2,3.6c1.5,0.5,2.9,0.3,4.3-0.5
			c4.7-2.5,9.5-4.8,14.9-5.7c3.3-0.6,6.3,0.5,9.2,1.7c3.5,1.5,7,3,10.8,3.9c2.4,0.6,4.7,0.4,6.8-1.2c4-2.9,8.6-4.1,13.4-4.5
			c3-0.2,5.4-1.3,7.7-3c2.1-1.6,4.3-3,5.9-5.2c-1.8,0.9-3.6,1.9-5.5,2.8c-2.4,1.2-4.9,1.4-7.5,0.4c-2.7-1-5.3,0-7.7,1.2
			c-3.5,1.7-7,3.5-10.5,5.2c-2.6,1.3-5.1,0.9-6.9-1.2c-5.6-6.2-12.4-5.9-19.5-3.9c-3.9,1.1-7.6,2.7-11.2,4.6c-2.1,1.1-4,1.2-6.2,0.4
			c-5.4-1.9-10.5-4.5-15.6-7C98.1,253.3,97.8,252.8,97.1,253.3z"/>
		<path class="st7" d="M99.1,280.7c0.6,0.7,1.6,0.5,2.4,0.8c0.8,0.3,1.8,1,2.5,0c0.7-1-0.8-1.3-1-2.1c-5.3-4.8-10-10.4-16.7-13.6
			c-3.9-1.8-7.8-3.8-10.9-6.9c-0.5-0.5-1-1.1-1.3-1.7c-1.2-2.4-2.3-4.9-4.9-6.3c-1.8-1-2.3-3.1-3-4.9c-0.7-1.6-1.5-3-2.9-4.2
			c-1.5-1.2-2.3-3.1-2.9-5c-1.2-3.9-2.3-7.7-3.5-11.6c-0.1-0.5-0.4-1-0.6-1.4c-0.3-0.5-0.7-1-1.4-0.9c-0.8,0.2-0.6,0.9-0.6,1.5
			c0,4.3,1.4,8.3,2.3,12.5c0.1,0.4,0.3,0.8,0.3,1.3c0,1,1.1,2.3,0.2,2.8c-0.9,0.5-2.3,0.1-3.5,0.4c-0.6,0.2-0.9-0.6-1.2-1.1
			c-1.7-3.2-3.6-6.3-5.1-9.5c-2.3-4.8-5.4-8.9-9.1-12.5c-2.9-2.8-5-6.1-5.9-9.9c-1.6-6.4-4.8-11.9-8.4-17.2
			c-2.6-3.8-5.1-7.9-4.2-12.6c1-5-0.7-9-2.9-13.1c-0.8-1.4-1.3-3-1.5-4.7c-1.9-0.1-2.4,0.9-2.2,2.6c0.2,1.4-0.5,3,0.4,4.3
			c1.2-1.3,1.9-1.1,2.8,0.4c2.3,3.4,2.1,7.2,1.7,10.9c-0.3,2.4,0.2,4.6,1.1,6.7c1.5,3.4,3.3,6.6,5.5,9.6c2.6,3.6,4.5,7.4,5.6,11.7
			c1.4,5.4,4.1,10.1,8.1,13.9c4.2,3.9,6.6,8.9,9.3,13.8c0.9,1.7,1.7,3.5,2.7,5.2c1.1,1.9,2.7,3.2,5.1,3c1.3-0.1,2.5-0.4,3.1-1.6
			c0.6-1.1,1.2-1.2,2-0.3c1.5,1.8,3.3,3.5,4.3,5.7c1.1,2.5,2.4,4.8,4.7,6.4c0.9,0.6,1.6,1.6,2,2.5c2.1,4.9,6.2,7.9,10.8,9.8
			c6.5,2.7,11.4,7.3,16.4,11.9C100,278.5,100.2,279.5,99.1,280.7z"/>
		<path class="st1" d="M245.2,252.9c-0.1-0.1-0.3-0.3-0.4-0.4c-1.7-0.7-2.5,1.2-3.9,1.3c-4.3,2.1-7.9,5.2-11.9,7.8
			c-6.6,4.3-13,8.8-20.2,12.1c-6.5,3-13.2,4.9-20.5,4.8c-7.2-0.1-14,1.2-19.9,5.9c-3.9,3.1-8.6,3.6-13.3,2.6
			c-7.3-1.6-14.6-1.8-22-1.5c-1.6,0.1-3.3,0.1-4.9,0.8c-0.4,0-0.9,0-1.3,0c-0.6,0.8-0.9,1.3,0.3,1.9c2.5,1.2,5.2,1.6,7.9,1.6
			c0-1-1-0.9-1.6-1.1c-0.6-0.3-1.4-0.1-1.9-0.8c3.9-1.7,17.8-1,23.6,1.3c-1.1,0.5-2.3,0.5-3.4,0.5c-3.1,0-6.2,0-9.3,0
			c-0.9,0-1.9-0.2-2.7,0.6c0.6,0.7,1.5,0.4,2.2,0.4c5.4,0,10.9,0.3,16.3-0.1c6.5-0.4,13-0.8,19.3-2.5c-0.9-0.8-1.9-0.5-2.9-0.4
			c-2.2,0.4-4.4,0.7-6.6,1c-0.8,0.1-1.7,0.2-2.6-0.4c2.6-1.4,4.6-3.4,7.1-4.8c3.8-2.2,7.8-3.2,12.2-3.1c14.1,0.1,26.4-5,37.8-12.8
			c4.4-3,8.7-6,13.4-8.4c-0.3,1.5-2.6,1.8-1.9,3.7C238.4,260,242,256.7,245.2,252.9z"/>
		<path class="st8" d="M250,213.2c-0.3,0.8-0.4,1-0.4,1.1c-0.3,4.6-0.6,4.9-5.2,4.6c-0.6,0-1.1-0.2-1.7-0.3c-3-0.7-2.9-0.7-4.1,2.2
			c-0.6,1.5-1.4,3-2.3,4.4c-2,2.9-4.2,3.2-6.8,0.8c-1-0.9-2-1.9-2.9-2.9c-0.7-0.7-1.2-0.8-1.4,0.4c-0.1,0.5-0.3,1-0.4,1.4
			c-1.1,3.1-2.8,3.8-5.6,2.2c-2.3-1.3-4.5-2.9-6.5-4.6c-1.3-1.2-2.9-2-4-3.3c2.1,4,4.8,7.5,8.2,10.5c0.7,0.6,1.5,1.2,2.6,1.4
			c2.9,0.4,5.3-0.6,7.3-2.3c0.8-0.7,1.2-0.8,2-0.2c0.3,0.3,0.7,0.4,1.1,0.6c3.8,2,5,1.6,7.2-2.1c1.3-2.2,2.5-4.3,3.5-6.8
			c1.4,1.4,2.3,3,4.4,3.2c2.7,0.3,4.9-1.5,5.2-4.6C250.1,217.3,250,215.5,250,213.2z"/>
		<path class="st9" d="M164.3,19.1c-1.9-0.1-3.3,0.3-3.3,2c-0.1,1.8,1.2,2.1,2.8,2.3c14.7,1.9,28.7,6.3,42.3,12
			c8.6,3.6,16.6,8.2,23.7,14.1c5.2,4.3,9.9,9.1,14.2,14.3c3.2,3.8,6.1,7.7,8.9,11.7c0.8,1.2,1.9,1.7,3.1,0.8
			c1.4-0.9,1.2-2.2,0.4-3.4c-2.8-4.2-5.8-8.3-9.1-12.1c-5.5-6.4-11.5-12.3-18.3-17.5c-6.5-5-13.6-8.7-21.1-11.9
			c-9.2-3.9-18.6-7.2-28.3-9.6C174.4,20.6,169.2,19.6,164.3,19.1z"/>
		<path class="st10" d="M150.3,18.6c-1.5,0.2-2.4,1-2.4,2.7c0,1.6,1.2,2.7,2.8,2.5c1.6-0.2,2.5-1.1,2.4-2.8
			C152.9,19.4,151.9,18.7,150.3,18.6z"/>
		<path class="st1" d="M99.1,280.7c2.3-1,2.4-1.4,0.6-3.1c-5.2-5-10.5-9.8-17.3-12.7c-4.4-1.9-8.3-4.7-10.3-9.4
			c-0.6-1.4-1.7-2.6-3.1-3.5c-1.9-1.2-2.8-3.3-3.6-5.3c-1.1-2.7-3.2-4.6-5.1-6.6c-0.8-0.8-1.5-0.7-2,0.5c-0.9,2.2-3.6,2.8-5.7,1.3
			c-1-0.7-1.7-1.7-2.3-2.9c-2.6-5.2-5.1-10.5-8.7-15.2c-1.9-2.5-4.4-4.4-6.3-6.9c-2.7-3.6-4.1-7.8-5.3-12c-1.1-3.6-3-6.7-5-9.8
			c-2.7-4-5.6-8-6.4-12.9c-0.4-2.4-0.1-4.9,0.1-7.3c0.2-2.8-0.8-5.2-2.3-7.5c-0.5-0.7-0.8-1.8-1.8-1.7c-1.2,0.1-0.5,1.5-1.2,2.1
			c0,0.1,0,0.3,0,0.4c0.6,1-0.1,2.1,0.4,3c1.4,9.3,3.6,18.4,6.6,27.2c2.3,6.7,5,13.3,8.5,19.4c5,9,11,17.3,17.6,25.2
			c6.6,7.8,14.3,14.4,22.3,20.6c4.6,3.5,9.5,6.4,14.4,9.4c4.1,2.5,8.4,4.4,12.7,6.5C97.1,280,98.3,280,99.1,280.7z"/>
		<path class="st7" d="M99.1,280.7c-0.7-1.2-1.9-1.1-3-1.3C96.9,280.3,98.1,280.4,99.1,280.7z"/>
		<path class="st7" d="M13.9,171.2c-0.2-1,0.4-2.1-0.4-3C13.7,169.1,13.1,170.3,13.9,171.2z"/>
		<path class="st1" d="M234.3,262.9c0.3-1.6,1.8-2.2,2.7-3.3c0.3-0.4,1-0.7,0.5-1.2c-0.4-0.5-0.9-0.1-1.4,0.2
			c-3.7,2-7.3,4.1-10.7,6.5c-8.1,5.8-16.6,10.6-26.3,13c-3.3,0.8-6.6,1.2-10,1.4c-4.2,0.3-8.5-0.1-12.6,1.6
			c-2.6,1.1-5.2,2.3-7.3,4.1c-1.1,0.9-2.4,1.3-3.5,2.1c-0.5,0.4-1.4,0.8-1.1,1.6c0.3,0.7,1.1,0.4,1.8,0.5c2.7,0.1,5.3-0.6,7.9-1
			c1.2-0.2,2.3-0.2,3.4-0.3c6.1-1.4,12.2-2.7,18.1-5c3.5-1.3,7-2.6,10.4-4.1c5.4-2.4,10.7-5,15.8-8.1c3.8-2.3,7.4-5,11.1-7.5
			C233.5,263.2,233.9,263.1,234.3,262.9z"/>
		<path class="st1" d="M140,290.3c5.7-0.2,11.5,0.5,17.5-0.7c-1.9-1.9-4.2-1.7-6.2-2.1c-6.2-1.4-12.6-1.5-18.9-0.7
			c-0.8,0.1-2.1,0.1-2.1,1c0,0.9,1.3,0.9,2.1,1.2c0.9,0.3,2,0.1,2.8,0.8C136.8,289.7,138.4,290,140,290.3z"/>
		<path class="st1" d="M273.7,210.4c-0.2-0.1-0.4-0.3-0.6-0.9c-0.1-0.1-0.2-0.2-0.3-0.2c0,0,0,0-0.1-0.1c-0.6-0.3-1.2-0.7-1.8-1.1
			c-0.5-0.3-1.3-0.7-1.6-0.8c-0.8-0.3-1.6-0.6-2.5-0.9c-2-0.6-3.9-1.2-5.9-1.6c-2.3-0.5-4.7-1-7-1.3c-0.6-0.1-1.1-0.1-1.7-0.2
			c-1.1-0.1-2.2-0.2-3.3-0.3c-4.6-0.4-9.2-0.5-13.8-0.5c-3.1,0-6.1,0.3-9.2,0.5c-1,0.4-1.6,0.5-1.7,0.4c-0.1,0-0.3,0.1-0.4,0.1
			c-2.6,0.7-5.3,1.6-7.8,2.6c-6.7,2.8-15.9,8.7-23.9,11.7c-11.5,4.4-23.3,3.9-35.2,1.8c-6.8-1.2-13.6-2-20.5-2.3
			c-5.4-0.2-11.5-0.7-16.6,1.2c0.5-0.1-3.3,2-4,2.4c-2.2,1.4-4.5,2.6-6.8,3.7c-5.9,2.8-11.7,4.8-18.2,5.5c-10.2,1.1-19.4-2.6-28.4-7
			c-4.8-2.3-6.6-3.4-11.5-4.8c-5-1.4-8.5-1.7-12.6-2.2c-1.4-0.2-2.8-0.3-4.2-0.5c1.2,1.8,2.6,3.4,4.2,5c4.5,4.2,6.8,9.8,9.8,15
			c0.9,1.6,1.5,3.3,2.6,4.8c0.9,1.2,4.3,1.9,5.5,1c0.8-0.6,0.5-1.6,0.4-2.4c-0.8-4-2-8-2.6-12.1c-0.1-1-0.5-2,0.2-3.1
			c1.3,1.1,1.6,2.6,2,4c0.8,2.7,1.4,5.5,2.3,8.2c0.8,2.6,2,5.1,4.3,6.9c0.9,0.7,1.4,1.9,1.8,2.9c1.1,2.7,2.4,5.3,5.1,6.8
			c0.7,0.4,1.1,1,1.4,1.6c1.8,5.1,5.9,8,10.5,10.1c6.4,2.8,11.7,7.1,16.6,12c1.1,1.1,2.5,2,3.6,3.1c1.2,0.8,2.3,1.8,3.5,2.5
			c5.5,3.3,11.4,4.7,17.8,4.4c1.4,0,2.7-0.1,4.1,0.1c2.4,0,4.7-0.5,7.1-0.6c7.4-0.4,14.5,0.8,21.8,1.8c4.3,0.6,8.2-0.5,11.7-2.9
			c3.5-2.4,6.9-4.8,11.3-5.2c2.7-0.3,5.3-0.7,8-0.7c7.6,0.1,14.7-2,21.5-5.2c8.9-4.2,16.7-10,24.9-15.4c2.1-1.4,4.2-2.8,6.3-4.3
			c3.3-2.7,7-4.8,10.4-7.3c1.8-1.3,3.6-2.7,5.3-4.1c2.5-2.1,4.3-4.8,6.2-7.4c5.2-7.1,9.8-14.6,13.6-22.5
			C274.6,212.2,274.1,211.3,273.7,210.4z"/>
		<path class="st2" d="M19.2,177c-1,5,0.9,9.2,3.4,13.3c1.1,1.8,2.4,3.6,3.6,5.4c1.8,2.7,3.4,5.4,4.2,8.5c1.6,6.3,4.4,11.9,9.2,16.4
			c2.8,2.6,4.8,5.8,6.6,9.1c1.9,0,3.8,0,5.7-0.2c1.2-0.1,2.4-0.2,3.7-0.3c-0.1-0.8-0.3-1.5-0.4-2.3c-0.1-1-0.5-2,0.2-3.1
			c1.3,1.1,1.6,2.6,2,4c0.1,0.4,0.2,0.8,0.3,1.2c7.5-0.8,15.4-1.8,23.5-1.3c8.7,0.5,18,2.5,26.4-0.1c8.6-2.7,16.6-5.9,25.6-7.6
			c18-3.4,34.5-11.5,53.3-10.3c9.6,0.6,18.9,3.8,28.5,4c8.8,0.2,16.9-4.2,25.7-5.2c8.9-1,18.3,0.8,27-1.4c5-1.2,9.5-4.1,14-6.8
			c0.6-1.6,1.2-3.2,1.7-4.9c2.9-8.8,4.7-17.9,5.8-27.2c1-7.9,1-15.9,0.7-23.8c-0.3-7.7-1.5-15.3-3.1-22.8c-0.4-2-1.2-2.6-3-1.6
			c-0.4,0.2-0.8,0.1-1.3,0.2c-7.1,1.3-13.5,3.9-17.4,10.5c-0.6,0.9-1.1,1.9-1.7,2.8c-1.4,2.4-1.8,2.6-4.5,1.6
			c-3.5-1.3-6.8-3.1-10.1-4.9c-2.8-1.5-5.7-2.9-8.5-4.3c-2.9-1.4-5.6-1.1-8.1,1c-0.6,0.5-1.3,0.9-1.9,1.4
			c-5.8,4.6-12.3,5.3-19.3,3.7c-5-1.1-9.7-2.9-14.4-4.8c-5.4-2.1-10.9-3.8-16.8-4c-6-0.2-11.2,1.6-15.4,5.8c-3.9,3.9-8.4,5-13.7,3.5
			c-8.8-2.5-17.9-3.2-27.1-3.2c-12.3,0-24.6,0.7-36.9,0.4c-2.2-0.1-3.9,0.9-5.5,2.2c-2.4,1.8-4.7,3.7-6.7,5.8
			c-5.9,6-12.3,11.6-18.2,17.7c-1.9,1.9-4,3.5-6,5.3c-2.2,2-4.7,2.1-7.3,1.1c-4.6-1.8-8.5-4.6-11.8-8.3c-2.2-2.5-4.2-5.2-6.9-7.2
			c-3.6-2.7-8.3-1.7-11,2.4c-0.3,3.7,0.7,7.2,1.3,10.8c0.1,0.5,0.3,0.9,0.3,1.3c0.5,3.1,1.9,5.7,3.4,8.4
			C19.4,171.7,19.7,174.3,19.2,177z"/>
	</g>
</g>
</svg>
