<?xml version="1.0" encoding="utf-8"?>
<!-- Generator: Adobe Illustrator 22.1.0, SVG Export Plug-In . SVG Version: 6.00 Build 0)  -->
<svg version="1.1" id="圖層_1" xmlns="http://www.w3.org/2000/svg" xmlns:xlink="http://www.w3.org/1999/xlink" x="0px" y="0px"
	 viewBox="0 0 300 300" style="enable-background:new 0 0 300 300;" xml:space="preserve">
<style type="text/css">
	.st0{fill:#EFECE1;}
	.st1{fill:#9A5E09;}
	.st2{fill:#F3DFA3;}
	.st3{fill:#AB7932;}
	.st4{fill:#FE7E00;}
	.st5{fill:#CB9532;}
	.st6{fill:#E9A35D;}
	.st7{fill:#DC6A01;}
	.st8{fill:#AB7831;}
	.st9{fill:#D3A449;}
	.st10{fill:#D8AD56;}
	.st11{fill:#D8AC55;}
	.st12{fill:#D7AC55;}
	.st13{fill:#E5BD17;}
	.st14{fill:#EAC242;}
	.st15{fill:#903B04;}
	.st16{fill:#D08D44;}
	.st17{fill:#B34E08;}
	.st18{fill:#A24509;}
	.st19{fill:#BC823F;}
	.st20{fill:#AE4B0C;}
	.st21{fill:#B66D2C;}
	.st22{fill:#B54F0E;}
	.st23{fill:#923D06;}
	.st24{fill:#BE742F;}
	.st25{fill:#AE5714;}
	.st26{fill:#9F490E;}
	.st27{fill:#BD5309;}
	.st28{fill:#DD9448;}
	.st29{fill:#E29743;}
	.st30{fill:#9E4B0F;}
	.st31{fill:#B66C29;}
	.st32{fill:#933D05;}
	.st33{fill:#DB8E3D;}
	.st34{fill:#C27E37;}
	.st35{fill:#CD8438;}
	.st36{fill:#DD8E3C;}
	.st37{fill:#DB8B39;}
	.st38{fill:#D88433;}
	.st39{fill:#D68535;}
	.st40{fill:#D08133;}
	.st41{fill:#C77124;}
	.st42{fill:#9A450B;}
	.st43{fill:#DD8F3D;}
	.st44{fill:#B37144;}
	.st45{fill:#9D4407;}
	.st46{fill:#AA5817;}
	.st47{fill:#B0520E;}
	.st48{fill:#DB903F;}
	.st49{fill:#D78433;}
	.st50{fill:#E6AC6D;}
</style>
<g>
	<g>
		<g>
			<path class="st0" d="M1.5,145.5c-0.9-30.2,12-66.7,40.3-97.1C70.4,17.8,106.1,1.8,148,1c40.1-0.8,75.3,12.6,104.6,40
				c30.7,28.6,46.6,64.4,47.4,106.5c0.8,40.1-12.7,75.1-40.1,104.3c-28.7,30.6-64.5,46.4-106.5,47.4C75.3,300.9,5.7,239.7,1.5,145.5
				z"/>
			<path class="st1" d="M239.8,66.5c2.3,1.7,4,4.1,5.7,6.2c8.4,10.4,15,21.8,19.7,34.2c2.9,7.6,4.8,15.5,6.2,23.6
				c1.2,6.9,1.5,13.9,1.6,20.8c0.1,6.7-0.7,13.4-1.8,20.1c-0.3,1.8-0.9,2.3-2.6,1.5c-0.3-0.1-0.7-0.1-1.1-0.1
				c-6.3-0.8-12-2.9-15.7-8.5c-0.5-0.8-1.1-1.6-1.6-2.4c-1.3-2.1-1.7-2.2-4-1.2c-3,1.3-5.9,3-8.7,4.7c-2.4,1.5-4.8,2.8-7.3,4.1
				c-2.5,1.3-4.9,1.2-7.1-0.5c-0.6-0.4-1.2-0.8-1.7-1.2c-5.3-3.8-11-4.1-17.1-2.4c-4.3,1.2-8.4,3-12.4,4.8
				c-4.7,2.1-9.4,3.8-14.6,4.2c-5.2,0.5-9.8-0.9-13.7-4.5c-3.6-3.3-7.6-4-12.2-2.5c-7.6,2.6-15.6,3.5-23.6,3.9
				c-10.8,0.5-21.6,0.3-32.4,1.1c-1.9,0.1-3.5-0.6-4.9-1.7c-2.2-1.5-4.2-3.1-6.1-4.8c-5.5-5-11.3-9.7-16.7-14.8
				c-1.7-1.6-3.7-2.9-5.5-4.4c-2-1.6-4.2-1.7-6.5-0.7c-3.9,1.8-7.3,4.3-10,7.8c-1.8,2.3-3.4,4.7-5.7,6.6c-3.1,2.5-7.2,1.8-9.8-1.7
				c-0.4-3.2,0.3-6.4,0.7-9.5c0.1-0.4,0.2-0.8,0.2-1.2c0.3-2.7,1.5-5.1,2.6-7.5c1.1-2.2,1.3-4.4,0.7-6.8c-1.1-4.3,0.4-8.1,2.4-11.8
				c0.9-1.7,2-3.3,2.9-4.9c1.4-2.4,2.8-4.9,3.3-7.7c1.1-5.6,3.3-10.6,7.4-14.8c3.8-3.9,5.6-8.9,7.9-13.6c0.7-1.4,1.2-2.9,2-4.3
				c0.7-1.1,3.7-1.8,4.7-1.1c0.8,0.5,0.5,1.4,0.4,2.1c-0.5,3.6-1.4,7.1-1.8,10.7c-0.1,0.9-0.2,1.7,0.2,2.7c1.2-1,1.4-2.4,1.7-3.6
				c0.6-2.4,1-4.8,1.7-7.2c0.6-2.4,1.5-4.6,3.4-6.2c0.8-0.7,1.1-1.7,1.4-2.6c0.8-2.4,1.9-4.7,4.2-6.2c0.6-0.4,0.9-0.9,1.1-1.5
				c1.4-4.6,4.9-7.3,8.8-9.3c5.5-2.8,9.9-6.7,14-11.2c0.9-1,2.1-1.9,3-2.9c1-0.7,1.9-1.6,3-2.3c4.7-3.1,9.8-4.5,15.4-4.6
				c1.2,0,2.4,0,3.6-0.3c2.1-0.1,4.2,0.3,6.3,0.3c6.5,0.1,12.7-1.3,19-2.5c3.7-0.7,7.2,0.1,10.4,2.1c3.1,2,6.3,3.9,10.1,4.1
				c2.3,0.1,4.7,0.4,7,0.2c6.7-0.4,13,1.1,19.1,3.7c8,3.3,15.1,8.1,22.4,12.5c1.9,1.1,3.8,2.3,5.7,3.5c3,2.2,6.3,3.9,9.5,6
				C236.6,64.2,238.2,65.4,239.8,66.5z"/>
			<path class="st1" d="M30.7,159c3.7,3.6,6.9,3.6,10.5,0c2.6-2.7,4.5-6.2,7.4-8.7c2.3-1.9,4.7-3.7,7.5-4.7c2.2-0.8,4.3-0.7,6.3,0.9
				c5.4,4.1,10.2,8.7,15.3,13.1c4.1,3.5,8,7.2,12.4,10.5c2,1.5,4,2.2,6.7,2.1c11.5-0.6,23-0.9,34.4-1.4c6.7-0.3,13.4-1.4,19.8-3.6
				c4.9-1.7,9.1-1,13,2.5c5.9,5.5,12.9,5.1,20,3c5.3-1.5,10.1-4.2,15.2-6.1c4.7-1.7,9.4-3.1,14.5-2.4c3.1,0.4,5.8,1.5,8.1,3.5
				c3.4,2.9,6.7,2.8,10.4,0.4c3.7-2.4,7.6-4.5,11.5-6.7c0.5-0.3,1-0.5,1.5-0.8c3.6-1.6,4-1.6,6,1.8c3,5.2,7.4,8.2,13.2,9.4
				c1.1,0.2,2.2,0.6,3.2,1.1c0.8,0.8,3.7-2.4,3.7-1.4c-0.1,2.3-1.5,7-2,8.7C258,224,223.9,258,179.9,268.6
				c-37.9,9.1-72.3,1-102.8-23c-22.5-17.7-37.2-40.8-44.6-68.5c-1.7-6.3-2.9-12.7-3.3-19.3C29.9,157.7,29.9,157.7,30.7,159z"/>
			<path class="st1" d="M31.7,148.3c0,0.3,0,0.6-0.3,0.8c-0.3,0.6-0.7,1.1-1.5,0.9c-0.7-0.2-0.7-0.9-0.9-1.5
				c-0.2-1.2,0.4-2.3-0.2-3.5c0.1-7.1,1.1-14.1,2.6-21c3.4-16.1,10-30.8,19.4-44.2c2.9-4.1,6-8,9.3-11.7c8-8.8,17.1-16.3,27.3-22.5
				c4.8-2.9,9.9-5.4,15-7.8c1,0.3,1.8-0.5,2.7-0.5c1.2-0.1,1.7,0.3,1.2,1.5c-0.7,0.8-1.5,1.7-2.6,2c0.1-1.9,0.1-1.9-1.7-1.3
				c-0.5,0.2-1,0.3-1.4,0.5c-0.2,0.1-0.3,0.1-0.5,0.2c-0.9,0.4-1.8,0.6-2.5,1.3c-0.9,0.9-2.2,1.1-3.2,1.6c-5.5,3-10.8,6.2-15.7,10.1
				c-8.3,6.5-16,13.4-22.4,21.8C50.9,82.3,46,89.8,41.9,98c-3.3,6.8-5.7,14-7.7,21.3c-1.8,6.6-2.6,13.3-3.8,20
				c-0.3,0.8-0.1,1.7-0.2,2.5c0,0.2,0,0.4-0.1,0.6c-0.3,1.3,0,2.6,0,4C30.2,147.4,31.2,147.7,31.7,148.3z"/>
			<path class="st1" d="M124.4,31c2.6-1.1,5.3-1.4,8-1.8c6.7-1,13.4-1.4,20.1-1.3c15.3,0.2,30.1,3.1,44.3,8.9
				c9.1,3.7,17.5,8.5,25.5,14.1c3.1,2.2,6.2,4.3,8.7,7.3c-0.4,0.4-0.8,0.4-1.3,0.4c-1.8-1-3.1-2.6-4.6-3.9c-1.9-1.6-3.8-3.2-5.9-4.3
				c-2.9-1.5-5.5-3.4-8.3-5c-7.3-4.3-15.1-7.5-23.1-10.2c-6.3-2.1-12.8-3.3-19.2-4.7c-10.4-1.7-20.8-1.2-31.2-0.6
				c-0.4,0-0.9,0.1-1.3,0.3c-1.3,0.5-2.7,0.7-4.1,0.7c-2-0.1-3.8,0.4-5.7,1c-1,0.3-1.7,0.9-1.8,2c-0.7,0.1-1.4,0.1-2.1,0.1
				c-0.6,0-1.4,0.3-1.5-0.6c-0.1-0.8,0.4-1.2,1.1-1.5C122.7,31.5,123.7,31.5,124.4,31z"/>
			<path class="st1" d="M124.4,31c-0.4,1-1.6,0.6-2.3,1.1c-0.5,0.3-1.1,0.5-1,1.2c0.2,0.7,0.8,0.4,1.3,0.4c0.7,0,1.4-0.1,2.1-0.1
				c0.4-0.3,0.7-0.4,1.1-0.1c-0.3,0.1-0.5,0.4-0.8,0.4c-6.6-0.1-12.8,1.3-18.4,4.7c0-1-0.3-1.4-1.5-1.2c-0.8,0.1-1.5,1-2.4,0.2
				c5.8-2.1,11.5-4.5,17.6-5.9C121.5,31.5,123,31.3,124.4,31z"/>
			<path class="st1" d="M239.8,66.5c-3.3-1.5-6.1-3.7-9.2-5.6c-1.7-1-3.6-1.8-5-3.3c1.4-0.5,2.3,0.9,3.6,0.9c1,0.6,2.3,0.2,3.4,0.7
				C234.9,61.7,237.8,63.7,239.8,66.5z"/>
			<path class="st1" d="M28.9,145c0.8,0.9,0.5,2,0.5,3c0,1.7,0.6,2,2,1c0,3.3-1,6.6-0.7,9.9c-0.5-0.4-1-0.8-1.6-1.3
				c-0.2-3-0.3-5.9-0.5-8.9c0.5-0.9-0.2-1.8,0.3-2.7C28.9,145.8,28.9,145.4,28.9,145z"/>
			<path class="st1" d="M232.6,59.2c-1.2,0.2-2.5,0.7-3.5-0.6c-0.1-0.3,0-0.5,0.4-0.4c0.5,0,1,0,1.5-0.1
				C231.8,58.1,232.5,58.2,232.6,59.2z"/>
			<path class="st1" d="M29,146.1c-0.1,0.9,0.4,1.8-0.3,2.7C28.8,147.9,28.3,147,29,146.1z"/>
			<path class="st1" d="M84.8,97.5c0.7-2,2.1-3.1,3.2-4.4c2.9-3.2,6-6.3,9.5-9c1.6-1.3,3.3-1.4,5.2-0.9c3.9,1.1,7.8,2,11.9,2.1
				c3.5,0.1,6.4-1.3,9.1-3.2c2.3-1.6,4.7-3,7-4.6c2.7-1.8,5.4-2.1,8.6-0.8c4,1.6,8.4,1.8,12.7,0.8c0.9-0.2,1.7,0.1,2.4,0.3
				c3.6,1,6.8,2.7,9.9,4.6c-1.9-0.5-3.8-1-5.8-1.5c-2.3-0.5-4.5-0.4-6.5,1.1c-2,1.5-4.4,0.9-6.6,0.4c-2.5-0.6-5-1.3-7.5-2
				c-5.2-1.4-6.6-1.1-9.6,3.4c-3.2,4.7-8,5.6-13.2,5.5c-4.4-0.1-8.7-1.2-13.1-2.2c-2.8-0.6-4.8,1.1-6.8,2.4
				C91.9,92,88.6,94.7,84.8,97.5z"/>
			<path class="st1" d="M180.4,62.2c-1.7-0.7-3.3-1.5-5-2.2c-2.1-0.9-4.3-0.9-6.4,0c-2.4,1-4.7,0.2-7-0.7c-3.1-1.3-6.2-2.7-9.2-4.1
				c-2.3-1-4.5-0.7-6,1.2c-4.8,5.9-11,5.7-17.5,4.1c-3.3-0.8-6.4-2-9.5-3.4c-1.9-0.9-3.7-0.9-5.6-0.1c-4.2,1.7-8.1,4-12.1,6
				c-0.7,0.4-1.4,0.8-2.4,0.8c1.5-1.3,3.1-2.6,4.6-3.9c3.5-2.7,7-5.4,11.1-7.2c1.6-0.7,2.9-0.6,4.5,0.2c4,1.9,8.1,3.6,12.5,4.2
				c3.2,0.5,5.9-0.6,8.6-1.9c3.1-1.5,6.2-3,9.5-3.9c1.8-0.5,3.7-0.6,5.3,0.6c3.7,2.6,8,3.5,12.4,3.7c2.5,0.1,4.5,0.9,6.5,2.2
				C176.8,59.1,178.8,60.4,180.4,62.2z"/>
			<path class="st1" d="M31.7,148.3c-1.7,0.2-2.2-0.7-2-2.2c0.1-1.3-0.5-2.6,0.2-3.8c1.1,1.1,1.7,0.8,2.5-0.5c1.8-3.1,1.5-6.4,1-9.6
				c-0.3-2.1,0-4,0.7-5.9c1.2-3,2.7-5.9,4.4-8.6c2.1-3.2,3.6-6.7,4.4-10.5c1-4.8,3.2-9,6.6-12.5c3.5-3.6,5.4-8.1,7.6-12.5
				c0.8-1.5,1.3-3.2,2.1-4.7c0.9-1.7,2.3-2.9,4.4-2.9c1.1,0,2.2,0.2,2.8,1.3c0.5,0.9,1.1,1,1.7,0.2c1.3-1.7,2.8-3.2,3.5-5.2
				c0.8-2.2,1.9-4.3,3.9-5.8c0.8-0.6,1.3-1.4,1.6-2.3c1.7-4.4,5.1-7.1,9.1-9.1c5.5-2.6,9.7-6.9,13.9-11.1c1-1,1.1-1.9,0.1-2.9
				c0.5-0.6,1.4-0.5,2-0.8c0.7-0.3,1.6-0.9,2.2-0.1c0.6,0.9-0.7,1.2-0.8,1.9c-4.5,4.4-8.3,9.5-14.1,12.6c-3.4,1.8-6.7,3.6-9.3,6.5
				c-0.4,0.5-0.8,1-1.1,1.6c-1,2.2-1.8,4.4-4.1,5.7c-1.5,0.9-1.9,2.8-2.4,4.4c-0.5,1.5-1.2,2.7-2.4,3.8c-1.3,1.1-1.9,2.8-2.3,4.5
				c-0.9,3.4-1.7,6.9-2.6,10.3c-0.1,0.4-0.3,0.8-0.5,1.2c-0.3,0.4-0.6,0.9-1.2,0.8c-0.7-0.1-0.5-0.8-0.5-1.3
				c-0.1-3.8,0.9-7.4,1.5-11c0.1-0.4,0.2-0.7,0.2-1.1c-0.1-0.9,0.9-2.1,0.1-2.5c-0.8-0.4-2,0-3.1-0.2c-0.6-0.1-0.8,0.5-1,1
				c-1.4,2.8-2.9,5.6-4.1,8.6c-1.8,4.3-4.4,8-7.5,11.4c-2.4,2.6-4.1,5.6-4.8,8.9c-1.1,5.6-3.7,10.6-6.7,15.4
				c-2.1,3.4-4.2,7.1-3.1,11.2c1.1,4.3-0.2,7.9-2,11.6C32.2,145.4,31.8,146.8,31.7,148.3z"/>
			<path class="st1" d="M229.5,58.2c-0.1,0.1-0.2,0.3-0.4,0.4c-1.4,0.7-2.2-1-3.5-1c-3.8-1.7-7.2-4.3-10.7-6.4
				c-5.9-3.5-11.8-7.2-18.2-9.8c-5.8-2.4-11.8-3.7-18.1-3.4c-6.3,0.3-12.3-0.5-17.6-4.4c-3.5-2.6-7.7-2.8-11.8-1.7
				c-6.3,1.7-12.7,2.1-19.2,2.2c-1.4,0-2.9,0-4.3-0.5c-0.4,0-0.8,0-1.1,0.1c-0.6-0.6-0.9-1.1,0.2-1.7c2.2-1.1,4.5-1.6,6.9-1.7
				c0,0.9-0.8,0.8-1.3,1.1c-0.5,0.3-1.3,0.1-1.8,1.1c7.2,0.8,14.1-0.1,21-2.3c-1.2-0.5-2.2-0.4-3.2-0.4c-2.7,0.1-5.4,0.3-8.2,0.4
				c-0.8,0-1.7,0.2-2.4-0.4c0.5-0.6,1.3-0.4,2-0.5c4.7-0.2,9.5-0.7,14.3-0.6c5.7,0.1,11.4,0.1,17,1.4c-0.7,0.7-1.6,0.6-2.5,0.4
				c-2-0.3-3.9-0.4-5.9-0.6c-0.7-0.1-1.5-0.2-2.6,0.6c2.6,1,4.5,2.7,6.8,3.8c3.4,1.8,7,2.5,10.8,2.3c12.3-0.7,23.3,3.3,33.6,9.7
				c3.9,2.4,7.8,4.9,12.1,6.8c-0.3-1.3-2.4-1.5-1.8-3.2C223.2,52.2,226.5,55,229.5,58.2z"/>
			<path class="st1" d="M85.4,89.8c-1.8,0.8-4.1,1.2-4.8,2.8c-1.8,4.3-5.9,4.9-9.3,6.4c-2.9,1.2-3.6,2-3.4,5.1
				c0.2,3.2-1.3,5.3-3.5,7.2c-2.1,1.7-4.4,3.2-6.9,4c-3,0.9-4.1,3.1-4.9,5.7c-0.7,2.2-1.1,4.5-2.2,6.6c0.3-4.1,0.3-8.3,2-12.2
				c0.4-1,1.3-1.3,2.2-1.7c2.6-1,5.2-2.1,7.4-3.9c1.6-1.2,2.3-3,3-4.8c0.6-1.7,1.1-3.4,1.8-5c0.8-1.8,1.9-3.3,4.2-3.7
				c2.4-0.5,4.5-1.9,6.2-3.6C79.3,90.3,82.4,90,85.4,89.8z"/>
			<path class="st1" d="M198.6,89.1c1.7-3,3.6-5.8,5.8-8.4c3.1-3.6,6.3-2.9,9.6-0.8c1,0.7,1.5,0.7,2.4,0c0.4-0.3,0.9-0.5,1.3-0.8
				c2.4-1.3,3.4-1.1,5,1.1c1.5,2,2.9,4.1,3.8,6.5c0.7-0.1,0.8-0.7,1.1-1c1.3-1.7,2.9-2.1,4.9-1.5c1.9,0.6,2.4,2.2,2.6,3.9
				c0.2,1.4,0.2,2.8,0.2,4.1c-0.4,0.1-0.4-0.1-0.4-0.2c0-5-2.1-4.1-5.6-3.9c-0.5,0-1,0.2-1.4,0.4c-1.4,0.8-2.1,0.1-2.6-1.2
				c-0.7-1.7-1.5-3.2-2.6-4.6c-1.8-2.4-3.7-2.6-5.8-0.4c-0.9,0.9-1.7,1.9-2.6,2.8c-0.5,0.5-0.9,0.7-1.1-0.3
				c-0.1-0.3-0.2-0.6-0.3-0.9c-1.3-3.3-2.8-3.8-5.7-1.8C204,84.2,201.5,86.7,198.6,89.1z"/>
			<path class="st2" d="M142.5,224.1c1.4,0.2,2.2,1.2,3,2.2c1.9,2.7,2.7,5.8,3.3,9c0.1,0.7-0.2,1.2-0.4,1.8
				c-2.3,6.5-6.9,10.9-12.9,14c-0.9,0.1-1-0.6-1.3-1.1c-1.2-1.8-2.6-3.4-3.9-5.2c-1.8-2.6-4.6-3.6-7.6-4.2c-3.6-0.7-3.7-1.3-1.1-3.9
				c4.1-4.1,8.9-7.3,14.3-9.7C138,226.1,140.1,224.8,142.5,224.1z"/>
			<path class="st3" d="M165,264.8c0.1-1.3,0.7-1.9,1.9-2.1c8.5-1.4,16.8-3.7,24.8-7c9.2-3.7,18.4-7.6,26.4-13.7
				c7-5.3,13-11.5,18.2-18.5c2.4-3.2,4.8-6.6,6.9-10c0.7-1.2,1.6-1.9,2.9-1.1c1.3,0.9,1,2,0.3,3.2c-7.8,12.8-17.4,24-30,32.3
				c-5.9,3.9-12.3,6.8-18.8,9.5c-8.4,3.6-17.1,6.4-26,8.3c-1.5,0.3-3,0.5-4.5,0.7C165.9,266.5,165.3,265.8,165,264.8z"/>
			<path class="st4" d="M77.5,221.8c5.3,1.4,10.7,1.1,15.9-0.4c2.4-0.7,4.6-0.5,6.8,0.6c1.6,0.8,3.2,1.5,4.8,2.3
				c0.5,0.3,1,0.5,0.6,1.3c-2.5,4.5-4.7,9.2-8.9,12.6c-3.1,2.6-6.5,4-10.6,3.8c-1-1.1-1.6-2.4-1.3-3.8c0.7-3.4-1-5.8-3.1-8.1
				c-1.8-1.9-3.5-4-4.5-6.5C77,222.9,76.3,222.1,77.5,221.8z"/>
			<path class="st2" d="M187.7,217c2.8,1.6,5.6,3,8.1,5c1.1,0.8,2.2,1.7,3.1,2.8c3.4,3.7,3.3,4.6-0.3,7.9c-3,2.7-6,5.3-9.4,7.5
				c-1.6,1-3.1,1.4-4.7,0.1c-2.4-2.8-4.5-5.8-6.4-8.9c-1.7-2.9-0.9-5.7,1.2-8.1c2-2.2,4.4-4,6.8-5.8C186.5,217,187,216.7,187.7,217z
				"/>
			<path class="st5" d="M156.6,230.7c4.1,0.3,8.2,1.1,10.9,4.8c3.1,4.3,1.8,10.4-2.6,14.1c-4.7,4-10.3,6.2-16.1,7.6
				c-2.1,0.5-3.3-0.7-2.8-2.9c0.9-3.7,1.9-7.3,2.9-11c0.8-2.9,1.6-5.7,2.3-8.6C152,231.7,153.1,230.8,156.6,230.7z"/>
			<path class="st4" d="M128.5,209.5c1.1,3,0.6,6.1,0.2,9.2c-0.5,3.8-0.7,4.1-4.6,3.9c-6-0.2-11.7-1.7-17.2-4.2
				c-1.2-0.6-2.3-1.3-1.4-2.9c2.3-2.8,5.2-5,8.4-6.8c1.4-0.8,3-0.9,4.6-0.8C121.8,208.1,125.3,207.9,128.5,209.5z"/>
			<path class="st5" d="M85.8,210.3c-2.8,3.7-3.6,3.6-5.5-0.6c-2.3-5.1-4.7-10.1-7.1-15.1c-0.5-1-0.5-1.7,0.1-2.6c3-4.5,11-8,15.7-3
				c2.2,2.3,2.6,5.1,2.3,8.1c-0.5,4.6-2.4,8.7-5.1,12.5c-0.5-0.5-0.1-0.9,0-1.4c1.1-3.2,2.1-6.5,2.5-9.9c0.4-3.6-0.4-6.7-2.9-9.1
				c3.1,3.9,3.5,8.4,2.2,13.3c-0.5,1.8-1,3.5-1.6,5.3C86,208.6,85.6,209.4,85.8,210.3z"/>
			<path class="st4" d="M214,209.3c4.2,0.6,8.3,0.6,12.4-0.5c3.4-0.9,6.4,0.6,9.5,1.9c0.7,0.3,0.6,0.7,0.3,1.2
				c-2.8,4.5-5.7,8.8-11.1,10.6c-1.4,0.5-2.8,0.6-4.3,0.6c-1.2-0.5-1.4-1.6-1.4-2.7c0.1-2.5-1-4.2-2.8-5.7c-1.3-1.1-2.4-2.4-3.2-4
				C213.2,210.2,212.5,209.2,214,209.3z"/>
			<path class="st6" d="M142.5,224.1c-1.3,1.3-3.1,1.7-4.7,2.4c-6.3,2.8-12.2,6.3-16.9,11.4c-1.4,1.5-1.3,1.7,0.7,2
				c3.6,0.7,7.1,1.6,9.2,4.9c1.4,2.2,3.2,4.1,4.5,6.3c-1.2,0.9-2.2,0.1-3.2-0.3c-3.8-1.5-7-4-10.3-6.4c-0.8-0.6-1.6-1.2-2.4-1.8
				c-1.6-1.4-1.8-2.6-0.8-4.5c0.5-1,1.2-1.8,1.9-2.6c5.5-5.5,11.6-10,19.5-11.6C140.8,223.8,141.7,223.4,142.5,224.1z"/>
			<path class="st6" d="M187.7,217c-3.2,2-6.2,4.2-8.5,7.1c-2.1,2.7-2,5.2,0,8c1.6,2.3,3.3,4.7,4.9,7c0.2,0.3,0.3,0.7,0.5,1
				c-3.2-1.4-6-3.5-8.7-5.6c-1.8-1.4-3.7-2.7-5-4.6c-0.7-1-0.7-1.8,0.2-2.7c4.1-3.7,8.3-7.2,13.2-9.8
				C185.2,216.8,186.4,216.3,187.7,217z"/>
			<path class="st7" d="M77.5,221.8c-0.5,0.4-0.2,0.9-0.1,1.3c1,2.6,2.7,4.6,4.6,6.6c2.2,2.3,4.1,4.8,3.2,8.4
				c-0.4,1.3,0.8,2.5,0.9,3.8c-3-0.2-4.5-2.4-6.1-4.6c-2.7-3.7-4.3-7.8-6.1-11.9c-0.4-1.1-1.2-2.3-0.1-3.4
				C74.9,221.1,76.2,221.2,77.5,221.8z"/>
			<path class="st7" d="M128.5,209.5c-3-0.5-6.1-0.9-9.1-1.1c-3.6-0.3-6.5,1.1-9.1,3.4c-1.5,1.3-3.1,2.5-4.7,3.8
				c0.8-2.6,2.7-4.4,4.3-6.4c1.7-2.2,3.5-4.3,5.7-6c0.5-0.4,0.9-0.8,1.7-0.5C121.4,204,125.4,206.1,128.5,209.5z"/>
			<path class="st7" d="M214,209.3c-1.2,0.5-0.3,1.2,0,1.6c1,1.5,2.2,2.9,3.6,4.1c1.5,1.2,2.3,2.8,2.2,4.7c-0.1,1.2,0.1,2.4,0.9,3.4
				c-1.9,0.1-3.2-0.9-4.4-2.2c-2.3-2.5-4-5.4-5.3-8.4c-0.4-0.9-1.4-2-0.5-2.9C211.4,208.6,212.8,208.8,214,209.3z"/>
			<path class="st8" d="M156.1,262.8c1.2,0.2,2.1,0.9,2.1,2.3c0,1.4-1,2.4-2.4,2.3c-1.4-0.1-2.2-1-2.1-2.4
				C153.7,263.6,154.5,262.8,156.1,262.8z"/>
			<path class="st9" d="M86.4,208.4c-0.1,0.4-0.2,0.8-0.3,1.2c-0.1,0.2-0.2,0.5-0.4,0.7c-0.8-0.9-0.1-1.6,0.2-2.3
				C86.3,208,86.3,208.2,86.4,208.4z"/>
			<path class="st1" d="M100.4,39.8c2,0.8,2.1,1.1,0.6,2.7c-4.3,4.6-8.8,9-14.7,11.9c-3.8,1.8-7.1,4.4-8.6,8.7
				c-0.5,1.3-1.4,2.4-2.6,3.2c-1.6,1.2-2.3,3-2.9,4.8c-0.9,2.4-2.7,4.1-4.2,6c-0.6,0.8-1.3,0.6-1.7-0.3c-0.9-1.9-3.3-2.3-5-0.9
				c-0.9,0.7-1.4,1.6-1.9,2.6c-2.1,4.7-4.1,9.4-7,13.7c-1.5,2.2-3.7,4-5.2,6.3c-2.2,3.3-3.3,7-4.2,10.7c-0.8,3.2-2.3,6-4,8.8
				c-2.2,3.6-4.6,7.2-5.1,11.6c-0.3,2.1,0.1,4.3,0.4,6.4c0.3,2.5-0.5,4.6-1.7,6.7c-0.4,0.6-0.6,1.6-1.5,1.6c-1,0-0.5-1.3-1.1-1.8
				c0-0.1,0-0.3,0-0.4c0.5-0.9-0.2-1.8,0.3-2.7c0.8-8.2,2.4-16.2,4.7-24.1c1.7-6,3.9-11.8,6.7-17.4c4-8.1,8.9-15.6,14.4-22.8
				c5.5-7.1,11.9-13.2,18.7-19c3.9-3.3,8.1-6,12.2-8.8c3.5-2.3,7.2-4.2,10.8-6.2C98.6,40.5,99.6,40.5,100.4,39.8z"/>
			<path class="st1" d="M100.4,39.8c-0.6,1-1.6,1.1-2.6,1.3C98.4,40.2,99.4,40.1,100.4,39.8z"/>
			<path class="st1" d="M30.2,139.2c-0.1,0.9,0.4,1.8-0.3,2.7C30,141,29.5,140.1,30.2,139.2z"/>
			<path class="st1" d="M219.6,49.9c0.3,1.4,1.7,1.8,2.5,2.8c0.3,0.3,0.9,0.6,0.5,1.1c-0.3,0.5-0.8,0.1-1.2-0.1
				c-3.3-1.6-6.6-3.3-9.6-5.3c-7.3-4.7-15-8.6-23.6-10.4c-2.9-0.6-5.8-0.8-8.8-0.8c-3.7-0.1-7.5,0.4-11.1-0.9
				c-2.3-0.8-4.6-1.8-6.5-3.3c-1-0.8-2.1-1.1-3.1-1.7c-0.5-0.3-1.3-0.6-1.1-1.4c0.2-0.6,1-0.4,1.5-0.5c2.3-0.2,4.6,0.3,7,0.6
				c1,0.1,2,0.1,3,0.1c5.4,1,10.8,1.9,16.1,3.6c3.1,1,6.2,2,9.2,3.2c4.8,1.9,9.6,4,14.2,6.4c3.5,1.8,6.7,4.1,10,6.1
				C218.8,49.7,219.2,49.7,219.6,49.9z"/>
			<path class="st1" d="M135.8,29.7c5,0,10-0.9,15.3-0.1c-1.6,1.7-3.6,1.7-5.4,2.1c-5.4,1.5-10.9,1.8-16.5,1.3
				c-0.7-0.1-1.8,0-1.8-0.8c0-0.8,1.1-0.8,1.8-1.1c0.8-0.3,1.8-0.2,2.5-0.8C133,30.3,134.4,30.1,135.8,29.7z"/>
			<path class="st10" d="M160.9,233.1c2.3,11.1-4.9,17.7-12.6,22.1C154.7,249.1,161.2,243,160.9,233.1z"/>
			<path class="st11" d="M152.4,254.9c2.8-2,5.9-3.7,8.5-6c3.1-2.9,4.3-5.9,5.3-12.8c1,1.2,0.7,2.4,0.7,3.6c-0.1,4-1.9,7.1-5,9.5
				c-2.9,2.3-5.7,4.6-9.1,6C152.4,255.5,152.3,255.3,152.4,254.9z"/>
			<path class="st10" d="M148.1,253.5c5.1-6.4,7.9-13.5,7.9-21.7C157.5,240.2,153.9,250.4,148.1,253.5z"/>
			<path class="st9" d="M152.4,254.9c0.1,0.1,0.3,0.2,0.4,0.4c-0.4,0.5-0.9,0.8-1.6,0.8C151.3,255.3,151.9,255.3,152.4,254.9z"/>
			<path class="st10" d="M79.4,189.2c6.4,4,7.4,12,4.1,21.2C83.9,203,85.2,195.4,79.4,189.2z"/>
			<path class="st12" d="M75.9,191.7c5.9,4.9,7.7,11.3,6.8,18.7c-1.3-2-0.8-4.3-1.2-6.5c-0.5-2.2-0.9-4.5-2-6.5
				C78.3,195.5,77.1,193.6,75.9,191.7z"/>
			<path class="st11" d="M86.4,208.4c-0.1-0.1-0.3-0.2-0.4-0.4c0.5-1.8,1-3.7,1.5-5.5c1.3-4.4,0.9-8.5-1.7-12.3
				c-0.4-0.5-0.6-1.1-0.9-1.7c-0.1-0.1,0-0.2-0.1-0.3c3,1.5,4.9,5.2,4.4,9C88.9,201.1,88,204.8,86.4,208.4z"/>
		</g>
	</g>
	<g>
		<g>
			<path class="st13" d="M257.8,151.1c-4.2,3.3-7.2,8-12.4,10.1c-7.3,3-14.4,6.6-22.1,8.8c-2.6,0.8-5.1,0.9-7.7-0.1
				c-0.7-0.2-1.4-0.3-2-0.6c-4.2-1.9-8-1.5-11.6,1.7c-3.4,3-7.8,4-12.2,4.4c-4.7,0.5-9.3,0.7-14,1.1c-1.7-1-1.7-2.9-2-4.4
				c-0.9-3.7-1.1-7.5-0.5-11.3c0.5-0.8,1.3-1,2.1-1.3c4.1-1.4,8.2-2.3,12.5-2.5c5.3-0.2,10.5-0.4,15.8-0.6c2.2-0.1,4.3,0.1,6.3,0.8
				c3.5,1.1,7,2.2,10.8,2c0.8,0.6,0.6,1.3,0.5,2.1c-0.2,2.1-0.2,4.2-0.3,6.1c0,0.5,0.5,0.2,0.2,0.2c0,0-0.1,0-0.1-0.1
				c-0.2-3.1,0.1-6.1,0.8-9c0.1-0.2,0.2-0.4,0.3-0.6c1.8-2.3,3.9-4.4,5.9-6.4c2.4-2.5,5.3-3.2,8.5-1.7c0.5,0.2,1.1,0.4,1.6,0.7
				c5.7,3.1,11.4,2.7,17.2,0.5C257,150.3,257,150.3,257.8,151.1z"/>
			<path class="st13" d="M74.7,149.7c-5.9-4.7-11.8-9.5-17.2-14.8c-2.2-2.2-3.4-4.8-3.7-7.9c3.5-0.1,6.7,0.9,9.2,3.4
				c1.6,1.5,2.7,3.4,4,5.2c2.1,2.9,4.7,3.9,8.1,3.2c0.3-0.1,0.7-0.1,1.1-0.1c0.2,0.1,0.4,0.2,0.5,0.4c0.3,3.1-0.6,6.1-1.1,8.7
				c1.4-2.7,2.7-6,3.4-9.5c0.1-0.2,0.2-0.4,0.4-0.5c4.8-1.7,9.5-1.4,13.9,1.4c3.2,2,5.9,4.4,8.5,7.1c3.9,4,8.7,6.3,14.2,7.1
				c2.1,0.3,4.4,0.2,6.3,1.6c1,2.5,0,5,0,7.5c0,2-0.3,4.1-0.6,6.1c-0.3,0.9-0.2,1.9-0.5,2.8c-0.5,0.6-0.8,0.2-1.1-0.2
				c-0.3-1-0.5-1.7-2.1-1.4c-4.3,0.9-8.3,0-11.8-2.9c-2-1.6-4-2.9-6.7-2.8c-4.5,0-8.1-2.2-11.5-4.9c-3.6-3-7.1-6.1-11.3-8.2
				c-0.5-0.2-0.9-0.7-1.5-0.6C75,149.9,74.9,149.8,74.7,149.7z"/>
			<path class="st14" d="M257.8,151.1c-0.5-0.7-1-0.2-1.5,0c-6.1,2.5-12.1,3-18.3-0.2c-5.3-2.7-6.9-2.2-10.9,2.2
				c-1.5,1.6-3.1,3.2-4.6,4.7c-1-1.1-0.3-2.3,0-3.4c1.2-5.6,3.1-10.9,4.8-16.3c0.4-0.9,0.4-1.9-0.2-2.7c-1.6-2.2-1.8-4.7-1.3-7.3
				c0.6-2.7,0.7-5.6,2.1-8.1c11,2.7,21.2,7.2,31,12.8c1.1,0.6,2.2,1.1,3.2,1.8c1,0.7,1.4,0.3,1.8-0.6c0.5,0.7,0.5,1.5,0.3,2.2
				C263.2,141.7,261.2,146.7,257.8,151.1z"/>
			<path class="st14" d="M140.6,59.4c4.7,0.3,9.4,0.6,14,0.9c3.8,0.3,7.5,0.1,11.3-0.4c4.5-0.7,8.8-0.5,12.6,2.3
				c2.2,1.6,4.7,1.8,7.3,1.7c2.1,0,4.1-0.1,6.2-0.1c2.5,0,4.5,1.2,5.5,3.4c1.3,2.8,3.5,4.4,6.2,5.5c8.4,3.4,16.8,6.8,25.3,10.1
				c4,1.6,7.3,3.8,9.6,7.4c0.8,1.2,1.9,2.4,3,3.3c4.1,3.6,7.3,8,9.6,12.9c2.3,4.7,4.5,9.4,6.8,14.2c-0.4,1.1-0.8,0.1-1.1-0.1
				c-1.3-1.1-2.4-2.4-3.5-3.7c-3.4-3.9-7.6-7-11-10.9c-1.9-2.1-3.7-4.3-5.3-6.7c-0.8-1.3-1.7-2.6-3-3.5c-0.1-2,1.4-3.6,1.3-5.9
				c0,0-0.3,0.4-0.1,0.3c0.1,0,0.1,0,0.1,0.2c-0.5,1.2-0.1,2.9-1.6,3.7c-0.5,0-0.8-0.2-1.2-0.4c-5.8-4.9-12.6-7.2-19.9-8.7
				c-1.9-0.4-3.7-1-5.5-1.6c-2.6-0.8-5-2.1-6.8-4.2c-2-2.3-4.2-4.1-7.2-4.9c-0.9-1.6,0.7-2.7,0.7-3.9c-0.8,1.1-0.6,3-2.2,3.9
				c-2.7,0.5-5.1-0.5-7.3-1.6c-8.7-4.5-17.7-7.5-27.5-8.2c-5.3-0.4-10.6-0.1-15.9,0.6c-0.8,0.1-1.5,0.3-2.3,0
				c-0.4-0.3-0.6-0.7-0.6-1.2c0-0.2,0-0.5,0.1-0.7C139.1,61.9,138.9,60,140.6,59.4z"/>
			<path class="st14" d="M138.5,62.9c0,0.1,0,0.3,0,0.4c-0.4,0.8-0.4,1.7-1.3,2.1c-4.3,1.2-8.6,2.3-12.8,4.1
				c-6.7,2.8-12.8,6.6-18,11.6c-3.5,3.3-7.2,4.3-11.6,2.8c-0.9-0.4-2,0-2.9-0.5c-0.8-1,0.3-1.7,0.5-2.6c0.2-0.3,0.4-0.7,0.7-1.1
				c-0.3,0.3-0.3,0.6-0.5,0.8c-0.6,1-1.2,2-1.2,3.3C91.2,84.5,91,85,90.2,85c-0.5-0.8-1.2-0.7-2.1-0.5c-2.4,0.6-4.5,1.8-6.4,3.2
				c-2.6,1.9-5.3,3.5-8.3,4.7c-1.8,0.7-3.6,1.3-5.4,2c-5.5,1.4-10.1,4.4-14.5,7.7c-0.6,0.4-1,1.3-2,1c-0.9-3.2-0.1-5.9,2.2-8.1
				c1.2-1.2,2.7-2,4.4-2.6c4.8-1.7,8.7-4.7,12.4-8.1c5.5-5,11.9-8.2,19.5-8.7c1.7-0.1,3.4,0.1,5.1,0.5c3.3,0.4,5.6-1.4,7.7-3.5
				c2.6-2.6,5-5.6,7.6-8.2c1.9-1.3,3.4-3.3,5.9-3.7c1.7-0.3,3.3-1.1,5.1-0.9c4.1-0.4,8.1-0.6,12.2-0.5c1.2,0,2.5,0,3.7,0
				c3.2,0.2,3.2,0.2,1.7,3.2C138.7,62.6,138.6,62.8,138.5,62.9z"/>
			<path class="st13" d="M120.1,171c0.3,0.1,0.5,0.3,0.8,0.4c0.4-0.7,0.2-1.6,0.5-2.3c0.1-0.6,0.1-1.2,0.3-1.7
				c0.3-0.7,0.5-1.4,0.6-2.1c0.9-2.8,1.9-5.6,2.2-8.6c0.1-0.6,0.1-1.3,0.9-1.5c2.1,0.5,4,1.5,5.5,3.1c7.8,8.8,5.7,6.7,16.7,7.4
				c6.6,0.5,13.1-0.7,19.2-3.2c1-0.4,1.9-1,3-0.5c0.7,0.9,0.6,2,0.6,3.1c0,3.8,0.7,7.3,3.1,10.4c0.2,0.3,0.3,0.6,0.2,1
				c-7.1,0.7-14.1,1.2-21.2,1c-0.6,0-1.2,0.4-1.8,0.6c-8,3-16.1,3.4-24-0.2C123.6,176.6,120.9,174.6,120.1,171z"/>
			<path class="st14" d="M76.5,138.9c-4,1.1-7.2,0.9-9.8-3c-0.3-0.4-0.8-0.7-1-1.1c-2.4-4.9-6.8-6.8-11.9-7.8
				c-0.5-2.1-0.4-4.2-0.1-6.3c0.8-4.6,0.5-9-1.2-13.3c2.5-2.2,5.5-3.2,8.7-3.3c2.1,0,3.3,1.8,4,3.7c0.8,2,1,4.1,0.9,6.3
				c-0.1,2.2,0,2.3,2.1,1.4c2.9-1.3,6-2.2,9.1-3.2c0.9-0.3,1.8-0.7,2.6,0.1c0.8,3,0.9,6,0.3,9c-1.1,5.2-2.5,10.3-3,15.6
				C77.2,137.7,77,138.4,76.5,138.9z"/>
			<path class="st13" d="M234.3,96c0.8-0.5,1.1,0,1.5,0.6c4.2,6.7,9.7,12.1,15.5,17.4c2.3,2.1,4.1,4.9,6.7,6.7
				c2.2,4.4,4.8,8.6,6.1,13.3c0,0.6,0,1.2-0.1,2c-4.4-2.3-8.7-4.6-13-6.8c-6.4-3.3-13.1-5.9-20.1-7.8c-0.9-0.2-2.1,0-2.4-1.3
				c-0.8-0.9-0.4-1.9-0.2-2.8c1-6.1,3.1-11.9,4.8-17.9C233.2,98.2,233.1,96.8,234.3,96z"/>
			<path class="st13" d="M79.7,112.2c-4.3,1-8.4,2.5-12.4,4.2c-1.9,0.8-2.1,0.6-1.8-1.5c0.4-2.8,0.1-5.5-1.2-8
				c-1.2-2.3-2.9-2.9-5.3-2c-2.1,0.8-4.2,1.6-6.3,2.4c-0.7-1.3-1.1-2.7-1.1-4.2c4.4-3.9,9.4-6.9,14.9-8.9c0.5-0.2,0.9-0.2,1.4-0.3
				c-0.6,2-2.7,1.9-3.8,2.7c3.8-1.6,8.2-2.2,12.6-2.7c2.2-0.3,4-1,5.7-2.5c1.6-1.4,3.3-3,5.7-2.7c0.8,1.3-0.2,2.3-0.6,3.3
				c-0.8,1-1.2,2.1-1.7,3.3c-2.5,5.3-4.6,10.7-5.7,16.5C80,112,79.9,112.1,79.7,112.2z"/>
			<path class="st15" d="M173.5,160.7c0.2,5.3-0.1,10.7,2.3,15.8c-0.2,0.3-0.4,0.6-0.9,0.5c-1.2-0.7-1.6-1.9-2.1-3.1
				c-1.4-3.9-1.6-8-1.7-12.1c0.3-5.7,0.8-11.5,2.2-17.1c0.3-1.1,0.5-2.3,1.1-3.2c1.9-2.9,1.9-6,1.3-9.2c-0.8-3.8,0.2-7.3,1.1-10.9
				c0.8-1.7,0.4-4,2-5.4c0.2-0.1,0.5,0,0.7,0.2c0.7,1.2,0.1,2.3-0.1,3.5c-1,5.8-1.4,11.7-1.2,17.6c0.1,1.8-0.2,3.6-1.2,5.1
				c-2.8,4.5-3.2,9.5-3.2,14.6C174,158.2,174.3,159.5,173.5,160.7z"/>
			<path class="st16" d="M171.8,161.7c0.1,4.2,0.4,8.4,1.8,12.5c0.4,1,0.7,2,1.4,2.8c-0.4-0.1-0.9-0.3-1.3-0.4
				c-3-3-3.8-6.8-3.9-10.8c0-1.2-0.1-2.4-0.2-3.6c-0.6-0.9-0.8-1.8,0.1-2.6c0.4,0,0.7,0.3,0.7,0.6
				C170.2,161.3,171.2,161.3,171.8,161.7z"/>
			<path class="st1" d="M74.7,149.7c0.2,0.1,0.3,0.2,0.5,0.3c0,0.4,0,0.8-0.5,1.1C74.2,150.6,74.9,150.1,74.7,149.7z"/>
			<path class="st14" d="M173.5,160.7c-0.3-4.8-0.3-9.5,1.1-14.1c0-0.1,0-0.3,0.1-0.4c3.8-5.5,2.9-11.7,3.2-17.8
				c0.1-3,0.3-6,1.3-8.9c2.4-0.6,4.5-1.7,6.8-2.5c5-1.8,9.9-2.1,15.1-0.5c3.2,1,6.4,2.1,9.6,2.9c3.7,1,7.4,1.4,11.2,0.6
				c1.4-0.3,2.8-0.2,4.1,0.6c0.6,0.8,0.4,1.8,0.2,2.6c-0.7,2.8-1.2,5.5-1.5,8.4c-0.2,0.9-0.3,1.7,0.1,2.6c0.2,1.1,0.6,2.2,0.7,3.4
				c0,1.3,0.3,2.6,0,3.9c-0.3,0.8-0.8,1.3-1.3,1.9c-0.5,0.6-1,1.3-0.8,2.1c0.6,2.9-0.3,5.6-0.9,8.4c-0.4,1.7-0.3,3.4-0.9,5
				c-0.1,0.2-0.3,0.4-0.5,0.5c-2.7,1.1-5.3,0.2-7.8-0.6c-3.5-1.1-6.9-1.9-10.6-1.7c-4.5,0.3-9.1,0.5-13.6,0.5
				C183.5,157.7,178.5,158.9,173.5,160.7z"/>
			<path class="st17" d="M224.8,137.4c-0.1-1.1-0.7-2.2-0.6-3.4c-0.3-0.7-0.4-1.4-0.1-2.2c-0.1-3,0.7-5.8,1.4-8.7
				c0.2-0.8,0.5-1.6,0.3-2.5c-0.3-0.5-0.1-1,0-1.4c2.4-8,4.6-16.1,7.2-24.1c0.2-0.5,0.3-1,0.7-1.3c1.2-1.1,0.7-2.8,1.9-4.2
				c0.1,2.4-0.9,4.3-1.4,6.3c-1.4,6.8-4.1,13.3-5.4,20.2c-0.2,1.3-0.4,2.6-0.5,4c-1,3.1-1.6,6.4-2.2,9.6c-0.3,2.1,0.6,4,1.5,5.8
				c0.4,0.8,0.4,1.7,0.1,2.6c-1.5,6-3.9,11.8-5,18c-0.1,0.6-0.1,1.3-0.2,1.9c0,0.1,0,0.3,0,0.4c-0.5,0.3-0.9,1-1.7,0.5
				c0.6-3.5,1.3-7.1,1.9-10.6c0.1-0.4,0.2-0.9,0.1-1.2c-1.1-2.5,0.3-4,2.1-5.4C225.3,140.2,225.2,138.8,224.8,137.4z"/>
			<path class="st18" d="M220.9,158.9c0.6-0.2,1.1-0.3,1.7-0.5c-0.8,3.2-1.1,6.6-1.6,9.9c-0.4-3-0.5-6-0.1-9
				C220.9,159.2,220.9,159,220.9,158.9z"/>
			<path class="st14" d="M122,154.6c-7.8-0.8-15.4-2.2-21.1-8.5c-2.5-2.8-5.4-5.2-8.7-7.1c-3.3-1.9-6.8-2.1-10.5-1.5
				c-0.8,0.1-1.5,0.3-2.3,0.3c-0.5-0.6-0.3-1.3-0.3-2c0-1.5,0.2-3,0.6-4.4c2.1-6.4,2.8-13,2.9-19.7c0.1-0.2,0.2-0.5,0.4-0.6
				c6.8-1.7,11.8-0.4,15.5,4.1c1.3,1.6,2.6,2,4.6,1.6c6.2-1.1,12.5-2.1,18.7-3c0.9-0.1,1.6-0.4,1.9-1.4c0.1-0.4,0.3-1.1,1-0.6
				c0.4,0.5,0.5,1.2,0.5,1.8c0.1,5.7,0.7,11.3-0.2,17c-1.2,7.3-2.2,14.6-2.1,22C122.9,153.5,123.1,154.4,122,154.6z"/>
			<path class="st19" d="M122,154.6c0.9-2.4,0.2-4.9,0.4-7.3c0.6-6.7,1.6-13.3,2.4-20c0.6-5.2-0.2-10.3-0.3-15.5
				c-0.5-0.5-0.6-1.1-0.5-1.8c0.4-4.4,1.4-8.6,2.6-12.8c0.1-0.4,0.4-0.8,0.7-1c0.5,0,0.7,0.3,0.8,0.6c0.3,2.1-0.2,4.2-0.4,6.4
				c-0.5,7.9-0.9,15.9-0.4,23.9c0.1,1.9-0.1,3.9-0.7,5.7c-1.8,5.6-2.1,11.3-2.1,17.1c0,3.1-0.4,6.1-1.1,9.1
				c-0.5,1.9-0.4,3.8-0.8,5.7c-0.4,0.9-0.3,1.9-0.6,2.9c-0.1,0.6-0.3,1.1-0.4,1.7c-0.4,0.1-0.6,0-0.4-0.4
				C121.3,164,122.3,159.4,122,154.6z"/>
			<path class="st20" d="M83.1,111.7c0.4,6.8-0.8,13.3-2.7,19.8c-0.6,2.1-0.7,4.3-1,6.4c0,0.1,0,0.3,0,0.4c-0.9,0.7-1.8,1.2-3,0.5
				c0,0,0,0,0,0c0.3-5.3,1.4-10.5,2.7-15.6c1-3.7,0.6-7.3,0.5-11c0-0.1,0-0.3,0-0.4C80.8,111,81.9,110.9,83.1,111.7z"/>
			<path class="st18" d="M76.5,138.9c1-0.2,2-0.4,3-0.5c-0.6,3.8-2,7.2-4.3,10.4C75.6,145.4,76,142.2,76.5,138.9z"/>
			<path class="st21" d="M121.2,168.8c0.1,0.1,0.3,0.3,0.4,0.4c-0.2,0.7-0.1,1.6-0.8,2.2C121,170.5,120.5,169.6,121.2,168.8z"/>
			<path class="st22" d="M227.8,138.1c0-0.9-0.1-1.7-0.1-2.6C228.4,136.4,228.4,137.2,227.8,138.1z"/>
			<path class="st13" d="M138.5,64.6c3.4-0.4,6.7-1.1,10.1-1.2c4.5-0.1,9,0.1,13.5,0.8c8,1.2,15.5,4,22.6,7.8
				c2.2,1.2,4.6,1.9,7.2,1.6c0.4,0.4,0.2,0.8,0,1.2c-0.9,1.1-1,2.7-2.2,3.5c-3.9,0.5-7.9,0.8-11.9,1.1c-1.7,0.1-3.3-0.8-4.9-1.4
				c-2.1-0.7-4.2-1.1-6.5-0.9c-3.3,0.2-6.4-1-9-2.9c-2.7-2.1-5.4-3.3-8.8-2.3c-0.5,0.1-1,0.1-1.5,0.1c-1.1,0.1-2.2,0.2-3.2,0.6
				c-0.4,0.3-0.9,0.2-1.4,0.2c-0.3,0,0,0.3,0,0.2c0.5-0.4,1.3-0.2,1.8-0.7c1.5-0.1,3-0.4,4.4-0.4c2.9-0.8,5.3,0,7.2,2.2
				c0.5,0.6,1.3,0.8,2.1,1c2.7,0.8,5.5,1.5,7.8,3.2c0.4,0.3,0.9,0.7,1.4,0.6c2.4-0.4,4.5,1,6.9,0.9c1.9-0.1,3.7,0.3,5.4,1.1
				c1.7,0.8,3.4,1.2,5.4,0.7c1.1-0.3,2.3-0.4,3.4,0.1c0.9,1.3-0.3,2.4-0.4,3.6c-0.2,0.6-0.4,1.1-0.6,1.7c-0.4,0.8-0.4,1.6-0.4,2.4
				c-0.1,0.9-0.4,1.7-0.8,2.5c-0.5,0.7-0.5,1.5-0.7,2.3c-0.6,2.5-1.1,4.9-2.2,7.3c-0.7,0.8-0.9,1.8-1.2,2.8c-1.7,4.5-3,9.1-5.6,13.2
				c-1,1.5-0.9,3.4-1.6,5c-0.1,0.2-0.2,0.4-0.4,0.6c-1.2,1-2.5,1.8-3.9,2.6c-2.4,1.3-2.7,1.3-4.5-0.8c-2.5-2.9-5.2-5.4-8.4-7.5
				c-4.4-3-9.3-4.6-14.6-4.8c-3.2-0.1-6.5,0.6-9.7,0.9c-0.3,0-0.6,0.1-0.8,0.2c-4.2,0.7-4.7,0.3-4.9-3.9c0-7.7,1-15.2,2.6-22.7
				c0.2-0.7,0.3-1.3,0.3-2c0-0.7,0.1-1.3,0.3-1.9c0.5-1.7,1.2-3.3,1.7-5c0.6-1.4,1.1-2.9,1.6-4.4c0.8-2,1.4-4.1,2.3-6.1
				C137.1,66.5,137.1,65.1,138.5,64.6z"/>
			<path class="st13" d="M233.8,93.8c0.2,1.9-0.8,3.4-1.3,5.1c-1.9,6.5-3.9,13-5.8,19.5c-0.2,0.7-0.6,1.5-0.8,2.2
				c-3.6-0.8-7.1,0.8-10.7,0.2c-4.2-0.6-8.3-1.9-12.3-3.4c-7.7-2.9-14.9-1.3-21.9,2.1c-0.5,0.2-1.3,1.4-1.7-0.1
				c0.1-1.1,0.2-2.3,0.3-3.4c-0.2-0.8,0-1.5,0.2-2.3c0-0.2,0.1-0.4,0.1-0.6c0.2-0.7,0.2-1.3,0.2-2c0.1-1.2,0.5-2.4,0.9-3.5
				c0.4-0.6,0.8-1.3,1-2.1c0-0.2,0.1-0.4,0.2-0.6c0.2-0.8,0.5-1.5,0.7-2.3c2.1-5.5,3.5-11.2,5.6-16.8c0.5-1.4,0.8-2.9,1.7-4.1
				c0.2-0.1,0.4-0.3,0.6-0.3c3.1-0.3,6,0.5,8.7,1.8c0.5,0.2,1,0.5,1.5,0.7c-0.3-0.2-0.6-0.4-1-0.5c-2.9-1.6-5.9-3.1-8.6-4.9
				c-0.1-0.2-0.1-0.4-0.1-0.6c0.7-1.3,0.4-3.1,2.2-3.9c2.5,0.3,4.5,1.2,6.1,3.3c3.4,4.3,8.3,5.9,13.4,7.1c6.5,1.5,12.9,3.3,18.3,7.4
				C232,92.5,232.9,93.2,233.8,93.8z"/>
			<path class="st23" d="M193.2,74c-1,1.2-0.8,2.9-2,4c-0.2,0-0.4,0-0.5-0.2c-0.1-1.2,0.5-2.2,0.9-3.3c0.3-0.2,0.3-0.5,0.4-0.9
				c0.9-1.3,0.9-3,2.3-4.3C194.4,71.2,193.1,72.5,193.2,74z"/>
			<path class="st24" d="M138.5,64.6c-0.9,0.8-0.8,2.1-1.6,3.1c-0.3-0.1-0.5-0.2-0.6-0.5c0-0.8,0.4-1.5,0.9-2
				c0.4-0.6,0.8-1.2,1.2-1.8C138.5,63.8,138.5,64.2,138.5,64.6z"/>
			<path class="st25" d="M194.9,67.6c0.2-0.8,0.2-1.3,0.8-1.5C195.8,66.7,195.6,67.1,194.9,67.6z"/>
			<path class="st13" d="M137.3,65.1c-0.2,0.7-0.5,1.5-0.7,2.2c0,2-1.2,3.7-1.7,5.6c-0.5,1.4-1.1,2.9-1.6,4.4
				c-0.9,1.8-1.2,3.7-1.9,5.5c-0.2,0.7-0.5,1.3-0.6,2c0,0.7-0.3,1.3-0.4,2c-0.2,0.6-0.2,1.2-0.3,1.7c-0.3,1.8-0.8,3.5-1.3,5.2
				c-0.5,0.8-0.6,1.9-1.4,2.6c-1.2,5.1-2.8,10.2-2.9,15.5c-0.2,4.1-3.7,2.7-5.6,3.1c-5.7,1-11.5,1.8-17.3,2.9c-1.1,0.2-2,0.1-2.7-1
				c-2.6-3.9-6.2-5.9-10.9-5.7c-1.6,0.1-3.3,0.1-4.9,0.2c-0.7-0.7-0.4-1.5-0.3-2.2c0.5-4.6,1.1-9.1,2.8-13.5c0.6-1.2,1-2.5,1.5-3.7
				c0.5-1,1-2,1.2-3.1c1.4-1.7,8.7-3.7,10.4-2.4c2.3,1.9,4,0.7,5.9-0.5c3.7-2.4,7.2-5,10.8-7.6c2.8-2,5.6-3.8,9-4.8
				c0.6-0.2,1.2-0.5,1.9-0.5c0.9-0.7,2.2-0.3,3.1-0.9c0.8-0.1,1.6-0.1,2.9-0.1c-1.3,0-2.1,0.1-2.9,0.1c-1,0.6-2.2,0.3-3.1,0.9
				c-0.6,0.1-1.3,0.3-1.9,0.6c-5.1,1.7-9.8,4-13.8,7.7c-1.9,1.8-4,3.4-6.2,4.8c-1.2,0.8-2.4,1.2-3.8,0.7c-2.8-1.1-5.6-1.4-8.6-0.7
				c-0.6,0.1-1.1,0.2-1.6-0.2c-0.2-0.3-0.2-0.6,0-0.9c0.6-0.3,0.8-0.7,0.8-1.3c0.2-0.2,0.4-0.3,0.6-0.3c1.1,0.2,2.1-0.3,3.2,0.1
				c2.9,0.5,5.9,1.5,8.6-0.6c1.3-1,2.5-2.1,3.7-3.1c8.3-7.4,18.1-11.9,28.9-14.5C136.4,65.1,136.9,65.1,137.3,65.1z"/>
			<path class="st13" d="M90.2,85.7c3.7-0.9,7.4-0.8,11,0.7c1.2,0.5,2.2-0.4,3.1-1.1c2.7-2.1,5.4-4.3,8.1-6.5
				c3.5-2.9,7.6-4.6,12-5.6c0.1,0.1,0.1,0.2,0.1,0.3c0,0.1-0.1,0.1-0.1,0.1c-5.3,2.2-9.7,5.9-14.4,9.1c-2.4,1.7-5,3.3-7.5,4.9
				c-1.2,0.8-2.4,1.2-3.5-0.4c-0.5-0.8-1.7-1-2.5-0.8c-2.8,0.7-5.7,1.1-8.3,2.3c-2.2,0.6-4.2,1.8-5.8,3.4c-1.4,1.4-3.1,2.1-5.1,2.2
				c-4.7,0.4-9.4,1.3-13.9,2.8c-0.3,0.1-0.6,0.3-1.1,0c1.9-1.2,3.8-2.3,5.6-3.4c1.8-0.6,3.6-1.3,5.5-1.9c4.8-0.5,9.1-2.6,13.1-5.2
				C87.5,86.1,88.7,85.3,90.2,85.7z"/>
			<path class="st13" d="M90.2,85.7c-3.1,0.9-5.7,2.8-8.4,4.4c-2.6,1.6-5.5,1.9-8.4,1.8c4-1.6,7.4-4.4,11.1-6.6
				c1.4-0.8,3-1.2,4.6-1.7c1.1-0.4,1.4,0.2,1.1,1.2C90.2,85.2,90.2,85.5,90.2,85.7z"/>
			<path class="st13" d="M91.4,83.6c-0.1,0-0.3,0-0.4,0c0.2-1.2,0.5-2.3,1.6-3.1l0,0c-0.3,0.9-0.5,1.7-0.8,2.6
				C91.7,83.3,91.6,83.4,91.4,83.6z"/>
			<path class="st13" d="M91.4,83.6c0.1-0.1,0.3-0.3,0.4-0.4c1,0.1,2.1-0.5,3,0.3C93.7,83.5,92.5,83.5,91.4,83.6z"/>
			<path class="st13" d="M92.6,80.5c0.1-0.8,0.3-1.4,1.2-2.3C93.5,79.5,93.3,80.2,92.6,80.5C92.6,80.5,92.6,80.5,92.6,80.5z"/>
			<path class="st14" d="M128.3,109.9c0.2,3.7,0.7,3.9,4.8,3.1c7.4-1.3,14.8-1.7,21.8,2c4.9,2.5,8.9,6,12.3,10.3
				c0.8,0.9,1.3,1.1,2.2,0.5c1.7-1.1,3.4-2,5.1-3.1c0.5,0.4,0.6,0.9,0.7,1.5c0.1,3.8,0.8,7.6,0.9,11.4c0.1,1.6-0.2,3.2-1.1,4.5
				c-1.5,2.1-2.1,4.4-2.7,6.9c-0.8,3.5-1.2,7.1-1.6,10.7c-0.1,0.7,0,1.4-0.6,2c-0.7,0.8-0.2,1.7-0.4,2.6c-4,1.4-7.9,2.9-12.1,3.6
				c-3.7,0.6-7.5,0.7-11.2,0.5c-1.9-0.1-3.8-0.2-5.7-0.3c-2.7-0.1-4.6-1.2-6.2-3c-2.7-3-5.2-6.1-9-7.7c-0.9-0.9-0.5-2-0.6-3
				c-0.1-8.3,2.1-16.3,2.8-24.5c0.5-5-0.3-10.1-0.3-15.1C127.4,111.6,127.1,110.5,128.3,109.9z"/>
			<path class="st15" d="M128.3,109.9c-0.6,0.6-0.3,1.3-0.3,2c0.1,2.8,0.1,5.5,0.3,8.3c0.5,6.3-0.4,12.5-1.6,18.7
				c-1.1,5.4-1,10.9-1.3,16.4c-0.5,3.5-1.4,7-2.6,10.4c-0.8,0.1-0.7-0.4-0.5-0.9c-0.5-4,1.3-7.8,1.4-11.8c0.1-2.1,0.6-4.3,0.4-6.3
				c-0.5-4.6,0.7-9,1.8-13.4c0.6-2.5,1.1-5,0.9-7.6c-0.7-9.7,0.1-19.4,1-29.1c0.1-1.1,0-2.1,0.7-3c-0.1-1.8,0.9-3.4,1.1-5.1
				c0.4-0.5,0-1.3,0.6-1.7c0.1-0.1,0.1-0.1,0.2-0.2c0.2,0,0.3,0,0.5,0.1c-0.6,4.1-1.3,8.2-1.8,12.4
				C128.6,102.7,128.1,106.3,128.3,109.9z"/>
			<path class="st26" d="M122.3,164.8c0.1,0.3,0.1,0.7,0.5,0.9c-0.3,0.6-0.5,1.2-0.8,1.7C122.1,166.6,121.7,165.7,122.3,164.8z"/>
			<path class="st17" d="M85.9,95.3c-0.8,3.8-1.9,7.6-2.3,11.5c-0.2,1.5-0.3,2.9-0.5,4.4c0,0.1,0,0.3,0,0.4c-1.1,0-2.3,0.1-3.4,0.1
				c0.8-6,3.2-11.5,5.7-16.9C85.8,94.8,86,94.9,85.9,95.3z"/>
			<path class="st13" d="M59.1,98.9c-0.8,1.3-2.2,1.5-3.4,2.1C56.6,100,57.8,99.3,59.1,98.9L59.1,98.9z"/>
			<path class="st27" d="M85.9,95.3c-0.2-0.1-0.3-0.3-0.5-0.4c0.5-1,0.8-2.2,1.6-3.1C87,93.1,86.7,94.3,85.9,95.3z"/>
			<path class="st13" d="M59.1,98.9c0.5-0.6,1.2-0.8,2.1-1.2C60.6,98.8,59.8,98.9,59.1,98.9C59.1,98.9,59.1,98.9,59.1,98.9z"/>
			<path class="st28" d="M170,159.6c0.2-6,1.1-11.8,2.9-17.5c0.2-0.5,0.5-1,0.9-1.4c1.3-1.5,1.7-3.2,1.7-5.1c0.1-4.3-1-8.6-1-12.9
				c0,0,0.1,0,0.1,0c0.6-1.2,1.6-1.6,2.8-1.4c-1.1,4.3-1.7,8.7-0.8,13.2c0.5,2.5-0.1,4.9-1.6,7.2c-1.7,2.8-1.8,6.2-2.3,9.4
				c-0.5,3.5-0.7,7-1,10.5C169.6,162.3,170.1,160.7,170,159.6z"/>
			<path class="st29" d="M177.5,121.3c-0.9,0.5-1.9,0.9-2.8,1.4c0.1-2,0.4-4,1.5-5.6c2.6-4,3.9-8.6,5.4-13c0.3-0.2,0.5,0,0.6,0.2
				c0.2,0.3-0.1,0.7,0.2,1c0,0.1,0,0.2,0,0.4c-0.7,0.4-0.4,1.4-1.2,1.8c-0.2,1.3-0.5,2.6-0.7,3.9c-0.2,0.7-0.5,1.4-0.4,2.2
				c0,0.1,0,0.3,0,0.4c-0.9,0.5-0.5,1.6-1.1,2.2C178.5,117.8,178,119.5,177.5,121.3z"/>
			<path class="st30" d="M179.1,116.1c0.2-0.8,0-1.9,1.1-2.2c-0.5,0.7-0.1,1.6-0.7,2.2c0,0-0.2,0-0.2,0L179.1,116.1z"/>
			<path class="st22" d="M224.8,137.4c0.7,1.4,0.8,2.8,0.2,4.3C224.9,140.2,224.8,138.8,224.8,137.4z"/>
			<path class="st22" d="M224.1,131.8c0,0.7,0.1,1.4,0.1,2.2C223.5,133.3,223.5,132.6,224.1,131.8z"/>
			<path class="st31" d="M128.5,93.7c-0.3,1-0.1,2.1-0.7,3c-0.2-0.1-0.3-0.3-0.5-0.4C127.6,95.3,127.6,94.3,128.5,93.7z"/>
			<path class="st13" d="M188.4,81.9c-1.6,0.1-3.2,0-4.8,0.5c-1.1,0.4-2.1-0.1-3.1-0.5c-2.3-1.1-4.9-1.2-7.4-1.7
				c-3.1-0.6-6.6,0.1-9.1-2.5c-0.7-0.7-1.7-1.2-2.6-1.3c-3.4-0.3-6.1-2-8.5-4.2c-0.5-0.5-1-0.5-1.5-0.1c-0.7,0.6-1.5,0.2-2.2,0.1
				c-0.6-0.7-1.8,0.6-2.2-0.7c2,0.1,4-1,6.1-0.5c1.4,0.3,2.5,0.8,3.5,1.7c3.2,2.7,6.7,4.2,11.1,3.5c2.4-0.4,4.6,0.7,6.7,1.6
				c2.5,1,4.9,1,7.5,0.5c2.6-0.5,5.4-0.4,8-0.5c0.1,0.1,0.1,0.2,0.2,0.2c-0.1,1.3-0.5,2.6-1.2,3.8C188.7,82.1,188.6,82.1,188.4,81.9
				z"/>
			<path class="st32" d="M190.1,81.9c-2.2,6.8-4.5,13.6-6.7,20.4c-0.1,0.3-0.1,0.5-0.2,0.8c-0.2,0.2-0.4,0.1-0.6-0.1
				c-0.2-0.6-0.2-1.1,0.1-1.6c0.7-2.5,1.5-4.9,2.2-7.4c0.3-0.7,0.2-1.5,0.7-2.1c0.3-0.9,0.5-1.8,0.8-2.6c0.2-0.6,0.2-1.3,0.5-1.9
				c0.1-0.6,0.4-1.1,0.6-1.6c0.5-1.3,0.8-2.7,1.7-3.9C189.6,81.6,189.8,81.6,190.1,81.9z"/>
			<path class="st33" d="M131.1,82.9c0.6-1.9,0.8-3.9,1.9-5.7c0.3,0.3,0.3,0.6,0.1,0.9c-0.1,1.8-1.2,3.4-1.5,5.1
				C131.2,83.4,131,83.3,131.1,82.9z"/>
			<path class="st34" d="M134.6,72.9c0.7-1.9,1.3-3.7,2-5.6c0.1,0.1,0.3,0.3,0.4,0.4c-0.7,2.1-1.2,4.2-2.3,6.1
				C134.4,73.5,134.4,73.2,134.6,72.9z"/>
			<path class="st35" d="M134.6,72.9c0,0.3,0,0.6,0.1,0.9c-0.2,1.5-0.7,3-1.5,4.3c0-0.3,0-0.6-0.1-0.9
				C133.1,75.6,134,74.3,134.6,72.9z"/>
			<path class="st36" d="M189.4,81.9c-0.5,1.3-1.1,2.6-1.6,3.9c-0.3-0.1-0.3-0.3-0.5-0.5c0.4-1.2,0.7-2.3,1.1-3.5c0.1,0,0.3,0,0.4,0
				c0.1,0,0.2-0.1,0.3-0.1C189.2,81.8,189.3,81.9,189.4,81.9z"/>
			<path class="st13" d="M147,71.6c0.5,0.8,1.6,0,2.2,0.7c-1.7,0.1-3.4,0.1-5.1,0.2c0,0,0,0,0,0C144.9,71.9,145.9,71.7,147,71.6z"/>
			<path class="st37" d="M191.6,74.5c0.1,1.2-0.3,2.3-0.7,3.4c-0.1,0.1-0.1,0.1-0.2,0.2c-0.3,0.1-0.5,0.1-0.7-0.1
				c0,0-0.1-0.1-0.1-0.1C190.3,76.8,190.6,75.5,191.6,74.5z"/>
			<path class="st38" d="M182.8,101.4c0,0.6,0,1.1,0,1.7c-0.3,0.4,0.3,1.3-0.7,1.4c-0.2-0.1-0.3-0.3-0.5-0.4
				C182,103.2,181.9,102,182.8,101.4z"/>
			<path class="st39" d="M131.1,82.9c0.1,0.1,0.3,0.3,0.4,0.4c-0.1,0.6-0.2,1.2-0.3,1.7c-0.1,0.2-0.2,0.2-0.4,0.2
				c-0.2-0.1-0.3-0.4-0.4-0.5C130.6,84,130.9,83.5,131.1,82.9z"/>
			<path class="st40" d="M187.3,87.5c-0.2,0.6-0.2,1.3-0.7,1.7c-0.4-0.8-0.2-1.5,0.3-2.1C187.1,87.2,187.2,87.3,187.3,87.5z"/>
			<path class="st41" d="M185.7,91.9c-0.1,0.8-0.2,1.5-0.7,2.1C185,93.2,184.8,92.4,185.7,91.9z"/>
			<path class="st42" d="M130.8,85.1c0.1,0,0.3,0,0.4-0.1c0,0.6,0.2,1.2-0.3,1.7c-0.1,0-0.3,0-0.4,0
				C129.9,86.1,130.5,85.6,130.8,85.1z"/>
			<path class="st43" d="M187.3,87.5c-0.1-0.1-0.3-0.3-0.4-0.4c0.1-0.6,0.3-1.1,0.4-1.7c0.2,0.2,0.3,0.3,0.5,0.5
				C187.6,86.4,187.4,87,187.3,87.5z"/>
			<path class="st13" d="M144,72.5c-0.5,0.6-1,0.6-1.8,0.3C142.8,72.4,143.4,72.7,144,72.5C144,72.5,144,72.5,144,72.5z"/>
			<path class="st13" d="M205.7,86.8c2.3,1.1,4.7,0.7,7.1,0.6c1.2-0.1,2.4-0.1,3.6-0.1c0.5,0,1.1,0.1,1.1,0.8c0,0.5-0.5,0.7-0.9,0.8
				c-2.4,0.4-4.7,1.1-7.1,1.2c-2,0.1-3-1.9-4.3-3.1C205.4,86.7,205.5,86.6,205.7,86.8z"/>
			<path class="st13" d="M199.6,83.6c-2.9-0.9-5.9-1.9-9-1.9c-0.8-1.4,0-2.4,0.8-3.4c3.1,1.2,5.8,3.1,8.7,4.8
				C200.1,83.6,200,83.8,199.6,83.6z"/>
			<path class="st44" d="M191.3,78.4c0.1,1.2-0.9,2.2-0.8,3.4c-0.1,0-0.3,0.1-0.4,0.1c-0.3,0-0.5,0-0.8,0.1c0,0-0.2-0.1-0.2-0.1
				c0.1-1.4,0.7-2.7,1.5-3.8c0,0,0.1-0.1,0.1-0.1c0.1,0,0.2,0,0.4,0.1C191.2,78.1,191.3,78.3,191.3,78.4z"/>
			<path class="st13" d="M199.6,83.6c0.1-0.1,0.3-0.3,0.4-0.4c0.7,0.4,1.3,0.8,2,1.2C201,84.5,200.2,84.2,199.6,83.6z"/>
			<path class="st45" d="M182,104.5c0.2-0.5,0.5-0.9,0.7-1.4c0.1,0,0.3,0,0.4,0c-0.2,0.7-0.5,1.5-0.7,2.2
				C182.1,105.1,182.1,104.8,182,104.5z"/>
			<path class="st13" d="M205.7,86.8c-0.2,0-0.3,0-0.5,0c-0.7,0-1.2-0.3-1.6-1.5C204.5,86,205.1,86.4,205.7,86.8z"/>
			<path class="st46" d="M180.2,113.5c-0.7-0.9,0-1.5,0.4-2.2C180.7,112.1,180.6,112.8,180.2,113.5z"/>
			<path class="st47" d="M181.3,107.4c0.4-0.6,0.1-1.6,1.2-1.8C182,106.2,182.4,107.3,181.3,107.4z"/>
			<path class="st13" d="M126,72.8c0.9-0.7,2-0.5,3-1c0.2,0.1,0.2,0.2,0.2,0.3c0,0.1-0.1,0.1-0.1,0.1c-0.8,0.9-2.1,0.2-3,1
				c-0.2-0.1-0.2-0.2-0.2-0.3C125.9,72.9,126,72.8,126,72.8z"/>
			<path class="st13" d="M129,72.3c0-0.1,0-0.3,0-0.4c0.8,0,1.7-0.1,2.5-0.1c0,0.1,0,0.3,0,0.4C130.7,72.2,129.9,72.2,129,72.3z"/>
			<path class="st13" d="M126,72.8c0,0.1,0,0.3,0,0.4c-0.6,0.2-1.1,0.3-1.7,0.5c0-0.1,0-0.3,0-0.4C124.8,72.7,125.5,72.9,126,72.8z"
				/>
			<path class="st48" d="M130.8,85.1c-0.1,0.6-0.2,1.1-0.3,1.7c0,0-0.1,0-0.1,0c-0.1,0.2-0.2,0.2-0.4,0c0.1-0.7,0.3-1.4,0.4-2.1
				C130.5,84.8,130.7,84.9,130.8,85.1z"/>
			<path class="st49" d="M130,86.8c0.1,0,0.3,0,0.4,0c-0.3,0.6-0.2,1.3-0.7,1.8C129.7,87.9,129.4,87.3,130,86.8z"/>
			<path class="st50" d="M190.7,78c-0.2,1.4-0.9,2.6-1.5,3.8c-0.1,0-0.2,0-0.4,0c0-1.4,0.6-2.6,1.1-3.9C190.2,78,190.5,78,190.7,78z
				"/>
		</g>
	</g>
</g>
</svg>
