<?xml version="1.0" encoding="utf-8"?>
<!-- Generator: Adobe Illustrator 22.1.0, SVG Export Plug-In . SVG Version: 6.00 Build 0)  -->
<svg version="1.1" id="圖層_1" xmlns="http://www.w3.org/2000/svg" xmlns:xlink="http://www.w3.org/1999/xlink" x="0px" y="0px"
	 viewBox="0 0 50 80" style="enable-background:new 0 0 50 80;" xml:space="preserve">
<style type="text/css">
	.st0{fill:#E6C101;}
	.st1{fill:#F4C800;}
	.st2{fill:#FDFDCA;}
</style>
<g>
	<g id="c4b07r_2_">
		<g>
			<g>
				<path class="st0" d="M49.5,64.4c-8,2.3-17.5,3-28.6,1.9c7.8,8.5,18.5,12.9,29.1,13c0-5.6,0-9.5,0-15.1
					C49.8,64.3,49.7,64.3,49.5,64.4z"/>
				<g>
					<g>
						<path class="st1" d="M50,0.1C28.1,0.3,10.4,18,10.4,39.9S28.1,79.6,50,79.7V0.1z"/>
					</g>
					<path class="st2" d="M37.8,12.3c0,2.1-1,3.1-1.8,4.4c-2.3,3.6-5.2,6.7-9.6,7.7c-3.5,0.9-5-0.7-4.2-4.2c1.1-4.7,7-11,11.8-11.2
						C36.7,8.9,37.8,10,37.8,12.3z"/>
					<path class="st0" d="M49.5,64.4c-8,2.3-17.5,3-28.6,1.9c7.8,8.5,18.5,12.9,29.1,13c0-5.6,0-9.5,0-15.1
						C49.8,64.3,49.7,64.3,49.5,64.4z"/>
				</g>
			</g>
		</g>
	</g>
</g>
</svg>
