<?xml version="1.0" encoding="utf-8"?>
<!-- Generator: Adobe Illustrator 22.1.0, SVG Export Plug-In . SVG Version: 6.00 Build 0)  -->
<svg version="1.1" id="圖層_1" xmlns="http://www.w3.org/2000/svg" xmlns:xlink="http://www.w3.org/1999/xlink" x="0px" y="0px"
	 viewBox="0 0 290 330" style="enable-background:new 0 0 290 330;" xml:space="preserve">
<style type="text/css">
	.st0{fill:#40220F;}
	.st1{fill:#FAE345;}
	.st2{fill:#C1272D;}
	.st3{fill:#FFFFFF;}
	.st4{opacity:0.27;}
	.st5{fill:#754C24;}
	.st6{fill:#C6A54B;}
	.st7{opacity:0.29;}
	.st8{fill:#281C08;}
</style>
<g>
	<g>
		<g>
			<g>
				<g>
					<path class="st0" d="M198.1,329.8c-0.6,0-1.3-0.2-1.8-0.7c-1.2-1-1.3-2.8-0.3-3.9l15.2-17.9l-21.7-32.5c-0.9-1.3-0.5-3,0.8-3.9
						s3-0.5,3.9,0.8l22.9,34.2c0.7,1,0.6,2.4-0.2,3.4l-16.6,19.5C199.7,329.4,198.9,329.8,198.1,329.8z"/>
				</g>
				<g>
					<path class="st0" d="M186,322.6c-1.1,0-2.1-0.6-2.6-1.7c-0.6-1.4,0.1-3,1.5-3.7l18.1-7.7l-12.7-0.9c-1.5-0.1-2.7-1.4-2.6-3
						c0.1-1.5,1.4-2.7,3-2.6l24.2,1.7c1.3,0.1,2.3,1,2.6,2.3c0.2,1.3-0.5,2.5-1.7,3l-28.7,12.3C186.7,322.5,186.4,322.6,186,322.6z"
						/>
				</g>
			</g>
			<g>
				<path class="st1" d="M157,58.6c66.8,10,100.6,68.6,110.1,155.2c9.4,86.6-103,93.8-139.9,88.3s-114-37.3-101.4-121.7
					S90.2,48.6,157,58.6z"/>
				<path class="st0" d="M149,306.2c-8.8,0-16.5-0.6-22.2-1.4c-19.6-2.9-48.5-12.9-70.7-31.9c-12.6-10.8-21.8-23.5-27.6-37.6
					C21.8,218.8,20,200.2,23,180c6.3-42,22.2-75.8,46.2-98s54.5-31.3,88.2-26.2c33,4.9,59.4,21.8,78.4,50
					c17.6,26.2,29.1,62.4,34,107.6c2.7,24.9-4.1,45.5-20.4,61.1c-10.1,9.7-29.4,22.5-64.1,28.6C172.3,305.4,159.7,306.2,149,306.2z
					 M139.7,60c-57.2,0-100,45.6-111.2,120.8c-5.4,35.9,5.1,65.5,31.2,87.9c21.3,18.3,49,27.8,67.9,30.6c24.9,3.7,86.4,1.6,118-28.8
					c14.9-14.4,21.3-33.4,18.7-56.5c-4.8-44.3-16-79.6-33.1-105.1C213.1,82,188,66,156.6,61.3C150.8,60.5,145.2,60,139.7,60z"/>
			</g>
			<g>
				<g>
					<path class="st0" d="M73.5,325.2c-1.5,0-2.8-1.2-2.8-2.8c0-1.5,1.2-2.8,2.8-2.8h22.2l10.4-35.1c0.4-1.5,2-2.3,3.5-1.9
						s2.3,2,1.9,3.5l-11,37.1c-0.4,1.2-1.4,2-2.7,2L73.5,325.2L73.5,325.2z"/>
				</g>
				<g>
					<path class="st0" d="M99,324.6c-0.4,0-0.9-0.1-1.3-0.3l-27.9-14c-1.4-0.7-1.9-2.4-1.2-3.7c0.7-1.4,2.4-1.9,3.7-1.2l17.6,8.9
						L82.4,304c-0.9-1.2-0.6-3,0.6-3.9s3-0.6,3.9,0.6l14.3,19.6c0.8,1,0.7,2.5-0.1,3.4C100.6,324.3,99.8,324.6,99,324.6z"/>
				</g>
			</g>
			<g>
				<path class="st0" d="M155.6,107.6c-1.2,0-2.3-0.8-2.7-2c-0.4-1.5,0.4-3,1.9-3.5l27-8.1c1.5-0.4,3,0.4,3.5,1.9
					c0.4,1.5-0.4,3-1.9,3.5l-27,8.1C156.2,107.5,155.9,107.6,155.6,107.6z"/>
			</g>
			<g>
				<path class="st0" d="M109.3,109.6c-0.3,0-0.6-0.1-1-0.2l-26.5-9.8c-1.4-0.5-2.2-2.1-1.6-3.6c0.5-1.4,2.1-2.2,3.6-1.6l26.5,9.8
					c1.4,0.5,2.2,2.1,1.6,3.6C111.5,108.9,110.4,109.6,109.3,109.6z"/>
			</g>
			<g>
				<circle class="st0" cx="164.1" cy="117.3" r="7.3"/>
			</g>
			<g>
				<circle class="st0" cx="94.5" cy="113.7" r="7.3"/>
			</g>
			<g>
				<g>
					<path class="st1" d="M116.3,129.7c0,0,1.1-16.5,12.2-15.7c11.8,0.8,12.5,17.2,12.5,17.2L116.3,129.7z"/>
					<path class="st0" d="M141,133.9c-0.1,0-0.1,0-0.2,0l-24.8-1.5c-0.7,0-1.4-0.4-1.9-0.9c-0.5-0.6-0.7-1.3-0.7-2
						c0-0.4,0.8-10.5,6.5-15.5c2.4-2.1,5.3-3.1,8.7-2.8c11.3,0.8,14.8,13.3,15.1,19.9c0,0.8-0.3,1.6-0.8,2.1
						C142.5,133.7,141.8,133.9,141,133.9z M119.5,127.1l18.4,1.1c-0.8-4.1-3.1-11-9.5-11.4c-1.8-0.1-3.3,0.4-4.6,1.5
						C121.3,120.3,120,124.2,119.5,127.1z"/>
				</g>
				<g>
					<path class="st1" d="M138.6,133.4l-20.5-0.6c0,0,1.7,13.8,11.3,14C139,147,138.6,133.4,138.6,133.4z"/>
					<path class="st0" d="M129.6,149.6c-0.1,0-0.2,0-0.3,0c-5.1-0.1-9.1-3.1-11.7-8.7c-1.8-3.8-2.3-7.6-2.3-7.8
						c-0.1-0.8,0.2-1.6,0.7-2.2c0.5-0.6,1.3-0.9,2.1-0.9l20.5,0.6c1.5,0,2.6,1.2,2.7,2.7c0,0.9,0.1,8.7-4.3,13.2
						C135.1,148.5,132.6,149.6,129.6,149.6z M121.6,135.7c1,3.4,3.3,8.2,7.9,8.3c1.5,0,2.7-0.4,3.6-1.3c1.6-1.6,2.3-4.4,2.5-6.5
						L121.6,135.7z"/>
				</g>
			</g>
			<g>
				<g>
					
						<rect x="123.4" y="83.9" transform="matrix(0.5673 -0.8235 0.8235 0.5673 -113.498 203.8247)" class="st2" width="27.7" height="252.1"/>
					<path class="st0" d="M233.2,296.8c-0.8,0-1.5-0.2-2.2-0.7l-207.6-143c-0.8-0.6-1.4-1.5-1.6-2.5s0-2.1,0.6-2.9L38,124.8
						c1.2-1.8,3.6-2.2,5.4-1l207.6,143c0.8,0.6,1.4,1.5,1.6,2.5c0.2,1,0,2.1-0.6,2.9L236.3,295C235.6,296.2,234.4,296.8,233.2,296.8
						z M30.9,148.9l201.2,138.6l11.3-16.4L42.2,132.5L30.9,148.9z"/>
				</g>
			</g>
			<g>
				<circle class="st3" cx="162.6" cy="114.4" r="1.4"/>
			</g>
			<g>
				<circle class="st3" cx="93" cy="110.9" r="1.4"/>
			</g>
			<g>
				<path class="st1" d="M126.4,69.3c0,0-20.3,1.6-32.6,10S74,95.6,74,95.6"/>
				<path class="st3" d="M74,97.6c-0.5,0-1-0.2-1.4-0.6c-0.8-0.8-0.9-2.1-0.1-3c0.3-0.3,7.7-8.2,20.1-16.6
					c12.6-8.6,32.8-10.2,33.6-10.3c1.1-0.1,2.2,0.8,2.2,1.9c0.1,1.1-0.8,2.2-1.9,2.2c-0.2,0-19.9,1.7-31.6,9.6
					c-12,8.1-19.3,15.9-19.4,16C75.1,97.4,74.6,97.6,74,97.6z"/>
			</g>
			<g>
				<circle class="st3" cx="68.6" cy="100.7" r="2.5"/>
			</g>
		</g>
	</g>
	<g class="st4">
		<path class="st5" d="M180.2,64.4c0,0,33.1,25.7,51.6,61.2c19.2,36.7,23.6,83.6,6.9,118.5c-31.7,66.3-160,41-160,41
			s107.3,48.2,176-21C280.3,238.3,261,149,236,111.5C207.2,68.5,180.2,64.4,180.2,64.4z"/>
	</g>
	<g>
		<path class="st3" d="M210,115.5c0,0-0.8,8-2.7,11.2c-3.2,5.5-9.9,2.4-9.9,2.4s7.3,0.7,7.9,5.8c0.7,5-0.5,15.1-0.5,15.1
			s1.6-15.2,5.2-16.1c3.6-0.9,7.9-0.9,7.9-0.9s-7.5,0.6-8.6-5.9C208.2,120.5,210,115.5,210,115.5z"/>
	</g>
	<g>
		<g>
			<path class="st6" d="M210.2,76.6c0,0-0.2,0-0.7-0.1c-1.6-0.2-5.9-0.8-11.9-1.5l0,0c-6.2-0.8-14.3-1.7-22.9-2.6
				c-10.2-1.1-21.2-2.1-31.1-2.7c-4.4-0.3-8.6-0.4-12.3-0.5c-29.4-0.5-49.5,9.7-49.5,9.7l10.6-48.3l1.3-6l4.3,5.2l18,21.9l3.1-6.6
				l9.3-19.6l3.8-8l3.3-6.9l4.1,6.5l23.1,36.7l6.8-7.1l14-14.7l8.8-9.2l4.3-4.5l1.4,6.1l6.7,28.8l5.3,22.7L210.2,76.6z"/>
			<path class="st0" d="M81.8,81.7c-0.6,0-1.2-0.2-1.7-0.6c-0.9-0.7-1.2-1.7-1-2.8L91,24c0.2-1,1-1.9,2.1-2.1c1-0.2,2.1,0.1,2.8,0.9
				l19.5,23.7L133,9.4c0.4-0.9,1.3-1.5,2.3-1.6s2,0.4,2.5,1.3L163,49.3l31.6-32.9c0.7-0.7,1.8-1,2.7-0.8c1,0.3,1.7,1.1,2,2.1
				l13.5,58.2c0.2,0.9,0,1.8-0.7,2.5c-0.6,0.7-1.6,1-2.5,0.9c0,0-0.2,0-0.6-0.1c-1.6-0.2-5.9-0.8-11.8-1.5c0,0,0,0-0.1,0
				c-7.9-1-15.6-1.9-22.8-2.6c-11.9-1.2-22.3-2.1-31-2.7c-4.5-0.3-8.7-0.4-12.2-0.5c-28.3-0.5-48,9.3-48.2,9.4
				C82.6,81.6,82.2,81.6,81.8,81.7z M95.2,30.8l-9.5,43.4c7.9-3.1,24.3-8.2,45.7-7.8c3.6,0.1,7.8,0.2,12.5,0.5
				c8.7,0.5,19.2,1.4,31.2,2.7c7.2,0.8,14.9,1.6,22.9,2.6c0,0,0,0,0.1,0c3.5,0.4,6.5,0.8,8.6,1.1L195.1,24l-30.5,31.8
				c-0.6,0.6-1.4,0.9-2.3,0.8c-0.9-0.1-1.6-0.6-2.1-1.3l-24.4-38.9l-17.3,36.5c-0.4,0.9-1.2,1.5-2.2,1.6c-0.9,0.1-1.9-0.3-2.5-1
				L95.2,30.8z"/>
		</g>
		<g>
			<circle class="st6" cx="135.4" cy="10.7" r="7.7"/>
			<path class="st0" d="M135.4,21.1c-5.8,0-10.4-4.7-10.4-10.4s4.7-10.4,10.4-10.4s10.4,4.7,10.4,10.4S141.2,21.1,135.4,21.1z
				 M135.4,5.8c-2.7,0-4.9,2.2-4.9,4.9s2.2,4.9,4.9,4.9s4.9-2.2,4.9-4.9S138.1,5.8,135.4,5.8z"/>
		</g>
		<g>
			<circle class="st6" cx="94.4" cy="23.9" r="7"/>
			<path class="st0" d="M94.4,33.6c-5.4,0-9.7-4.4-9.7-9.7s4.4-9.7,9.7-9.7s9.7,4.4,9.7,9.7S99.8,33.6,94.4,33.6z M94.4,19.7
				c-2.3,0-4.2,1.9-4.2,4.2s1.9,4.2,4.2,4.2s4.2-1.9,4.2-4.2S96.7,19.7,94.4,19.7z"/>
		</g>
		<g>
			<circle class="st6" cx="196.7" cy="18.3" r="6.3"/>
			<path class="st0" d="M196.7,27.4c-5,0-9-4.1-9-9s4.1-9,9-9c5,0,9,4.1,9,9S201.7,27.4,196.7,27.4z M196.7,14.8
				c-1.9,0-3.5,1.6-3.5,3.5s1.6,3.5,3.5,3.5s3.5-1.6,3.5-3.5S198.6,14.8,196.7,14.8z"/>
		</g>
	</g>
	<g class="st7">
		<path class="st3" d="M174.9,72.1l-0.2,0.2c-10.2-1.1-21.2-2.1-31.1-2.7l-24.5-24.5l9.3-19.6L174.9,72.1z"/>
	</g>
	<g class="st7">
		<path class="st3" d="M210,75.9l-0.5,0.5c-1.6-0.2-5.9-0.8-11.9-1.5l0,0l-28.2-28.2L183.5,32l21.3,21.3L210,75.9z"/>
	</g>
</g>
<g>
	<path class="st8" d="M131,47.1c-0.3-0.9-0.2-1.9,1.6-3.1c1.8-1.2,3.4-2.3,5.2-1.9c1.8,0.4,2,2.4,2,4.1c0,1.6-0.2,13.7-0.3,15
		s-1.5,2-2.3,2c-0.8-0.1-2-0.7-2.2-2.1c-0.1-1.2,0.1-13,0.1-13c0.3,0-1.4,0.5-1.8,0.5C132,48.5,131.3,48,131,47.1z"/>
</g>
</svg>
