<?xml version="1.0" encoding="utf-8"?>
<!-- Generator: Adobe Illustrator 22.1.0, SVG Export Plug-In . SVG Version: 6.00 Build 0)  -->
<svg version="1.1" id="圖層_1" xmlns="http://www.w3.org/2000/svg" xmlns:xlink="http://www.w3.org/1999/xlink" x="0px" y="0px"
	 viewBox="0 0 320 34" style="enable-background:new 0 0 320 34;" xml:space="preserve">
<style type="text/css">
	.st0{fill:#B9905C;}
	.st1{fill:#7D5941;}
</style>
<g>
	<path class="st0" d="M313.7,0.3c-1.6,2.1-4.5,3.6-8.5,3.6c-0.6,0-1.2-0.1-1.8-0.1c-1.7,1.2-3.9,1.9-6.8,1.9c-4,0-6.8-1.4-8.5-3.5
		c-10.2,0.9-20.5,2-30.9,2.4c-42.3,1.7-84.8-0.3-127.1,0.1c-21.3,0.1-42.5,0.6-63.7-1.5C55.7,2.2,44.7,2,34,1.2
		c-2,1.9-5.1,3.1-8.2,3.1C20.7,4.1,16,3,11.4,1.3c-0.8-0.3-1.4-0.6-2-1H2v28.6c0,2.7,2.8,4.8,6.2,4.8h303.7c3.4,0,6.1-2.1,6.1-4.8
		V0.3H313.7z"/>
	<g>
		<g>
			<path class="st0" d="M43.1,0.3h-23c-0.2,0-0.4,0-0.6,0H0.7C2.1,5.5,5.8,9,10.8,9h32.4C43.1,6.1,43.1,3.2,43.1,0.3z"/>
			<path class="st0" d="M302,0.3c-0.2,0-0.5,0-0.7,0H20.1c-0.2,0-0.5,0-0.7,0h-0.7C22,5.6,27,9,32,9h277.2c5,0,8.8-3.5,10.1-8.7H302
				z"/>
		</g>
	</g>
	<g>
		<path class="st1" d="M315.4,1.6c-0.9,0-1.9,0-2.8-0.1c-1.7,1.5-4.2,2.4-7.4,2.4c-0.6,0-15.4,0.4-17.1-1.7
			c-10.2,0.9-20.5,2-30.9,2.4c-42.3,1.7-84.8-0.3-127.1,0.1c-21.3,0.1-42.5,0.6-63.7-1.5C55.7,2.2,44.7,2,34,1.2
			C33.1,2,27.6,1.4,21.8,0.3H2v28.6c0,2.7,2.8,4.8,6.2,4.8h303.7c3.4,0,6.1-2.1,6.1-4.8V1.1C317.1,1.3,316.3,1.5,315.4,1.6z"/>
	</g>
	<g>
		<g>
			<path class="st0" d="M43.1,0.3h-23c-0.2,0-0.4,0-0.6,0H0.7C2.1,5.5,5.8,9,10.8,9h32.4C43.1,6.1,43.1,3.2,43.1,0.3z"/>
			<path class="st0" d="M20.1,0.3c-0.2,0-0.5,0-0.7,0h-0.7C22,5.6,27,9,32,9h277.2c5,0,8.8-3.5,10.1-8.7H20.1z"/>
		</g>
	</g>
</g>
</svg>
