<?xml version="1.0" encoding="utf-8"?>
<!-- Generator: Adobe Illustrator 22.1.0, SVG Export Plug-In . SVG Version: 6.00 Build 0)  -->
<svg version="1.1" id="圖層_1" xmlns="http://www.w3.org/2000/svg" xmlns:xlink="http://www.w3.org/1999/xlink" x="0px" y="0px"
	 viewBox="0 0 50 70" style="enable-background:new 0 0 50 70;" xml:space="preserve">
<style type="text/css">
	.st0{fill:#B7322E;}
	.st1{fill:#F41718;}
	.st2{fill:#F31719;}
	.st3{fill:#E1120D;}
	.st4{fill:#B92A2C;}
	.st5{fill:#F4C800;}
	.st6{fill:#E6C101;}
</style>
<g>
	<g id="c4b07r_3_">
		<g>
			<g>
				<g>
					<g>
						<path class="st0" d="M24.3,44.2c0-0.3-0.1-0.7-0.1-1c-0.1-0.4,0.1-0.7,0.5-0.9c7.5,8.8,14.7,17.9,21.5,27.3
							c-0.8,0-1.7,0.1-2.5,0.1c-6.3-6.4-11.2-13.9-16.9-20.8C25.7,47.6,23.4,46.7,24.3,44.2z"/>
					</g>
					<g>
						<path class="st0" d="M26.1,43.6c-0.1,0.7-0.3,1.3-0.4,2c-1,0.2-1.8-0.5-2.3-2c0-14.1,0-28.2,0-42.3c0.9,0,1.8,0,2.7,0
							C26.1,15.4,26.1,29.5,26.1,43.6z"/>
					</g>
					<g>
						<path class="st0" d="M25,44.2c0-0.3,0.1-0.7,0.1-1c0.1-0.4-0.1-0.7-0.5-0.9C17.1,51.2,9.9,60.2,3.1,69.6
							c0.8,0,1.7,0.1,2.5,0.1c6.3-6.4,11.2-13.9,16.9-20.8C23.6,47.6,25.9,46.7,25,44.2z"/>
					</g>
				</g>
			</g>
		</g>
	</g>
	<g>
		<path class="st1" d="M30.1,18c-0.3-0.1-0.6-0.2-0.8-0.4c-0.2-0.1-0.2-0.2-0.3-0.4c-2-0.3-3.8-0.5-5.7-0.7c-1,0.2-2,0.4-2.9,0.8
			c0.1,0.3,0.1,0.5,0.2,0.8c-1.9,0.3-1,1.7-1,2.7c0.1,2.5,1.8,4.2,3.2,6.1h2.9c1.9-0.3,2.8-1.8,3.4-3.4c0.5-1.7,0.7-3.5,1.1-5.2
			c-0.1-0.1-0.3-0.1-0.4-0.2C29.9,18.2,30,18.1,30.1,18z"/>
		<path class="st1" d="M16.1,26.6c-1.4,0.5-2.8,1.2-4.2,1.6s-2.7-0.7-2.8-2.3c-0.2-2.9-0.3-5.8-0.4-8.7c0-3.7,0.6-4.1,4.1-2.9
			c1.5,0.5,3,1.1,4.5,1.7c-0.3,0.6-0.7,1.1-1,1.7c-2.5,2.9-1.8,5.4,0.7,7.5C16.9,25.9,15.1,25.1,16.1,26.6z"/>
		<path class="st2" d="M21.7,33.5c-0.5,1.4-0.9,2.8-1.6,4.1c-0.6,1.2-1.6,2.3-2.3,3.4c-2.8-3.3-5.4-6.4-7.9-9.3
			c2.6-0.5,4.4-2.6,6.5-4.4c2.3,0.7,4.2,3.1,7,2c-0.1,0.2-0.2,0.5-0.3,0.7c-0.4,1-0.7,1.9-1.1,2.9C21.9,33.1,21.8,33.3,21.7,33.5z"
			/>
		<path class="st2" d="M22.6,27c0,0.7-3.4-9.2-6-10.1c-0.5,1-1.3,1.8-1.7,2.8c-0.5,1.3-0.2,2.4,0.3,3.6c0.4,0.6,0.9,1.2,1.6,1.7
			c-0.2,0.9-2,0-1,1.6c0.1,0.2,0.2,0.4,0.3,0.7c2.4,0.7,4.4,3.3,7.3,2.2c0.1-0.9,0.3-1.6,0.4-2.5H22.6z"/>
		<g>
			<path class="st3" d="M23.8,27.1c-0.2,0.9-0.6,1.3-1.7,0.6c-3.7-2.1-5.6-4.6-4.3-8.3c0.5-1.4-0.2-1.7-1.7-1.6
				c0.4-0.6,0.9-1.1,1.2-1.7c1.2,0.4,2.4,0.9,3.5,1.3c0.1,0.3,0.1,0.5,0.2,0.8c-2.3,0.3-1.3,1.7-1.2,2.7
				C20,23.5,22.1,25.3,23.8,27.1z"/>
			<path class="st3" d="M23,28.2c-0.3,0-0.6-0.1-1-0.4c-4.2-2.4-5.6-5.1-4.3-8.5c0.2-0.5,0.2-0.9,0-1.1c-0.2-0.3-0.7-0.4-1.6-0.3
				l-0.2,0l0.1-0.2c0.2-0.3,0.4-0.6,0.6-0.9c0.2-0.3,0.4-0.5,0.6-0.8l0.1-0.1l0.1,0c0.8,0.3,1.6,0.6,2.4,0.9
				c0.4,0.2,0.8,0.3,1.2,0.4l0.1,0l0,0.1c0.1,0.2,0.1,0.3,0.1,0.4c0,0.1,0.1,0.2,0.1,0.4l0.1,0.1l-0.2,0c-0.7,0.1-1.1,0.3-1.3,0.6
				c-0.2,0.4-0.1,0.9,0,1.4c0.1,0.2,0.1,0.4,0.1,0.7c0.1,2.3,1.7,3.9,3.3,5.5c0.2,0.2,0.4,0.4,0.6,0.6l0,0.1l0,0.1
				c-0.1,0.4-0.3,0.9-0.7,1C23.2,28.2,23.1,28.2,23,28.2z M16.6,17.7c0.7,0,1.1,0.1,1.3,0.4c0.2,0.3,0.2,0.7,0,1.4
				c-1.2,3.3,0.1,5.8,4.2,8.2c0.5,0.3,0.8,0.4,1,0.3c0.2-0.1,0.4-0.3,0.5-0.8c-0.2-0.2-0.4-0.4-0.6-0.6c-1.6-1.6-3.2-3.3-3.3-5.6
				c0-0.2-0.1-0.4-0.1-0.6c-0.1-0.5-0.3-1.1,0-1.6c0.2-0.3,0.6-0.5,1.3-0.6c0-0.1-0.1-0.2-0.1-0.3c0-0.1-0.1-0.2-0.1-0.3
				c-0.4-0.1-0.7-0.3-1.1-0.4c-0.7-0.3-1.5-0.6-2.3-0.8c-0.2,0.3-0.4,0.5-0.6,0.8c-0.2,0.2-0.3,0.4-0.5,0.6
				C16.4,17.7,16.5,17.7,16.6,17.7z"/>
		</g>
		<path class="st4" d="M21.7,33.5c0.1-0.2,0.2-0.4,0.3-0.6C21.9,33.1,21.8,33.3,21.7,33.5z"/>
	</g>
	<g>
		<circle class="st5" cx="24.3" cy="45.6" r="5.2"/>
		<g>
			<path class="st6" d="M28.2,42.1c1.9,2.2,1.8,5.5-0.3,7.4s-5.4,1.7-7.4-0.4C25.6,49.5,28.3,47.3,28.2,42.1z"/>
		</g>
	</g>
	<g>
		<path class="st1" d="M32.3,25.1c2.5-2.1,3.2-4.6,0.7-7.5c-0.3-0.6-0.7-1.1-1-1.7c1.5-0.6,3-1.2,4.5-1.7c3.5-1.2,4.1-0.8,4.1,2.9
			c-0.1,2.9-0.2,5.8-0.4,8.7c-0.1,1.6-1.4,2.7-2.8,2.3c-1.4-0.4-2.8-1.1-4.2-1.6C34.2,25,32.4,25.8,32.3,25.1z"/>
		<path class="st2" d="M27.3,32.8c-0.4-1-0.7-1.9-1.1-2.9c-0.1-0.2-0.2-0.5-0.3-0.7c2.8,1.1,4.7-1.3,7-2c2.1,1.8,3.9,3.9,6.5,4.4
			c-2.5,2.9-5.1,6-7.9,9.3c-0.7-1.1-1.7-2.2-2.3-3.4c-0.7-1.3-1.1-2.7-1.6-4.1C27.5,33.2,27.4,33,27.3,32.8z"/>
		<path class="st1" d="M26.7,26.9c0,0.7,3.4-9.2,6-10.1c0.5,1,1.3,1.8,1.7,2.8c0.5,1.3,0.2,2.4-0.3,3.6c-0.4,0.6-0.9,1.2-1.6,1.7
			c0.2,0.9,2,0,1,1.6c-0.1,0.2-0.2,0.4-0.3,0.7c-2.4,0.7-4.4,3.3-7.3,2.2c-0.1-0.9-0.3-1.6-0.4-2.5H26.7z"/>
		<g>
			<path class="st3" d="M29.4,20.8c0.1-1,1.1-2.4-1.2-2.7c0.1-0.3,0.1-0.5,0.2-0.8c1.1-0.4,2.3-0.9,3.5-1.3c0.4,0.6,0.9,1.1,1.2,1.7
				c-1.5-0.1-2.2,0.2-1.7,1.6c1.3,3.7-0.6,6.2-4.3,8.3c-1.1,0.7-1.5,0.3-1.7-0.6C27.2,25.2,29.3,23.4,29.4,20.8z"/>
			<path class="st3" d="M26.3,28.1c-0.1,0-0.2,0-0.3,0c-0.4-0.1-0.5-0.6-0.6-1l0-0.1l0-0.1c0.2-0.2,0.4-0.4,0.6-0.6
				c1.5-1.6,3.1-3.2,3.3-5.5l0,0c0-0.2,0.1-0.4,0.1-0.6c0.1-0.5,0.3-1,0-1.3c-0.2-0.3-0.6-0.5-1.3-0.6l-0.2,0l0.1-0.2
				c0.1-0.1,0.1-0.3,0.1-0.4c0-0.1,0.1-0.3,0.1-0.4l0-0.1l0.1,0c0.4-0.1,0.8-0.3,1.2-0.4c0.8-0.3,1.6-0.6,2.4-0.9l0.1,0l0.1,0.1
				c0.2,0.3,0.4,0.6,0.6,0.8c0.2,0.3,0.4,0.6,0.6,0.9l0.1,0.2l-0.2,0c-0.9-0.1-1.4,0-1.6,0.3c-0.2,0.2-0.2,0.6,0,1.1
				c1.2,3.4-0.2,6-4.3,8.4C26.9,27.9,26.6,28.1,26.3,28.1z M25.6,27c0.1,0.5,0.3,0.7,0.5,0.8c0.2,0.1,0.6,0,1-0.3
				c4.1-2.4,5.4-4.9,4.2-8.1c-0.2-0.6-0.2-1.1,0-1.4c0.2-0.3,0.7-0.5,1.6-0.4c-0.1-0.2-0.3-0.4-0.5-0.6c-0.2-0.2-0.4-0.5-0.6-0.8
				c-0.8,0.3-1.5,0.5-2.2,0.8c-0.4,0.1-0.8,0.3-1.1,0.4c0,0.1-0.1,0.2-0.1,0.3c0,0.1,0,0.2-0.1,0.3c0.7,0.1,1.1,0.3,1.3,0.6
				c0.3,0.5,0.1,1,0,1.6c-0.1,0.2-0.1,0.4-0.1,0.6c-0.1,2.3-1.7,4-3.3,5.6C26,26.6,25.8,26.8,25.6,27z"/>
		</g>
		<path class="st4" d="M27.3,32.8c0.1,0.2,0.2,0.4,0.3,0.6C27.5,33.2,27.4,33,27.3,32.8z"/>
	</g>
</g>
</svg>
