<?xml version="1.0" encoding="utf-8"?>
<!-- Generator: Adobe Illustrator 22.1.0, SVG Export Plug-In . SVG Version: 6.00 Build 0)  -->
<svg version="1.1" id="圖層_1" xmlns="http://www.w3.org/2000/svg" xmlns:xlink="http://www.w3.org/1999/xlink" x="0px" y="0px"
	 viewBox="0 0 244 48" style="enable-background:new 0 0 244 48;" xml:space="preserve">
<style type="text/css">
	.st0{fill:#BB7232;}
	.st1{fill:#EAAE07;}
	.st2{fill:#F9F3DC;}
	.st3{fill:#5B3824;}
	.st4{enable-background:new    ;}
	.st5{fill:#FFFFFF;}
</style>
<g>
	<polygon class="st0" points="243.5,45.1 19.6,45.1 19.6,6.8 243.5,6.8 223.3,25.9 	"/>
	<g>
		<g>
			<g>
				<g>
					<ellipse class="st1" cx="17.8" cy="18.3" rx="17.8" ry="18"/>
					<polygon class="st1" points="17.8,48 2.1,26.7 33.4,26.7 					"/>
				</g>
				<ellipse class="st2" cx="17.8" cy="18.3" rx="13.8" ry="14"/>
			</g>
		</g>
		<path class="st1" d="M15.3,14.7l2.4-2.5c0.1-0.1,0.2-0.1,0.2,0l2.4,2.5c0.1,0.1,0,0.3-0.1,0.3h-4.8C15.3,15,15.2,14.8,15.3,14.7z"
			/>
		<path class="st1" d="M15.9,15.6h3.8c0.2,0,0.3,0.3,0.2,0.3L18,18c-0.1,0.1-0.2,0.1-0.3,0l-1.9-2C15.6,15.9,15.7,15.6,15.9,15.6z"
			/>
		<ellipse class="st3" cx="23.7" cy="10.2" rx="1" ry="1"/>
		<ellipse class="st3" cx="11.8" cy="10.2" rx="1" ry="1"/>
	</g>
</g>
<g class="st4">
	<path class="st5" d="M45.3,18.8c-0.6,0-1.1-0.5-1.1-1.1c0-0.6,0.5-1.1,1.1-1.1h5.6c0.6,0,1.1,0.5,1.1,1.1c0,0.6-0.5,1.1-1.1,1.1
		h-1.1c-0.3,0-0.5,0.2-0.5,0.5v3.3c0,0.3,0.2,0.5,0.5,0.5h0.7c0.6,0,1.2,0.5,1.2,1.2c0,0.6-0.5,1.1-1.2,1.1h-0.7
		c-0.3,0-0.5,0.2-0.5,0.5v4.5c0,0.3,0.3,0.4,0.5,0.4l1.1-0.4c0.6-0.2,1.2,0.2,1.2,0.8c0,0.7-0.5,1.4-1.1,1.7l-5.3,2
		c-0.6,0.2-1.1-0.2-1.1-0.8c0-0.8,0.4-1.4,1.2-1.7l0.8-0.3c0.3-0.1,0.5-0.4,0.5-0.7v-5.5c0-0.3-0.2-0.5-0.5-0.5h-0.7
		c-0.6,0-1.1-0.5-1.1-1.1c0-0.6,0.5-1.2,1.1-1.2h0.7c0.3,0,0.5-0.2,0.5-0.5v-3.3c0-0.3-0.3-0.5-0.6-0.5H45.3z M63.4,35.7
		c0,0.3,0.3,0.5,0.6,0.5h2.4c0.6,0,1.1,0.5,1.1,1.1c0,0.6-0.5,1.1-1.1,1.1h-3.2c-1.1,0-2-0.9-2-2v-4.8c0-0.3-0.2-0.6-0.5-0.6h-1.1
		c-0.3,0-0.6,0.2-0.7,0.5l-1.8,5.7c-0.2,0.7-0.8,1.1-1.6,1.1c-0.6,0-1-0.6-0.8-1.1l1.8-5.9c0.1-0.2-0.1-0.4-0.3-0.4
		c-0.8,0-1.5-0.6-1.5-1.5V17.6c0-1.1,0.9-2,2-2h6.9c1.1,0,2,0.9,2,2v11.9c0,0.9-0.8,1.7-1.7,1.7c-0.2,0-0.4,0.2-0.4,0.4V35.7z
		 M63.3,18.3c0-0.3-0.2-0.5-0.5-0.5h-5.5c-0.3,0-0.5,0.2-0.5,0.5v1.1c0,0.3,0.2,0.5,0.5,0.5h5.5c0.3,0,0.5-0.3,0.5-0.5V18.3z
		 M56.8,24c0,0.3,0.2,0.6,0.5,0.6h5.5c0.3,0,0.5-0.3,0.5-0.6v-1.1c0-0.3-0.2-0.5-0.5-0.5h-5.5c-0.3,0-0.5,0.3-0.5,0.5V24z
		 M57.3,26.8c-0.3,0-0.5,0.3-0.5,0.6v1.1c0,0.3,0.2,0.6,0.5,0.6h5.5c0.3,0,0.5-0.3,0.5-0.6v-1.1c0-0.3-0.2-0.6-0.5-0.6H57.3z"/>
	<path class="st5" d="M81,19.8c-0.3,0-0.6,0.2-0.8,0.5l-1.8,3.4c-0.2,0.3-0.3,0.7-0.3,1v12.8c0,0.6-0.5,1.2-1.2,1.2
		s-1.2-0.5-1.2-1.2v-8.5c0-0.1-0.1-0.1-0.2-0.1l-0.1,0.2c-0.4,0.7-1.1,1.2-2,1.2c-0.6,0-1-0.6-0.7-1.2l4.7-8.8
		c0.1-0.2-0.1-0.5-0.3-0.5h-3.9c-0.7,0-1.2-0.6-1.2-1.2c0-0.6,0.5-1.2,1.2-1.2h5.2c0.3,0,0.6-0.2,0.8-0.5l0.5-0.9
		c0.4-0.7,1.1-1.2,2-1.2c0.6,0,1,0.6,0.7,1.2L82,16.9c-0.1,0.2,0.1,0.5,0.3,0.5h11.6c0.6,0,1.2,0.5,1.2,1.2c0,0.7-0.6,1.2-1.2,1.2
		H81z M88.6,34.6c0,0.3,0.3,0.5,0.6,0.5H94c0.6,0,1.1,0.5,1.1,1.1c0,0.6-0.5,1.1-1.1,1.1H80.8c-0.6,0-1.1-0.5-1.1-1.1
		c0-0.6,0.5-1.1,1.1-1.1h4.9c0.3,0,0.6-0.3,0.6-0.5v-5.3c0-0.3-0.3-0.6-0.6-0.6h-3.9c-0.6,0-1.1-0.5-1.1-1.1c0-0.6,0.5-1.2,1.1-1.2
		h3.9c0.3,0,0.6-0.2,0.6-0.5v-3c0-0.6,0.5-1.2,1.1-1.2s1.1,0.5,1.1,1.2v3c0,0.3,0.3,0.5,0.6,0.5h3.9c0.6,0,1.1,0.5,1.1,1.2
		c0,0.6-0.5,1.1-1.1,1.1h-3.9c-0.3,0-0.6,0.3-0.6,0.6V34.6z"/>
	<path class="st5" d="M104.5,14.9c0.7,0,1.2,0.5,1.2,1.2v2.2c0,0.3,0.3,0.6,0.5,0.6h3c1.1,0,2,0.9,2,2l-0.6,15.8
		c0,0.7-0.6,1.2-1.3,1.2s-1.2-0.6-1.2-1.2l0.6-14.8c0-0.3-0.2-0.6-0.5-0.6h-2.2c-0.3,0-0.6,0.2-0.6,0.5l-2,14
		c-0.1,0.7-0.7,1.2-1.4,1.2c-0.6,0-1.1-0.6-1-1.2l2-14c0.1-0.3-0.2-0.5-0.4-0.5H101c-0.7,0-1.2-0.5-1.2-1.2c0-0.7,0.6-1.2,1.2-1.2
		h1.8c0.3,0,0.6-0.3,0.6-0.6v-2.2C103.3,15.5,103.8,14.9,104.5,14.9z M113.3,20.4c0-1.1,0.9-2,2-2h6c1.1,0,2,0.9,2,2v15
		c0,1.1-0.9,2-2,2h-6c-1.1,0-2-0.9-2-2V20.4z M120.4,35.1c0.3,0,0.6-0.2,0.6-0.5V21.4c0-0.3-0.3-0.6-0.6-0.6h-4.1
		c-0.3,0-0.6,0.3-0.6,0.6v13.2c0,0.3,0.3,0.5,0.6,0.5H120.4z"/>
	<path class="st5" d="M150.3,36.7c0.4,0.5,0,1.2-0.6,1.2c-1,0-1.9-0.5-2.5-1.3l-7.2-9.5c-0.1-0.2-0.5-0.2-0.8,0l-7,9.5
		c-0.6,0.8-1.5,1.3-2.5,1.3c-0.6,0-1-0.7-0.6-1.2l8.9-12.2c0.2-0.3,0.3-0.7,0.3-1v-5.4c0-0.3-0.3-0.6-0.6-0.6h-3.1
		c-0.7,0-1.2-0.5-1.2-1.2c0-0.7,0.5-1.2,1.2-1.2h4.1c1.1,0,2,0.8,2,2v6.4c0,0.3,0.1,0.7,0.3,1L150.3,36.7z"/>
	<path class="st5" d="M158.4,18.8c0-1.1,0.8-1.9,1.9-1.9h14.8c1.1,0,1.9,0.8,1.9,1.9v15.6c0,1.1-0.8,1.9-1.9,1.9h-14.8
		c-1.1,0-1.9-0.8-1.9-1.9V18.8z M174.6,20c0-0.3-0.4-0.8-0.6-0.8h-12.4c-0.3,0-0.7,0.5-0.7,0.8v4.5c0,0.3,0.4,0.6,0.7,0.6h12.4
		c0.3,0,0.6-0.3,0.6-0.6V20z M160.8,33.2c0,0.3,0.4,0.8,0.7,0.8h12.4c0.3,0,0.6-0.5,0.6-0.8V28c0-0.3-0.4-0.6-0.6-0.6h-12.4
		c-0.3,0-0.7,0.4-0.7,0.6V33.2z"/>
	<path class="st5" d="M196.1,17.4c-0.3-0.2-0.6-0.2-0.9,0l-4.8,3.4c-1.1,0.7-2.3,1.1-3.6,1.1c-0.5,0-0.8-0.8-0.4-1.1l7.5-5.3
		c1-0.7,2.4-0.7,3.4-0.1l8.3,5.4c0.5,0.3,0.3,1.1-0.3,1.1h-0.1c-1.3,0-2.6-0.4-3.8-1.1L196.1,17.4z M199.6,33.8c0.8-0.6,1.7-1,2.7-1
		h0.3c0.6,0,0.9,0.8,0.4,1.1l-1.8,1.5c-0.2,0.2-0.3,0.5-0.1,0.8l1.3,1.5c0.4,0.4,0.1,1.1-0.5,1.1c-0.9,0-1.8-0.4-2.4-1.1l-4.5-5.2
		c-0.3-0.3-0.6-0.4-0.9-0.4h-2.6c-0.3,0-0.5,0.2-0.5,0.5V36c0,0.3,0.2,0.6,0.5,0.6h1.1c0.6,0,1.1,0.5,1.1,1.1c0,0.6-0.5,1.1-1.1,1.1
		h-1.7c-1.1,0-2-0.9-2-2V24.1c0-1.1,0.9-2,2-2h3.2c0.3,0,0.5-0.3,0.5-0.6v-1.6c0-0.6,0.5-1.1,1.1-1.1c0.6,0,1.1,0.5,1.1,1.1v1.6
		c0,0.3,0.3,0.6,0.5,0.6h3.2c1.1,0,2,0.9,2,2v6c0,1.1-0.9,2-2,2h-2.4c-0.2,0-0.3,0.3-0.2,0.4l1.1,1.3C199.2,34,199.4,34,199.6,33.8z
		 M200.4,24.8c0-0.3-0.3-0.6-0.6-0.6h-8.4c-0.3,0-0.5,0.3-0.5,0.6v0.5c0,0.3,0.2,0.5,0.5,0.5h8.4c0.3,0,0.6-0.3,0.6-0.5V24.8z
		 M191.4,28.1c-0.3,0-0.5,0.2-0.5,0.5v0.8c0,0.3,0.2,0.5,0.5,0.5h8.4c0.3,0,0.6-0.2,0.6-0.5v-0.8c0-0.3-0.3-0.5-0.6-0.5H191.4z"/>
</g>
</svg>
