<?xml version="1.0" encoding="utf-8"?>
<!-- Generator: Adobe Illustrator 22.1.0, SVG Export Plug-In . SVG Version: 6.00 Build 0)  -->
<svg version="1.1" id="圖層_1" xmlns="http://www.w3.org/2000/svg" xmlns:xlink="http://www.w3.org/1999/xlink" x="0px" y="0px"
	 viewBox="0 0 230 95" style="enable-background:new 0 0 230 95;" xml:space="preserve">
<style type="text/css">
	.st0{fill:#FAE345;}
	.st1{fill:#40220F;}
</style>
<g>
	<path class="st0" d="M2.7,18.2c0,0,54.9,8.3,65.4,21c10.7,13-28,18-28,18s16-1.3,21.1,9.2c3.9,8.1-25.1,11.4-25.1,11.4
		s12.2-1.3,10.3,7.1s-20.2,5.4-20.2,5.4"/>
	<path class="st1" d="M33.1,93.7c-3.6,0-6.7-0.5-7.5-0.6c-1.5-0.3-2.6-1.7-2.3-3.3c0.3-1.5,1.7-2.6,3.3-2.3c4.9,0.8,16,1.1,17-3.2
		c0.4-1.6-0.1-2.1-0.2-2.3c-1.2-1.3-4.8-1.6-7-1.4c-1.6,0.2-2.9-1-3.1-2.5c-0.2-1.5,1-2.9,2.5-3.1c9.8-1.1,21.3-4.1,22.8-6.9
		c0.1-0.1,0.1-0.2,0-0.4c-4.1-8.7-18.1-7.6-18.3-7.6c-1.5,0.1-2.9-1-3.1-2.5s0.9-2.9,2.5-3.1c10.2-1.3,25.4-5.3,27.2-10.1
		C67,44,67.4,43,65.8,41c-8-9.7-48.7-17.7-63.7-20c-1.5-0.2-2.6-1.7-2.4-3.2s1.7-2.6,3.2-2.4c5.7,0.9,56.3,8.8,67.2,22
		c3.1,3.8,2.8,7,2,9c-2,5.1-9.7,8.5-17,10.6c3.4,1.6,6.6,4.2,8.5,8.2c0.9,1.9,0.8,3.8-0.1,5.6c-2.2,3.9-9.1,6.3-15.6,7.9
		c1,1.4,2,3.6,1.2,6.9C47.6,92.3,39.4,93.7,33.1,93.7z"/>
</g>
<g>
	<path class="st0" d="M212.1,14.5c-0.5-1-1.1-2.1-1.8-3c0.3,0.6-1.8-1.7-1.9-1.9c-1.6-1.5-2.8-3.4-3.5-5.4
		c-13.5,0.7-41.8,3.8-52,18.3c-13.6,19.4,33.9,17.9,33.9,17.9s-20.3,5.7-19.4,18.2c0.8,12.5,15.9,10.2,15.9,10.2
		s-17.1,10.5-4.5,18.9c7.9,5.3,18.8,2,25.7-1.1c0.3-1.5,0.8-2.9,1.5-4.3c0.8-1.6,1.6-3.2,2.3-4.8c0.4-1.2,0.9-2.4,1.2-3.6
		c0.4-1.6,1.1-3.1,2-4.4l0.7-54.8C212.1,14.7,212.1,14.6,212.1,14.5z"/>
	<path class="st1" d="M184.9,93.1c-2.7-0.5-5.3-1.3-7.6-3c-4.9-3.3-5.8-6.9-5.8-9.4c0.1-3.6,2.2-6.9,4.6-9.3c-2.3-0.5-4.7-1.3-6.7-3
		c-2.8-2.3-4.3-5.4-4.6-9.5c-0.5-7.4,4.8-12.6,10.2-16c-1.3-0.1-2.9-0.2-4.3-0.4c-12-1.4-19.2-4.4-21.8-9.3
		c-1.3-2.4-2.1-6.5,1.8-12.1C164.9,1,210.4,1.5,212.3,1.6c1.5,0,2.7,1.2,2.7,2.8s-1.2,2.7-2.8,2.7c-0.5,0-44.5-0.6-57.2,17.4
		c-2.9,4-1.8,5.8-1.5,6.4c1.6,3,8,5.4,17.6,6.5c7.9,1,15.5,0.7,15.5,0.7c1.3,0,2.6,1,2.8,2.3s-0.7,2.7-1.9,3.1c0,0-4.9,1.4-9.5,4.2
		c-5.5,3.3-8.3,7.2-8,11.3c0.2,2.5,1.1,4.4,2.6,5.6c3.6,3,10.1,2.1,10.2,2.1c1.2-0.2,2.5,0.6,3,1.7c0.5,1.2,0,2.6-1.1,3.3
		c-2,1.2-7.8,5.6-7.8,9.6c0,0.6,0,2.5,3.4,4.8c10.9,7.3,29.3-4.7,29.5-4.8c1.2-0.9,3-0.5,3.7,0.8c0.9,1.2,0.5,3-0.8,3.7
		C212,85.8,197.7,95.2,184.9,93.1z"/>
</g>
</svg>
