<?xml version="1.0" encoding="utf-8"?>
<!-- Generator: Adobe Illustrator 22.1.0, SVG Export Plug-In . SVG Version: 6.00 Build 0)  -->
<svg version="1.1" id="圖層_1" xmlns="http://www.w3.org/2000/svg" xmlns:xlink="http://www.w3.org/1999/xlink" x="0px" y="0px"
	 viewBox="0 0 350 260" style="enable-background:new 0 0 350 260;" xml:space="preserve">
<style type="text/css">
	.st0{fill:#FCEC8D;}
	.st1{fill:#76391B;}
	.st2{opacity:0.29;}
	.st3{fill:#4D4D4D;}
	.st4{fill:none;stroke:#000000;stroke-width:1.0432;stroke-linecap:round;stroke-linejoin:round;stroke-miterlimit:10;}
	.st5{fill:#603813;}
	.st6{opacity:0.22;}
	.st7{fill:#BB7232;}
	.st8{fill:#CE3815;}
	.st9{fill:#FFFFFF;}
</style>
<g>
	<g>
		<path class="st0" d="M100,108.3c0,0-39.8,7.7-57.7,22.6c-7.6,6.3-26.8,21.4-27.9,29.7c-1.2,8.3,12,18.1,12,18.1s-4.8,6.8-3.6,12.8
			c1.2,5.9,10.7,9,10.7,9s27.4,4.1,57.1,1.1c12-1.2,38.1-6.5,38.1-6.5"/>
		<path class="st1" d="M67.9,204.5c-19.7,0-34.6-2.2-34.8-2.2c-0.1,0-0.2,0-0.3-0.1c-0.4-0.1-10.5-3.4-11.9-10.3
			c-1-5,1.6-10.3,3-12.7c-3.5-2.9-12.5-11.1-11.4-18.8c1.1-7.6,14.1-19,26.3-29c0.8-0.7,1.6-1.3,2.3-1.9
			c7.6-6.3,19.7-12.1,36.1-17.2c12.1-3.8,22.2-5.8,22.3-5.8c1-0.2,1.9,0.4,2.1,1.4c0.2,1-0.4,1.9-1.4,2.1
			c-0.4,0.1-39.6,7.8-56.9,22.2c-0.7,0.6-1.4,1.2-2.3,1.9c-7.8,6.4-24,19.8-25,26.7c-0.9,6,7.8,13.9,11.3,16.4
			c0.8,0.6,0.9,1.7,0.4,2.5c0,0.1-4.4,6.3-3.4,11.4c0.8,4,6.9,6.8,9.3,7.6c2.2,0.3,28.4,3.9,56.5,1.1c11.7-1.2,37.6-6.5,37.9-6.5
			c1-0.2,1.9,0.4,2.1,1.4c0.2,1-0.4,1.9-1.4,2.1c-1.1,0.2-26.3,5.4-38.2,6.6C82.8,204.2,75.1,204.5,67.9,204.5z"/>
	</g>
	<g>
		<g>
			<path class="st1" d="M187.9,238.1c-0.1,0-0.2,0-0.3,0l-16.5-2.6c-1-0.2-1.6-1.1-1.5-2c0.2-1,1.1-1.6,2-1.5l14.7,2.3
				c1-7.1,1.9-14.5,1.9-15.9c0-0.1,0-0.2,0-0.3c0-1,0.8-1.8,1.8-1.8c0,0,0,0,0,0c0.5,0,1,0.2,1.3,0.6c0.7,0.8,0.8,0.9-1.8,19.6
				c-0.1,0.5-0.3,0.9-0.7,1.2C188.7,238,188.3,238.1,187.9,238.1z M190.1,219.9L190.1,219.9L190.1,219.9z M189,219.5
				c0.3,0.2,0.6,0.3,1,0.3C189.7,219.9,189.3,219.7,189,219.5z"/>
		</g>
		<g>
			<path class="st1" d="M168.5,243.2c-0.8,0-1.6-0.6-1.7-1.4c-0.2-1,0.4-1.9,1.4-2.1l18.8-4.1c1-0.2,1.9,0.4,2.1,1.4
				c0.2,1-0.4,1.9-1.4,2.1l-18.8,4.1C168.7,243.2,168.6,243.2,168.5,243.2z"/>
		</g>
		<g>
			<path class="st1" d="M176.8,248.6c-0.5,0-1-0.2-1.4-0.6c-0.6-0.8-0.5-1.9,0.2-2.5l11.3-9.6c0.8-0.6,1.9-0.5,2.5,0.2
				c0.6,0.8,0.5,1.9-0.2,2.5l-11.3,9.6C177.6,248.5,177.2,248.6,176.8,248.6z"/>
		</g>
	</g>
	<g class="st2">
		<ellipse class="st3" cx="224.7" cy="248.6" rx="118.3" ry="10.4"/>
	</g>
	<g>
		<g>
			<path class="st1" d="M260.4,238.8c-0.1,0-0.2,0-0.3,0l-16.6-2.4c-1-0.1-1.7-1-1.5-2c0.1-1,1-1.7,2-1.5l14.9,2.1l3.8-24.2
				c0.2-1,1.1-1.6,2-1.5c1,0.2,1.6,1.1,1.5,2l-4,25.9C262,238.2,261.2,238.8,260.4,238.8z"/>
		</g>
		<g>
			<path class="st1" d="M240.1,244.1c-0.8,0-1.5-0.5-1.7-1.3c-0.3-0.9,0.2-1.9,1.2-2.2l19.2-6c0.9-0.3,1.9,0.2,2.2,1.2
				c0.3,0.9-0.2,1.9-1.2,2.2l-19.2,6C240.5,244.1,240.3,244.1,240.1,244.1z"/>
		</g>
		<g>
			<path class="st1" d="M247.3,249.5c-0.5,0-1-0.2-1.4-0.6c-0.6-0.8-0.5-1.9,0.2-2.5l12.6-10.7c0.7-0.6,1.9-0.5,2.5,0.2
				c0.6,0.8,0.5,1.9-0.2,2.5l-12.6,10.7C248.1,249.3,247.7,249.5,247.3,249.5z"/>
		</g>
	</g>
	<g>
		<path class="st0" d="M280,205.5c41.6-15.5,45.8-56.5,45.8-56.5l-7.4,6.1l-1.7-7.8l-5.1,7.8V144l-4,7.8c0,0-13-45.5-37.4-76.6
			s-61-49.4-105.5-46.6c-35.2,2.2-79.7,30.8-64.4,110.7C112.7,204.4,177.2,243.7,280,205.5z"/>
		<path class="st1" d="M205.2,222.3c-0.4,0-0.9,0-1.3,0c-21.9-0.2-41.3-5-57.7-14.2c-24.9-14-41.8-38.4-47.6-68.5
			c-3.6-19-4.1-36.2-1.4-51.2c2.4-13.4,7.4-25,14.8-34.5c12.3-15.9,31.5-25.8,52.6-27.1c43-2.7,81,14.1,107,47.3
			c20,25.5,32.5,60.9,36.4,73l2-3.9c0.4-0.7,1.2-1.1,2-0.9c0.8,0.2,1.4,0.9,1.4,1.7v5.1l1.8-2.8c0.4-0.6,1.1-0.9,1.8-0.8
			c0.7,0.1,1.3,0.7,1.4,1.4l1.1,4.9l5.1-4.2c0.6-0.5,1.3-0.5,2-0.2c0.6,0.3,1,1,0.9,1.8c0,0.4-1.1,10.7-7.5,23.1
			c-5.8,11.4-17.4,26.7-39.5,34.9C253.6,217.2,228.2,222.3,205.2,222.3z M173.4,30.1c-2.9,0-5.8,0.1-8.7,0.3
			c-20.1,1.3-38.3,10.7-50,25.8c-7,9.1-11.8,20.2-14.1,33c-2.6,14.5-2.2,31.3,1.4,49.8c2.8,14.4,8.1,27.4,15.7,38.6
			c7.8,11.4,18,20.6,30.1,27.5c15.9,8.9,34.7,13.5,56,13.7c0.4,0,0.9,0,1.3,0c22.6,0,47.6-5,74.2-14.9c16.8-6.2,29.4-17.4,37.5-33.1
			c3.5-6.9,5.4-13.2,6.3-17.3l-3.6,3c-0.5,0.4-1.1,0.5-1.7,0.3c-0.6-0.2-1-0.7-1.2-1.3l-0.8-3.6l-2.8,4.2c-0.4,0.7-1.2,1-2,0.7
			c-0.8-0.2-1.3-0.9-1.3-1.7v-3.7l-0.6,1.2c-0.3,0.7-1,1-1.8,1c-0.7-0.1-1.3-0.6-1.5-1.3c-0.1-0.5-13.2-45.5-37.1-76
			C245.2,46.3,211.6,30.1,173.4,30.1z M280,205.5L280,205.5L280,205.5z"/>
	</g>
	<g>
		<path class="st4" d="M160.8,19.1"/>
	</g>
	<g>
		<path class="st0" d="M177,63c0,0-11.4,13.9-13.9,13.3c-2.5-0.6-3.8-5.1-3.8-5.1"/>
		<path class="st1" d="M163.2,78.2c-0.3,0-0.4,0-0.6-0.1c-3.4-0.9-4.9-5.7-5.1-6.3c-0.3-0.9,0.3-1.9,1.2-2.2
			c0.9-0.3,1.9,0.3,2.2,1.2c0.4,1.3,1.4,3.3,2.3,3.7c1.8-0.8,7.7-7,12.3-12.6c0.6-0.8,1.7-0.9,2.5-0.3c0.8,0.6,0.9,1.7,0.3,2.5
			C168.1,76.7,164.7,78.2,163.2,78.2z M163.1,74.6L163.1,74.6L163.1,74.6z"/>
	</g>
	<g>
		<path class="st0" d="M120,62.2c0,0,6.1,8.4,8,9.7c1.9,1.3,3.8-1.3,3.8-1.3"/>
		<path class="st1" d="M129.2,74c-0.7,0-1.4-0.2-2.1-0.7c-2.1-1.4-7.4-8.7-8.5-10.1c-0.6-0.8-0.4-1.9,0.4-2.5
			c0.8-0.6,1.9-0.4,2.5,0.4c2.9,4,6.6,8.6,7.6,9.2c0.4,0.2,1.2-0.7,1.4-0.9c0.6-0.8,1.7-0.9,2.5-0.4c0.8,0.6,0.9,1.7,0.4,2.5
			C132.3,73,130.8,74,129.2,74z"/>
	</g>
	<g>
		<path class="st4" d="M111.4,28"/>
	</g>
	<g>
		<path class="st4" d="M84.7,0.1"/>
	</g>
	<g>
		<circle class="st5" cx="171.2" cy="83" r="5.9"/>
	</g>
	<g>
		<circle class="st5" cx="121.5" cy="79.1" r="5.1"/>
	</g>
	<g class="st6">
		<path class="st3" d="M227.2,89.2c0,0-4.6,12.5,0,17.1c4.6,4.6,3.3-14.4,3.3-14.4"/>
	</g>
	<g class="st6">
		<path class="st3" d="M244.3,109.9c0,0,3.7,9.9,0,13.6s-2.6-11.5-2.6-11.5"/>
	</g>
	<g class="st6">
		<path class="st3" d="M241.6,77.4c0,0-4.6,12.5,0,17.1c4.6,4.6,3.3-14.4,3.3-14.4"/>
	</g>
	<g>
		<g>
			<path class="st7" d="M133.9,87.5c0,0,0.9-9.1,10-9.1s10,11.9,10,11.9L133.9,87.5z"/>
			<path class="st1" d="M153.9,91.4c-0.1,0-0.1,0-0.2,0l-20.1-2.7c-0.6-0.1-1.1-0.7-1-1.3c0.4-3.5,3.2-10.2,11.2-10.2
				c8.1,0,10.9,8.5,11.2,13c0,0.4-0.1,0.7-0.4,1C154.5,91.3,154.2,91.4,153.9,91.4z M135.2,86.5l17.3,2.4c-0.2-1.1-0.6-2.6-1.3-4.1
				c-1.6-3.4-4.1-5.2-7.3-5.2C137.7,79.5,135.8,84.2,135.2,86.5z"/>
		</g>
		<g>
			<polygon class="st5" points="152.7,89.8 152.7,97.3 135.6,96 135.6,87.7 			"/>
		</g>
		<g>
			<path class="st7" d="M134.8,95.6l17.8,0.9c0,0-4.3,7.1-10,7.4C137,104,134.8,95.6,134.8,95.6z"/>
			<path class="st1" d="M142.4,105c-6.3,0-8.6-8.8-8.7-9.2c-0.1-0.4,0-0.8,0.2-1c0.2-0.3,0.6-0.5,1-0.4l17.8,0.9
				c0.4,0,0.8,0.3,1,0.6c0.2,0.4,0.2,0.8,0,1.2c-0.2,0.3-4.7,7.7-10.9,7.9C142.6,105,142.5,105,142.4,105z M136.5,96.8
				c0.9,2.2,2.8,5.9,6.1,5.8c3.3-0.1,6.2-3.1,7.8-5.1L136.5,96.8z"/>
		</g>
	</g>
	<g>
		<path class="st1" d="M267.5,25c-0.2,0-0.5-0.1-0.7-0.3c-0.3-0.4-0.3-0.9,0.1-1.3c3.4-2.9,7.1-6.6,8.1-8.2c-0.2,0-0.4,0.1-0.6,0.2
			c-6.8,2.3-12,9.1-12.1,9.2c-0.3,0.4-0.9,0.5-1.2,0.2c-0.4-0.3-0.5-0.9-0.2-1.2c0.2-0.3,5.6-7.4,12.9-9.8c0.7-0.2,2.4-0.8,3.1,0.3
			c0.3,0.6,1.2,2.1-8.7,10.7C267.9,25,267.7,25,267.5,25z"/>
	</g>
	<g>
		<path class="st1" d="M294.2,50.6c-0.4,0-0.8-0.3-0.9-0.7c-0.1-0.5,0.2-1,0.7-1.1c7.3-1.8,12-4.1,12.2-5.4c0-0.3-0.4-0.6-0.6-0.8
			c-1.9-1.2-5.8-0.3-11.2,2.6c-4.3,2.3-8,5.1-8,5.1c-0.4,0.3-1,0.2-1.2-0.2c-0.3-0.4-0.2-1,0.2-1.2c1.6-1.2,15.5-11.6,21.2-7.8
			c1.4,0.9,1.5,1.9,1.4,2.6c-0.6,3.4-10.5,6-13.6,6.8C294.4,50.6,294.3,50.6,294.2,50.6z"/>
	</g>
	<g>
		<path class="st1" d="M306.4,86.1c-6.9,0-8.6-2.8-8.8-3.3c-0.2-0.4,0-1,0.4-1.2c0.4-0.2,1,0,1.2,0.4c0,0,2.5,4.1,15.1,1.3
			c2.2-0.5,3.1-0.9,3.4-1.1c-1.7-1.4-12.6-3.3-22.3-4.3c-0.5-0.1-0.8-0.5-0.8-1c0.1-0.5,0.5-0.8,1-0.8c0.1,0,5.9,0.6,11.6,1.6
			c11.3,1.9,12.4,3.3,12.4,4.5c0.1,1.3-1.4,2.1-4.9,2.9C311.3,85.8,308.6,86.1,306.4,86.1z M317.8,82.4L317.8,82.4L317.8,82.4z"/>
	</g>
	<g>
		<g>
			<path class="st8" d="M247,48.2c0,0,5.9,3,6.5,1.2c0.6-1.8,0-3-0.6-4.2c-0.6-1.2,0.6-3,0.6-3s1.2-0.6-3-3.6s-6.2,0.1-6.2,0.1
				L247,48.2z"/>
			<path class="st1" d="M252.4,51.8c-2,0-4.6-1.1-6.2-1.9l-0.7-0.4l-3-10.9l0.4-0.7c0.1-0.2,1.2-1.7,3.3-2.2
				c1.7-0.3,3.5,0.2,5.4,1.5c2.9,2,4,3.5,3.9,4.9c0,0.5-0.2,0.9-0.5,1.3c-0.2,0.4-0.4,0.9-0.4,1.1c0.6,1.3,1.5,3,0.7,5.5
				c-0.2,0.7-0.8,1.3-1.5,1.5C253.4,51.7,252.9,51.8,252.4,51.8z M248.5,47c1.3,0.6,2.7,1.1,3.5,1.2c0.1-0.7-0.2-1.2-0.6-2.1
				c-0.8-1.5-0.1-3.2,0.3-4.1c-0.3-0.3-0.9-0.9-2.1-1.8c-1-0.7-1.9-1.1-2.7-0.9c-0.2,0-0.3,0.1-0.5,0.2L248.5,47z"/>
		</g>
		<g>
			<path class="st8" d="M250.5,38.7c0,0,23.2-3.6,29.7,11.9s2.4,13.7,2.4,13.7s-11.3-12.5-17.2-16.1s-11.9-5.9-11.9-5.9L250.5,38.7z
				"/>
			<path class="st1" d="M283,66.1c-0.4,0-0.7-0.1-1-0.2l-0.4-0.2l-0.3-0.3c-0.1-0.1-11.2-12.3-16.8-15.7c-5.7-3.4-11.6-5.8-11.6-5.8
				l-0.4-0.2l-5.3-6.3l3.1-0.5c0.2,0,6.2-0.9,13,0.1c9.3,1.5,15.8,5.9,18.7,12.8c4.8,11.3,4.2,14.1,2.9,15.5
				C284.3,65.9,283.6,66.1,283,66.1z M254.6,40.8c1.5,0.6,6.6,2.8,11.7,5.9c4.6,2.8,12.1,10.4,15.6,14.2c-0.3-1.7-1.2-4.6-3.3-9.6
				c-4.5-10.7-18.2-11.4-24.5-11.1L254.6,40.8z"/>
		</g>
		<g>
			<path class="st8" d="M253.5,43.5c0.6,0,17,17.1,19.5,24.8c1.4,4.3,1.6,12.1,1.6,18.1c0,2.1-2.2,2.8-2.8,0.8
				c-2.9-8.6-7.6-21.8-10.1-25.8c-3.8-6-8.2-14.5-8.2-14.5V43.5z"/>
			<path class="st1" d="M273.1,90.1c-1.2,0-2.5-0.7-3-2.4c-4.6-13.5-8.1-22.5-9.9-25.4c-3.8-6-8.1-14.3-8.3-14.7l-0.2-0.4v-5.6h1.8
				c0.7,0,1,0,4.2,3.3c1.1,1.2,3.4,3.6,6.2,6.8c4.1,4.8,9.4,11.5,10.8,15.9c1.2,3.7,1.8,10,1.7,18.7c0,1.9-1.2,3.4-2.8,3.7
				C273.4,90.1,273.3,90.1,273.1,90.1z M256.7,49.1c1.6,3,4.2,7.7,6.5,11.4c2.3,3.7,6.4,14.9,9.6,24.3c0-7.4-0.5-12.9-1.5-15.9
				C269.8,63.9,261.8,54.5,256.7,49.1z"/>
		</g>
		<g>
			<path class="st8" d="M114.4,53c0,0,25,7,35.1,7.1c81.5,1.2,97.5-11.9,97.5-11.9s0-45.8-70.2-45.8C126.3,2.4,114.4,53,114.4,53z"
				/>
			<path class="st1" d="M159.7,62c-3.3,0-6.7,0-10.3-0.1c-10.2-0.1-34.5-6.9-35.5-7.2l-1.6-0.5l0.4-1.7c0.1-0.5,3.2-13.1,12.6-25.9
				c8.7-11.9,24.8-26,51.6-26c20.4,0,47.9,4.1,62.8,23.6c9,11.8,9.1,23.5,9.1,24v0.8l-0.7,0.5C247.5,50.1,232,62,159.7,62z
				 M116.6,51.7c5.8,1.6,24.6,6.5,32.9,6.6c41.3,0.6,65.3-2.5,78.1-5.3c10.8-2.3,15.8-4.8,17.5-5.7c-0.2-2.9-1.5-12-8.5-21
				c-11.2-14.4-31.8-22-59.8-22c-20.4,0-36.8,8.3-48.7,24.5C121,38.3,117.7,48,116.6,51.7z"/>
		</g>
	</g>
	<g>
		<g>
			<path class="st0" d="M198.6,67.8c0.1-0.2,0.2,7.2-2.8,6.8l-5.3-0.8"/>
			<path class="st1" d="M196,75.5c-0.1,0-0.2,0-0.3,0l-5.3-0.8c-0.5-0.1-0.8-0.5-0.7-1c0.1-0.5,0.5-0.8,1-0.7l5.3,0.8
				c0.2,0,0.4,0,0.7-0.3c1.1-1.1,1.3-4.6,1.2-5.4c-0.1-0.3,0-0.5,0.1-0.8c0.3-0.4,0.7-0.5,1.1-0.3c0.5,0.3,0.6,0.7,0.5,2.4
				c0,0.8-0.2,2-0.5,3.2C198.2,75,196.9,75.5,196,75.5z"/>
		</g>
		<g>
			<path class="st0" d="M190.5,77.3c0,0,3.6-0.1,5.2,1.4c1.6,1.4,0.4,5.5,0.4,5.5"/>
			<path class="st1" d="M196.1,85.1c-0.1,0-0.2,0-0.3,0c-0.5-0.1-0.7-0.6-0.6-1.1c0.3-1.1,0.8-3.8-0.1-4.6c-1.1-1-3.7-1.1-4.6-1.2
				c-0.5,0-0.9-0.4-0.9-0.9c0-0.5,0.4-0.9,0.9-0.9c0.4,0,4,0,5.8,1.6c1.9,1.8,0.8,5.9,0.6,6.4C196.8,84.8,196.5,85.1,196.1,85.1z"/>
		</g>
		<g>
			<path class="st0" d="M200.8,84.9c0,0-0.7-3.1,0.7-4.7c1.4-1.6,4.8,0.1,4.8,0.1"/>
			<path class="st1" d="M200.8,85.8c-0.4,0-0.8-0.3-0.9-0.7c-0.1-0.4-0.8-3.6,0.9-5.5c1.8-2,5.5-0.3,5.9-0.1
				c0.4,0.2,0.6,0.8,0.4,1.2c-0.2,0.4-0.8,0.6-1.2,0.4c-0.9-0.5-3-1.1-3.7-0.3c-0.9,1-0.7,3.2-0.5,3.9c0.1,0.5-0.2,1-0.7,1.1
				C200.9,85.8,200.9,85.8,200.8,85.8z"/>
		</g>
		<g>
			<path class="st0" d="M202.7,68.3c0,0-1.9,4.5-0.9,5.9c1,1.4,5.1,2,5.1,2"/>
			<path class="st1" d="M206.9,77.1c0,0-0.1,0-0.1,0c-0.7-0.1-4.5-0.8-5.7-2.3c-1.2-1.6,0.3-5.6,0.8-6.8c0.2-0.5,0.7-0.7,1.2-0.5
				c0.5,0.2,0.7,0.7,0.5,1.2c-0.9,2.1-1.4,4.5-1,5c0.5,0.7,3,1.4,4.5,1.6c0.5,0.1,0.8,0.5,0.7,1C207.7,76.8,207.4,77.1,206.9,77.1z"
				/>
		</g>
	</g>
	<g>
		<path class="st9" d="M226,88c0,0-4.6,12.5,0,17.1c4.6,4.6,3.3-14.4,3.3-14.4"/>
	</g>
	<g>
		<path class="st9" d="M240.4,76.2c0,0-4.6,12.5,0,17.1c4.6,4.6,3.3-14.4,3.3-14.4"/>
	</g>
	<g>
		<path class="st9" d="M243.1,108.7c0,0,3.7,9.9,0,13.6s-2.6-11.5-2.6-11.5"/>
	</g>
</g>
<g>
	<path class="st0" d="M31.4,200.9c0,0,4.6-20.9,2.1-25.8c-2.5-4.9-9.5,3.1-9.5,3.1s6.3-22.7,2.5-26.3c-3.8-3.7-12,0.9-12,0.9
		s-5.1,4.8-2.3,11.7C15,171.3,23,179.4,23,179.4s-4.5,8.3-2.8,12.7S31.4,200.9,31.4,200.9z"/>
	<path class="st1" d="M31.4,202.7c-0.3,0-0.5-0.1-0.8-0.2c-1-0.5-10.2-4.9-12.1-9.8c-1.6-4.1,1-10.3,2.2-13
		c-2.2-2.4-7.9-8.9-10.3-14.7c-3.3-8.1,2.5-13.6,2.7-13.8c0.1-0.1,0.2-0.2,0.4-0.3c0.1-0.1,2.3-1.3,5-2c5-1.4,7.8,0,9.2,1.4
		c1.4,1.4,2.8,4.5,0.7,16.2c-0.4,2.2-0.9,4.3-1.3,6.2c1.4-0.8,3-1.4,4.4-1.2c1,0.1,2.5,0.7,3.5,2.6c2.7,5.2-1.1,23.5-1.9,27.1
		c-0.1,0.6-0.5,1-1,1.3C31.9,202.7,31.7,202.7,31.4,202.7z M24.8,179.8c0,0.2-0.1,0.4-0.2,0.6c-1.6,2.9-3.7,8.5-2.7,11.1
		c0.8,2.1,4.8,4.8,8,6.6c1.7-8.3,3.1-19.4,1.7-22.1c-0.3-0.5-0.5-0.6-0.6-0.6c-1.4-0.2-4.3,2.2-5.8,4
		C25.2,179.5,25,179.7,24.8,179.8z M15.6,154.2c-0.7,0.8-3.7,4.4-1.7,9.5c1.8,4.5,6.1,9.7,8.6,12.5c2.9-11,4.2-21.5,2.6-23
		C23,151.1,17.6,153.2,15.6,154.2z"/>
</g>
<g>
	<path class="st0" d="M185.1,107.1c0,0-71.6,48.9-60.2,68s46.8,2.1,46.8,2.1s-7.6,12.7,0,17.5c7.6,4.8,39.7-6.4,39.7-6.4
		s-7.3,11-1.6,14.3c12,6.9,44-9.5,44-9.5"/>
	<path class="st1" d="M217.5,206c-3.3,0-6.3-0.5-8.6-1.9c-1.5-0.8-2.4-2.2-2.8-3.8c-0.7-2.8,0.4-6.3,1.6-8.9
		c-9.4,3-30.3,8.9-36.9,4.8c-2.7-1.7-5.5-5.2-3.6-12.5c0.3-1.1,0.6-2.1,1-3c-3.6,1.4-9.1,3.3-15.2,4.4c-14.2,2.6-24.4-0.6-29.5-9
		c-5.2-8.8,3.6-23.4,26.2-43.4c16.4-14.5,34.4-26.9,34.6-27c0.8-0.6,1.9-0.3,2.5,0.5c0.6,0.8,0.3,1.9-0.5,2.5
		c-0.2,0.1-18,12.3-34.2,26.7c-20.5,18.2-29.6,32-25.5,38.9c3.7,6.2,10.3,8.2,17.3,8.2c12.8,0,26.9-6.7,27.1-6.8
		c0.7-0.3,1.6-0.2,2.1,0.4c0.5,0.6,0.6,1.4,0.2,2.1c-0.1,0.1-6.6,11.3-0.6,15.1c5,3.1,26.1-2.3,38.2-6.5c0.7-0.3,1.5,0,2,0.6
		c0.5,0.6,0.5,1.4,0.1,2.1c-1.2,1.8-4.1,7.2-3.4,10.2c0.2,0.7,0.5,1.2,1.1,1.6c9.1,5.2,33.7-5.1,42.3-9.6c0.9-0.4,2-0.1,2.4,0.8
		c0.4,0.9,0.1,2-0.8,2.4C253.5,195.2,232.2,206,217.5,206z"/>
</g>
</svg>
