<?xml version="1.0" encoding="utf-8"?>
<!-- Generator: Adobe Illustrator 22.1.0, SVG Export Plug-In . SVG Version: 6.00 Build 0)  -->
<svg version="1.1" id="圖層_1" xmlns="http://www.w3.org/2000/svg" xmlns:xlink="http://www.w3.org/1999/xlink" x="0px" y="0px"
	 viewBox="0 0 290 330" style="enable-background:new 0 0 290 330;" xml:space="preserve">
<style type="text/css">
	.st0{fill:#40220F;}
	.st1{fill:#FAE345;}
	.st2{fill:#C1272D;}
	.st3{opacity:0.27;}
	.st4{fill:#754C24;}
	.st5{fill:#AFAFAF;}
	.st6{opacity:0.29;}
	.st7{fill:#FFFFFF;}
	.st8{fill:#281C08;}
</style>
<g>
	<g>
		<g>
			<g>
				<g>
					<path class="st0" d="M40.7,323.1c-1.4,0-2.6-1-2.8-2.4L34.3,295c-0.2-1.3,0.5-2.5,1.7-3l38.2-16.8c1.4-0.6,3.1,0,3.7,1.4
						s0,3.1-1.4,3.7l-36.2,15.9l3.3,23.5c0.2,1.5-0.9,3-2.4,3.2C40.9,323.1,40.8,323.1,40.7,323.1z"/>
				</g>
				<g>
					<path class="st0" d="M55,323.6c-0.9,0-1.8-0.4-2.3-1.2l-17.9-26.1c-0.7-1.1-0.6-2.5,0.2-3.5c0.9-1,2.3-1.2,3.4-0.6L60,303.9
						c1.4,0.7,1.9,2.5,1.1,3.8c-0.7,1.4-2.5,1.9-3.8,1.1L46,302.7l11.3,16.5c0.9,1.3,0.6,3-0.7,3.9C56.1,323.4,55.5,323.6,55,323.6z
						"/>
				</g>
			</g>
			<g>
				<path class="st1" d="M155.4,63.2c-68.4,0-111.1,53.6-133.5,139S111,311.6,148.8,311.6s119.8-20.2,119.8-106.7
					S223.8,63.2,155.4,63.2z"/>
				<path class="st0" d="M148.8,314.4c-13,0-35.2-2.8-58.4-10.5c-33.9-11.3-51.3-27-59.9-38.2c-13.9-18.1-17.7-39.7-11.3-64.3
					c11.7-44.5,28.6-79.1,50.2-102.7c23.3-25.5,52.3-38.4,86.1-38.4c34.5,0,63.7,13.7,84.5,39.5c20.7,25.8,31.6,62.1,31.6,105
					c0,20.7-4.6,39-13.8,54.6c-7.9,13.3-19.1,24.6-33.3,33.6C199.3,308.8,168.9,314.4,148.8,314.4z M155.4,66
					c-32.2,0-59.7,12.3-81.9,36.6c-21,22.9-37.4,56.7-48.9,100.3c-6,22.8-2.5,42.7,10.3,59.4c27.1,35.1,88.4,46.5,113.9,46.5
					c19.3,0,48.5-5.4,72.6-20.5c29.5-18.5,44.4-46.6,44.4-83.4C265.8,120.5,222.4,66,155.4,66z"/>
			</g>
			<g>
				<g>
					<path class="st0" d="M237.3,313.5c-0.9,0-1.8-0.5-2.4-1.3L212,277.4c-0.9-1.3-0.5-3,0.8-3.9s3-0.5,3.9,0.8l21.8,33.1l22.7-7.2
						c1.5-0.5,3.1,0.4,3.5,1.8c0.5,1.5-0.4,3.1-1.8,3.5l-24.7,7.8C237.9,313.5,237.6,313.5,237.3,313.5z"/>
				</g>
				<g>
					<path class="st0" d="M237.3,313.5c-0.5,0-1-0.1-1.5-0.4c-1.1-0.7-1.6-2.1-1.2-3.3l8-23.3c0.5-1.5,2.1-2.3,3.6-1.8
						s2.3,2.1,1.8,3.6l-4.2,12.2l14.4-13.9c1.1-1.1,2.9-1,4,0.1s1,2.9-0.1,4l-22.8,22C238.7,313.2,238,313.5,237.3,313.5z"/>
				</g>
			</g>
			<g>
				<g>
					
						<rect x="24.8" y="203.9" transform="matrix(0.8983 -0.4393 0.4393 0.8983 -80.1995 89.1543)" class="st2" width="255.4" height="28"/>
					<path class="st0" d="M44,290.5c-0.4,0-0.9-0.1-1.3-0.2c-1-0.3-1.8-1.1-2.3-2l-12.3-25.2c-1-2-0.1-4.3,1.8-5.3l229.4-112.2
						c0.9-0.5,2-0.5,3-0.2s1.8,1.1,2.3,2l12.3,25.2c1,2,0.1,4.3-1.8,5.3L45.7,290.1C45.1,290.3,44.6,290.5,44,290.5z M36.9,263.1
						l8.9,18.1l222.4-108.8l-8.9-18.1L36.9,263.1z"/>
				</g>
			</g>
			<g>
				<path class="st0" d="M159,127.3c-0.3,0-0.6,0-0.8-0.1l-26-8c-1.5-0.5-2.3-2-1.9-3.5c0.5-1.5,2-2.3,3.5-1.9l26,8
					c1.5,0.5,2.3,2,1.9,3.5C161.4,126.5,160.2,127.3,159,127.3z"/>
			</g>
			<g>
				<path class="st0" d="M234.3,130.6c-0.1,0-0.1,0-0.2,0l-27.2-1.9c-1.6-0.1-2.7-1.5-2.6-3c0.1-1.6,1.4-2.7,3-2.6l27.2,1.9
					c1.6,0.1,2.7,1.5,2.6,3C237,129.5,235.7,130.6,234.3,130.6z"/>
			</g>
			<g>
				<circle class="st0" cx="154.1" cy="129.8" r="7"/>
			</g>
			<g>
				<circle class="st0" cx="224.8" cy="134.2" r="7"/>
			</g>
			<g>
				<path class="st0" d="M148.4,153.6c-15.4,0-28-12.6-28-28s12.6-28,28-28s28,12.6,28,28S163.8,153.6,148.4,153.6z M148.4,103.2
					c-12.3,0-22.4,10-22.4,22.4c0,12.3,10,22.4,22.4,22.4s22.4-10,22.4-22.4C170.8,113.3,160.7,103.2,148.4,103.2z"/>
			</g>
			<g>
				<path class="st0" d="M219.8,150.6c-13.5,0-24.5-11-24.5-24.5s11-24.5,24.5-24.5s24.5,11,24.5,24.5S233.3,150.6,219.8,150.6z
					 M219.8,107.3c-10.4,0-18.8,8.4-18.8,18.8s8.4,18.8,18.8,18.8s18.8-8.4,18.8-18.8S230.2,107.3,219.8,107.3z"/>
			</g>
			<g>
				<path class="st0" d="M197.1,124.9H197c-22.3-1.1-22.4-1.4-23.4-3c-0.5-0.8-0.5-1.8-0.1-2.7c0.7-1.4,2.3-2,3.7-1.3
					c2.1,0.3,11.6,1,20,1.4c1.6,0.1,2.8,1.4,2.7,3C199.9,123.7,198.6,124.9,197.1,124.9z"/>
			</g>
			<g>
				<g>
					<path class="st1" d="M203.5,142.8c0,0,0-20.8-11-17.8c-11,3.1-12.9,19-12.9,19L203.5,142.8z"/>
					<path class="st0" d="M179.6,146.8c-0.8,0-1.5-0.3-2.1-0.9c-0.6-0.6-0.8-1.4-0.7-2.3c0.1-0.7,2.2-17.9,14.9-21.4
						c3-0.8,5.9-0.4,8.2,1.4c6.3,4.8,6.4,17.7,6.4,19.1c0,1.5-1.2,2.7-2.7,2.8L179.6,146.8C179.7,146.8,179.7,146.8,179.6,146.8z
						 M203.5,142.8L203.5,142.8L203.5,142.8z M203.5,142.8L203.5,142.8L203.5,142.8z M194.6,127.5c-0.4,0-0.8,0.1-1.4,0.2
						c-6.3,1.7-9,9-10.2,13.3l17.5-0.9c-0.4-4.4-1.6-10.1-4.1-12C196.1,127.8,195.5,127.5,194.6,127.5z"/>
				</g>
				<g>
					<path class="st0" d="M188.3,167.7c-0.5,0-1.1,0-1.7-0.1c-2.9-0.4-5.4-1.8-7-4.1c-3.6-5-2.3-12.5-2.2-13.4
						c0.3-1.5,1.6-2.5,3.1-2.3l19.6,2.5c0.8,0.1,1.5,0.6,2,1.2c0.5,0.7,0.6,1.5,0.4,2.3C202.4,154.6,198.5,167.7,188.3,167.7z
						 M182.8,153.9c0,2.1,0.2,4.7,1.4,6.4c0.7,1,1.7,1.6,3.2,1.8c4.3,0.6,7.1-3.5,8.5-6.5L182.8,153.9z"/>
				</g>
				<g>
					<polygon class="st0" points="178.8,143.7 178.1,149.8 197.7,151.7 198.9,143 					"/>
				</g>
			</g>
		</g>
	</g>
	<g class="st3">
		<path class="st4" d="M131.3,65.6c0,0-37,20.8-60.9,53.6C45.7,153,34.3,199.4,45.8,236.9c21.9,71.2,154.2,65,154.2,65
			S85.2,334.1,26.7,254.5C4.9,224.8,37.6,138.1,68.3,104.3C103.6,65.6,131.3,65.6,131.3,65.6z"/>
	</g>
	<g>
		<g>
			<path class="st5" d="M92.7,79.4c0,0,0.2,0,0.7-0.1c1.6-0.2,6-0.8,12.1-1.6l0,0c6.3-0.8,14.5-1.7,23.2-2.7
				c10.3-1.1,21.5-2.1,31.5-2.7c4.5-0.3,8.7-0.5,12.5-0.5c29.8-0.5,50.2,9.9,50.2,9.9L212,32.8l-1.3-6l-4.4,5.3l-18.2,22.2l-3.2-6.7
				l-9.4-19.8l-3.8-8.1l-3.3-7l-4.1,6.6l-23.4,37.1l-6.9-7.2l-14.3-14.9l-8.9-9.3l-4.4-4.6l-1.4,6.2l-6.8,29.2l-5.3,23L92.7,79.4z"
				/>
			<path class="st0" d="M222.8,84.6c-0.4,0-0.9-0.1-1.3-0.3c-0.2-0.1-20.2-10.1-48.8-9.6c-3.6,0.1-7.8,0.2-12.4,0.5
				c-8.8,0.5-19.3,1.4-31.4,2.7c-7.3,0.8-15.1,1.7-23.1,2.7c0,0,0,0-0.1,0c-6,0.7-10.4,1.3-12,1.5c-0.4,0.1-0.6,0.1-0.6,0.1
				c-0.9,0.1-1.9-0.2-2.5-0.9c-0.6-0.7-0.9-1.6-0.7-2.6l0.1-0.6l13.5-58.3c0.2-1,1-1.8,2-2.1c1-0.3,2.1,0,2.8,0.8l32,33.3L166,11.2
				c0.5-0.9,1.5-1.4,2.6-1.3c1,0.1,1.9,0.7,2.4,1.6l17.8,37.6L208.5,25c0.7-0.8,1.8-1.2,2.8-1c1,0.3,1.9,1.1,2.1,2.1l1.3,6L225.5,81
				c0.2,1.1-0.2,2.2-1,2.8C224,84.4,223.4,84.6,222.8,84.6z M174.9,69.1c20.5,0,36.3,4.9,44,7.9l-9.7-43.9l-18.9,23
				c-0.6,0.7-1.6,1.1-2.5,1c-1-0.1-1.8-0.7-2.2-1.6l-17.5-37l-24.8,39.4c-0.5,0.7-1.2,1.2-2.1,1.3c-0.9,0.1-1.7-0.2-2.3-0.9
				L108,26.1l-11.6,50c2.2-0.3,5.2-0.7,8.7-1.1c0,0,0,0,0.1,0c8-1,15.8-1.9,23.2-2.7c12.1-1.3,22.8-2.2,31.6-2.7
				c4.7-0.3,8.9-0.5,12.6-0.5C173.4,69.1,174.1,69.1,174.9,69.1z"/>
		</g>
		<g>
			<circle class="st5" cx="168.4" cy="12.7" r="7.8"/>
			<path class="st0" d="M168.4,23.3c-5.8,0-10.6-4.7-10.6-10.6s4.7-10.6,10.6-10.6S179,6.9,179,12.7S174.2,23.3,168.4,23.3z
				 M168.4,7.8c-2.7,0-4.9,2.2-4.9,4.9s2.2,4.9,4.9,4.9s4.9-2.2,4.9-4.9S171.1,7.8,168.4,7.8z"/>
		</g>
		<g>
			<circle class="st5" cx="210" cy="26.1" r="7"/>
			<path class="st0" d="M210,36c-5.4,0-9.9-4.4-9.9-9.9s4.4-9.9,9.9-9.9c5.4,0,9.9,4.4,9.9,9.9S215.4,36,210,36z M210,21.9
				c-2.3,0-4.2,1.9-4.2,4.2s1.9,4.2,4.2,4.2s4.2-1.9,4.2-4.2S212.3,21.9,210,21.9z"/>
		</g>
		<g>
			<circle class="st5" cx="106.4" cy="20.5" r="6.3"/>
			<path class="st0" d="M106.4,29.6c-5.1,0-9.2-4.1-9.2-9.2s4.1-9.2,9.2-9.2s9.2,4.1,9.2,9.2S111.4,29.6,106.4,29.6z M106.4,16.9
				c-1.9,0-3.5,1.6-3.5,3.5s1.6,3.5,3.5,3.5s3.5-1.6,3.5-3.5S108.3,16.9,106.4,16.9z"/>
		</g>
	</g>
	<g class="st6">
		<path class="st7" d="M128.4,74.9l0.2,0.2c10.3-1.1,21.5-2.1,31.5-2.7L185,47.6l-9.4-19.8L128.4,74.9z"/>
	</g>
	<g class="st6">
		<path class="st7" d="M92.8,78.8l0.5,0.5c1.6-0.2,6-0.8,12.1-1.6l0,0L134,49.2l-14.3-14.9L98.2,55.9L92.8,78.8z"/>
	</g>
</g>
<g>
	<path class="st8" d="M158.5,50.5c-1.2-0.4-1.8-1.8-0.8-3.6c1.1-1.9,4.3-3.8,8.1-2.9c3.8,1,5.6,4.9,5.2,7.7
		c-0.4,3.2-1.5,4.7-3.2,6.5c-1.2,1.3-2.6,2.4-2.6,2.4c0.1,0.1,3.2,0.1,4.6,0.1c1.7,0.2,2.3,1,2.3,2.1c0.1,1.4-0.8,2.1-2.7,2.1
		s-8.6,0-9.6,0c-0.6,0.1-2.2-0.8-2.3-2c-0.1-1.2,0.7-1.9,2.9-3.9s5.4-4.8,6-7c0.5-1.7-0.1-3-1.4-3.5c-1.1-0.4-1.9-0.3-2.4-0.1
		c-0.7,0.3-1,0.7-1.3,1.1C160.8,50.4,159.6,50.9,158.5,50.5z"/>
</g>
</svg>
