<?xml version="1.0" encoding="utf-8"?>
<!-- Generator: Adobe Illustrator 22.1.0, SVG Export Plug-In . SVG Version: 6.00 Build 0)  -->
<svg version="1.1" id="圖層_1" xmlns="http://www.w3.org/2000/svg" xmlns:xlink="http://www.w3.org/1999/xlink" x="0px" y="0px"
	 viewBox="0 0 65 35" style="enable-background:new 0 0 65 35;" xml:space="preserve">
<style type="text/css">
	.st0{fill:#E83A31;}
	.st1{fill:#F6B400;}
	.st2{fill:#F08702;}
	.st3{fill:#EA5E41;}
	.st4{fill:#EC7053;}
	.st5{fill:#EE7E61;}
	.st6{fill:#E94633;}
	.st7{fill:#EF8A70;}
	.st8{fill:#E72320;}
</style>
<g>
	<path class="st0" d="M59.4,11.6c-2.3,0.7-2.5-1-2.9-2.5c1-0.6,2.1-1.1,3.1-1.7c1.1,0.4,1.1,1.3,1,2.2
		C60.2,10.3,59.8,10.9,59.4,11.6z"/>
	<g>
		<path class="st1" d="M50.8,20.4c-0.8,2.5-3.1,3.4-5,4.8c-4.3,0.1-8.4,1.4-12.4,2.7c-3.6,1.2-7.2,1-10.6,0
			c-6.2-1.7-12.1-4.2-17-8.7c-2-1.8-2.8-4.2-3.5-6.7c0.6-3.4,3.5-5.4,7-5.5c5.4-0.1,10.1,2.3,14.7,4.3c5,2.1,10.1,3.1,15.3,2.1
			c3.8-0.7,7.2,0.2,10.6,1.4c0.7,0,1.2,0.3,1.6,0.8c0.2,0.2,0.4,0.5,0.5,0.8C52.7,18.1,52,19.3,50.8,20.4z"/>
		<path class="st2" d="M2.3,12.5c0.3,0.2,0.9,0.4,1,0.7c1.9,6.5,7.4,9,12.9,11.4c3,1.3,6,2.5,9.2,3c4,0.6,7.5-0.5,11.3-1.6
			c2.9-0.8,5.9-2.5,9.2-0.9c-5,3.6-10.6,5-16.6,5.4c-6.4,0.4-12.6-0.6-18.5-3.4c-4.9-2.3-8-6-9-11.4C1.5,14.6,1.5,13.5,2.3,12.5z"/>
		<path class="st3" d="M60.5,19.6c-0.5,0.5-1.1,0.8-1.8,0.7c-2.5-1.2-4.6-2.7-4.2-5.9c0.1-0.7-0.1-1.3-0.6-1.6
			c-2.2-1.7-0.4-2.2,0.8-2.9c0.5-0.4,1.1-0.8,1.8-0.7c0.8,1.1,1.8,1.8,2.9,2.5c0,1.3-1.6,2.1-1.3,3.5C58.5,16.8,61,17.4,60.5,19.6z"
			/>
		<path class="st4" d="M54.7,9.8c-0.6,0.8-2.3,1.5,0,2.3c0.4,0.1,1.1,1.2,1,1.4c-1.9,3.6,1.9,4.6,3,6.8c-0.5,0.5-1.2,0.5-1.9,0.6
			c-3.2-1.8-3.9-5.3-5.5-8.1C52,11.3,53.1,10.3,54.7,9.8z"/>
		<path class="st5" d="M51.3,12.8c1.2,0.5,2.1,1,2.1,2.6c0.1,2.4,2.9,3.3,3.4,5.5c-0.6,0.3-1.1,0.3-1.7,0c-1.5-1.1-2.4-2.8-3.6-4.2
			c-0.1-0.2-0.3-0.3-0.4-0.5c0.2-1-0.4-2-0.2-3C51,13,51.1,12.8,51.3,12.8z"/>
		<path class="st6" d="M60.5,19.6c-1-1.2-1.9-2.4-2.9-3.6c-0.7-0.8,0.1-0.7,0.4-0.9c1.2,0.4,2.3,0.7,3.5,1.1
			c0.3,0.8,1.4,1.1,1.2,2.2C62.1,19,61.4,19.5,60.5,19.6z"/>
		<path class="st7" d="M51.6,16.7c2,0.7,3,2.3,3.6,4.2c-1.5,0.3-2.8-1.1-4.3-0.5C51.3,19.2,52,18.1,51.6,16.7z"/>
		<path class="st7" d="M50.9,13.2c0.9,1,1.8,1.9,0.2,3c-0.4-0.5-0.8-0.9-1.3-1.4C50.3,14.3,50.6,13.7,50.9,13.2z"/>
		<path class="st8" d="M62.8,18.4c-0.5-0.7-1.4-1.1-1.2-2.2c0.9,0.2,2.2,0,2.6,1C64.5,17.9,63.3,18.1,62.8,18.4z"/>
	</g>
</g>
</svg>
