<?xml version="1.0" encoding="utf-8"?>
<!-- Generator: Adobe Illustrator 22.1.0, SVG Export Plug-In . SVG Version: 6.00 Build 0)  -->
<svg version="1.1" id="圖層_1" xmlns="http://www.w3.org/2000/svg" xmlns:xlink="http://www.w3.org/1999/xlink" x="0px" y="0px"
	 viewBox="0 0 188 235" style="enable-background:new 0 0 188 235;" xml:space="preserve">
<style type="text/css">
	.st0{fill:#40220F;}
	.st1{fill:#FAE345;}
	.st2{fill:#B97233;}
	.st3{fill:#C1272D;}
	.st4{fill:#FFFFFF;}
	.st5{fill:#42210B;}
</style>
<g>
	<g>
		<g>
			<path class="st0" d="M166.8,225.1c-0.2,0-0.3,0-0.5-0.1c-1-0.3-1.5-1.3-1.2-2.3l4.8-16.4L124.7,178c-0.9-0.5-1.1-1.7-0.6-2.5
				c0.5-0.9,1.7-1.1,2.5-0.6l46.2,29.1c0.7,0.4,1,1.3,0.8,2.1l-5.1,17.7C168.3,224.5,167.6,225.1,166.8,225.1z"/>
		</g>
		<g>
			<path class="st0" d="M156.1,222.5c-0.4,0-0.9-0.2-1.2-0.5c-0.7-0.7-0.8-1.8-0.1-2.6l8-8.6l-7,2.6c-0.9,0.3-2-0.1-2.3-1.1
				c-0.3-0.9,0.1-2,1.1-2.3l14.2-5.1c0.8-0.3,1.7,0,2.1,0.7c0.5,0.7,0.4,1.6-0.2,2.3l-13.2,14.2C157,222.3,156.6,222.5,156.1,222.5z
				"/>
		</g>
	</g>
	<g>
		<g>
			<path class="st0" d="M34.1,221.8c-0.2,0-0.3,0-0.5-0.1L15.9,217c-1-0.3-1.6-1.3-1.3-2.2s1.3-1.6,2.2-1.3l16.4,4.4l28.6-48.2
				c0.5-0.9,1.6-1.2,2.5-0.6c0.9,0.5,1.2,1.6,0.6,2.5l-29.3,49.4C35.4,221.5,34.8,221.8,34.1,221.8z"/>
		</g>
		<g>
			<path class="st0" d="M34.1,221.8c-0.4,0-0.9-0.2-1.2-0.5l-16.8-14.9c-0.8-0.7-0.8-1.8-0.2-2.6c0.7-0.8,1.8-0.8,2.6-0.2l11.1,9.8
				l-3.6-9.2c-0.4-0.9,0.1-2,1-2.4c0.9-0.4,2,0.1,2.4,1l6.4,16.2c0.3,0.8,0,1.7-0.6,2.2C34.9,221.7,34.5,221.8,34.1,221.8z"/>
		</g>
	</g>
</g>
<g>
	<g>
		<g>
			<g>
				<g>
					<path class="st1" d="M85.9,43.8c48,0,78,37.7,93.6,97.5s-62.6,76.8-89,76.8S6.4,203.9,6.4,143.3S37.9,43.8,85.9,43.8z"/>
				</g>
			</g>
			<g>
				<g>
					<path class="st0" d="M90.5,220.2c-14.1,0-35.5-3.9-53.1-15c-21.7-13.6-33.2-35-33.2-62c0-30.2,7.7-55.7,22.2-73.8
						c14.6-18.2,35.1-27.8,59.4-27.8c23.8,0,44.1,9.1,60.5,27c15.2,16.6,27,40.8,35.2,72.1c4.5,17.3,1.8,32.5-8,45.2
						C153.6,211.9,109,220.2,90.5,220.2z M85.9,45.9c-47,0-77.4,38.2-77.4,97.4c0,25.8,10.5,45.4,31.2,58.4
						C56.5,212.2,77,216,90.5,216c17.8,0,60.7-8,79.7-32.6c9-11.6,11.4-25.6,7.3-41.6c-8-30.6-19.5-54.3-34.2-70.3
						C127.8,54.5,108.5,45.9,85.9,45.9z"/>
				</g>
			</g>
		</g>
		<g>
			<g>
				<g>
					<path class="st0" d="M83.3,84.3c-0.9,0-1.6-0.6-1.8-1.5c-0.2-1,0.5-1.9,1.5-2.1l19.9-3.2c1-0.2,1.9,0.5,2.1,1.5
						c0.2,1-0.5,1.9-1.5,2.1l-19.9,3.2C83.5,84.3,83.4,84.3,83.3,84.3z"/>
				</g>
			</g>
		</g>
		<g>
			<g>
				<g>
					<path class="st0" d="M29.8,87.8c-0.8,0-1.4-0.6-1.5-1.4c-0.1-0.8,0.6-1.5,1.4-1.6l20-1.5c0.8-0.1,1.5,0.6,1.6,1.4
						c0.1,0.8-0.6,1.5-1.4,1.6l-20,1.5C29.8,87.8,29.8,87.8,29.8,87.8z"/>
				</g>
			</g>
		</g>
		<g>
			<g>
				<g>
					<circle class="st0" cx="87.3" cy="87.8" r="5.2"/>
				</g>
			</g>
		</g>
		<g>
			<g>
				<g>
					<circle class="st0" cx="37.7" cy="91" r="5.2"/>
				</g>
			</g>
		</g>
		<g>
			<g>
				<g>
					<path class="st1" d="M23,125.1c0,0,37,11.6,42.9,21.5c6,10.2-21.2,9.5-21.2,9.5s11.3,0.8,13.5,8.6c1.8,6-18.5,5.2-18.5,5.2
						s8.6,0.4,6.4,6c-2.3,5.6-17.1,1.8-17.1,1.8"/>
				</g>
			</g>
			<g>
				<g>
					<path class="st0" d="M38.3,180.7c-4.2,0-8.5-1-9.9-1.4c-1-0.2-1.5-1.2-1.3-2.2c0.2-1,1.2-1.5,2.2-1.3c5.4,1.4,13.9,2.1,15-0.7
						c0.4-1.1,0.2-1.6,0.1-1.7c-0.8-1.2-3.6-1.7-4.8-1.8c-1,0-1.8-0.9-1.7-1.9c0-1,0.9-1.7,1.9-1.7c6.9,0.3,15.2-0.6,16.6-2.4
						c0.1-0.1,0.1-0.2,0.1-0.4c-1.9-6.5-11.8-7.3-11.9-7.3c-1-0.1-1.7-0.9-1.7-1.9c0-1,0.9-1.8,1.8-1.7c7.2,0.2,18.2-1,20-4.1
						c0.2-0.3,0.6-1-0.4-2.6c-4.5-7.6-31.7-17.5-41.8-20.7c-1-0.3-1.5-1.3-1.2-2.3c0.3-1,1.3-1.5,2.3-1.2
						c3.9,1.2,37.8,12.1,43.9,22.3c1.7,2.9,1.1,5,0.4,6.3c-1.7,2.8-6,4.6-13.3,5.4c2.3,1.5,4.4,3.6,5.3,6.8c0.4,1.3,0.1,2.6-0.7,3.6
						c-1.9,2.4-7.1,3.4-11.7,3.7c0.6,1,1.2,2.7,0.2,5C46.4,179.8,42.4,180.7,38.3,180.7z"/>
				</g>
			</g>
		</g>
		<g>
			<g>
				<g>
					<g>
						<path class="st0" d="M54.1,167.2c-1.9,0-3.7-0.9-4.8-2.4l-27.1-37.4c-1.1-1.4-1.5-3.2-1.1-4.9c0.4-1.8,1.6-3.2,3.2-4
							l22.8-11.1c2.6-1.3,5.8-0.5,7.5,2L82,148.1c1,1.5,1.4,3.3,0.9,5.1c-0.5,1.7-1.7,3.1-3.4,3.8l-23.1,9.8
							C55.6,167.1,54.9,167.2,54.1,167.2z M49.7,109.9c-0.4,0-0.9,0.1-1.3,0.3l-22.8,11.1c0,0,0,0,0,0c-0.8,0.4-1.4,1.1-1.6,2
							c-0.2,0.9,0,1.7,0.5,2.4L51.7,163c0.8,1.1,2.3,1.5,3.5,1l23.1-9.8c0.8-0.3,1.4-1,1.7-1.9c0.2-0.9,0.1-1.8-0.4-2.5l-27.4-38.6
							C51.5,110.3,50.7,109.9,49.7,109.9z M25,119.9L25,119.9L25,119.9z"/>
					</g>
				</g>
			</g>
			<g>
				<g>
					<g>
						<path class="st2" d="M24.3,122.4l22.8-11.1c2-1,4.3-0.4,5.6,1.5l27.4,38.6c1.7,2.3,0.7,5.6-1.9,6.7l-23.1,9.8
							c-1.9,0.8-4.1,0.2-5.3-1.5l-27.1-37.4C21,126.8,21.7,123.6,24.3,122.4z"/>
					</g>
				</g>
				<g>
					<g>
						<path class="st0" d="M53.4,169.8c-1.9,0-3.7-0.9-4.8-2.4L21.5,130c-1.1-1.4-1.5-3.2-1.1-5c0.4-1.7,1.6-3.2,3.2-3.9l22.8-11
							c2.6-1.3,5.8-0.5,7.5,2l27.4,38.6c1,1.5,1.4,3.3,0.9,5.1c-0.5,1.7-1.7,3.1-3.4,3.8l-23.1,9.8C55,169.6,54.2,169.8,53.4,169.8z
							 M49,112.4c-0.4,0-0.9,0.1-1.3,0.3l-22.8,11.1c0,0,0,0,0,0c-0.8,0.4-1.4,1.1-1.6,1.9c-0.2,0.9,0,1.8,0.6,2.5L51,165.6
							c0.8,1.1,2.3,1.5,3.5,1l23.1-9.8c0.8-0.3,1.4-1,1.7-1.9c0.2-0.9,0.1-1.8-0.4-2.5l-27.4-38.6C50.9,112.9,50,112.4,49,112.4z
							 M24.3,122.4L24.3,122.4L24.3,122.4z"/>
					</g>
				</g>
			</g>
		</g>
		<g>
			<g>
				<g>
					<path class="st0" d="M91,105.7c-11.9,0-21.7-9.7-21.7-21.7S79.1,62.4,91,62.4s21.7,9.7,21.7,21.7S103,105.7,91,105.7z M91,65.4
						c-10.3,0-18.7,8.4-18.7,18.7s8.4,18.7,18.7,18.7s18.7-8.4,18.7-18.7S101.3,65.4,91,65.4z"/>
				</g>
			</g>
		</g>
		<g>
			<g>
				<g>
					<path class="st0" d="M39.8,102.5c-9.6,0-17.5-7.8-17.5-17.5c0-9.6,7.8-17.5,17.5-17.5s17.5,7.8,17.5,17.5
						C57.3,94.7,49.5,102.5,39.8,102.5z M39.8,70.6c-8,0-14.4,6.5-14.4,14.4s6.5,14.4,14.4,14.4S54.3,93,54.3,85.1
						S47.8,70.6,39.8,70.6z"/>
				</g>
			</g>
		</g>
		<g>
			<g>
				<g>
					<path class="st0" d="M55.5,84.2c-1.1,0-2-0.9-2.1-2c-0.1-1.2,0.8-2.2,2-2.2c6.3-0.4,13.3-0.8,14.8-1.1c1-0.5,2.2,0,2.7,1
						c0.3,0.6,0.3,1.4-0.1,2c-0.7,1.2-0.8,1.4-17.3,2.3C55.6,84.2,55.5,84.2,55.5,84.2z"/>
				</g>
			</g>
		</g>
		<g>
			<g>
				<g>
					<g>
						<path class="st1" d="M50.8,97.3c0,0,0-15.4,8.1-13.1c8.1,2.3,9.5,14,9.5,14L50.8,97.3z"/>
					</g>
				</g>
				<g>
					<g>
						<path class="st0" d="M68.4,99.7C68.4,99.7,68.4,99.7,68.4,99.7l-17.7-0.9c-0.8,0-1.4-0.7-1.4-1.5c0-1,0.1-10.3,4.5-13.6
							c1.5-1.2,3.4-1.5,5.5-0.9c9,2.5,10.5,14.7,10.6,15.3c0.1,0.4-0.1,0.9-0.4,1.2C69.2,99.5,68.8,99.7,68.4,99.7z M52.4,95.9
							l14.2,0.7c-0.7-3.1-2.8-9.5-8.1-10.9c-1.2-0.3-2.1-0.2-2.9,0.4C53.3,87.8,52.6,92.9,52.4,95.9z"/>
					</g>
				</g>
			</g>
			<g>
				<g>
					<g>
						<path class="st0" d="M62.2,115.2c-2.9,0-5.6-1.6-7.6-4.7c-1.6-2.4-2.4-5-2.4-5.1c-0.1-0.4-0.1-0.9,0.2-1.2
							c0.2-0.4,0.6-0.6,1.1-0.7l14.5-1.9c0.8-0.1,1.5,0.4,1.7,1.2c0,0.2,1,5.9-1.5,9.4c-1.1,1.6-2.7,2.5-4.7,2.8
							C62.9,115.2,62.5,115.2,62.2,115.2z M55.6,106.3c1,2.4,3.4,6.4,7.2,5.9c1.2-0.2,2.1-0.7,2.7-1.6c1.1-1.6,1.3-4,1.2-5.7
							L55.6,106.3z"/>
					</g>
				</g>
			</g>
			<g>
				<g>
					<g>
						<polygon class="st0" points="69.1,98 69.6,102.5 55.2,103.8 54.3,97.5 						"/>
					</g>
				</g>
			</g>
		</g>
		<g>
			<g>
				<g>
					<path class="st1" d="M109.1,102.6c0,0-36.7,18.9-39.2,40.1c-2.5,21.1,34.5-0.3,34.5-0.3s-13.6,13.2-7.6,22.7
						c6,9.6,17,1.4,17,1.4s-9.1,15.7,4.5,16.9s18.9-4.6,18.9-4.6"/>
				</g>
			</g>
			<g>
				<g>
					<path class="st0" d="M122.1,185.4c-1.2,0-2.5-0.1-3.9-0.2c-4-0.4-6.8-1.9-8.2-4.6c-1.6-3.1-0.9-7,0.1-10.1
						c-2.2,0.8-4.8,1.4-7.5,0.9c-3-0.6-5.5-2.4-7.3-5.3c-3.8-6-0.9-13,2.4-18.1c-8.1,3.8-20.2,8.2-26.1,4.3
						c-2.8-1.9-3.9-5.1-3.4-9.8c2.6-21.9,38.7-40.7,40.2-41.5c0.9-0.5,2-0.1,2.4,0.8c0.5,0.9,0.1,2-0.8,2.4
						c-0.4,0.2-35.9,18.7-38.3,38.7c-0.6,4.8,1.2,6,1.8,6.3c5.3,3.5,21.2-3.3,30.1-8.4c0.8-0.5,1.8-0.3,2.3,0.5
						c0.5,0.7,0.5,1.7-0.2,2.4c-0.1,0.1-12.5,12.3-7.4,20.4c1.3,2.1,2.9,3.3,4.9,3.7c3.8,0.7,8.1-1.8,9.5-2.8
						c0.7-0.5,1.6-0.5,2.3,0.1c0.6,0.6,0.8,1.5,0.4,2.3c-1.2,2.1-3.9,8.2-2.2,11.5c0.8,1.6,2.5,2.4,5.3,2.7c12.4,1.2,17.3-4,17.4-4
						c0.7-0.7,1.8-0.8,2.5-0.1c0.7,0.7,0.8,1.8,0.1,2.5C138.3,180.2,133.6,185.4,122.1,185.4z"/>
				</g>
			</g>
		</g>
	</g>
	<g>
		<g>
			<g>
				<path class="st3" d="M52.6,49.3c1-1-12.2-26.7,3.7-29.5c7.3-1.3,5.2,19.7,5.2,19.7s17.4-38,31-31.8
					c16.1,7.2-19.2,32.8-19.2,32.8s17.8-14.6,27.7-7.5S75.1,46.5,75.1,46.5s-3.3-2.8-8.9-1S52.6,49.3,52.6,49.3z"/>
			</g>
		</g>
		<g>
			<g>
				<path class="st0" d="M52.6,51.4c-0.8,0-1.5-0.4-1.8-1.1c-0.2-0.4-0.3-0.9-0.2-1.3c-0.1-0.5-0.5-1.7-0.8-2.7
					c-1.9-5.9-5.6-16.9-1.6-23.6c1.6-2.7,4.3-4.4,7.9-5.1c1.7-0.3,3.3,0.2,4.5,1.3c2.3,2.2,3.2,6.8,3.4,11.2
					C70.2,18.7,82.2,0.6,93.4,5.7c4.1,1.8,5.2,4.7,5.4,6.7c0.5,5.2-4.2,11.6-9.6,17.2c4.6-1.2,9.3-1.2,13.1,1.5
					c2.6,1.9,2.8,3.8,2.5,5.1c-0.5,2.3-2.7,5.3-15.8,9.1c-6.8,2-13.2,3.2-13.5,3.2c-0.6,0.1-1.3-0.1-1.8-0.5c-0.1-0.1-2.6-2-6.9-0.6
					c-5.6,1.9-13.5,3.7-13.8,3.8C52.9,51.3,52.7,51.4,52.6,51.4z M51.1,47.8C51.1,47.8,51.1,47.8,51.1,47.8
					C51.1,47.8,51.1,47.8,51.1,47.8z M56.9,21.8c-0.1,0-0.2,0-0.3,0c-2.4,0.4-4,1.4-5,3.1c-3,5.1,0.3,15.2,2,20.1
					c0.2,0.7,0.4,1.2,0.6,1.8c2.7-0.7,7.6-1.9,11.3-3.2c4.9-1.6,8.4-0.2,10,0.7c2-0.4,7.2-1.5,12.4-3c11.9-3.5,12.7-5.8,12.7-5.9
					c0,0,0,0,0,0c0,0-0.1-0.3-0.8-0.8c-6-4.3-16.6,1.4-22.5,5.5c-1.3,1-2.3,1.7-2.7,2c-0.9,0.7-2.2,0.5-2.9-0.4
					c-0.7-0.9-0.5-2.2,0.3-2.9c0.2-0.1,1.1-0.9,2.6-2c8.9-6.9,20.6-18,20-24c-0.1-0.9-0.5-2.2-3-3.3c-9.6-4.3-23.9,21.4-28.2,30.8
					c-0.4,0.9-1.5,1.4-2.5,1.2c-1-0.3-1.6-1.2-1.5-2.2c1-9.7-0.5-15.9-1.8-17.1C57.4,21.9,57.2,21.8,56.9,21.8z"/>
			</g>
		</g>
	</g>
	<g>
		<g>
			<g>
				<path class="st4" d="M113.3,79.1c0,0,0.1,4.7,3.4,6c1.7,0.7,3.6,1.1,5.2,1.4c0.5,0.1,0.4,0.5,0,0.6c-2,0.3-4.6,1-5.7,2.8
					c-1.9,3.2-2.9,14-2.9,14h-0.1c0,0-1.2-10.8-3-14c-1.1-1.9-3.6-2.5-5.6-2.8c-0.5-0.1-0.5-0.5,0-0.6c1.6-0.3,3.5-0.7,5.1-1.4
					C113,83.8,113.2,79.1,113.3,79.1"/>
			</g>
		</g>
		<g>
			<g>
				<path class="st5" d="M113.3,104.4h-0.6l-0.1-0.5c0-0.1-1.2-10.7-3-13.8c-0.7-1.3-2.5-2.1-5.1-2.5c-0.7-0.1-0.9-0.6-0.9-0.9
					c0-0.3,0.2-0.8,0.9-0.9c1.6-0.3,3.5-0.7,5-1.3c1.7-0.6,2.8-2.4,3.2-5.2c0-0.3,0.1-0.8,0.7-0.8h0.6l0,0.6c0,0,0.1,4.3,3,5.4
					c1.6,0.7,3.5,1,5.1,1.3c0.6,0.1,0.8,0.5,0.8,0.8c0,0.4-0.3,0.8-0.8,0.9c-2.8,0.4-4.6,1.3-5.3,2.6c-1.8,3.1-2.8,13.6-2.9,13.7
					l-0.1,0.5H113.3z M106.2,86.7c2.2,0.6,3.7,1.5,4.5,2.8c1.1,2,2,6.6,2.5,10c0.5-3.4,1.3-8,2.5-10c0.8-1.3,2.3-2.3,4.6-2.8
					c-1.3-0.3-2.6-0.6-3.8-1.1c-1.8-0.7-2.8-2.3-3.3-3.7c-0.7,1.9-1.8,3.1-3.3,3.7C108.8,86.1,107.5,86.5,106.2,86.7z"/>
			</g>
		</g>
	</g>
</g>
</svg>
