<?xml version="1.0" encoding="utf-8"?>
<!-- Generator: Adobe Illustrator 22.1.0, SVG Export Plug-In . SVG Version: 6.00 Build 0)  -->
<svg version="1.1" id="圖層_1" xmlns="http://www.w3.org/2000/svg" xmlns:xlink="http://www.w3.org/1999/xlink" x="0px" y="0px"
	 viewBox="0 0 290 330" style="enable-background:new 0 0 290 330;" xml:space="preserve">
<style type="text/css">
	.st0{fill:#FFFFFF;}
	.st1{fill:#40220F;}
	.st2{fill:#FAE345;}
	.st3{fill:#C1272D;}
	.st4{opacity:0.27;}
	.st5{fill:#754C24;}
	.st6{fill:#B97233;}
	.st7{opacity:0.29;}
	.st8{fill:#281C08;}
</style>
<g>
	<path class="st0" d="M112.8,237.7c0,0,0.3,8-1,11.5c-2.4,6-9.4,3.8-9.4,3.8s7.3-0.3,8.7,4.5c1.4,4.9,1.7,14.9,1.7,14.9
		s-0.7-15.3,2.8-16.7c3.5-1.4,7.6-2.1,7.6-2.1s-7.3,1.7-9.4-4.5S112.8,237.7,112.8,237.7z"/>
</g>
<g>
	<g>
		<g>
			<g>
				<g>
					<path class="st1" d="M249.3,326c-0.1,0-0.3,0-0.4,0c-1.5-0.2-2.6-1.6-2.4-3.2l3.3-23.7l-36.4-16c-1.4-0.6-2.1-2.3-1.5-3.7
						c0.6-1.4,2.3-2.1,3.7-1.5l38.4,16.9c1.2,0.5,1.8,1.7,1.7,3l-3.6,25.8C251.9,325,250.7,326,249.3,326z"/>
				</g>
				<g>
					<path class="st1" d="M234.9,326.5c-0.6,0-1.1-0.2-1.6-0.5c-1.3-0.9-1.6-2.6-0.7-3.9l11.3-16.5l-11.4,6.2
						c-1.4,0.7-3.1,0.2-3.8-1.1c-0.7-1.4-0.2-3.1,1.1-3.8l21.7-11.8c1.2-0.6,2.6-0.4,3.5,0.6s1,2.4,0.2,3.5l-18,26.2
						C236.7,326,235.8,326.5,234.9,326.5z"/>
				</g>
			</g>
			<g>
				<path class="st2" d="M134,64.8c68.7,0,111.6,53.9,134.2,139.6c22.5,85.8-89.6,110-127.6,110S20.2,294.1,20.2,207.2
					S65.3,64.8,134,64.8z"/>
				<path class="st1" d="M140.6,317.2c-20.2,0-50.8-5.6-75.9-21.5c-14.3-9-25.5-20.3-33.4-33.7c-9.2-15.6-13.9-34.1-13.9-54.8
					c0-43.2,11-79.7,31.8-105.5C70,75.7,99.4,62,134,62c34,0,63.1,13,86.5,38.6c21.7,23.7,38.6,58.4,50.4,103.2
					c6.5,24.7,2.7,46.4-11.4,64.6c-8.7,11.3-26.2,27.1-60.2,38.4C176,314.5,153.7,317.2,140.6,317.2z M134,67.6
					c-67.4,0-111,54.8-111,139.6c0,37,15,65.2,44.7,83.8c24.2,15.2,53.5,20.6,72.9,20.6c25.6,0,87.2-11.4,114.5-46.7
					c12.9-16.7,16.4-36.8,10.4-59.7c-11.5-43.9-28.1-77.8-49.1-100.8C194,80,166.4,67.6,134,67.6z"/>
			</g>
			<g>
				<g>
					<path class="st1" d="M51.7,316.4c-0.3,0-0.6,0-0.9-0.1L26,308.4c-1.5-0.5-2.3-2.1-1.8-3.6s2.1-2.3,3.6-1.8l22.8,7.2L72.4,277
						c0.9-1.3,2.6-1.7,3.9-0.8c1.3,0.9,1.7,2.6,0.8,3.9l-23,35C53.6,315.9,52.7,316.4,51.7,316.4z"/>
				</g>
				<g>
					<path class="st1" d="M51.7,316.4c-0.7,0-1.4-0.3-2-0.8l-22.9-22.1c-1.1-1.1-1.2-2.9-0.1-4s2.9-1.2,4-0.1l14.4,13.9L41,291.1
						c-0.5-1.5,0.3-3.1,1.8-3.6s3.1,0.3,3.6,1.8l8,23.4c0.4,1.2-0.1,2.6-1.2,3.3C52.8,316.2,52.3,316.4,51.7,316.4z"/>
				</g>
			</g>
			<g>
				<circle class="st1" cx="135.9" cy="135.5" r="7.4"/>
			</g>
			<g>
				<circle class="st1" cx="65.1" cy="132.4" r="7.4"/>
			</g>
			<g>
				<g>
					<path class="st2" d="M87.4,148.5c0,0,1-16.8,12.3-16.1c12.1,0.8,12.9,17.4,12.9,17.4L87.4,148.5z"/>
					<path class="st1" d="M112.6,152.6L112.6,152.6l-25.3-1.3c-0.8,0-1.5-0.4-2-0.9c-0.5-0.6-0.8-1.3-0.7-2.1
						c0-0.4,0.7-10.7,6.5-15.8c2.5-2.2,5.4-3.2,8.8-3c11.5,0.7,15.2,13.5,15.6,20.1c0,0.8-0.3,1.6-0.8,2.1
						C114,152.3,113.3,152.6,112.6,152.6z M90.6,145.8l18.7,1c-0.9-4.2-3.2-11.2-9.8-11.6c-1.2-0.1-5-0.3-7.6,5.9
						C91.3,142.8,90.8,144.5,90.6,145.8z"/>
				</g>
				<g>
					<path class="st2" d="M110.1,152.1l-20.8-0.5c0,0,1.8,14,11.6,14.2C110.6,165.9,110.1,152.1,110.1,152.1z"/>
					<path class="st1" d="M101,168.6c-0.1,0-0.1,0-0.2,0c-5.1-0.1-9.3-3.1-12-8.8c-1.9-3.9-2.4-7.7-2.4-7.9
						c-0.1-0.8,0.1-1.6,0.7-2.3c0.6-0.6,1.3-0.9,2.2-0.9l20.8,0.5c1.5,0,2.7,1.2,2.8,2.7c0,0.9,0.2,8.9-4.3,13.5
						C106.6,167.6,104,168.6,101,168.6z M92.8,154.5c1.1,3.4,3.4,8.3,8.1,8.4c1.5,0,2.7-0.4,3.7-1.4c1.6-1.6,2.3-4.5,2.6-6.7
						L92.8,154.5z"/>
				</g>
			</g>
			<g>
				<g>
					
						<rect x="122.8" y="91.9" transform="matrix(0.4393 -0.8983 0.8983 0.4393 -121.0455 246.4802)" class="st3" width="28.2" height="256.7"/>
					<path class="st1" d="M246,293.2c-0.6,0-1.2-0.1-1.7-0.4L13.7,180c-0.9-0.5-1.7-1.3-2-2.3s-0.3-2.1,0.2-3l12.4-25.3
						c1-2,3.3-2.8,5.3-1.8l230.6,112.8c2,1,2.8,3.3,1.8,5.3L249.5,291c-0.5,0.9-1.3,1.7-2.3,2C246.8,293.1,246.4,293.2,246,293.2z
						 M20.7,174.7L244.1,284l8.9-18.2L29.6,156.5L20.7,174.7z"/>
				</g>
			</g>
			<g>
				<circle class="st0" cx="133" cy="131.7" r="1.4"/>
			</g>
			<g>
				<circle class="st0" cx="62.8" cy="128.1" r="1.4"/>
			</g>
			<g>
				<path class="st1" d="M128.1,122.9c-1.3,0-2.4-1-2.5-2.3c-0.1-1.4,0.9-2.6,2.3-2.6l30.2-2.1c1.4-0.1,2.5,0.9,2.6,2.3
					s-0.9,2.6-2.3,2.6l-30.2,2.1C128.2,122.9,128.1,122.9,128.1,122.9z"/>
			</g>
			<g>
				<path class="st1" d="M79,126.1c-0.4,0-0.9-0.1-1.3-0.2c-3.4-1.1-18.2-10-19.9-11c-1.2-0.7-1.6-2.2-0.9-3.4
					c0.7-1.2,2.2-1.6,3.4-0.9c5.4,3.2,14.2,8.3,17.7,10c0.1-1.2,0-2.9-0.3-4.5c-0.2-1.3,0.7-2.6,2-2.9c1.3-0.2,2.6,0.7,2.9,2
					c0.6,3.5,0.9,8-1.3,9.9C80.7,125.8,79.9,126.1,79,126.1z"/>
			</g>
		</g>
	</g>
	<g class="st4">
		<path class="st5" d="M158.2,67.2c0,0,37.2,20.9,61.2,53.9c24.8,34,36.3,80.7,24.8,118.3c-22,71.5-154.9,65.4-154.9,65.4
			s115.3,32.4,174.1-47.6c21.9-29.8-10.9-116.9-41.8-150.9C186.1,67.2,158.2,67.2,158.2,67.2z"/>
	</g>
	<g>
		<g>
			<path class="st6" d="M197,81.2c0,0-0.2,0-0.7-0.1c-1.6-0.2-6-0.8-12.1-1.6l0,0c-6.3-0.8-14.5-1.7-23.3-2.7
				c-10.4-1.1-21.6-2.1-31.7-2.7c-4.5-0.3-8.7-0.5-12.6-0.5c-29.9-0.5-50.4,9.9-50.4,9.9L77,34.3l1.3-6.1l4.4,5.3L101,55.8l3.2-6.7
				l9.4-19.9l3.9-8.1l3.3-7l4.2,6.6L148.6,58l6.9-7.2l14.4-15l9-9.3l4.4-4.6l1.4,6.2l6.8,29.4l5.4,23.1L197,81.2z"/>
			<path class="st1" d="M66.3,86.3c-0.6,0-1.2-0.2-1.7-0.6c-0.9-0.7-1.3-1.8-1-2.8l12.1-55.3c0.2-1.1,1.1-1.9,2.1-2.1
				c1.1-0.3,2.2,0.1,2.9,1l19.8,24.2l17.9-37.8c0.4-0.9,1.4-1.6,2.4-1.6c1-0.1,2,0.4,2.6,1.3L149,53.4l32.2-33.5
				c0.7-0.7,1.8-1,2.8-0.8c1,0.3,1.8,1.1,2,2.1l13.8,59.3c0.2,0.9,0,1.9-0.7,2.6c-0.6,0.7-1.6,1-2.5,0.9c0,0-0.2,0-0.6-0.1
				c-1.6-0.2-6-0.8-12.1-1.6c0,0,0,0-0.1,0c-8.1-1-15.9-1.9-23.3-2.7c-12.1-1.3-22.7-2.2-31.5-2.7c-4.6-0.3-8.8-0.5-12.4-0.5
				c-28.8-0.5-48.9,9.5-49.1,9.6C67.2,86.2,66.7,86.3,66.3,86.3z M79.9,34.6l-9.7,44.1c8-3.1,24.8-8.3,46.5-7.9
				c3.7,0.1,8,0.2,12.7,0.5c8.9,0.5,19.6,1.4,31.8,2.7c7.4,0.8,15.2,1.7,23.3,2.7c0,0,0,0,0.1,0c3.6,0.4,6.6,0.8,8.8,1.1l-11.6-50.2
				L150.6,60c-0.6,0.6-1.5,0.9-2.3,0.9c-0.9-0.1-1.6-0.6-2.1-1.3L121.3,20l-17.6,37.1c-0.4,0.9-1.3,1.5-2.2,1.6
				c-1,0.1-1.9-0.3-2.5-1L79.9,34.6z"/>
		</g>
		<g>
			<circle class="st6" cx="120.9" cy="14.1" r="7.8"/>
			<path class="st1" d="M120.9,24.7c-5.9,0-10.6-4.8-10.6-10.6s4.8-10.6,10.6-10.6s10.6,4.8,10.6,10.6S126.8,24.7,120.9,24.7z
				 M120.9,9.1c-2.7,0-5,2.2-5,5s2.2,5,5,5c2.7,0,5-2.2,5-5S123.7,9.1,120.9,9.1z"/>
		</g>
		<g>
			<circle class="st6" cx="79.1" cy="27.6" r="7.1"/>
			<path class="st1" d="M79.1,37.5c-5.5,0-9.9-4.4-9.9-9.9s4.4-9.9,9.9-9.9s9.9,4.4,9.9,9.9S84.6,37.5,79.1,37.5z M79.1,23.3
				c-2.3,0-4.3,1.9-4.3,4.3s1.9,4.3,4.3,4.3s4.3-1.9,4.3-4.3S81.5,23.3,79.1,23.3z"/>
		</g>
		<g>
			<circle class="st6" cx="183.3" cy="21.9" r="6.4"/>
			<path class="st1" d="M183.3,31.1c-5.1,0-9.2-4.1-9.2-9.2s4.1-9.2,9.2-9.2c5.1,0,9.2,4.1,9.2,9.2S188.3,31.1,183.3,31.1z
				 M183.3,18.3c-2,0-3.5,1.6-3.5,3.5s1.6,3.5,3.5,3.5c2,0,3.5-1.6,3.5-3.5S185.2,18.3,183.3,18.3z"/>
		</g>
	</g>
	<g class="st7">
		<path class="st0" d="M161.1,76.6l-0.2,0.2c-10.4-1.1-21.6-2.1-31.7-2.7l-25-25l9.4-19.9L161.1,76.6z"/>
	</g>
	<g class="st7">
		<path class="st0" d="M196.9,80.5l-0.5,0.5c-1.6-0.2-6-0.8-12.1-1.6l0,0l-28.7-28.7l14.4-15l21.6,21.6L196.9,80.5z"/>
	</g>
</g>
<g>
	<path class="st8" d="M128.5,62.2c0,2.9-1.8,5.6-4.8,6c-0.5,0.1-1,0.1-1.5,0.1c-2.8,0-4.7-1.2-5.7-2.2c-1.4-1.4-1.5-2.9-1-3.8
		c0.7-1.1,2.5-1.3,3.5-0.3c0.8,0.8,1.7,1.5,2.6,1.7c0.1,0,0.3,0,0.4,0c0.8,0,1.9-0.3,2-1.2c0.2-1.4-1-2.3-1.6-2.6l-0.4-0.2
		c-1-0.4-1.9-0.8-2.2-1.7c-0.4-1.1,0.3-2.2,1.2-2.7c0.8-0.4,2-1,2.3-1.7s0.5-1.4-0.4-2.2c-0.2-0.2-0.6-0.4-1.1-0.4
		c-0.7,0-1.7,0.3-2,0.4c-1.1,0.6-2.2,0.5-3-0.2c-0.4-0.3-0.6-0.9-0.6-1.4c0-0.7,0.4-1.4,1.2-2c1-0.7,2.9-1.2,4.5-1.2
		c1.1,0,2.7,0.2,4,1.1c1.9,1.3,2.5,3.1,2.2,5.5c-0.2,1.9-2.3,3.8-2.3,3.8S128.4,59.4,128.5,62.2z"/>
</g>
</svg>
