<?xml version="1.0" encoding="utf-8"?>
<!-- Generator: Adobe Illustrator 22.1.0, SVG Export Plug-In . SVG Version: 6.00 Build 0)  -->
<svg version="1.1" id="圖層_1" xmlns="http://www.w3.org/2000/svg" xmlns:xlink="http://www.w3.org/1999/xlink" x="0px" y="0px"
	 viewBox="0 0 230 95" style="enable-background:new 0 0 230 95;" xml:space="preserve">
<style type="text/css">
	.st0{fill:none;stroke:#FFFDF4;stroke-miterlimit:10;}
	.st1{fill:#FAE345;}
	.st2{fill:#40220F;}
</style>
<g>
	<g>
		<path class="st0" d="M12.1,31.6"/>
	</g>
</g>
<g>
	<path class="st1" d="M224.8,17.3c0,0-55,8.3-65.5,21c-10.8,13,28,18.1,28,18.1s-16.1-1.3-21.1,9.2c-3.9,8.1,25.1,11.4,25.1,11.4
		S179,75.7,181,84.1s20.3,5.4,20.3,5.4"/>
	<path class="st2" d="M194.3,92.9c-6.3,0-14.5-1.4-16-8.1c-0.8-3.3,0.1-5.5,1.2-6.9c-6.5-1.5-13.5-4-15.7-7.9c-1-1.8-1-3.7-0.1-5.6
		c1.9-4,5.1-6.6,8.5-8.2c-7.4-2.1-15.1-5.5-17.1-10.6c-0.8-2.1-1.1-5.3,2-9.1c4.8-5.8,17.6-11.2,38.2-16.2c15-3.7,28.9-5.8,29.1-5.8
		c1.6-0.2,3,0.8,3.2,2.4c0.2,1.5-0.8,3-2.4,3.2c-15,2.3-55.7,10.3-63.8,20c-1.6,2-1.2,3-1.1,3.4c1.1,2.9,10.3,7.9,27.3,10.1
		c1.5,0.2,2.6,1.6,2.5,3.1c-0.2,1.5-1.5,2.7-3.1,2.5c-0.1,0-14.2-1-18.3,7.6c-0.1,0.2-0.1,0.3,0,0.4c1.5,2.8,13.1,5.8,22.9,6.9
		c1.6,0.2,2.7,1.6,2.5,3.1c-0.2,1.6-1.6,2.7-3.1,2.5c-2.1-0.2-5.8,0.1-7,1.4c-0.2,0.2-0.6,0.7-0.2,2.3c1,4.3,12.1,4,17.1,3.2
		c1.6-0.2,3,0.8,3.3,2.3s-0.8,3-2.3,3.3C201,92.5,197.9,92.9,194.3,92.9z"/>
</g>
<g>
	<path class="st1" d="M74.4,29.8C66.9,14.2,41.6,6.1,26.9,2.6c-0.1,0.5-0.2,1-0.4,1.5C13.6,10.7-1.3,77.4,17,90.8
		c0.1,0.2,0.2,0.4,0.3,0.5c5.9,2.8,13,4.5,19.3,1.6c14.4-6.5-1.5-20.3-1.5-20.3s15.2,4.9,18.1-7.9c2.9-12.7-17-22.1-17-22.1
		S85.2,52.1,74.4,29.8z"/>
	<path class="st2" d="M29.2,95C16.1,95,3.5,83.4,2.9,82.9c-1.1-1-1.1-2.8-0.2-3.8c1-1.1,2.8-1.1,3.8-0.2c0.2,0.2,16.4,15,28.4,9.5
		c3.8-1.7,4.1-3.6,4.2-4.2c0.6-3.8-4.5-9.2-6.2-10.7c-1-0.9-1.2-2.3-0.6-3.4c0.7-1.1,2-1.6,3.2-1.2c0.1,0,6.3,1.9,10.4-0.4
		c1.8-1,2.9-2.7,3.4-5.1c1-4-1.1-8.2-6.1-12.4c-4.1-3.5-8.7-5.6-8.7-5.6c-1.2-0.6-1.8-2-1.4-3.3c0.4-1.3,1.7-2.1,3.1-1.8
		c0.1,0,7.4,1.4,15.4,1.8c9.6,0.5,16.4-0.9,18.5-3.5c0.4-0.6,1.7-2.2-0.5-6.6C60.2,12,16.5,5.5,16.1,5.4c-1.5-0.2-2.5-1.6-2.3-3.1
		s1.6-2.5,3.1-2.3c1.9,0.3,47,7.1,57.9,29.5c3,6.2,1.6,10.1-0.1,12.3c-3.4,4.4-11,6.2-23.1,5.6c-1.5-0.1-3-0.2-4.3-0.3
		c4.9,4.2,9.2,10.3,7.5,17.4c-1,4-3,6.9-6.1,8.7c-2.3,1.3-4.9,1.8-7.2,1.8c1.9,2.9,3.5,6.4,3.1,10c-0.4,2.5-1.9,5.9-7.2,8.4
		C34.6,94.5,31.9,95,29.2,95z"/>
</g>
</svg>
