<?xml version="1.0" encoding="utf-8"?>
<!-- Generator: Adobe Illustrator 22.1.0, SVG Export Plug-In . SVG Version: 6.00 Build 0)  -->
<svg version="1.1" id="圖層_1" xmlns="http://www.w3.org/2000/svg" xmlns:xlink="http://www.w3.org/1999/xlink" x="0px" y="0px"
	 viewBox="0 0 250 250" style="enable-background:new 0 0 250 250;" xml:space="preserve">
<style type="text/css">
	.st0{fill:none;stroke:#40220F;stroke-width:7;stroke-linecap:round;stroke-linejoin:round;stroke-miterlimit:10;}
	.st1{fill:#FAE345;stroke:#40220F;stroke-width:7;stroke-miterlimit:10;}
	.st2{fill:#40220F;}
	.st3{fill:#FFFFFF;}
	.st4{fill:#FAE345;stroke:#40220F;stroke-width:7;stroke-linecap:round;stroke-linejoin:round;stroke-miterlimit:10;}
	.st5{fill:#B97233;stroke:#40220F;stroke-width:7;stroke-linecap:round;stroke-linejoin:round;stroke-miterlimit:10;}
	.st6{fill:#B97233;stroke:#40220F;stroke-width:4;stroke-linecap:round;stroke-linejoin:round;stroke-miterlimit:10;}
	.st7{fill:#FAE345;}
	.st8{fill:#B97233;}
</style>
<g>
	<g>
		<polyline class="st0" points="653.4,327.5 658.6,378.2 629.2,389.9 		"/>
		<polyline class="st0" points="620.1,375 658.6,378.2 633.1,362.4 		"/>
	</g>
	<path class="st1" d="M594.1,42.9c83.6,0,135.8,65.6,163.2,169.9c27.4,104.3-109,133.8-155.2,133.8c-46.2,0-146.5-24.7-146.5-130.4
		S510.5,42.9,594.1,42.9z"/>
	<g>
		<polyline class="st0" points="554.1,317.4 563,367.6 534.4,381.4 		"/>
		<polyline class="st0" points="524.3,367.1 563,367.6 536.4,353.6 		"/>
	</g>
	<circle class="st2" cx="602.2" cy="139.9" r="9"/>
	<circle class="st2" cx="509.3" cy="141.5" r="9"/>
	<g>
		<path class="st0" d="M536.2,161.5c0,0,0-26.7,14.2-22.8c14.2,3.9,16.5,24.4,16.5,24.4L536.2,161.5z"/>
		<path class="st0" d="M566.1,171.7l-25.2,3.1c0,0,4.7,16.5,16.5,14.9C569.3,188.2,566.1,171.7,566.1,171.7z"/>
		<polygon class="st2" points="568,162.7 568.9,170.5 543.8,172.9 542.2,161.8 		"/>
	</g>
	<line class="st0" x1="590.7" y1="124.7" x2="614.5" y2="118.1"/>
	<g>
		<path class="st3" d="M596.4,200c-3.4-3.7-7.6-7.1-12.2-9.5c-0.1,0-0.2-0.1-0.2-0.1c-1.9-3.6-5.5-6.6-10.6-7.6l0,0
			c-0.1,0-0.1,0-0.2,0c-0.3-0.1-0.6-0.1-0.9-0.2c-4.6-0.7-9.2-0.3-13.5,1.1c-1.2,0.4-2.4,0.9-3.4,1.5c-7,9.8-15.7,18.2-24.7,26.3
			c-0.5,0.5-1,0.9-1.6,1.2c-0.7,1.4-1.6,2.7-2.5,3.9c-3.3,3.9-5.1,8.6-4.5,13.1c-1.8,8.2,1.2,16.9,9.7,22.2c6.4,4,13.1,3,19.7,5.2
			c5.6,1.7,9.2,4.9,15.6,4.7c10-0.3,19.9,5.9,30.4,1.2c13.9-6.1,18.1-21.7,13.8-35.4c-0.8-2.7-2.2-5-3.9-6.8
			c-0.6-2.4-1.3-4.8-2.2-7.1C603.1,208.9,600.1,204.1,596.4,200z M569.5,230.1C569.2,230.3,569.1,230.4,569.5,230.1L569.5,230.1z"/>
		<path class="st2" d="M609.8,222.6c-2.9-6-6-11.9-8.7-17.8c-4.3-8.8-10.2-15.8-18.7-20.7c-3.9-2.3-8.3-3.7-12.8-3.5
			c-11.2,0.4-19.9,5.3-27.1,13.1c-3.5,3.6-6.6,7.7-9.8,11.6c-3.9,4.7-8.1,9.3-10.5,15.2c-2.9,7.1-3.9,14.4-1.5,22
			c3,9.2,9.5,14.5,18.9,16c8,1.3,16.1,2.2,24.1,3.3l0,0c6.1,0.8,12.3,1.7,18.4,2.4c1,0,2,0.1,2.7,0.4c1,0,1.9,0.3,2.9,0.4
			c5.7,0.6,11.2-0.4,16-3.8c5.4-3.8,8.4-9.3,9.6-15.6C614.5,237.5,613.1,229.9,609.8,222.6z M608.7,241.7
			c-1.1,7.8-4.9,13.6-12.3,16.8c-3.7,1.5-7.5,1.7-11.7,1.3c-0.7,1.1-41.5-5.9-41.2-5.4c-4.3-0.6-8-1.8-11.2-4.3
			c-7.3-5.7-9.4-13.1-8-21.8c0.9-5.5,3.4-10.1,6.9-14.3c3.9-4.7,7.9-9.3,11.8-13.8c5.2-5.9,11.5-10.5,19-12.7
			c6.8-2,13.1-1.2,19.2,2.6c7,4.4,12.1,10.2,15.7,17.5c2.8,5.4,5.4,10.8,8.2,16.2C608.2,229.3,609.6,235.2,608.7,241.7z"/>
		<path class="st2" d="M584.6,223.5l-33.8-4.5c-2.4-0.4-4.1-3.7-3.7-7.6c0,0,3.2-28.5,2.3-20.6c-1,7.9,5.2-6.1,5.3-6.2
			c0-0.2,33.8,4.5,33.8,4.5c3.7,7.4,4.1,3.7,3.7,7.6l-2.3,20.6C589.3,221,587,223.8,584.6,223.5z"/>
	</g>
	<path class="st4" d="M484.6,184.6c0,0,64.5,20.2,74.7,37.4c10.5,17.6-37,16.5-37,16.5s19.5,1.4,23.6,15c3.1,10.5-32.3,9-32.3,9
		s14.9,0.7,11,10.5c-3.9,9.7-29.9,3-29.9,3"/>
	<path class="st4" d="M639.3,166.6c0,0-51.6,52.4-45.8,90s56.8-19.4,56.8-19.4s-16.3,30-2,43.1s28.6-7,28.6-7s-7.7,31.7,15.3,26.5
		c22.9-5.2,29-18.2,29-18.2"/>
	<g>
		<path class="st5" d="M711.5,77c0,0,41.9-6.1,58.9,16.3c17,22.4,26.1,30.6,26.1,30.6s-43.7-2.1-50.9-13.1
			c-7.2-11.1-34.1-24.8-34.1-24.8L711.5,77z"/>
		<path class="st6" d="M711.4,82c0,0,27.8,4.2,31.8,9.1c4.1,4.9,9.8,7.4,9.8,7.4"/>
		<path class="st5" d="M706.5,86.7c0,0,41.4,9,49.4,36c8,27,13.7,37.8,13.7,37.8s-40.2-17.4-43-30.3S703.3,95,703.3,95L706.5,86.7z"
			/>
		<path class="st6" d="M704.9,90.9c0,0,22,15.7,24.5,20.6s11.4,11.4,11.4,11.4"/>
		<path class="st5" d="M491.5,88.5c0,0,15.7,11.6,66.4,12.4c50.6,0.8,147.5-12.4,147.5-12.4S691.8,0.4,570.1,9.4
			C496.6,14.8,491.5,88.5,491.5,88.5z"/>
		<circle class="st5" cx="702.4" cy="80.5" r="12.3"/>
	</g>
	<path class="st0" d="M550.5,100.8c0,0-11.4,9.9-6.5,18.9c4.9,9,18-1.6,16.3-4.9c-1.6-3.3-7.4-0.8-7.4-0.8"/>
	<line class="st0" x1="495.7" y1="120.3" x2="519.2" y2="127.4"/>
</g>
<circle class="st3" cx="506" cy="138.5" r="1.5"/>
<circle class="st3" cx="598.2" cy="136.7" r="1.5"/>
<g>
	<g>
		<g>
			<path class="st2" d="M79.1,245.4c0.8,0.4,1.8,0.3,2.6-0.4c0.9-0.9,1-2.3,0.1-3.2l-12.9-14.1l16.7-27c0.7-1.1,0.3-2.5-0.7-3.2
				c-1.1-0.7-2.5-0.3-3.2,0.7l-17.6,28.5c-0.5,0.9-0.4,2,0.3,2.8l14.1,15.3C78.6,245.1,78.8,245.3,79.1,245.4z"/>
		</g>
		<g>
			<path class="st2" d="M65,230.1c0.1,0,0.1,0.1,0.2,0.1l23.7,9.1c1.2,0.5,2.5-0.1,3-1.3c0.5-1.2-0.1-2.5-1.3-3l-14.8-5.7l10.2-1.1
				c1.3-0.1,2.2-1.3,2-2.5c-0.1-1.3-1.3-2.2-2.5-2l-19.6,2.1c-1.1,0.1-1.9,0.9-2,2C63.6,228.7,64.1,229.7,65,230.1z"/>
		</g>
	</g>
	<g>
		<path class="st7" d="M142,29.4c-55,0-89.2,43.1-107.3,111.7s71.7,87.9,102,87.9s96.3-16.3,96.3-85.7S197,29.4,142,29.4z"/>
		<path class="st2" d="M41.6,192.2c-11.2-14.5-14.3-31.9-9.1-51.7c9.4-35.8,23-63.6,40.3-82.5c18.7-20.5,42-30.9,69.2-30.9
			c27.8,0,51.2,11,67.9,31.7c16.6,20.7,25.4,49.9,25.4,84.4c0,30.8-13.1,55.3-37.8,70.9c-20.1,12.7-44.6,17.2-60.7,17.2
			C115.5,231.3,64.4,221.7,41.6,192.2z M76.2,61.1c-16.8,18.4-30,45.5-39.3,80.6c-4.8,18.3-2,34.3,8.3,47.7
			c21.8,28.2,71,37.4,91.5,37.4c15.5,0,39-4.3,58.3-16.5c23.7-14.9,35.7-37.4,35.7-67c0-67.8-34.8-111.6-88.7-111.6
			C116.2,31.7,94.1,41.6,76.2,61.1z"/>
	</g>
	<g>
		<g>
			<path class="st2" d="M207.4,234c0.6-0.6,0.9-1.5,0.7-2.3c-0.3-1.2-1.6-1.9-2.8-1.6l-18.4,5.1L170.3,208c-0.7-1.1-2.1-1.4-3.2-0.8
				c-1.1,0.7-1.4,2.1-0.8,3.2l17.4,28.6c0.5,0.9,1.6,1.3,2.6,1l20-5.6C206.8,234.4,207.1,234.2,207.4,234z"/>
		</g>
		<g>
			<path class="st2" d="M187.4,239.6C187.4,239.6,187.4,239.6,187.4,239.6l18.9-17c0.9-0.9,1-2.3,0.2-3.2c-0.8-0.9-2.3-1-3.2-0.2
				c0,0,0,0,0,0l-11.8,10.6l3.6-9.5c0.5-1.2-0.1-2.5-1.3-3c-1.2-0.5-2.5,0.1-3,1.3l-7,18.5c-0.4,1,0,2.1,0.8,2.7
				C185.4,240.4,186.6,240.3,187.4,239.6z"/>
		</g>
	</g>
	<g>
		<circle class="st2" cx="136.7" cy="93.2" r="5.9"/>
	</g>
	<g>
		<circle class="st2" cx="197.7" cy="94.2" r="5.9"/>
	</g>
	<g>
		<g>
			<path class="st2" d="M158.2,109.9c-0.5-0.5-0.7-1.2-0.6-1.8c0.1-0.6,1.9-15,12.5-18c2.5-0.7,4.9-0.3,6.8,1.1
				c5.3,4,5.4,14.8,5.4,16.1c0,1.2-1,2.2-2.2,2.3l-20.2,1c0,0-0.1,0-0.1,0C159.2,110.7,158.6,110.4,158.2,109.9z M174.1,94.9
				c-0.5-0.4-1.3-0.8-2.8-0.4c-5.4,1.5-7.7,7.7-8.6,11.4l14.9-0.8C177.3,101.4,176.3,96.6,174.1,94.9z"/>
		</g>
		<g>
			<path class="st2" d="M165.8,128.2c-2.5-0.3-4.5-1.5-5.8-3.4c-3-4.2-1.9-10.5-1.8-11.2c0.2-1.2,1.3-2,2.5-1.9l16.5,2.1
				c0.7,0.1,1.3,0.5,1.6,1s0.5,1.3,0.3,1.9c0,0.1-0.9,3.1-2.8,6c-2.5,3.7-5.6,5.6-9.2,5.6C166.7,128.3,166.2,128.3,165.8,128.2z
				 M162.4,116.6c0,1.8,0.2,4.1,1.2,5.5c0.6,0.9,1.5,1.4,2.7,1.5c3.7,0.5,6.1-3.1,7.3-5.6L162.4,116.6z"/>
		</g>
		<g>
			<polygon class="st2" points="159.1,108.1 158.6,113.3 175.1,114.8 176.1,107.5 			"/>
		</g>
	</g>
	<g>
		<path class="st2" d="M144.2,85.4c1,0,1.9-0.7,2.2-1.7c0.3-1.2-0.4-2.5-1.6-2.8l-15.6-4.3c-1.2-0.3-2.5,0.4-2.8,1.6
			s0.4,2.5,1.6,2.8l15.6,4.3C143.8,85.4,144,85.4,144.2,85.4z"/>
	</g>
	<g>
		<g>
			<path class="st3" d="M134.7,141.8c-0.6,1.5-1.1,3.1-1.5,4.7c-1.1,1.2-2,2.6-2.6,4.4c-2.8,9,0,19.2,9.1,23.2
				c6.9,3.1,13.4-1,20-0.8c4.2,0.1,6.6-2,10.2-3.1c4.4-1.4,8.7-0.8,13-3.4c5.6-3.5,7.6-9.2,6.4-14.6c0.4-3-0.8-6.1-3-8.6
				c-0.6-0.8-1.2-1.6-1.7-2.6c-0.4-0.2-0.7-0.5-1-0.8c-5.9-5.4-11.6-10.8-16.2-17.3c-0.7-0.4-1.4-0.7-2.2-1
				c-2.9-0.9-5.8-1.2-8.9-0.7c-0.2,0-0.4,0.1-0.6,0.1c0,0-0.1,0-0.1,0l0,0c-3.4,0.7-5.7,2.6-6.9,5c-0.1,0-0.1,0-0.2,0.1
				c-3,1.6-5.8,3.8-8,6.2C138,135.3,136.1,138.5,134.7,141.8z M158.1,152.4C158.4,152.6,158.3,152.6,158.1,152.4L158.1,152.4z"/>
		</g>
		<g>
			<path class="st2" d="M129.5,162.6c0.8,4.1,2.8,7.8,6.3,10.3c3.2,2.3,6.7,2.9,10.5,2.5c0.6,0,1.3-0.2,1.9-0.2
				c0.5-0.2,1.1-0.2,1.8-0.2c4-0.5,8.1-1.1,12.1-1.6l0,0c5.3-0.7,10.6-1.3,15.8-2.2c6.1-1,10.4-4.5,12.4-10.5c1.6-5,0.9-9.8-1-14.4
				c-1.5-3.9-4.3-6.9-6.9-10c-2.1-2.6-4.2-5.2-6.5-7.6c-4.7-5.1-10.5-8.4-17.8-8.6c-3-0.1-5.8,0.8-8.4,2.3
				c-5.6,3.2-9.5,7.8-12.3,13.6c-1.8,3.9-3.8,7.7-5.7,11.7C129.5,152.3,128.6,157.3,129.5,162.6z M134.7,148.3
				c1.9-3.5,3.5-7.1,5.4-10.6c2.4-4.8,5.7-8.6,10.3-11.5c4-2.5,8.1-3,12.6-1.7c5,1.5,9.1,4.5,12.5,8.4c2.5,2.9,5.2,6,7.7,9.1
				c2.3,2.7,4,5.8,4.5,9.4c1,5.7-0.4,10.6-5.2,14.3c-2.1,1.6-4.6,2.5-7.4,2.8c0.1-0.3-26.7,4.3-27.1,3.5c-2.7,0.3-5.2,0.2-7.7-0.9
				c-4.8-2.1-7.3-5.9-8.1-11.1C131.8,155.8,132.8,151.9,134.7,148.3z"/>
		</g>
		<g>
			<path class="st2" d="M144.8,144l-1.5-13.5c-0.3-2.6,0-0.2,2.4-5c0,0,22.2-3.1,22.2-2.9c0.1,0.1,4.1,9.3,3.5,4.1
				c-0.6-5.2,1.5,13.5,1.5,13.5c0.3,2.6-0.8,4.8-2.4,5l-22.2,2.9C146.7,148.3,145.1,146.4,144.8,144z"/>
		</g>
	</g>
	<g>
		<path class="st7" d="M214,122.5c0,0-42.4,13.3-49.1,24.6c-6.9,11.6,24.3,10.8,24.3,10.8s-12.8,0.9-15.5,9.8
			c-2.1,6.9,21.2,5.9,21.2,5.9s-9.8,0.5-7.2,6.9c2.6,6.4,19.6,2,19.6,2"/>
		<path class="st2" d="M196.4,186.4c4.9,0,9.9-1.2,11.5-1.6c1.2-0.3,2-1.6,1.6-2.8c-0.3-1.2-1.6-2-2.8-1.6
			c-6.3,1.6-15.7,2.3-16.9-0.6c-0.5-1.2-0.2-1.6-0.1-1.8c0.8-1.2,3.8-1.9,5.3-1.9c1.3-0.1,2.2-1.1,2.2-2.4c-0.1-1.3-1.1-2.2-2.4-2.2
			c-7.9,0.3-17.3-0.7-18.9-2.7c-0.1-0.1-0.1-0.1,0-0.3c2.2-7.3,13.4-8.2,13.5-8.2c1.2-0.1,2.2-1.2,2.1-2.4c-0.1-1.2-1.1-2.2-2.3-2.2
			c0,0,0,0-0.1,0c-8.2,0.2-20.7-1.1-22.7-4.6c-0.2-0.3-0.6-1,0.4-2.7c5.1-8.7,36.3-20,47.8-23.6c1.2-0.4,1.9-1.7,1.5-2.9
			c-0.4-1.2-1.7-1.9-2.9-1.5c-4.4,1.4-43.4,13.9-50.4,25.6c-2,3.4-1.4,5.9-0.5,7.4c2.2,3.8,8.6,5.5,14.7,6.3
			c-2.5,1.7-4.7,4.1-5.7,7.5c-0.5,1.6-0.2,3.2,0.8,4.4c2.2,2.8,8,3.9,13.3,4.3c-0.6,1.2-1.1,3.1-0.1,5.6
			C187,185.3,191.7,186.4,196.4,186.4z"/>
	</g>
	<g>
		<path class="st7" d="M112.3,110.7c0,0,33.9,34.4,30.1,59.1s-37.3-12.7-37.3-12.7s10.7,19.7,1.3,28.3c-9.4,8.6-18.8-4.6-18.8-4.6
			s5,20.9-10,17.4s-19-12-19-12"/>
		<path class="st2" d="M80.7,201c2.8,0,5-0.9,6.7-2.6c2.8-2.8,3.4-7.3,3.3-11.1c2.1,1.6,4.7,3,7.7,3.3c3.4,0.4,6.6-0.8,9.5-3.5
			c5.7-5.3,5.2-13.7,3.3-20.5c6.8,6.3,16.5,13.9,23.9,13.9c0.9,0,1.8-0.1,2.6-0.4c3.7-1.1,6.1-4.5,6.9-10
			c3.9-25.6-29.3-59.7-30.7-61.1c-0.9-0.9-2.3-0.9-3.3,0c-0.9,0.9-0.9,2.3,0,3.3c0.3,0.3,33.1,33.9,29.5,57.2
			c-0.6,3.6-1.8,5.7-3.7,6.3c-2,0.6-7,0.2-17.8-8.8c-6.5-5.4-11.8-11.3-11.8-11.4c-0.8-0.9-2.1-1-3-0.3s-1.3,2-0.7,3
			c0,0,2.6,4.8,4,10.5c1.2,4.8,1.8,11.4-2.2,15.1c-1.9,1.8-3.9,2.5-5.9,2.3c-4.2-0.5-8.2-4.9-9.4-6.5c-0.6-0.9-1.8-1.2-2.8-0.8
			c-1,0.5-1.5,1.6-1.3,2.6c0.6,2.6,1.7,10.7-1.2,13.7c-1.2,1.3-3.2,1.6-6.1,0.9c-7.2-1.6-11.5-4.5-13.9-6.6
			c-2.6-2.3-3.5-4.1-3.5-4.2c-0.6-1.1-1.9-1.6-3.1-1.1c-1.1,0.5-1.6,1.9-1.1,3c0.2,0.4,4.6,9.6,20.6,13.3
			C78.3,200.8,79.5,201,80.7,201z"/>
	</g>
	<g>
		<g>
			<path class="st8" d="M64.8,51.8c0,0-27.6-4-38.7,10.7S9,82.6,9,82.6s28.7-1.4,33.5-8.6c4.7-7.3,22.4-16.3,22.4-16.3L64.8,51.8z"
				/>
			<path class="st2" d="M6.8,83.5c-0.4-0.9-0.1-1.9,0.6-2.6c0.1-0.1,6-5.5,16.9-19.8C36.1,45.5,64,49.3,65.2,49.5
				c1.1,0.2,2,1.1,2,2.3l0,5.9c0,0.9-0.5,1.7-1.3,2.1c-4.8,2.4-17.9,10-21.6,15.5c-5.1,7.9-30.3,9.4-35.3,9.7c0,0-0.1,0-0.1,0
				C8,84.9,7.2,84.3,6.8,83.5z M62.6,53.8c-6.3-0.5-26-1.3-34.6,10c-5.8,7.6-10.2,12.8-13.1,16c10.7-1,23.3-3.5,25.7-7.2
				c4.3-6.6,17.8-14.2,22-16.4L62.6,53.8z"/>
		</g>
		<g>
			<path class="st8" d="M64.9,55.1c0,0-18.2,2.8-20.9,6c-2.7,3.2-6.4,4.8-6.4,4.8"/>
			<path class="st2" d="M37.5,67.2c0.2,0,0.3,0,0.5-0.1c0.2-0.1,4.1-1.8,6.9-5.2c1.6-2,12.7-4.4,20.1-5.5c0.7-0.1,1.2-0.8,1.1-1.5
				c-0.1-0.7-0.8-1.2-1.5-1.1c-3.1,0.5-18.9,3-21.7,6.4c-2.5,2.9-5.9,4.5-6,4.5c-0.7,0.3-1,1.1-0.7,1.7C36.5,66.9,37,67.2,37.5,67.2
				z"/>
		</g>
		<g>
			<path class="st8" d="M68.1,58.2c0,0-27.2,5.9-32.5,23.7s-9,24.9-9,24.9S53.1,95.3,55,86.8c1.9-8.5,15.2-23.2,15.2-23.2L68.1,58.2
				z"/>
			<path class="st2" d="M25,108.3c-0.7-0.7-0.8-1.8-0.4-2.6c0-0.1,3.7-7.2,8.8-24.5c2.3-7.9,9-14.8,19.4-19.9
				c7.6-3.8,14.5-5.3,14.8-5.4c1.1-0.2,2.2,0.4,2.6,1.4l2.1,5.5c0.3,0.8,0.1,1.7-0.4,2.4c-3.6,4-13.3,15.7-14.7,22.1
				c-2,9.2-25,19.5-29.6,21.5c-0.3,0.1-0.6,0.2-0.9,0.2C26,109,25.4,108.8,25,108.3z M66.7,60.9c-6.1,1.7-24.8,8-28.8,21.6
				c-2.7,9.2-5,15.5-6.6,19.6c9.7-4.8,20.6-11.5,21.5-15.7c1.7-7.7,11.7-19.5,14.8-23.2L66.7,60.9z"/>
		</g>
		<g>
			<path class="st8" d="M69.2,61c0,0-14.5,10.3-16.1,13.5c-1.6,3.2-7.5,7.5-7.5,7.5"/>
			<path class="st2" d="M45.6,83.3c0.3,0,0.5-0.1,0.8-0.3c0.3-0.2,6.2-4.5,7.9-8c1.1-2.1,10.2-9.1,15.7-13c0.6-0.4,0.7-1.2,0.3-1.8
				c-0.4-0.6-1.2-0.7-1.8-0.3c-2.5,1.8-14.8,10.7-16.5,14c-1.2,2.4-5.5,5.9-7.1,7c-0.6,0.4-0.7,1.2-0.3,1.8
				C44.7,83.1,45.1,83.3,45.6,83.3z"/>
		</g>
		<g>
			<path class="st8" d="M209.5,59.3c0,0-10.4,7.6-43.6,8.2c-33.3,0.5-96.9-8.2-96.9-8.2s8.9-57.9,88.9-52
				C206.1,10.9,209.5,59.3,209.5,59.3z"/>
			<path class="st2" d="M68.6,61.6c-0.6-0.1-1.2-0.4-1.5-0.9c-0.4-0.5-0.5-1.1-0.4-1.7c0.1-0.6,2.5-15.3,15-29.4
				c20.8-23.4,53-26.3,76.3-24.5c26,1.9,39.3,16.6,45.8,28.5c7,12.8,8,25.1,8,25.6c0.1,0.8-0.3,1.5-0.9,2c-0.4,0.3-11.3,8.1-45,8.6
				c-1,0-2,0-3.1,0C129,69.8,69.2,61.7,68.6,61.6z M199.6,35.7c-8.7-15.8-22.9-24.6-42-26c-31.9-2.3-56.9,5.5-72.4,22.8
				c-8.9,9.9-12.4,20.4-13.5,24.9c12,1.6,65.1,8.3,94.1,7.8c26.2-0.4,37.8-5.3,41.2-7.1C206.6,54.6,204.9,45.2,199.6,35.7z
				 M209.5,59.3L209.5,59.3L209.5,59.3z"/>
		</g>
		<g>
			<circle class="st8" cx="70.8" cy="54.1" r="8.1"/>
			<path class="st2" d="M60.4,54.1c0-5.7,4.6-10.4,10.4-10.4c5.7,0,10.4,4.6,10.4,10.4s-4.6,10.4-10.4,10.4
				C65.1,64.4,60.4,59.8,60.4,54.1z M65,54.1c0,3.2,2.6,5.8,5.8,5.8s5.8-2.6,5.8-5.8c0-3.2-2.6-5.8-5.8-5.8S65,50.9,65,54.1z"/>
		</g>
	</g>
	<g>
		<path class="st2" d="M171.2,84.5c2.4,0,4.5-1.2,5.7-3.5c4.1-7.4-4.4-14.9-4.8-15.2c-1-0.8-2.4-0.7-3.2,0.2c-0.8,1-0.7,2.4,0.2,3.2
			l0,0c0.1,0.1,6,5.4,3.8,9.6c-0.5,0.9-1,1.2-2,1.1c-1.4-0.1-2.8-1.1-3.7-1.9c0.3,0.1,0.6,0.2,0.9,0.3c1.2,0.5,2.5,0,3-1.2
			c0.5-1.2,0-2.5-1.2-3c-2.9-1.2-6.4-1.2-7.8,1.6c-1.4,2.9,1.9,6.2,4.8,7.7C168.4,84.1,169.9,84.5,171.2,84.5z"/>
	</g>
	<g>
		<path class="st2" d="M191.2,87.3c0.2,0,0.4,0,0.7-0.1l15.5-4.7c1.2-0.4,1.9-1.7,1.5-2.9c-0.4-1.2-1.7-1.9-2.9-1.5l-15.5,4.7
			c-1.2,0.4-1.9,1.7-1.5,2.9C189.3,86.6,190.2,87.3,191.2,87.3z"/>
	</g>
	<circle class="st3" cx="199.9" cy="92" r="1.2"/>
	<circle class="st3" cx="139.3" cy="91.3" r="1.2"/>
</g>
</svg>
