<?xml version="1.0" encoding="utf-8"?>
<!-- Generator: Adobe Illustrator 22.1.0, SVG Export Plug-In . SVG Version: 6.00 Build 0)  -->
<svg version="1.1" id="圖層_1" xmlns="http://www.w3.org/2000/svg" xmlns:xlink="http://www.w3.org/1999/xlink" x="0px" y="0px"
	 viewBox="0 0 43 57" style="enable-background:new 0 0 43 57;" xml:space="preserve">
<style type="text/css">
	.st0{fill:#EAAE07;}
	.st1{fill:#F9F3DC;}
	.st2{fill:#5B3824;}
</style>
<g>
	<g>
		<g>
			<g>
				<ellipse class="st0" cx="21.5" cy="22.1" rx="21.3" ry="21.1"/>
				<polygon class="st0" points="21.5,57 2.7,32 40.2,32 				"/>
			</g>
			<ellipse class="st1" cx="21.5" cy="22.1" rx="16.5" ry="16.4"/>
		</g>
	</g>
	<path class="st0" d="M18.5,17.9l2.9-2.9c0.1-0.1,0.2-0.1,0.2,0l2.9,2.9c0.1,0.1,0,0.3-0.1,0.3h-5.8C18.5,18.2,18.4,18,18.5,17.9z"
		/>
	<path class="st0" d="M19.2,19h4.6c0.2,0,0.3,0.3,0.2,0.4l-2.3,2.5c-0.1,0.1-0.2,0.1-0.3,0l-2.3-2.5C18.9,19.3,19,19,19.2,19z"/>
	<ellipse class="st2" cx="28.6" cy="12.6" rx="1.2" ry="1.2"/>
	<ellipse class="st2" cx="14.4" cy="12.6" rx="1.2" ry="1.2"/>
</g>
</svg>
