<?xml version="1.0" encoding="utf-8"?>
<!-- Generator: Adobe Illustrator 22.1.0, SVG Export Plug-In . SVG Version: 6.00 Build 0)  -->
<svg version="1.1" id="圖層_1" xmlns="http://www.w3.org/2000/svg" xmlns:xlink="http://www.w3.org/1999/xlink" x="0px" y="0px"
	 viewBox="0 0 27 55" style="enable-background:new 0 0 27 55;" xml:space="preserve">
<style type="text/css">
	.st0{fill:#FCEC8D;}
	.st1{fill:#76391B;}
</style>
<g>
	<path class="st0" d="M22.4,52.9c0,0,4.6-20.9,2.1-25.8s-9.5,3.1-9.5,3.1s6.3-22.7,2.5-26.3s-12,0.9-12,0.9S0.4,9.4,3.2,16.4
		S14,31.4,14,31.4s-4.5,8.3-2.8,12.7S22.4,52.9,22.4,52.9z"/>
	<path class="st1" d="M22.4,54.7c-0.3,0-0.5-0.1-0.8-0.2c-1-0.5-10.2-4.9-12.1-9.8c-1.6-4.1,1-10.3,2.2-13
		c-2.2-2.4-7.9-8.9-10.3-14.7C-1.8,9,3.9,3.5,4.2,3.3C4.3,3.2,4.4,3.1,4.6,3c0.1-0.1,2.3-1.3,5-2c5-1.4,7.8,0,9.2,1.4
		c1.4,1.4,2.8,4.5,0.7,16.2c-0.4,2.2-0.9,4.3-1.3,6.2c1.4-0.8,3-1.4,4.4-1.2c1,0.1,2.5,0.7,3.5,2.6c2.7,5.2-1.1,23.5-1.9,27.1
		c-0.1,0.6-0.5,1-1,1.3C22.9,54.7,22.7,54.7,22.4,54.7z M15.8,31.8c0,0.2-0.1,0.4-0.2,0.6c-1.6,2.9-3.7,8.5-2.7,11.1
		c0.8,2.1,4.8,4.8,8,6.6c1.7-8.3,3.1-19.4,1.7-22.1c-0.3-0.5-0.5-0.6-0.6-0.6c-1.4-0.2-4.3,2.2-5.8,4C16.2,31.5,16,31.7,15.8,31.8z
		 M6.6,6.2C5.9,7,2.9,10.6,4.9,15.7c1.8,4.5,6.1,9.7,8.6,12.5c2.9-11,4.2-21.5,2.6-23C14,3.1,8.6,5.2,6.6,6.2z"/>
</g>
</svg>
