<?xml version="1.0" encoding="utf-8"?>
<!-- Generator: Adobe Illustrator 22.1.0, SVG Export Plug-In . SVG Version: 6.00 Build 0)  -->
<svg version="1.1" id="圖層_1" xmlns="http://www.w3.org/2000/svg" xmlns:xlink="http://www.w3.org/1999/xlink" x="0px" y="0px"
	 viewBox="0 0 230 95" style="enable-background:new 0 0 230 95;" xml:space="preserve">
<style type="text/css">
	.st0{fill:#FAE345;}
	.st1{fill:#40220F;}
</style>
<g>
	<path class="st0" d="M8.7,6.8c0,0,58.5,15.4,68.3,30.4c10.1,15.3-32.4,16.2-32.4,16.2s17.5,0.4,21.7,12.4
		c3.2,9.2-28.4,9.3-28.4,9.3s13.4,0.1,10.3,8.9c-3.1,8.9-22.5,3.4-22.5,3.4"/>
	<path class="st1" d="M37.2,92c-5.7,0-11.2-1.4-12.3-1.8c-1.5-0.4-2.3-1.9-1.9-3.4s1.9-2.3,3.4-1.9c5.5,1.5,17.5,3.1,19.2-1.7
		c0.6-1.8,0.1-2.5,0-2.7C44.3,78.7,39.8,78,38,78c-1.5,0-2.8-1.3-2.8-2.8s1.2-2.8,2.8-2.8c13.8,0,24.1-2.6,25.8-4.9
		c0.1-0.2,0.2-0.3,0.1-0.7c-3.5-10-19-10.6-19.1-10.6c-1.5,0-2.7-1.3-2.7-2.8s1.2-2.7,2.7-2.8C56,50.4,73,47.8,75.7,42.8
		c0.2-0.4,0.8-1.6-0.8-4.1c-7.6-11.5-50.7-25-66.7-29.2c-1.5-0.4-2.4-1.9-2-3.4s1.9-2.4,3.4-2c0.1,0,14.9,4,30.7,9.7
		C61.9,21.6,75.1,29,79.5,35.7c2.8,4.3,2.1,7.7,1.1,9.7c-2.8,5.4-11.9,8.1-20.3,9.4c3.7,2.1,7.1,5.3,8.8,10.1c0.7,2,0.4,4.1-0.8,5.8
		c-2.8,3.9-10.9,5.7-18.1,6.6c1.1,1.5,2,4.1,0.7,7.8C48.9,90.6,42.9,92,37.2,92z"/>
</g>
<g>
	<path class="st0" d="M205.6,86c0.1-0.3,0.2-0.7,0.3-1c3.5-8.9,6.2-18,8-27.4c0,0,0,0,0-0.1c0-0.3,0-0.6,0-0.8V31.2
		c-0.6-3.4-1.5-6.7-2.2-10.2c0-0.1,0-0.1,0-0.2c-1.1-3.7-2.2-7.3-3.2-11c-0.4-1.6-0.6-3.2-0.5-4.7c-14.4,1.4-37.2,5.7-45.9,18.5
		C148.9,43.1,195.9,41,195.9,41s-20,5.9-19,18.3c1,12.4,15.9,9.9,15.9,9.9S176,79.8,188.6,88c4.7,3.1,10.4,3.1,15.7,1.9
		C204.3,88.5,204.8,87.1,205.6,86z"/>
	<path class="st1" d="M198.1,93.2c-3.9,0-7.6-0.9-11.1-3.1c-4.9-3.2-5.9-6.7-5.9-9.3c0-3.6,2.1-6.8,4.4-9.3
		c-2.2-0.4-4.6-1.3-6.7-2.9c-2.8-2.2-4.3-5.3-4.7-9.4c-0.6-7.3,4.6-12.5,9.9-16c-1.3-0.1-2.8-0.2-4.2-0.4c-12-1.3-19.1-4.1-21.7-8.9
		c-1.3-2.4-2.1-6.5,1.6-12.1c13.8-20.3,58.9-20.3,60.7-20.3c1.4,0,2.7,1.3,2.7,2.7s-1.2,2.7-2.7,2.7l0,0c-1.1,0-44.2,0.2-56.3,18
		c-2.8,4-1.7,5.8-1.4,6.4c1.6,3,8.1,5.2,17.5,6.2c7.9,0.8,15.2,0.5,15.3,0.5c1.3-0.1,2.5,0.9,2.8,2.2c0.2,1.3-0.6,2.6-1.9,3
		c0,0-4.8,1.4-9.3,4.2c-5.5,3.5-8.1,7.2-7.8,11.2c0.2,2.5,1.1,4.2,2.6,5.5c3.7,2.9,10,1.9,10.1,1.9c1.3-0.2,2.5,0.5,2.9,1.7
		c0.5,1.2,0,2.5-1.1,3.2c-2,1.3-7.6,5.7-7.6,9.5c0,0.6,0,2.5,3.5,4.7c5.6,3.6,13.1,2.1,18.4,0.2c6.1-2.1,10.7-5.3,10.7-5.3
		c1.3-0.9,2.9-0.5,3.8,0.7c0.9,1.3,0.5,2.9-0.7,3.8C221.5,85.4,209.8,93.2,198.1,93.2z"/>
</g>
</svg>
