<?xml version="1.0" encoding="utf-8"?>
<!-- Generator: Adobe Illustrator 22.1.0, SVG Export Plug-In . SVG Version: 6.00 Build 0)  -->
<svg version="1.1" id="圖層_1" xmlns="http://www.w3.org/2000/svg" xmlns:xlink="http://www.w3.org/1999/xlink" x="0px" y="0px"
	 viewBox="0 0 640 1023" style="enable-background:new 0 0 640 1023;" xml:space="preserve">
<style type="text/css">
	.st0{fill:url(#SVGID_1_);}
	.st1{fill:#FFFFFF;}
</style>
<g>
	<linearGradient id="SVGID_1_" gradientUnits="userSpaceOnUse" x1="119.1646" y1="136.4503" x2="457.9054" y2="769.0313">
		<stop  offset="0" style="stop-color:#525252"/>
		<stop  offset="4.370040e-02" style="stop-color:#4E4E4E"/>
		<stop  offset="0.4186" style="stop-color:#333333"/>
		<stop  offset="0.7497" style="stop-color:#222222"/>
		<stop  offset="1" style="stop-color:#1C1C1C"/>
	</linearGradient>
	<path class="st0" d="M564,1023H76c-42,0-76-29.6-76-66.2V66.2C0,29.6,34,0,76,0h488c20.6,0,39.4,7.2,53.1,18.8
		c14.2,12,22.9,28.8,22.9,47.4v890.6C640,993.3,606,1023,564,1023z"/>
	<path class="st1" d="M430.8,75H259.9c-3.9,0-7.2-3.2-7.2-7v-7.6c0-3.8,3.3-7,7.2-7h170.8c3.9,0,7.2,3.1,7.2,7V68
		C438,71.8,434.7,75,430.8,75z"/>
	<ellipse class="st1" cx="319.4" cy="959" rx="34.2" ry="33.1"/>
	<ellipse class="st1" cx="208.1" cy="65.2" rx="11.2" ry="10.8"/>
	<rect x="56.2" y="123.2" class="st1" width="523.7" height="773.4"/>
</g>
</svg>
