<?xml version="1.0" encoding="utf-8"?>
<!-- Generator: Adobe Illustrator 22.1.0, SVG Export Plug-In . SVG Version: 6.00 Build 0)  -->
<svg version="1.1" id="圖層_1" xmlns="http://www.w3.org/2000/svg" xmlns:xlink="http://www.w3.org/1999/xlink" x="0px" y="0px"
	 viewBox="0 0 65 35" style="enable-background:new 0 0 65 35;" xml:space="preserve">
<style type="text/css">
	.st0{fill:#EC7102;}
	.st1{fill:#ED780A;}
	.st2{fill:#EC7101;}
	.st3{fill:#ED7506;}
	.st4{fill:#EE7B0E;}
	.st5{fill:#ED7507;}
	.st6{fill:#EB680E;}
	.st7{fill:#EE7E12;}
	.st8{fill:#F29B20;}
	.st9{fill:#F3991B;}
	.st10{fill:#F29A1D;}
</style>
<g>
	<path class="st0" d="M63.7,22.2c1.3,4.3,0,8.2-3.6,10.5c-3.7,2.3-7.8,1.8-11.2-1.5c-0.4-0.9,0.1-1.6,0.6-2.2
		c3.8-4.7,3.7-10,2.3-15.5c-0.3-1.1-0.2-2,0.5-2.8c4,0.1,5.2,3.8,7.5,5.9C61.5,18,62.4,20.3,63.7,22.2z"/>
	<path class="st1" d="M45.9,27.1c-1.4-1.3-2.9-2.6-4.3-4c-0.1-2.3,0.6-4.6,0.1-7c-0.1-0.6-0.3-1.3-0.4-1.9c-1.4-3.8-4.9-5-8.1-6.3
		c-2.2-0.9-4.1,0.8-5.7,2.5c-1.8,1.9-3.7,3.9-6.7,3.6c-2.2-1.8-1.9-3.6,0.1-5.5c3-2.8,6.3-5,10.4-5.8c2.8-0.4,5.6-0.2,8.2,1.1
		c1.1,1.4,2.1,2.8,4.2,3.2c1.6,0.4,2.3,2.2,3.2,3.5c2.9,4.1,2.5,8.7,1.9,13.3C48.5,25.4,47.6,26.7,45.9,27.1z"/>
	<path class="st2" d="M14.7,25.1c-3.5,1.9-6.9,1.5-9.9-1c-3-2.5-3.9-5.8-2.6-9.6c2.8-4,6.5-6.9,11-8.7c0.8-0.3,1.7-0.8,2.6-0.5
		c1.7,1.1,0.7,2.3,0.3,3.6c-1.2,3.5-3,6.8-3,10.8C13.1,21.7,13.5,23.5,14.7,25.1z"/>
	<path class="st3" d="M14.7,25.1c-2.3,0-2.6-1.3-2.6-3.3c-0.1-5,1.5-9.6,3.6-14c0.4-0.8,0.7-1.4,0.2-2.2c0.5-1.4,1.8-1.6,3-2
		c3.2-1,6.4-1.6,9.8-1.4C29.6,2.3,30.9,2,31,3.6c-3.6,1.2-6.8,3-9.6,5.7c-1.7,1.6-1.8,2.9-0.3,4.5c1.2,2.8-1.2,5.1-1,7.8
		C18.3,22.7,16.5,23.9,14.7,25.1z"/>
	<path class="st4" d="M20.1,21.5c-1.6-2.8,0.9-5.2,1-7.8c2.4-0.6,4.2-2.1,5.9-3.9c3.3-3.7,5.5-3.7,9.7-1c1.6,1,3.3,1.9,4.7,3.2
		c0.7,0.7,0.9,1.3,0.4,2.1c-0.3,1.3,0.3,2.6,0.1,3.9c0,0.3-0.2,0.6-0.4,0.9c-1.6,0.6-1.8-0.9-2.5-1.6c-1.8-1.8-3.5-3.9-6.5-3.6
		c-1,1.9,1.2,3.9-0.2,5.8c-0.5,0-0.9-0.1-1.4-0.1c-0.9-0.4-1.8-0.2-2.7-0.1c-2.2,0.4-3.8-0.2-4.5-2.5c0.3,1,0.8,1.9,0.3,2.9
		C22.8,20.3,21.5,20.9,20.1,21.5z"/>
	<path class="st5" d="M45.9,27.1c4.2-4.3,2.4-15.1-1.8-18.7c-0.6-0.5-0.9-0.7-1.7-0.7c-2,0-3-1.1-3-3.1c3.9-0.6,11.3,3.1,12.7,6.3
		c0.9,3,1.2,6,1.3,9.2c0.1,4.5-1.8,7.9-4.5,11.1C47.5,30.1,46.8,28.6,45.9,27.1z"/>
	<path class="st6" d="M52.1,10.9c-3.6-3.5-8.1-5-12.7-6.3c-2.7-1-5.5-1.3-8.3-1C25.7,2,20.8,4,15.9,5.6c-5.5,1.5-9.6,5.2-13.7,8.8
		c0.3-2,1.6-3.3,2.9-4.5c17-15.3,48.3-9.3,58.4,11.2c0.1,0.3,0.1,0.7,0.2,1c-2.9-3.2-5.1-7-8.6-9.6C54.1,11.9,53.5,10.8,52.1,10.9z"
		/>
	<path class="st7" d="M32.2,13.2c3.8-1.7,5.2,1.8,7.5,3.4c0.8,0.6,1.2,1.6,1.8,2.4c0.4,1.7,0,2.8-2,2.9c-1.6-0.6-3.3-1.3-4.9-1.9
		C33.1,17.9,32.5,15.6,32.2,13.2z"/>
	<path class="st8" d="M32.2,13.2c1.2,2.1,2.4,4.2,2.4,6.8c-0.8,0.1-1.5,0-2.1-0.5c-0.4-1.8-0.4-3.8-1.3-5.6
		C30.5,12.6,31.6,13.1,32.2,13.2z"/>
	<path class="st9" d="M27.5,19.4C27.5,19.4,27.5,19.4,27.5,19.4c0.3-0.1,0.6-0.1,0.8-0.1c0,0,0,0,0.1,0c0,0,0,0,0,0c0,0,0,0,0,0
		c0,0,0,0,0,0c0.1,0,0.3-0.1,0.4-0.1C26.2,18.7,24.1,17,22,15c0.7,1.6,1.4,3.2,2.1,4.8c0.1,0,0.2,0,0.3,0c0.4-0.1,0.7-0.1,1.1-0.2
		c0.5,0,1-0.1,1.5-0.1C27.2,19.4,27.3,19.4,27.5,19.4z"/>
	<path class="st10" d="M39.4,21.9c1.2-0.6,1.5-1.8,2-2.9c0-0.2,0-0.5,0-0.7c0.9-0.7-0.7-2.5,1.3-2.8c-0.1,2.6,1,5.3-1,7.6
		C40.9,22.7,40.2,22.3,39.4,21.9z"/>
	<path class="st7" d="M42.6,15.5c-1.1,0.6-0.2,2.2-1.3,2.8c0.2-1.4-0.7-2.9,0.5-4.2C42.1,14.6,42.4,15.1,42.6,15.5z"/>
</g>
</svg>
