<?xml version="1.0" encoding="utf-8"?>
<!-- Generator: Adobe Illustrator 22.1.0, SVG Export Plug-In . SVG Version: 6.00 Build 0)  -->
<svg version="1.1" id="圖層_1" xmlns="http://www.w3.org/2000/svg" xmlns:xlink="http://www.w3.org/1999/xlink" x="0px" y="0px"
	 viewBox="0 0 244 48" style="enable-background:new 0 0 244 48;" xml:space="preserve">
<style type="text/css">
	.st0{fill:#BB7232;}
	.st1{fill:#EAAE07;}
	.st2{fill:#F9F3DC;}
	.st3{fill:#5B3824;}
	.st4{fill:#FFFFFF;}
	.st5{font-family:'Mamelon-83pv-RKSJ-H';}
	.st6{font-size:27.4896px;}
	.st7{enable-background:new    ;}
</style>
<g>
	<polygon class="st0" points="243.5,44.7 19.6,44.7 19.6,6.4 243.5,6.4 223.3,25.6 	"/>
	<g>
		<g>
			<g>
				<g>
					<ellipse class="st1" cx="17.8" cy="18" rx="17.8" ry="18"/>
					<polygon class="st1" points="17.8,47.7 2.1,26.4 33.4,26.4 					"/>
				</g>
				<ellipse class="st2" cx="17.8" cy="18" rx="13.8" ry="14"/>
			</g>
		</g>
		<path class="st1" d="M15.3,14.4l2.4-2.5c0.1-0.1,0.2-0.1,0.2,0l2.4,2.5c0.1,0.1,0,0.3-0.1,0.3h-4.8C15.3,14.6,15.2,14.5,15.3,14.4
			z"/>
		<path class="st1" d="M15.9,15.3h3.8c0.2,0,0.3,0.3,0.2,0.3L18,17.7c-0.1,0.1-0.2,0.1-0.3,0l-1.9-2.1
			C15.6,15.6,15.7,15.3,15.9,15.3z"/>
		<ellipse class="st3" cx="23.7" cy="9.9" rx="1" ry="1"/>
		<ellipse class="st3" cx="11.8" cy="9.9" rx="1" ry="1"/>
	</g>
	<text transform="matrix(1 0 0 1 40.999 35.8951)" class="st4 st5 st6">如何參加飯團</text>
</g>
<g>
	<polygon class="st0" points="243.5,45.1 19.6,45.1 19.6,6.8 243.5,6.8 223.3,25.9 	"/>
	<g>
		<g>
			<g>
				<g>
					<ellipse class="st1" cx="17.8" cy="18.3" rx="17.8" ry="18"/>
					<polygon class="st1" points="17.8,48 2.1,26.7 33.4,26.7 					"/>
				</g>
				<ellipse class="st2" cx="17.8" cy="18.3" rx="13.8" ry="14"/>
			</g>
		</g>
		<path class="st1" d="M15.3,14.7l2.4-2.5c0.1-0.1,0.2-0.1,0.2,0l2.4,2.5c0.1,0.1,0,0.3-0.1,0.3h-4.8C15.3,15,15.2,14.8,15.3,14.7z"
			/>
		<path class="st1" d="M15.9,15.6h3.8c0.2,0,0.3,0.3,0.2,0.3L18,18c-0.1,0.1-0.2,0.1-0.3,0l-1.9-2C15.6,15.9,15.7,15.6,15.9,15.6z"
			/>
		<ellipse class="st3" cx="23.7" cy="10.2" rx="1" ry="1"/>
		<ellipse class="st3" cx="11.8" cy="10.2" rx="1" ry="1"/>
	</g>
	<g class="st7">
		<path class="st4" d="M46.3,13.7c0.7,0,1.2,0.5,1.2,1.2v2.6c0,0.3,0.2,0.5,0.5,0.5h0.9c0.7,0,1.2,0.5,1.2,1.2
			c0,0.7-0.5,1.2-1.2,1.2H48c-0.3,0-0.5,0.2-0.5,0.5v3.2c0,0.2,0.2,0.4,0.4,0.3l0.5-0.2c0.6-0.2,1.2,0.1,1.2,0.7
			c0,0.8-0.4,1.5-1.1,1.8L48,27c-0.3,0.1-0.4,0.4-0.4,0.7v9c0,0.6-0.5,1.2-1.2,1.2c-0.6,0-1.2-0.5-1.2-1.2v-7.9
			c0-0.2-0.3-0.4-0.5-0.3l-0.8,0.4c-0.5,0.2-1.2-0.1-1.2-0.7c0-0.8,0.5-1.5,1.2-1.8l0.8-0.4c0.3-0.1,0.5-0.4,0.5-0.7V21
			c0-0.3-0.2-0.5-0.5-0.5h-0.8c-0.6,0-1.2-0.5-1.2-1.2c0-0.7,0.6-1.2,1.2-1.2h0.8c0.3,0,0.5-0.2,0.5-0.5v-2.7
			C45.2,14.2,45.7,13.7,46.3,13.7z M61.9,31.2c-0.3,0-0.6,0.2-0.6,0.5v2.5c0,0.3,0.2,0.5,0.6,0.5h3.4c0.7,0,1.2,0.5,1.2,1.2
			c0,0.6-0.5,1.2-1.2,1.2l-10.4,0c-1.1,0-2-0.9-2-2V23.2c0-0.3-0.2-0.5-0.5-0.5c-0.9,0-1.4-0.9-1.1-1.7l2.6-5.5
			c0.3-0.7,1-1.1,1.8-1.1c0.6,0,1,0.6,0.7,1.1l-1.1,2.4c-0.1,0.2,0.1,0.5,0.3,0.5h2.9c0.3,0,0.6-0.2,0.7-0.5l1.1-2.4
			c0.3-0.7,1-1.2,1.8-1.2c0.6,0,1,0.6,0.7,1.2l-1.1,2.4c-0.1,0.2,0.1,0.5,0.3,0.5h3.2c0.7,0,1.2,0.5,1.2,1.2c0,0.6-0.5,1.2-1.2,1.2
			h-3.4c-0.3,0-0.6,0.2-0.6,0.5v1.9c0,0.3,0.2,0.5,0.6,0.5h2.7c0.7,0,1.2,0.5,1.2,1.2c0,0.6-0.5,1.2-1.2,1.2h-2.7
			c-0.3,0-0.6,0.2-0.6,0.5v1.8c0,0.3,0.2,0.6,0.6,0.6h2.7c0.6,0,1.2,0.5,1.2,1.2c0,0.6-0.5,1.2-1.2,1.2H61.9z M59.1,21.3
			c0-0.3-0.2-0.5-0.5-0.5h-2.8c-0.3,0-0.5,0.2-0.5,0.5v1.9c0,0.3,0.2,0.5,0.5,0.5h2.8c0.3,0,0.5-0.2,0.5-0.5V21.3z M58.5,28.9
			c0.3,0,0.5-0.2,0.5-0.6v-1.8c0-0.3-0.2-0.5-0.5-0.5h-2.8c-0.3,0-0.5,0.2-0.5,0.5v1.8c0,0.3,0.2,0.6,0.5,0.6H58.5z M55.8,31.2
			c-0.3,0-0.5,0.2-0.5,0.5v2.4c0,0.3,0.2,0.5,0.5,0.5h2.8c0.3,0,0.5-0.2,0.5-0.5v-2.4c0-0.3-0.2-0.5-0.5-0.5H55.8z"/>
		<path class="st4" d="M83.5,17.4c0.6,0,1,0.4,1,1c0,0.2,0.2,0.3,0.3,0.3h8.5c0.6,0,1,0.5,1,1c0,0.6-0.4,1-1,1h-5.4
			c-0.3,0-0.6,0.3-0.6,0.6v0.2c0,0.3,0.3,0.6,0.6,0.6h2.6c1.1,0,2,0.9,2,2v1c0,1.1-0.9,1.9-2,1.9h-9.2c-0.3,0-0.5,0.2-0.6,0.5
			c0,0.2,0.2,0.5,0.5,0.5h10.8c0.5,0,0.9,0.4,0.9,0.9c0,0.6-0.4,0.9-0.9,0.9H80.9c-0.3,0-0.6,0.2-0.7,0.6c0,0.2,0.2,0.5,0.5,0.5
			h11.6c1.1,0,1.9,0.9,1.9,2l0,3.3c0,0.6-0.4,1-1,1c-0.5,0-1-0.4-0.9-1l0.1-2.7c0-0.3-0.3-0.6-0.6-0.6h-12c-1,0-1.8-0.9-1.6-2
			l0.6-3.5c0.1-0.3-0.2-0.6-0.5-0.6h-1.3c-0.5,0-0.9-0.4-0.9-0.9c0-0.5,0.4-0.9,0.9-0.9h1.6c0.3,0,0.6-0.3,0.6-0.6v-0.2
			c0-0.3-0.3-0.6-0.6-0.6h-1.6c-0.5,0-0.9-0.4-0.9-0.9s0.4-0.9,0.9-0.9h1.6c0.3,0,0.6-0.3,0.6-0.6v-0.2c0-0.3-0.3-0.6-0.6-0.6h-3.2
			c-0.3,0-0.6,0.3-0.6,0.6v2.4l-1.2,12.6c-0.1,0.6-0.5,1-1.1,1c-0.6,0-1-0.4-0.9-1l1.2-12.8v-2.9c0-1.1,0.8-2,1.9-2h7.5
			c0.2,0,0.3-0.2,0.3-0.3C82.6,17.8,83,17.4,83.5,17.4z M88.4,14.5c0,0.1,0.1,0.3,0.3,0.3h5.1c0.6,0,1,0.4,1,1c0,0.6-0.4,1-1,1h-5.1
			c-0.1,0-0.2,0.1-0.2,0.3c0,0.4-0.3,0.7-0.7,0.7h-0.6c-0.4,0-0.7-0.3-0.7-0.7c0-0.2-0.2-0.3-0.3-0.3h-5.7c-0.1,0-0.3,0.1-0.3,0.3
			c0,0.4-0.3,0.7-0.7,0.7h-0.5c-0.4,0-0.7-0.3-0.7-0.7c0-0.1-0.1-0.3-0.2-0.3h-5.1c-0.6,0-1-0.4-1-1c0-0.6,0.4-1,1-1h5.1
			c0.2,0,0.2-0.2,0.2-0.3c0-0.4,0.3-0.7,0.8-0.7h0.5c0.4,0,0.7,0.3,0.7,0.7c0,0.1,0.1,0.3,0.3,0.3h5.7c0.1,0,0.3-0.2,0.3-0.3
			c0-0.4,0.3-0.7,0.7-0.7h0.5C88.1,13.8,88.4,14.1,88.4,14.5z M76.5,37c-0.5,0-0.9-0.5-0.8-1l0.2-1c0.1-0.6,0.7-1,1.3-1
			c0.5,0,0.9,0.5,0.8,1l-0.2,1C77.7,36.6,77.1,37,76.5,37z M80,35c-0.1-0.5,0.4-1,0.9-1c0.6,0,1,0.4,1.1,1l0.1,0.9
			c0.1,0.5-0.4,1-0.9,1c-0.6,0-1-0.4-1.1-1L80,35z M84.7,22.1c0.3,0,0.6-0.3,0.6-0.6v-0.2c0-0.3-0.3-0.6-0.6-0.6h-2.9
			c-0.3,0-0.6,0.3-0.6,0.6v0.2c0,0.3,0.3,0.6,0.6,0.6H84.7z M81.8,23.8c-0.3,0-0.6,0.3-0.6,0.6v0.2c0,0.3,0.3,0.6,0.6,0.6h2.9
			c0.3,0,0.6-0.3,0.6-0.6v-0.2c0-0.3-0.3-0.6-0.6-0.6H81.8z M84,35c-0.1-0.5,0.3-1,0.8-1c0.6,0,1.1,0.4,1.3,1l0.1,0.4
			c0.1,0.5-0.3,1-0.8,1c-0.6,0-1.1-0.4-1.3-1L84,35z M90.8,24.4c0-0.3-0.3-0.6-0.6-0.6h-2.3c-0.3,0-0.6,0.3-0.6,0.6v0.2
			c0,0.3,0.3,0.6,0.6,0.6h2.3c0.3,0,0.6-0.3,0.6-0.6V24.4z M87.8,34.9c-0.1-0.5,0.2-0.9,0.7-0.9h0.2c0.6,0,1.1,0.4,1.3,0.9
			c0.1,0.5-0.2,0.9-0.7,0.9h-0.2C88.5,35.8,88,35.4,87.8,34.9z"/>
		<path class="st4" d="M112.8,15.4c0,0.2,0.2,0.4,0.4,0.4h7.5c1.1,0,2,0.9,2,2v1.8c0,0.6-0.5,1.1-1.1,1.1s-1.1-0.5-1.1-1.1v-1.1
			c0-0.3-0.2-0.5-0.5-0.5h-16.6c-0.3,0-0.5,0.2-0.5,0.5v1.1c0,0.6-0.5,1.1-1.1,1.1s-1.1-0.5-1.1-1.1v-1.8c0-1.1,0.9-2,2-2h7.5
			c0.2,0,0.4-0.2,0.4-0.4v-0.6c0-0.6,0.5-1.1,1.1-1.1c0.6,0,1.1,0.5,1.1,1.1V15.4z M107.6,27.4c-0.3,0-0.6,0.2-0.6,0.5v0.9
			c0,0.3,0.2,0.5,0.6,0.5h9.7c1.1,0,2,0.9,2,2v3.9c0,1.1-0.9,2-2,2h-10.5c-1.1,0-2-0.9-2-2V21.9c0-1.1,0.9-2,2-2h9.4
			c1.1,0,2,0.9,2,2v3.4c0,1.1-0.9,2-2,2H107.6z M107.6,22.2c-0.3,0-0.6,0.2-0.6,0.5v1.9c0,0.3,0.2,0.5,0.6,0.5h7.9
			c0.3,0,0.5-0.2,0.5-0.5v-1.9c0-0.3-0.2-0.5-0.5-0.5H107.6z M117,32.1c0-0.3-0.2-0.5-0.5-0.5h-8.9c-0.3,0-0.6,0.2-0.6,0.5v2.3
			c0,0.3,0.2,0.5,0.6,0.5h8.9c0.3,0,0.5-0.2,0.5-0.5V32.1z"/>
		<path class="st4" d="M151.1,18.4c0,0.7-0.5,1.2-1.2,1.2h-10c-0.3,0-0.5,0.2-0.5,0.5v2.2c0,0.3,0.2,0.5,0.5,0.5h7.2
			c1.1,0,2,0.9,2,2l-0.3,11.2c0,0.7-0.5,1.2-1.2,1.2s-1.2-0.5-1.2-1.2l0.2-10.3c0-0.3-0.2-0.5-0.5-0.5h-6.5c-0.3,0-0.6,0.2-0.7,0.5
			l-2.8,9.1c-0.2,0.7-0.9,1.2-1.6,1.2c-0.6,0-1.1-0.6-0.9-1.2l3.2-10.3c0.1-0.4,0.2-0.7,0.2-1v-3.5c0-0.3-0.2-0.5-0.5-0.5h-6
			c-0.7,0-1.2-0.6-1.2-1.2c0-0.7,0.5-1.2,1.2-1.2h8c0.3,0,0.5-0.2,0.5-0.5v-1.3c0-0.7,0.5-1.2,1.2-1.2s1.2,0.5,1.2,1.2v1.3
			c0,0.3,0.2,0.5,0.5,0.5h8C150.6,17.2,151.1,17.7,151.1,18.4z"/>
		<path class="st4" d="M162.5,16.8c-0.3-0.2-0.6-0.2-0.9,0l-1.2,1.2c-0.7,0.7-1.7,1.2-2.7,1.2c-0.5,0-0.8-0.7-0.4-1.1l3.3-3.2
			c0.7-0.8,2.9-0.1,2.9-0.1l3.9,3.4c0.4,0.3,0.2,1-0.4,1c-1.1,0-2.1-0.4-2.9-1.2L162.5,16.8z M163.5,32.2c-0.1-0.6,0.2-1.1,0.8-1.1
			c0.7,0,1.3,0.5,1.5,1.1l1.2,4c0.2,0.6-0.2,1.1-0.8,1.1c-0.7,0-1.3-0.4-1.5-1.1l-0.1-0.2c-0.1-0.2-0.3-0.4-0.5-0.3l-4.5,1.2
			c-1,0.3-1.9-0.4-1.9-1.4v-13c0-1.1,0.8-2,1.9-2h1.1c0.2,0,0.5-0.2,0.5-0.5v-0.5c0-0.6,0.4-1.1,1.1-1.1c0.6,0,1.1,0.5,1.1,1.1v0.5
			c0,0.2,0.2,0.5,0.5,0.5h0.7c1.1,0,2,0.9,2,2v5.1c0,1.1-0.9,1.9-2,1.9h-4.2c-0.3,0-0.6,0.3-0.6,0.6v4c0,0.3,0.3,0.5,0.6,0.4l3-0.8
			c0.4-0.1,0.5-0.4,0.4-0.7L163.5,32.2z M164.5,23.2c0-0.3-0.3-0.6-0.6-0.6h-3.5c-0.3,0-0.6,0.3-0.6,0.6v0.2c0,0.3,0.3,0.6,0.6,0.6
			h3.5c0.3,0,0.6-0.3,0.6-0.6V23.2z M159.7,27c0,0.3,0.3,0.6,0.6,0.6h3.5c0.3,0,0.6-0.3,0.6-0.6v-0.2c0-0.3-0.3-0.6-0.6-0.6h-3.5
			c-0.3,0-0.6,0.3-0.6,0.6V27z M180.5,35.9c0.3,0.5-0.1,1.2-0.6,1.2c-0.9,0-1.6-0.5-2-1.2l-1.1-1.9c-0.1-0.2-0.5-0.2-0.6,0l-0.9,1.8
			c-0.3,0.7-1,1.2-1.8,1.2c-0.5,0-1-0.6-0.7-1.2l2.1-4.5c0.1-0.3,0.2-0.7,0-1l-2.7-6.8c-0.1-0.2-0.3-0.4-0.5-0.4
			c-0.2,0-0.4,0.2-0.4,0.4l-0.4,12.8c0,0.6-0.5,1.1-1.1,1.1c-0.6,0-1.1-0.5-1.1-1.1l0.5-19.9c0-1.1,0.9-1.9,2-1.9h8.2
			c0.6,0,1.1,0.4,1.1,1.1c0,0.6-0.5,1.1-1.1,1.1h-7.5c-0.3,0-0.6,0.3-0.6,0.6l-0.1,3c0,0.3,0.3,0.6,0.6,0.6h6.1c1,0,1.7,0.9,1.5,1.9
			l-1.8,7.5c-0.1,0.3,0,0.7,0.1,1L180.5,35.9z M176.9,23.7c0.1-0.3-0.2-0.6-0.5-0.6H175c-0.3,0-0.5,0.3-0.4,0.5l1.1,2.8
			c0.1,0.2,0.4,0.2,0.4,0L176.9,23.7z"/>
		<path class="st4" d="M185.4,16c0-1.1,0.8-1.9,2-1.9H207c1.1,0,1.9,0.8,1.9,1.9v19.7c0,1.1-0.8,2-1.9,2h-19.6c-1.1,0-2-0.9-2-2V16z
			 M206.2,35.6c0.3,0,0.6-0.3,0.6-0.6V16.8c0-0.3-0.3-0.6-0.6-0.6h-18.1c-0.3,0-0.6,0.3-0.6,0.6V35c0,0.3,0.3,0.6,0.6,0.6H206.2z
			 M200.9,34.6c-0.5,0-0.8-0.4-0.8-0.8V32c0-0.3-0.2-0.5-0.5-0.5h-9.7c-0.5,0-0.8-0.4-0.8-0.8c0-0.5,0.4-0.8,0.8-0.8h10
			c0.1,0,0.2-0.1,0.2-0.2c0-0.4,0.3-0.7,0.7-0.7h0.2c0.4,0,0.7,0.3,0.7,0.7c0,0.1,0.1,0.2,0.2,0.2h2.5c0.5,0,0.8,0.4,0.8,0.8
			c0,0.4-0.4,0.8-0.8,0.8h-2.1c-0.3,0-0.5,0.2-0.5,0.5v1.8C201.7,34.2,201.4,34.6,200.9,34.6z M203.7,29c-0.3,0-0.5-0.1-0.7-0.4
			c0-0.1-0.1-0.1-0.2-0.1l-12.3,0.1c-0.4,0-0.8-0.4-0.8-0.8c0-0.5,0.4-0.8,0.8-0.8l5.4-0.1c0.3,0,0.5-0.2,0.5-0.5s-0.2-0.5-0.5-0.5
			h-3.7c-1.1,0-2-0.9-2-2v-1.3c0-1.1,0.9-2,2-2h3.9c0.2,0,0.3-0.1,0.3-0.3s-0.2-0.3-0.3-0.3h-5.4c-0.5,0-0.8-0.4-0.8-0.8
			c0-0.4,0.4-0.8,0.8-0.8h5.5c0.1,0,0.2-0.1,0.2-0.2v-0.1c0-0.4,0.4-0.8,0.8-0.8c0.4,0,0.8,0.4,0.8,0.8V18c0,0.1,0.1,0.2,0.2,0.2
			h5.5c0.5,0,0.8,0.4,0.8,0.8c0,0.5-0.4,0.8-0.8,0.8h-5.4c-0.2,0-0.3,0.1-0.3,0.3s0.1,0.3,0.3,0.3h3.9c1.1,0,2,0.9,2,2v1.3
			c0,1.1-0.9,2-2,2h-3.8c-0.3,0-0.5,0.2-0.5,0.5c0,0.2,0.2,0.5,0.5,0.5l3.7,0c0,0,0.1-0.1,0.1-0.1c-0.1-0.2,0.1-0.3,0.2-0.3h0.5
			c0.5,0,1.1,0.3,1.3,0.8l0.4,0.9c0.2,0.4-0.1,0.8-0.5,0.8H203.7z M196.3,22.2c0-0.2-0.1-0.3-0.3-0.3h-4.2c-0.2,0-0.3,0.1-0.3,0.3
			c0,0.2,0.1,0.3,0.3,0.3h4.2C196.2,22.5,196.3,22.4,196.3,22.2z M191.5,24.2c0,0.2,0.1,0.3,0.3,0.3h4.3c0.2,0,0.3-0.1,0.3-0.3
			s-0.1-0.3-0.3-0.3h-4.3C191.6,23.9,191.5,24,191.5,24.2z M193.3,32.5c-0.3-0.2-0.1-0.7,0.3-0.7c0.6,0,1.2,0.2,1.7,0.7l0.5,0.5
			c0.2,0.2,0.1,0.7-0.3,0.7c-0.6,0-1.2-0.2-1.7-0.7L193.3,32.5z M202.8,22.2c0-0.2-0.1-0.3-0.3-0.3h-4.2c-0.2,0-0.3,0.1-0.3,0.3
			c0,0.2,0.1,0.3,0.3,0.3h4.2C202.7,22.5,202.8,22.4,202.8,22.2z M198,24.2c0,0.2,0.1,0.3,0.3,0.3h4.3c0.2,0,0.3-0.1,0.3-0.3
			s-0.1-0.3-0.3-0.3h-4.3C198.1,23.9,198,24,198,24.2z"/>
	</g>
</g>
</svg>
