<?xml version="1.0" encoding="utf-8"?>
<!-- Generator: Adobe Illustrator 22.1.0, SVG Export Plug-In . SVG Version: 6.00 Build 0)  -->
<svg version="1.1" id="圖層_1" xmlns="http://www.w3.org/2000/svg" xmlns:xlink="http://www.w3.org/1999/xlink" x="0px" y="0px"
	 viewBox="0 0 188 235" style="enable-background:new 0 0 188 235;" xml:space="preserve">
<style type="text/css">
	.st0{fill:#40220F;}
	.st1{fill:#FAE345;}
	.st2{fill:#B97233;}
	.st3{fill:#FFFFFF;}
</style>
<g>
	<g>
		<g>
			<g>
				<path class="st0" d="M67.1,229.3c-0.5,0-1-0.2-1.4-0.6l-12.1-13.9c-0.4-0.5-0.6-1.2-0.3-1.8l18.8-51.4c0.3-0.9,1.4-1.4,2.3-1.1
					c0.9,0.3,1.4,1.4,1.1,2.3l-18.5,50.4l11.4,13c0.7,0.8,0.6,1.9-0.2,2.6C68,229.1,67.6,229.3,67.1,229.3z"/>
			</g>
			<g>
				<path class="st0" d="M76.3,226.1c-0.3,0-0.6-0.1-0.8-0.2l-21.2-10.6c-0.8-0.4-1.2-1.3-0.9-2.1c0.2-0.8,1-1.4,1.9-1.4l18.4,0.9
					c1,0.1,1.8,0.9,1.7,1.9c-0.1,1-0.9,1.8-1.9,1.7l-9.7-0.5l13.4,6.7c0.9,0.5,1.3,1.5,0.8,2.4C77.6,225.7,77,226.1,76.3,226.1z"/>
			</g>
		</g>
		<g>
			<g>
				<path class="st0" d="M136.7,232.7c-0.3,0-0.7-0.1-0.9-0.3l-16.5-10c-0.5-0.3-0.9-0.9-0.9-1.6l-0.3-58.7c0-1,0.8-1.8,1.8-1.8
					c0,0,0,0,0,0c1,0,1.8,0.8,1.8,1.8l0.3,57.7l15.6,9.5c0.9,0.5,1.1,1.6,0.6,2.5C137.9,232.4,137.3,232.7,136.7,232.7z"/>
			</g>
			<g>
				<path class="st0" d="M142.7,226.1c-0.1,0-0.2,0-0.3,0l-22.5-3.3c-0.8-0.1-1.5-0.8-1.6-1.7c-0.1-0.8,0.5-1.6,1.3-1.9l17.5-5.5
					c1-0.3,2,0.2,2.3,1.2c0.3,1-0.2,2-1.2,2.3l-9.9,3.1l14.6,2.2c1,0.1,1.7,1.1,1.5,2.1C144.4,225.4,143.6,226.1,142.7,226.1z"/>
			</g>
		</g>
	</g>
	<g>
		<g>
			<path class="st1" d="M102.2,34.6c-48.1,0-78.2,37.7-94,97.8s62.8,77.1,89.3,77.1s84.3-14.3,84.3-75.1S150.4,34.6,102.2,34.6z"/>
			<path class="st0" d="M97.5,211.6c-18.6,0-63.4-8.4-83.4-34.4c-9.8-12.8-12.5-28-8-45.4c8.3-31.4,20.2-55.7,35.4-72.3
				C58,41.6,78.4,32.5,102.2,32.5c49.7,0,81.8,40,81.8,101.9c0,27-11.5,48.5-33.2,62.1C133.1,207.6,111.7,211.6,97.5,211.6z
				 M102.2,36.7c-22.6,0-41.9,8.6-57.6,25.7c-14.8,16.1-26.3,39.8-34.4,70.5c-4.2,16-1.8,30,7.2,41.7c19,24.7,62.2,32.7,80.1,32.7
				c13.6,0,34.1-3.8,51-14.4c20.7-13,31.2-32.7,31.2-58.5C179.8,75.1,149.3,36.7,102.2,36.7z"/>
		</g>
		<g>
			<path class="st0" d="M119.8,91c-0.5,0-1-0.2-1.3-0.6c-0.4-0.4-0.5-0.9-0.5-1.5c0.1-0.5,1.6-13,10.8-15.6c2.2-0.6,4.2-0.3,5.8,0.9
				c4.5,3.4,4.7,12.9,4.7,13.9c0,1-0.8,1.8-1.7,1.8L119.8,91C119.9,91,119.9,91,119.8,91z M137.4,88.2L137.4,88.2L137.4,88.2z
				 M137.4,88.2L137.4,88.2L137.4,88.2z M130.9,76.7c-0.3,0-0.7,0-1.1,0.2c-4.9,1.4-7,7.2-7.7,10.4l13.5-0.7
				c-0.2-3.4-1.2-7.8-3.1-9.3C132.1,77,131.6,76.7,130.9,76.7z"/>
		</g>
		<g>
			<path class="st0" d="M110.1,71.1c0,0-0.1,0-0.1,0l-20.1-1.4c-0.8-0.1-1.5-0.8-1.4-1.6c0.1-0.8,0.8-1.5,1.6-1.4l20.1,1.4
				c0.8,0.1,1.5,0.8,1.4,1.6C111.6,70.5,110.9,71.1,110.1,71.1z"/>
		</g>
		<g>
			<circle class="st0" cx="97.1" cy="80.9" r="5.2"/>
		</g>
		<g>
			<circle class="st0" cx="150.5" cy="81.9" r="5.2"/>
		</g>
		<g>
			<path class="st0" d="M126.1,106.5c-0.4,0-0.7,0-1.1-0.1c-2.1-0.3-3.8-1.3-5-2.9c-2.6-3.6-1.7-9-1.6-9.6c0.2-0.9,1.1-1.6,2-1.5
				l14.5,1.8c0.5,0.1,1,0.4,1.3,0.8c0.3,0.4,0.4,1,0.2,1.5c0,0.1-0.8,2.7-2.4,5.2C131.9,104.8,129.2,106.5,126.1,106.5z M121.9,96.2
				c-0.1,1.6,0.1,3.8,1.1,5.1c0.6,0.8,1.4,1.3,2.5,1.4c3.4,0.4,5.6-3,6.7-5.3L121.9,96.2z"/>
		</g>
		<g>
			<polygon class="st0" points="119.1,89 118.7,93.4 133.1,94.8 134,88.4 			"/>
		</g>
		<g>
			<path class="st0" d="M144.6,74.7c-0.6,0-1.1-0.2-1.5-0.6c-1.5-1.3-1.1-4.6-0.8-6.5c0.1-0.8,0.9-1.4,1.8-1.2
				c0.8,0.1,1.4,0.9,1.2,1.8c-0.2,1.2-0.3,2.5-0.2,3.2c2.3-1.1,8.3-4.6,12-6.8c0.7-0.4,1.7-0.2,2.1,0.5c0.4,0.7,0.2,1.7-0.5,2.1
				c-1.1,0.7-10.9,6.6-13.2,7.3c0,0,0,0-0.1,0C145.1,74.7,144.9,74.7,144.6,74.7z M145.2,72L145.2,72L145.2,72z"/>
		</g>
		<g>
			<path class="st1" d="M165.3,116.1c0,0-37.2,11.7-43,21.6c-6,10.2,21.2,9.5,21.2,9.5s-11.2,0.8-13.6,8.6c-1.8,6,18.5,5.2,18.5,5.2
				s-8.6,0.4-6.4,6c2.3,5.6,17.2,1.8,17.2,1.8"/>
			<path class="st0" d="M149.8,172c-4,0-8-0.9-9.4-4.2c-1-2.3-0.4-4,0.2-5c-4.6-0.3-9.9-1.3-11.8-3.7c-0.8-1.1-1.1-2.4-0.7-3.7
				c1-3.1,3.1-5.3,5.4-6.8c-7.3-0.8-11.6-2.6-13.2-5.4c-0.8-1.3-1.3-3.5,0.4-6.3c2.6-4.4,10.9-9.6,24.6-15.2
				c10-4.1,19.4-7.1,19.5-7.1c1-0.3,2,0.2,2.3,1.2c0.3,1-0.2,2-1.2,2.3c-10.2,3.2-37.5,13.1-42,20.7c-1,1.6-0.6,2.4-0.4,2.6
				c1.8,3.1,12.8,4.3,20,4.1c1,0,1.8,0.7,1.9,1.7c0,1-0.7,1.8-1.7,1.9c-0.1,0-10,0.8-12,7.4c-0.1,0.2,0,0.3,0.1,0.4
				c1.5,1.9,9.8,2.7,16.6,2.4c1-0.1,1.9,0.7,1.9,1.7c0,1-0.7,1.9-1.7,1.9c-1.2,0.1-4.1,0.6-4.8,1.8c-0.1,0.2-0.4,0.6,0.1,1.7
				c1.2,2.8,9.7,2.1,15,0.7c1-0.3,2,0.3,2.2,1.3c0.3,1-0.3,2-1.3,2.2C158.3,171,154,172,149.8,172z"/>
		</g>
		<g>
			<g>
				<path class="st0" d="M116.6,182c-0.3,0-0.6,0-0.9-0.1l-25-3.3c-1.8-0.2-3.5-1.2-4.5-2.8c-1-1.6-1.3-3.7-0.6-5.5l16.3-44.7
					c1.1-2.9,4-4.6,7.1-4l25,4.7c0,0,0,0,0,0c1.8,0.3,3.4,1.5,4.3,3.1c0.9,1.6,1.2,3.5,0.6,5.2c0,0,0,0.1,0,0.1l-16.3,43.3
					C121.5,180.4,119.1,182,116.6,182z M107.7,125.1c-1.1,0-2.1,0.7-2.4,1.7l-16.2,44.7c-0.3,0.8-0.2,1.7,0.3,2.4
					c0.4,0.7,1.1,1.1,1.9,1.1l25,3.3c1.2,0.2,2.4-0.5,2.8-1.7l16.3-43.3c0.2-0.7,0.1-1.5-0.3-2.2c-0.4-0.7-1.1-1.2-1.9-1.3l-25-4.7
					C108.1,125.1,107.9,125.1,107.7,125.1z"/>
			</g>
			<g>
				<path class="st2" d="M134.9,130.3l-25-4.7c-2.2-0.4-4.3,0.8-5,2.8l-16.3,44.8c-0.9,2.7,0.7,5.6,3.6,5.9l25,3.3
					c2.1,0.3,4.1-0.9,4.8-2.8l16.3-43.3C139.3,133.6,137.6,130.8,134.9,130.3z"/>
				<path class="st0" d="M117.9,184.4c-0.3,0-0.6,0-0.9-0.1L92,181c-1.8-0.2-3.5-1.2-4.5-2.8c-1-1.6-1.3-3.7-0.6-5.5l16.4-44.8
					c1.1-2.9,4-4.6,7.1-4l25,4.7c0,0,0,0,0,0c1.8,0.3,3.4,1.5,4.3,3.1c0.9,1.6,1.1,3.6,0.5,5.4l-16.4,43.4
					C122.8,182.8,120.4,184.4,117.9,184.4z M109.1,127.4c-1.1,0-2.1,0.7-2.4,1.7l-16.3,44.8c-0.3,0.8-0.2,1.7,0.3,2.4
					c0.4,0.7,1.1,1.1,1.9,1.1l25,3.3c1.2,0.2,2.4-0.5,2.8-1.7l16.3-43.3c0.3-0.7,0.2-1.6-0.2-2.3c-0.4-0.7-1.1-1.2-1.8-1.3l-25-4.7
					C109.4,127.4,109.3,127.4,109.1,127.4z"/>
			</g>
		</g>
		<g>
			<path class="st1" d="M88.4,102.9c0,0,19.6,37.5,10.1,57.3s-28-20.2-28-20.2s4,19.3-6.1,24.1s-14.6-8.6-14.6-8.6
				s-1.1,18.7-12.9,12.1s-12.9-14.9-12.9-14.9"/>
			<path class="st0" d="M41.5,170.8c-1.7,0-3.6-0.6-5.5-1.7c-12.4-7-13.8-15.9-13.8-16.2c-0.1-1,0.6-1.9,1.6-2.1
				c1-0.1,1.9,0.6,2.1,1.6c0,0,0.3,1.9,1.9,4.4c1.5,2.4,4.5,5.9,10.1,9.1c2.3,1.3,4.1,1.5,5.5,0.8c3.4-1.8,4.5-9,4.7-11.4
				c0.1-0.9,0.7-1.6,1.6-1.7c0.9-0.1,1.7,0.4,2,1.2c0,0.1,2.1,6.2,6.3,8c1.8,0.7,3.6,0.6,5.7-0.4c4.4-2.1,5.6-7.8,5.8-12.3
				c0.3-5.1-0.7-9.7-0.7-9.8c-0.2-0.9,0.3-1.8,1.2-2.1c0.9-0.3,1.8,0.1,2.2,1c4.4,9.5,13.7,24.6,19.8,24.6c0,0,0,0,0,0
				c1.8,0,3.4-1.5,4.8-4.5c9-18.7-9.9-55.3-10.1-55.6c-0.5-0.9-0.1-2,0.8-2.5c0.9-0.5,2-0.1,2.5,0.8c0.8,1.6,19.9,38.5,10.1,58.9
				c-2.1,4.3-4.8,6.5-8.1,6.5c0,0,0,0,0,0c-7,0-14.4-10.7-18.9-18.6c-0.1,6.2-1.6,13.8-8,16.8c-3.1,1.5-6,1.6-8.7,0.4
				c-2.5-1.1-4.4-3.1-5.7-5c-0.9,3.3-2.5,7-5.6,8.7C43.9,170.5,42.7,170.8,41.5,170.8z"/>
		</g>
		<g>
			<g>
				<path class="st3" d="M138.6,45.1c0,0-5.6-43.4-45-40.9S63.4,43.6,63.4,43.6s22-6.8,40.6-5.7C122.7,39,138.6,45.1,138.6,45.1z"/>
				<path class="st0" d="M138.6,47c-0.2,0-0.4,0-0.7-0.1c-0.2-0.1-15.8-6.1-34-7.2c-18.1-1-39.7,5.6-40,5.6c-0.5,0.1-1,0.1-1.4-0.2
					c-0.4-0.2-0.8-0.7-0.9-1.1c-0.2-0.7-4.1-16.9,4.8-29.1C72,7.4,81,3.2,93.5,2.4c21.3-1.4,32.9,10.4,38.9,20.4
					c6.4,10.7,7.9,21.6,8,22.1c0.1,0.6-0.2,1.3-0.7,1.7C139.4,46.8,139,47,138.6,47z M99.9,35.9c1.4,0,2.8,0,4.2,0.1
					c14.2,0.9,26.6,4.5,32.1,6.3c-0.9-3.9-2.9-10.9-7-17.8c-8-13.3-20-19.5-35.5-18.5c-11.3,0.7-19.5,4.4-24.3,11
					c-6.3,8.5-5.3,19.8-4.6,24.2C70.1,39.8,85.4,35.9,99.9,35.9z"/>
			</g>
			<g>
				<path class="st2" d="M138.1,45.4c4.8-4.4,27.8-21.2,12.5-28.4C125.5,5.2,63.7,45.2,64.6,42.5c0.8-2.6,35.3-2.7,46.4-2.5
					C130.6,40.2,138.1,45.4,138.1,45.4z"/>
				<path class="st0" d="M138.1,47.3c-0.4,0-0.7-0.1-1-0.3c-0.1-0.1-7.5-4.9-26-5.1c-14.3-0.3-35.4,0.1-42.7,1.3
					c-0.2,0.1-0.4,0.2-0.5,0.3c-1.9,1-3.2,1.6-4.3,0.6c-0.6-0.5-0.8-1.3-0.5-2.1c0.4-1.1,1.5-1.8,4.2-2.3c1.3-0.7,3-1.6,4.8-2.5
					c17.8-9.4,59.3-31.3,79.5-21.8c3.7,1.7,5.8,4.2,6.2,7.2c1,7.9-10,17.3-16,22.3c-0.9,0.8-1.7,1.4-2.2,1.9
					C138.9,47.1,138.5,47.3,138.1,47.3z M102.1,38.1c3.9,0,7.1,0,9,0.1c15.6,0.2,23.8,3.5,26.7,5c0.4-0.3,0.8-0.7,1.3-1.1
					c4.6-3.9,15.5-13.1,14.7-19.1c-0.2-1.8-1.6-3.2-4.1-4.4c-17.4-8.2-54.3,10.3-73,20c2.1-0.1,4.5-0.2,7.2-0.3
					C90.3,38.2,96.8,38.1,102.1,38.1z"/>
			</g>
		</g>
	</g>
</g>
</svg>
