<?xml version="1.0" encoding="utf-8"?>
<!-- Generator: Adobe Illustrator 22.1.0, SVG Export Plug-In . SVG Version: 6.00 Build 0)  -->
<svg version="1.1" id="圖層_1" xmlns="http://www.w3.org/2000/svg" xmlns:xlink="http://www.w3.org/1999/xlink" x="0px" y="0px"
	 viewBox="0 0 400 400" style="enable-background:new 0 0 400 400;" xml:space="preserve">
<style type="text/css">
	.st0{opacity:0.26;}
	.st1{fill:#EC7102;}
	.st2{fill:#ED780A;}
	.st3{fill:#EC7101;}
	.st4{fill:#ED7506;}
	.st5{fill:#EE7B0E;}
	.st6{fill:#ED7507;}
	.st7{fill:#EB680E;}
	.st8{fill:#EE7E12;}
	.st9{fill:#F29B20;}
	.st10{fill:#F3991B;}
	.st11{fill:#F29A1D;}
	.st12{fill:#E83A31;}
	.st13{fill:#F6B400;}
	.st14{fill:#F08702;}
	.st15{fill:#EA5E41;}
	.st16{fill:#EC7053;}
	.st17{fill:#EE7E61;}
	.st18{fill:#E94633;}
	.st19{fill:#EF8A70;}
	.st20{fill:#E72320;}
	.st21{opacity:0.37;}
	.st22{opacity:0.44;}
	.st23{opacity:0.3;}
	.st24{opacity:0.31;}
	.st25{opacity:0.34;}
</style>
<g class="st0">
	<path class="st1" d="M72.5,33.9c2.8,3.9,2.8,8.3,0,11.9c-2.9,3.6-7.3,4.5-11.8,2.4c-0.7-0.8-0.5-1.7-0.2-2.4
		c2.2-6.1,0.3-11.4-3.1-16.5c-0.7-1-0.9-2-0.5-3c4.1-1.3,6.6,2,9.6,3.4C68.8,30.5,70.5,32.5,72.5,33.9z"/>
	<path class="st2" d="M56.2,45.1c-1.9-0.8-3.8-1.6-5.7-2.6c-0.9-2.3-1-4.9-2.3-7.1c-0.3-0.6-0.8-1.2-1.1-1.8
		c-2.7-3.4-6.7-3.4-10.4-3.6c-2.5-0.1-3.9,2.2-4.9,4.5c-1.2,2.5-2.4,5.2-5.5,6c-2.9-1.1-3.2-3-1.8-5.6c2.1-3.9,4.6-7.2,8.5-9.5
		c2.7-1.4,5.6-2.1,8.7-1.7c1.6,1,3.1,2.1,5.4,1.8c1.8-0.2,3.1,1.4,4.5,2.4c4.4,3.1,5.5,7.9,6.5,12.8C58.3,42.5,57.8,44.1,56.2,45.1z
		"/>
	<path class="st3" d="M24,53.9c-2.9,3.1-6.5,3.9-10.4,2.4s-6-4.5-6-8.8c1.4-5,4.2-9.2,8.1-12.6c0.7-0.6,1.4-1.4,2.5-1.4
		c2.1,0.5,1.5,2.1,1.6,3.5c0,4-0.7,7.9,0.7,12C21.2,51,22.2,52.7,24,53.9z"/>
	<path class="st4" d="M24,53.9c-2.3,0.8-3.1-0.4-3.8-2.4c-1.8-5-1.8-10.2-1.2-15.4c0.1-0.9,0.2-1.7-0.6-2.3c0-1.6,1.3-2.2,2.3-3.1
		c2.9-2.1,5.9-3.8,9.4-4.8c0.9-0.2,2.2-1,2.8,0.6c-3.2,2.5-5.8,5.4-7.7,9.1c-1.2,2.2-0.8,3.6,1.3,4.7c2.2,2.4,0.6,5.6,1.7,8.2
		C26.8,50.2,25.4,52,24,53.9z"/>
	<path class="st5" d="M28.2,48.4c-2.6-2.3-0.9-5.6-1.7-8.2c2.2-1.4,3.5-3.6,4.6-6c2.1-4.9,4.3-5.7,9.5-4.4c2,0.5,4,0.8,5.9,1.6
		c1,0.5,1.4,1,1.1,2c0.1,1.4,1.2,2.5,1.5,3.9c0.1,0.3,0,0.7-0.1,1c-1.4,1.2-2.1-0.3-3.1-0.8c-2.4-1.2-4.9-2.7-7.8-1.4
		c-0.4,2.3,2.6,3.5,1.8,5.9c-0.5,0.2-0.9,0.2-1.5,0.4c-1-0.1-1.9,0.4-2.8,0.8c-2.1,1.2-3.9,1.1-5.4-1c0.7,0.9,1.5,1.6,1.3,2.8
		C30.5,46.2,29.4,47.3,28.2,48.4z"/>
	<path class="st6" d="M56.2,45.1c2.8-5.8-2.8-16.1-8.3-18.3c-0.8-0.3-1.2-0.4-2-0.1c-2,0.7-3.4-0.1-4.1-2.1c3.7-2,12.5-0.8,15,2
		c2,2.7,3.3,5.7,4.5,8.9c1.7,4.5,0.9,8.6-0.7,12.8C58.9,47.6,57.7,46.3,56.2,45.1z"/>
	<path class="st7" d="M56.9,26.5c-4.9-2.3-9.9-2.2-15-2c-3.1-0.1-6,0.6-8.7,1.9c-6,0.3-10.3,4-14.7,7.3c-5,3.4-7.9,8.6-10.8,13.7
		c-0.4-2.1,0.5-3.9,1.4-5.6c11.9-21.4,45.6-26.2,63-8.9c0.2,0.3,0.3,0.7,0.5,0.9c-4-2.2-7.6-5.3-12-6.7
		C59.2,26.9,58.2,25.9,56.9,26.5z"/>
	<path class="st8" d="M37.5,35.8c3.3-3,5.9,0,8.8,0.8c1,0.3,1.8,1.2,2.7,1.8c1,1.6,1,2.8-1,3.6c-1.8-0.1-3.8-0.2-5.6-0.2
		C40.1,40.2,38.7,38.1,37.5,35.8z"/>
	<path class="st9" d="M37.5,35.8c1.9,1.7,3.9,3.4,4.8,6c-0.8,0.4-1.5,0.5-2.3,0.2c-1-1.7-1.7-3.7-3.3-5.2
		C35.6,35.8,36.9,35.9,37.5,35.8z"/>
	<path class="st10" d="M34.9,43.7L34.9,43.7c0.3-0.2,0.6-0.3,0.8-0.4c0,0,0,0,0.1,0l0,0l0,0l0,0c0.1,0,0.3-0.2,0.4-0.2
		c-2.8,0.4-5.5-0.6-8.3-1.9c1.3,1.4,2.5,2.8,3.8,4.1c0.1,0,0.2-0.1,0.3-0.1c0.4-0.2,0.7-0.3,1-0.6c0.5-0.2,1-0.4,1.5-0.6
		C34.6,43.8,34.7,43.7,34.9,43.7z"/>
	<path class="st11" d="M47.8,42.1c1-1,0.9-2.3,1-3.6c-0.1-0.2-0.2-0.5-0.2-0.7c0.7-1-1.6-2.3,0.3-3.3c0.8,2.7,2.9,5,1.6,8
		C49.6,42.4,48.8,42.2,47.8,42.1z"/>
	<path class="st8" d="M48.9,34.5c-0.9,1,0.6,2.3-0.3,3.3c-0.3-1.5-1.7-2.7-1-4.4C48,33.8,48.5,34.2,48.9,34.5z"/>
</g>
<g class="st0">
	<path class="st12" d="M212.1,203.6c-2.5,0.7-2.7-1.1-3.1-2.7c1.1-0.6,2.2-1.2,3.3-1.8c1.2,0.4,1.2,1.4,1.1,2.4
		C212.9,202.2,212.5,202.9,212.1,203.6z"/>
	<g>
		<path class="st13" d="M202.9,213c-0.9,2.7-3.3,3.6-5.3,5.1c-4.6,0.1-9,1.5-13.3,2.9c-3.8,1.3-7.7,1.1-11.3,0
			c-6.6-1.8-12.9-4.5-18.2-9.3c-2.1-1.9-3-4.5-3.7-7.2c0.6-3.6,3.7-5.8,7.5-5.9c5.8-0.1,10.8,2.5,15.7,4.6
			c5.3,2.2,10.8,3.3,16.4,2.2c4.1-0.7,7.7,0.2,11.3,1.5c0.7,0,1.3,0.3,1.7,0.9c0.2,0.2,0.4,0.5,0.5,0.9
			C204.9,210.6,204.2,211.8,202.9,213z"/>
		<path class="st14" d="M151,204.6c0.3,0.2,1,0.4,1.1,0.7c2,7,7.9,9.6,13.8,12.2c3.2,1.4,6.4,2.7,9.8,3.2c4.3,0.6,8-0.5,12.1-1.7
			c3.1-0.9,6.3-2.7,9.8-1c-5.3,3.8-11.3,5.3-17.8,5.8c-6.8,0.4-13.5-0.6-19.8-3.6c-5.2-2.5-8.6-6.4-9.6-12.2
			C150.2,206.8,150.2,205.6,151,204.6z"/>
		<path class="st15" d="M213.3,212.2c-0.5,0.5-1.2,0.9-1.9,0.7c-2.7-1.3-4.9-2.9-4.5-6.3c0.1-0.7-0.1-1.4-0.6-1.7
			c-2.4-1.8-0.4-2.4,0.9-3.1c0.5-0.4,1.2-0.9,1.9-0.7c0.9,1.2,1.9,1.9,3.1,2.7c0,1.4-1.7,2.2-1.4,3.7
			C211.1,209.2,213.8,209.8,213.3,212.2z"/>
		<path class="st16" d="M207.1,201.7c-0.6,0.9-2.5,1.6,0,2.5c0.4,0.1,1.2,1.3,1.1,1.5c-2,3.8,2,4.9,3.2,7.3c-0.5,0.5-1.3,0.5-2,0.6
			c-3.4-1.9-4.2-5.7-5.9-8.7C204.2,203.3,205.4,202.2,207.1,201.7z"/>
		<path class="st17" d="M203.4,204.9c1.3,0.5,2.2,1.1,2.2,2.8c0.1,2.6,3.1,3.5,3.6,5.9c-0.6,0.3-1.2,0.3-1.8,0
			c-1.6-1.2-2.6-3-3.8-4.5c-0.1-0.2-0.3-0.3-0.4-0.5c0.2-1.1-0.4-2.1-0.2-3.2C203.1,205.1,203.2,204.9,203.4,204.9z"/>
		<path class="st18" d="M213.3,212.2c-1.1-1.3-2-2.6-3.1-3.8c-0.7-0.9,0.1-0.7,0.4-1c1.3,0.4,2.5,0.7,3.7,1.2
			c0.3,0.9,1.5,1.2,1.3,2.4C215,211.5,214.2,212.1,213.3,212.2z"/>
		<path class="st19" d="M203.7,209.1c2.1,0.7,3.2,2.5,3.8,4.5c-1.6,0.3-3-1.2-4.6-0.5C203.4,211.7,204.2,210.6,203.7,209.1z"/>
		<path class="st19" d="M203,205.3c1,1.1,1.9,2,0.2,3.2c-0.4-0.5-0.9-1-1.4-1.5C202.4,206.5,202.7,205.8,203,205.3z"/>
		<path class="st20" d="M215.7,210.9c-0.5-0.7-1.5-1.2-1.3-2.4c1,0.2,2.4,0,2.8,1.1C217.5,210.3,216.3,210.6,215.7,210.9z"/>
	</g>
</g>
<g class="st21">
	<path class="st12" d="M218.8,33.2c-2.7,0.8-2.9-1.2-3.4-2.9c1.2-0.7,2.5-1.3,3.6-2c1.3,0.5,1.3,1.5,1.2,2.6
		C219.7,31.7,219.2,32.4,218.8,33.2z"/>
	<g>
		<path class="st13" d="M208.7,43.5c-0.9,2.9-3.6,4-5.8,5.6c-5,0.1-9.8,1.6-14.5,3.2c-4.2,1.4-8.4,1.2-12.4,0
			c-7.2-2-14.1-4.9-19.8-10.2c-2.3-2.1-3.3-4.9-4.1-7.8c0.7-4,4.1-6.3,8.2-6.4c6.3-0.1,11.8,2.7,17.2,5c5.8,2.5,11.8,3.6,17.9,2.5
			c4.4-0.8,8.4,0.2,12.4,1.6c0.8,0,1.4,0.4,1.9,0.9c0.2,0.2,0.5,0.6,0.6,0.9C211,40.8,210.1,42.2,208.7,43.5z"/>
		<path class="st14" d="M152.1,34.3c0.4,0.2,1.1,0.5,1.2,0.8c2.2,7.6,8.6,10.5,15.1,13.3c3.5,1.5,7,2.9,10.7,3.5
			c4.7,0.7,8.8-0.6,13.2-1.9c3.4-0.9,6.9-2.9,10.7-1.1c-5.8,4.2-12.4,5.8-19.4,6.3c-7.5,0.5-14.7-0.7-21.6-4
			c-5.7-2.7-9.3-7-10.5-13.3C151.2,36.7,151.2,35.4,152.1,34.3z"/>
		<path class="st15" d="M220.1,42.6c-0.6,0.6-1.3,0.9-2.1,0.8c-2.9-1.4-5.4-3.2-4.9-6.9c0.1-0.8-0.1-1.5-0.7-1.9
			c-2.6-2-0.5-2.6,0.9-3.4c0.6-0.5,1.3-0.9,2.1-0.8c0.9,1.3,2.1,2.1,3.4,2.9c0,1.5-1.9,2.5-1.5,4.1C217.7,39.3,220.6,40,220.1,42.6z
			"/>
		<path class="st16" d="M213.3,31.1c-0.7,0.9-2.7,1.8,0,2.7c0.5,0.1,1.3,1.4,1.2,1.6c-2.2,4.2,2.2,5.4,3.5,7.9
			c-0.6,0.6-1.4,0.6-2.2,0.7c-3.7-2.1-4.6-6.2-6.4-9.5C210.1,32.9,211.4,31.7,213.3,31.1z"/>
		<path class="st17" d="M209.3,34.6c1.4,0.6,2.5,1.2,2.5,3c0.1,2.8,3.4,3.9,4,6.4c-0.7,0.4-1.3,0.4-2,0c-1.8-1.3-2.8-3.3-4.2-4.9
			c-0.1-0.2-0.4-0.4-0.5-0.6c0.2-1.2-0.5-2.3-0.2-3.5C209,34.9,209.1,34.6,209.3,34.6z"/>
		<path class="st18" d="M220.1,42.6c-1.2-1.4-2.2-2.8-3.4-4.2c-0.8-0.9,0.1-0.8,0.5-1.1c1.4,0.5,2.7,0.8,4.1,1.3
			c0.4,0.9,1.6,1.3,1.4,2.6C221.9,41.9,221.1,42.4,220.1,42.6z"/>
		<path class="st19" d="M209.7,39.2c2.3,0.8,3.5,2.7,4.2,4.9c-1.8,0.4-3.3-1.3-5-0.6C209.3,42.1,210.1,40.8,209.7,39.2z"/>
		<path class="st19" d="M208.9,35.1c1.1,1.2,2.1,2.2,0.2,3.5c-0.5-0.6-0.9-1.1-1.5-1.6C208.2,36.4,208.5,35.7,208.9,35.1z"/>
		<path class="st20" d="M222.7,41.2c-0.6-0.8-1.6-1.3-1.4-2.6c1.1,0.2,2.6,0,3,1.2C224.7,40.6,223.3,40.8,222.7,41.2z"/>
	</g>
</g>
<g class="st22">
	<path class="st1" d="M250,132.3c1.1,3.8,0,7.2-3.2,9.2s-6.8,1.6-9.8-1.3c-0.4-0.8,0.1-1.4,0.5-1.9c3.3-4.1,3.2-8.8,2-13.6
		c-0.3-1-0.2-1.8,0.4-2.5c3.5,0.1,4.6,3.3,6.6,5.2C248.1,128.6,248.9,130.6,250,132.3z"/>
	<path class="st2" d="M234.4,136.6c-1.2-1.1-2.5-2.3-3.8-3.5c-0.1-2,0.5-4,0.1-6.1c-0.1-0.5-0.3-1.1-0.4-1.7
		c-1.2-3.3-4.3-4.4-7.1-5.5c-1.9-0.8-3.6,0.7-5,2.2c-1.6,1.7-3.2,3.4-5.9,3.2c-1.9-1.6-1.7-3.2,0.1-4.8c2.6-2.5,5.5-4.4,9.1-5.1
		c2.5-0.4,4.9-0.2,7.2,1c1,1.2,1.8,2.5,3.7,2.8c1.4,0.4,2,1.9,2.8,3.1c2.5,3.6,2.2,7.6,1.7,11.7
		C236.7,135.1,235.9,136.2,234.4,136.6z"/>
	<path class="st3" d="M207,134.8c-3.1,1.7-6.1,1.3-8.7-0.9c-2.6-2.2-3.4-5.1-2.3-8.4c2.5-3.5,5.7-6.1,9.7-7.6
		c0.7-0.3,1.5-0.7,2.3-0.4c1.5,1,0.6,2,0.3,3.2c-1.1,3.1-2.6,6-2.6,9.5C205.6,131.8,206,133.4,207,134.8z"/>
	<path class="st4" d="M207,134.8c-2,0-2.3-1.1-2.3-2.9c-0.1-4.4,1.3-8.4,3.2-12.3c0.4-0.7,0.6-1.2,0.2-1.9c0.4-1.2,1.6-1.4,2.6-1.8
		c2.8-0.9,5.6-1.4,8.6-1.2c0.8,0.1,1.9-0.2,2,1.2c-3.2,1.1-6,2.6-8.4,5c-1.5,1.4-1.6,2.5-0.3,4c1.1,2.5-1.1,4.5-0.9,6.8
		C210.2,132.7,208.6,133.8,207,134.8z"/>
	<path class="st5" d="M211.8,131.6c-1.4-2.5,0.8-4.6,0.9-6.8c2.1-0.5,3.7-1.8,5.2-3.4c2.9-3.2,4.8-3.2,8.5-0.9
		c1.4,0.9,2.9,1.7,4.1,2.8c0.6,0.6,0.8,1.1,0.4,1.8c-0.3,1.1,0.3,2.3,0.1,3.4c0,0.3-0.2,0.5-0.4,0.8c-1.4,0.5-1.6-0.8-2.2-1.4
		c-1.6-1.6-3.1-3.4-5.7-3.2c-0.9,1.7,1.1,3.4-0.2,5.1c-0.4,0-0.8-0.1-1.2-0.1c-0.8-0.4-1.6-0.2-2.4-0.1c-1.9,0.4-3.3-0.2-4-2.2
		c0.3,0.9,0.7,1.7,0.3,2.5C214.1,130.6,213,131.1,211.8,131.6z"/>
	<path class="st6" d="M234.4,136.6c3.7-3.8,2.1-13.3-1.6-16.4c-0.5-0.4-0.8-0.6-1.5-0.6c-1.8,0-2.6-1-2.6-2.7
		c3.4-0.5,9.9,2.7,11.2,5.5c0.8,2.6,1.1,5.3,1.1,8.1c0.1,4-1.6,6.9-4,9.7C235.8,139.2,235.2,137.9,234.4,136.6z"/>
	<path class="st7" d="M239.9,122.3c-3.2-3.1-7.1-4.4-11.2-5.5c-2.4-0.9-4.8-1.1-7.3-0.9c-4.7-1.4-9,0.4-13.3,1.8
		c-4.8,1.3-8.4,4.6-12,7.7c0.3-1.8,1.4-2.9,2.5-4c14.9-13.4,42.4-8.2,51.3,9.8c0.1,0.3,0.1,0.6,0.2,0.9c-2.5-2.8-4.5-6.1-7.6-8.4
		C241.6,123.2,241.1,122.2,239.9,122.3z"/>
	<path class="st8" d="M222.4,124.4c3.3-1.5,4.6,1.6,6.6,3c0.7,0.5,1.1,1.4,1.6,2.1c0.4,1.5,0,2.5-1.8,2.5c-1.4-0.5-2.9-1.1-4.3-1.7
		C223.2,128.5,222.6,126.5,222.4,124.4z"/>
	<path class="st9" d="M222.4,124.4c1.1,1.8,2.1,3.7,2.1,6c-0.7,0.1-1.3,0-1.8-0.4c-0.4-1.6-0.4-3.3-1.1-4.9
		C220.9,123.8,221.9,124.3,222.4,124.4z"/>
	<path class="st10" d="M218.3,129.8L218.3,129.8c0.3-0.1,0.5-0.1,0.7-0.1c0,0,0,0,0.1,0l0,0l0,0l0,0c0.1,0,0.3-0.1,0.4-0.1
		c-2.3-0.4-4.1-1.9-6-3.7c0.6,1.4,1.2,2.8,1.8,4.2c0.1,0,0.2,0,0.3,0c0.4-0.1,0.6-0.1,1-0.2c0.4,0,0.9-0.1,1.3-0.1
		C218,129.8,218.1,129.8,218.3,129.8z"/>
	<path class="st11" d="M228.7,132c1.1-0.5,1.3-1.6,1.8-2.5c0-0.2,0-0.4,0-0.6c0.8-0.6-0.6-2.2,1.1-2.5c-0.1,2.3,0.9,4.7-0.9,6.7
		C230,132.7,229.4,132.3,228.7,132z"/>
	<path class="st8" d="M231.5,126.4c-1,0.5-0.2,1.9-1.1,2.5c0.2-1.2-0.6-2.5,0.4-3.7C231.1,125.6,231.3,126,231.5,126.4z"/>
</g>
<g class="st23">
	<path class="st12" d="M332.6,110.1c0.1-0.8,0.4-1.6,1.4-1.7c0.7,0.8,1.6,1.5,2.3,2.3c-0.7,1.2-1.3,2.7-3.2,1.5
		C333,111.4,332.8,110.8,332.6,110.1z"/>
	<g>
		<path class="st13" d="M338.6,118.2c0.2-0.2,0.4-0.5,0.6-0.6c0.5-0.3,1-0.5,1.6-0.3c3.3-0.2,6.5-0.2,9.7,1.4
			c4.4,2.2,9.1,2.5,14.1,1.9c4.6-0.6,9.3-1.6,14.1-0.2c3.1,1,5.2,3.4,4.9,6.6c-1.2,2-2.5,4-4.8,5.1c-5.5,2.8-11.3,3.5-17.2,3.5
			c-3.3,0-6.5-0.7-9.4-2.6c-3.2-2.1-6.5-4.3-10.3-5.5c-1.3-1.7-3.2-3.1-3.3-5.5C337.9,120.8,337.5,119.5,338.6,118.2z"/>
		<path class="st14" d="M383.3,130c-2.2,4.5-5.9,7.1-10.8,7.9c-5.9,1-11.7,0.4-17.2-1.5c-5.2-1.8-9.8-4.5-13.4-8.9
			c3.3-0.6,5.6,1.6,7.9,3.1c3.1,1.9,5.9,3.8,9.6,4.2c3,0.3,5.9,0,8.9-0.4c5.5-0.8,11-1.6,14.3-6.9c0.2-0.2,0.7-0.3,1.1-0.4
			C384.1,128.1,383.8,129.1,383.3,130z"/>
		<path class="st15" d="M333.5,115.6c0.6-1.2-0.6-2.3-0.3-3.4c1.1-0.3,2.2-0.7,3.2-1.5c0.6,0.1,1.1,0.6,1.4,1.1
			c0.9,0.9,2.4,1.8,0,2.8c-0.5,0.1-0.8,0.6-0.9,1.3c-0.4,2.9-2.7,3.7-5.2,4.2c-0.6-0.1-1.1-0.5-1.4-1.1
			C330.3,116.9,332.7,117,333.5,115.6z"/>
		<path class="st16" d="M340.1,115.2c-2.1,2.1-3.6,5-6.9,5.8c-0.6-0.3-1.2-0.4-1.5-1c1.5-1.7,5.1-1.6,4.3-5.3c0-0.2,0.9-1,1.2-1
			c2.2-0.1,0.9-1.2,0.6-2C339.1,112.5,339.8,113.7,340.1,115.2z"/>
		<path class="st17" d="M340.3,115.6c-0.1,0.9-0.8,1.7-0.9,2.6c-0.1,0.2-0.3,0.2-0.5,0.3c-1.4,0.9-2.6,2.2-4.2,2.8
			c-0.6,0.1-1,0-1.5-0.4c1-1.8,3.7-1.9,4.4-4c0.4-1.4,1.3-1.6,2.5-1.8C340.3,115.2,340.3,115.4,340.3,115.6z"/>
		<path class="st18" d="M328.6,117.3c0.1-1,1.1-1,1.6-1.7c1.2-0.1,2.2-0.1,3.4-0.1c0.2,0.3,1,0.4,0.1,0.9c-1.2,0.8-2.3,1.7-3.5,2.5
			C329.5,118.6,329,118,328.6,117.3z"/>
		<path class="st19" d="M338.6,122c-1.2-0.9-2.7,0-3.9-0.6c1-1.5,2.3-2.7,4.2-2.8C338.2,119.7,338.5,120.9,338.6,122z"/>
		<path class="st19" d="M340.9,117.3c-0.6,0.3-1,0.6-1.5,0.9c-1.1-1.4-0.1-1.9,0.9-2.6C340.5,116.2,340.6,116.8,340.9,117.3z"/>
		<path class="st20" d="M327.6,115.9c0.6-0.8,1.7-0.3,2.6-0.2c-0.1,1-1,1.2-1.6,1.7C328.1,116.9,327.1,116.5,327.6,115.9z"/>
	</g>
</g>
<g class="st24">
	<path class="st1" d="M294.2,30.9c0.3-4.8,3-8.2,7.5-9.2c4.6-1,8.5,1,10.7,5.6c0.1,1.1-0.7,1.6-1.4,2c-5.5,3.3-7.4,8.7-8,14.7
		c-0.1,1.2-0.5,2.1-1.5,2.6c-4-1.6-3.8-5.7-5.4-8.7C294.9,35.9,294.9,33.3,294.2,30.9z"/>
	<path class="st2" d="M313.9,32.5c0.9,1.8,2,3.7,2.9,5.6c-0.7,2.3-2.3,4.4-2.7,7c-0.1,0.6-0.2,1.4-0.3,2.1c0,4.3,3.1,6.8,5.8,9.3
		c1.9,1.7,4.4,0.7,6.6-0.4c2.5-1.3,5.1-2.6,8-1.2c1.6,2.6,0.6,4.3-2.1,5.5c-4,1.7-8.2,2.7-12.6,2c-3-0.6-5.7-1.8-7.8-4.1
		c-0.6-1.8-1.1-3.6-3.1-4.8c-1.5-1-1.5-3.1-1.9-4.7c-1.4-5.2,0.7-9.7,2.9-14.1C310.7,33.2,312.1,32.2,313.9,32.5z"/>
	<path class="st3" d="M344.6,45.9c4.2-0.6,7.5,1,9.6,4.6s1.8,7.3-0.9,10.6c-4.3,3-9.1,4.6-14.2,4.7c-0.9,0-2,0.2-2.8-0.4
		c-1.3-1.7,0.1-2.6,1-3.7c2.5-3.1,5.5-5.7,7-9.8C344.9,49.9,345.2,47.9,344.6,45.9z"/>
	<path class="st4" d="M344.6,45.9c2.3,0.8,2.1,2.3,1.4,4.3c-1.7,5.1-5,9.1-8.7,12.8c-0.7,0.7-1.2,1.2-1,2.1c-1,1.2-2.4,1-3.7,0.9
		c-3.6-0.2-7-0.7-10.4-2.2c-0.9-0.4-2.3-0.6-1.8-2.2c4.1,0.1,7.9-0.5,11.7-2.2c2.3-1,2.9-2.3,1.9-4.4c-0.2-3.3,3.1-4.7,3.9-7.5
		C340.1,47,342.3,46.4,344.6,45.9z"/>
	<path class="st5" d="M337.8,47.5c0.6,3.4-2.8,4.9-3.9,7.5c-2.6-0.3-5,0.6-7.4,1.8c-4.7,2.5-6.9,1.7-10.1-2.5
		c-1.2-1.6-2.6-3.1-3.6-4.9c-0.4-1-0.4-1.6,0.4-2.3c0.8-1.2,0.6-2.7,1.3-4c0.1-0.3,0.4-0.5,0.7-0.8c1.8,0,1.5,1.6,1.9,2.5
		c1.2,2.5,2.1,5.2,5.2,6c1.7-1.5,0.2-4.4,2.3-5.8c0.5,0.2,0.9,0.4,1.4,0.6c0.8,0.7,1.7,0.9,2.7,1.1c2.4,0.4,3.7,1.6,3.6,4.2
		c0.1-1.1-0.1-2.2,0.8-3C334.7,47.7,336.2,47.6,337.8,47.5z"/>
	<path class="st6" d="M313.9,32.5c-5.8,2.8-7.9,14.3-5,19.5c0.4,0.7,0.6,1,1.5,1.3c2,0.7,2.6,2.2,1.9,4.2c-4.1-0.8-10.2-7.2-10.5-11
		c0.2-3.3,1-6.5,2.1-9.7c1.5-4.6,4.7-7.3,8.6-9.5C313.4,28.9,313.6,30.6,313.9,32.5z"/>
	<path class="st7" d="M301.8,46.5c2.3,4.8,6.3,8,10.5,11c2.3,2,5.1,3.3,8,4c4.8,3.6,10.5,3.4,16,3.5c6.1,0.5,11.5-1.7,17-3.8
		c-1,1.9-2.8,2.7-4.6,3.5c-22.7,9.2-51.9-8.3-54.6-32.6c0-0.3,0.2-0.7,0.2-1.1c1.7,4.3,2.6,8.9,5.1,12.8
		C300.1,44.7,300.3,46.1,301.8,46.5z"/>
	<path class="st8" d="M322.6,51.4c-4.4,0.3-4.6-3.7-6.3-6.2c-0.6-0.9-0.6-2-0.9-3.1c0.2-1.9,1-2.8,3.1-2.2c1.4,1.2,2.8,2.5,4.2,3.7
		C323.4,46.4,323.2,48.9,322.6,51.4z"/>
	<path class="st9" d="M322.6,51.4c-0.4-2.5-0.9-5.1,0.1-7.7c0.8,0.2,1.5,0.5,1.9,1.3c-0.3,2-1,4-0.7,6.1
		C324.1,52.7,323.2,51.7,322.6,51.4z"/>
	<path class="st10" d="M329.6,46.9L329.6,46.9c-0.3,0-0.6-0.1-0.8-0.2c0,0,0,0-0.1,0l0,0l0,0l0,0c-0.1,0-0.3,0-0.4,0
		c2.4,1.5,3.9,3.9,5.3,6.7c-0.1-1.9-0.2-3.7-0.4-5.6c-0.1,0-0.2-0.1-0.3-0.1c-0.4,0-0.7-0.2-1.2-0.2c-0.5-0.2-1-0.3-1.5-0.4
		C329.9,47,329.8,47,329.6,46.9z"/>
	<path class="st11" d="M318.6,40.1c-1.4,0.2-2.2,1.3-3.1,2.2c-0.1,0.2-0.2,0.5-0.3,0.7c-1.2,0.4-0.2,2.8-2.3,2.3
		c1.1-2.6,0.9-5.7,3.8-7.3C317.3,38.7,317.9,39.4,318.6,40.1z"/>
	<path class="st8" d="M313,45.3c1.3-0.2,1-2.1,2.3-2.3c-0.7,1.3-0.4,3.2-2,4C313.2,46.4,313.1,45.8,313,45.3z"/>
</g>
<g class="st25">
	<path class="st1" d="M281.4,216.7c-3.3-3.5-3.9-7.9-1.6-11.8c2.4-4,6.6-5.4,11.4-3.9c0.8,0.7,0.7,1.6,0.5,2.4
		c-1.4,6.3,1.2,11.3,5.2,15.9c0.8,0.9,1.1,1.8,0.9,2.9c-3.9,1.8-6.8-1.2-10-2.1C285.5,219.7,283.6,217.9,281.4,216.7z"/>
	<path class="st2" d="M296.1,203.5c2,0.6,4,1.1,6,1.8c1.2,2.2,1.6,4.7,3.2,6.7c0.4,0.5,0.9,1.1,1.3,1.6c3.2,3,7.1,2.5,10.8,2.2
		c2.5-0.2,3.5-2.7,4.3-5.1c0.8-2.7,1.7-5.5,4.7-6.6c3,0.7,3.5,2.5,2.5,5.3c-1.5,4.1-3.6,7.8-7.2,10.5c-2.5,1.7-5.3,2.9-8.4,2.9
		c-1.7-0.8-3.3-1.7-5.5-1.1c-1.7,0.4-3.3-1-4.7-1.8c-4.7-2.5-6.5-7.1-8.2-11.8C294.5,206.4,294.7,204.7,296.1,203.5z"/>
	<path class="st3" d="M327,190.6c2.4-3.5,5.9-4.7,10-3.8c4.1,1,6.5,3.7,7.1,8c-0.8,5.2-2.9,9.7-6.4,13.6c-0.6,0.7-1.2,1.6-2.3,1.7
		c-2.2-0.2-1.8-1.9-2-3.3c-0.5-3.9-0.4-7.9-2.3-11.8C330.1,193.1,328.9,191.5,327,190.6z"/>
	<path class="st4" d="M327,190.6c2.2-1.1,3.1,0,4.1,1.9c2.5,4.7,3.1,9.9,3.2,15.1c0,1,0,1.7,0.9,2.2c0.2,1.6-1,2.4-1.9,3.3
		c-2.6,2.5-5.4,4.6-8.7,6c-0.9,0.3-2,1.2-2.9-0.2c2.9-2.9,5.1-6.1,6.5-10c0.9-2.3,0.3-3.6-1.9-4.5c-2.5-2.1-1.3-5.5-2.8-7.9
		C324.7,194.6,325.8,192.6,327,190.6z"/>
	<path class="st5" d="M323.5,196.6c2.9,1.9,1.6,5.4,2.8,7.9c-2,1.7-3,4-3.8,6.5c-1.4,5.1-3.5,6.2-8.8,5.6c-2-0.2-4.1-0.2-6-0.8
		c-1-0.3-1.5-0.8-1.4-1.8c-0.3-1.4-1.5-2.3-2-3.7c-0.1-0.3-0.1-0.7,0-1.1c1.2-1.3,2.2,0,3.2,0.3c2.6,0.9,5.2,2.1,7.9,0.4
		c0.1-2.3-3-3.2-2.6-5.6c0.5-0.2,0.9-0.3,1.4-0.6c1.1,0,1.8-0.7,2.6-1.2c1.9-1.4,3.7-1.6,5.5,0.2c-0.8-0.8-1.7-1.4-1.7-2.6
		C321.5,199,322.5,197.8,323.5,196.6z"/>
	<path class="st6" d="M296.1,203.5c-2,6.1,4.9,15.6,10.6,17c0.8,0.2,1.2,0.2,2-0.1c1.9-1,3.4-0.4,4.3,1.5c-3.4,2.4-12.3,2.4-15.2,0
		c-2.3-2.4-4-5.2-5.6-8.2c-2.2-4.3-2-8.4-1-12.8C293.2,201.4,294.6,202.5,296.1,203.5z"/>
	<path class="st7" d="M297.9,222c5.1,1.6,10.1,0.9,15.2,0c3.1-0.3,5.9-1.4,8.4-3c5.9-1,9.7-5.3,13.6-9.2c4.6-4.1,6.7-9.6,8.9-15
		c0.7,2.1,0,3.9-0.6,5.7c-9,22.7-41.8,31.9-61.2,17.1c-0.2-0.2-0.4-0.6-0.7-0.9c4.3,1.7,8.2,4.3,12.8,5.1
		C295.5,222,296.6,222.8,297.9,222z"/>
	<path class="st8" d="M315.9,210.3c-2.8,3.4-5.8,0.8-8.8,0.3c-1.1-0.2-1.9-1-2.9-1.4c-1.2-1.4-1.3-2.7,0.5-3.7
		c1.8-0.2,3.8-0.3,5.6-0.5C312.8,206.2,314.5,208.2,315.9,210.3z"/>
	<path class="st9" d="M315.9,210.3c-2.1-1.4-4.3-2.9-5.5-5.4c0.7-0.5,1.4-0.7,2.2-0.5c1.2,1.5,2.2,3.4,3.9,4.7
		C317.8,210.1,316.5,210.1,315.9,210.3z"/>
	<path class="st10" d="M317.4,202.1L317.4,202.1c-0.2,0.2-0.5,0.4-0.7,0.5c0,0,0,0-0.1,0l0,0l0,0l0,0c-0.1,0-0.2,0.2-0.3,0.3
		c2.7-0.8,5.5-0.1,8.5,0.8c-1.4-1.2-2.9-2.4-4.3-3.6c-0.1,0-0.2,0.1-0.3,0.1c-0.3,0.3-0.6,0.4-1,0.7c-0.5,0.2-0.9,0.6-1.4,0.8
		C317.7,202,317.6,202,317.4,202.1z"/>
	<path class="st11" d="M304.8,205.4c-0.9,1.1-0.6,2.4-0.5,3.7c0.1,0.2,0.2,0.5,0.3,0.7c-0.5,1.1,1.9,2.1,0.1,3.3
		c-1.1-2.5-3.5-4.6-2.7-7.8C303,205.4,303.9,205.4,304.8,205.4z"/>
	<path class="st8" d="M304.8,213.1c0.8-1.1-0.9-2.2-0.1-3.3c0.5,1.4,2.1,2.4,1.5,4.3C305.7,213.7,305.2,213.4,304.8,213.1z"/>
</g>
<g class="st0">
	<path class="st1" d="M54,200.4c2.8,2,3.8,5.1,2.7,8.2c-1.2,3.1-4,4.8-7.6,4.3c-0.7-0.4-0.7-1-0.7-1.6c0.2-4.7-2.4-7.9-5.8-10.6
		c-0.7-0.5-1.1-1.1-1-2c2.5-1.8,5-0.1,7.4,0.1C50.7,198.8,52.3,199.8,54,200.4z"/>
	<path class="st2" d="M45.3,211.7c-1.5-0.1-3-0.3-4.5-0.5c-1.1-1.4-1.8-3.1-3.2-4.4c-0.3-0.3-0.8-0.7-1.1-1
		c-2.6-1.7-5.4-0.8-7.9-0.1c-1.8,0.5-2.2,2.4-2.4,4.2c-0.2,2-0.5,4.1-2.5,5.4c-2.2-0.1-2.9-1.3-2.5-3.4c0.5-3.1,1.6-6,3.7-8.4
		c1.5-1.6,3.4-2.7,5.6-3.2c1.3,0.4,2.6,0.7,4.1,0c1.2-0.5,2.4,0.3,3.6,0.7c3.7,1.2,5.6,4.2,7.4,7.3
		C46.1,209.4,46.2,210.7,45.3,211.7z"/>
	<path class="st3" d="M25.1,225c-1.3,2.8-3.6,4.1-6.6,4s-5.1-1.8-6.1-4.7c-0.1-3.8,0.8-7.3,2.7-10.5c0.4-0.6,0.7-1.3,1.4-1.5
		c1.6-0.1,1.5,1.1,1.9,2.1c0.9,2.7,1.3,5.6,3.2,8.1C22.5,223.7,23.6,224.6,25.1,225z"/>
	<path class="st4" d="M25.1,225c-1.4,1.1-2.2,0.4-3.1-0.8c-2.4-3-3.6-6.6-4.3-10.3c-0.1-0.7-0.2-1.2-0.9-1.5
		c-0.3-1.1,0.4-1.8,0.9-2.6c1.5-2.1,3.2-4,5.4-5.4c0.6-0.4,1.3-1.2,2.1-0.2c-1.7,2.4-2.8,5-3.3,8c-0.3,1.8,0.2,2.6,1.9,2.9
		c2,1.2,1.6,3.7,3,5.3C26.2,221.9,25.7,223.5,25.1,225z"/>
	<path class="st5" d="M26.8,220.3c-2.3-1-1.9-3.6-3-5.3c1.2-1.5,1.6-3.3,1.8-5.2c0.3-3.8,1.7-4.9,5.5-5.1c1.5-0.1,2.9-0.4,4.4-0.2
		c0.8,0.1,1.2,0.4,1.2,1.1c0.4,0.9,1.4,1.5,1.9,2.4c0.1,0.2,0.2,0.5,0.2,0.7c-0.7,1.1-1.5,0.3-2.3,0.2c-2-0.3-4-0.8-5.7,0.8
		c0.3,1.6,2.6,1.8,2.6,3.7c-0.3,0.2-0.6,0.4-0.9,0.6c-0.7,0.2-1.2,0.7-1.7,1.2c-1.2,1.3-2.4,1.7-3.9,0.6c0.7,0.5,1.4,0.8,1.5,1.6
		C27.9,218.3,27.3,219.3,26.8,220.3z"/>
	<path class="st6" d="M45.3,211.7c0.6-4.6-5.6-10.4-9.8-10.7c-0.6,0-0.9,0-1.4,0.4c-1.2,0.9-2.4,0.7-3.3-0.5c2.1-2.2,8.4-3.4,10.8-2
		c2,1.4,3.5,3.1,5.1,5.1c2.2,2.7,2.6,5.7,2.4,9C47.7,212.8,46.6,212.2,45.3,211.7z"/>
	<path class="st7" d="M41.6,198.8c-3.9-0.5-7.3,0.7-10.8,2c-2.1,0.6-4,1.8-5.6,3.3c-4.1,1.5-6.2,5.1-8.4,8.3
		c-2.7,3.5-3.5,7.7-4.3,11.8c-0.7-1.4-0.6-2.8-0.3-4.1c3.3-17.4,25.5-28.3,41.3-20.4c0.2,0.1,0.4,0.4,0.6,0.5
		c-3.3-0.6-6.4-1.9-9.8-1.9C43.3,198.5,42.4,198.1,41.6,198.8z"/>
	<path class="st8" d="M30.4,209.5c1.6-2.8,4.1-1.3,6.2-1.4c0.8,0,1.5,0.4,2.2,0.6c1,0.9,1.3,1.7,0.1,2.7c-1.3,0.4-2.6,0.7-3.9,1.1
		C33.1,212,31.7,210.9,30.4,209.5z"/>
	<path class="st9" d="M30.4,209.5c1.7,0.7,3.4,1.5,4.7,3.1c-0.4,0.4-0.9,0.7-1.5,0.7c-1.1-0.9-2-2.2-3.4-2.8
		C29,209.9,29.9,209.7,30.4,209.5z"/>
	<path class="st10" d="M30.3,215.5L30.3,215.5c0.1-0.2,0.3-0.3,0.4-0.4c0,0,0,0,0.1,0l0,0l0,0l0,0c0.1,0,0.1-0.2,0.2-0.2
		c-1.8,0.9-3.9,0.8-6.2,0.6c1.2,0.7,2.4,1.3,3.5,2c0.1,0,0.1-0.1,0.2-0.1c0.2-0.2,0.4-0.4,0.6-0.6c0.3-0.2,0.6-0.5,0.9-0.8
		C30.2,215.7,30.2,215.6,30.3,215.5z"/>
	<path class="st11" d="M38.9,211.5c0.5-0.9,0.1-1.8-0.1-2.7c-0.1-0.1-0.2-0.3-0.3-0.4c0.2-0.9-1.6-1.2-0.5-2.3
		c1.2,1.7,3.1,2.8,2.9,5.2C40.2,211.3,39.5,211.4,38.9,211.5z"/>
	<path class="st8" d="M37.8,206.1c-0.4,0.9,0.9,1.5,0.5,2.3c-0.5-1-1.8-1.5-1.7-2.8C37.1,205.8,37.5,205.9,37.8,206.1z"/>
</g>
<g class="st25">
	<path class="st12" d="M119,118.5c0.5,0.7,0.9,1.4,0.3,2.2c-1.1,0-2.2,0.1-3.3,0.2c-0.4-1.4-1.1-2.8,1.1-3.4
		C117.8,117.9,118.4,118.1,119,118.5z"/>
	<g>
		<path class="st13" d="M109,117.3c0.1,0.3,0.1,0.6,0,0.9c-0.1,0.6-0.3,1.1-0.9,1.4c-2.1,2.6-4.3,4.9-7.6,6.2c-4.6,1.7-8.1,5-11,9
			c-2.6,3.8-5.2,7.9-9.5,10.5c-2.8,1.6-6,1.4-8.1-0.9c-0.7-2.3-1.2-4.6-0.5-6.9c1.7-5.9,5.1-10.7,9.1-15c2.2-2.4,4.9-4.3,8.3-5.1
			c3.8-0.9,7.6-1.9,11-3.9c2.2,0.2,4.4-0.2,6.2,1.4C107.6,115,108.7,115.6,109,117.3z"/>
		<path class="st14" d="M70,142c-1.8-4.7-1.2-9.1,1.6-13.3c3.3-5,7.7-8.8,12.9-11.6c4.9-2.6,10-4.2,15.6-3.8c-1.8,2.8-5,3-7.6,3.7
			c-3.5,1-6.8,1.8-9.6,4.2c-2.3,1.9-4,4.3-5.8,6.8c-3.2,4.5-6.3,9.1-4.6,15.2c0.1,0.3-0.3,0.7-0.4,1C70.8,143.9,70.3,143.1,70,142z"
			/>
		<path class="st15" d="M114.4,115.3c0.4,1.2,2.1,1.1,2.7,2.1c-0.5,1.1-1,2.1-1.1,3.4c-0.5,0.4-1.2,0.4-1.7,0.3
			c-1.3,0-2.9,0.5-2-1.9c0.2-0.5,0.1-1-0.3-1.5c-1.9-2.3-0.9-4.5,0.5-6.7c0.5-0.4,1.1-0.5,1.7-0.3
			C115.6,112.2,113.9,113.9,114.4,115.3z"/>
		<path class="st16" d="M110.2,120.5c-0.1-3-1.2-6.1,0.4-9c0.6-0.3,1.1-0.6,1.8-0.4c0.2,2.3-2.3,4.9,0.9,6.8
			c0.2,0.1,0.2,1.3-0.1,1.6c-1.4,1.7,0.3,1.5,1.1,1.8C112.8,121.6,111.5,121.3,110.2,120.5z"/>
		<path class="st17" d="M109.7,120.3c-0.6-0.7-0.7-1.8-1.3-2.4c0-0.2,0.1-0.4,0.1-0.6c0.3-1.7,0.2-3.4,0.8-5
			c0.3-0.5,0.7-0.8,1.3-0.8c0.7,2-1.1,4,0,6c0.8,1.3,0.3,2.1-0.4,3.1C110,120.6,109.9,120.4,109.7,120.3z"/>
		<path class="st18" d="M116.4,110.6c0.7,0.8,0,1.5,0.1,2.3c-0.7,0.9-1.5,1.7-2.2,2.5c-0.3,0-0.9,0.5-0.7-0.5
			c0.2-1.4,0.3-2.8,0.5-4.2C114.9,110.3,115.7,110.4,116.4,110.6z"/>
		<path class="st19" d="M106.2,114.7c1.5-0.3,1.8-2,3.1-2.5c0.4,1.8,0.4,3.5-0.8,5C108.2,116,107.1,115.4,106.2,114.7z"/>
		<path class="st19" d="M108.1,119.6c0.2-0.6,0.3-1.1,0.3-1.7c1.8,0.1,1.5,1.2,1.3,2.4C109.2,120.1,108.7,119.8,108.1,119.6z"/>
		<path class="st20" d="M118.2,110.8c0.2,1-0.9,1.4-1.6,2c-0.7-0.8-0.2-1.5-0.1-2.3C117.1,110.5,118.1,110.1,118.2,110.8z"/>
	</g>
</g>
<g class="st25">
	<path class="st12" d="M311.9,263.1c0-1,0.1-1.9,1.4-2.2c1,0.8,2.1,1.4,3.1,2.2c-0.6,1.5-1.1,3.3-3.4,2.3
		C312.5,264.6,312.2,263.9,311.9,263.1z"/>
	<g>
		<path class="st13" d="M320.1,271.5c0.1-0.3,0.4-0.6,0.6-0.8c0.5-0.5,1.1-0.7,1.8-0.6c3.8-0.8,7.5-1.3,11.4-0.1
			c5.4,1.8,10.9,1.4,16.5-0.2c5.1-1.5,10.5-3.4,16.2-2.6c3.7,0.6,6.5,3.1,6.7,6.8c-1.1,2.6-2.2,5-4.6,6.6c-5.8,4.1-12.4,6-19.2,7
			c-3.7,0.6-7.6,0.3-11.2-1.4c-4.1-1.9-8.2-3.8-12.8-4.5c-1.8-1.7-4.1-3-4.7-5.8C319.7,274.6,319.1,273.2,320.1,271.5z"/>
		<path class="st14" d="M373.4,277.4c-1.8,5.6-5.6,9.1-11.1,10.9c-6.6,2.2-13.3,2.4-20.1,1.1c-6.3-1.2-12.1-3.5-16.9-7.9
			c3.7-1.3,6.7,0.9,9.6,2.2c3.9,1.7,7.5,3.3,11.8,3.2c3.5-0.1,6.8-1,10.2-2c6.2-1.8,12.3-3.7,15.2-10.4c0.1-0.3,0.8-0.4,1.2-0.6
			C374,275.1,373.9,276.3,373.4,277.4z"/>
		<path class="st15" d="M313.8,269.4c0.5-1.4-1.1-2.5-0.9-3.9c1.3-0.6,2.4-1.2,3.4-2.3c0.8,0,1.3,0.5,1.8,1c1.2,0.9,3,1.7,0.5,3.2
			c-0.6,0.3-0.9,0.9-0.9,1.6c0,3.4-2.4,4.8-5.2,5.7c-0.8,0-1.4-0.4-1.8-1C310.4,271.3,313.1,271,313.8,269.4z"/>
		<path class="st16" d="M321.3,267.7c-2.1,2.8-3.3,6.4-6.9,7.9c-0.7-0.2-1.5-0.3-1.9-0.9c1.5-2.2,5.6-2.7,4.1-6.8
			c-0.1-0.2,0.8-1.3,1.2-1.4c2.5-0.5,0.8-1.5,0.3-2.4C319.7,264.9,320.8,266.1,321.3,267.7z"/>
		<path class="st17" d="M321.7,268.2c0.1,1.1-0.7,2.1-0.6,3.2c-0.1,0.2-0.4,0.3-0.5,0.5c-1.5,1.3-2.6,3-4.4,4
			c-0.7,0.2-1.2,0.2-1.8-0.2c0.8-2.3,3.9-2.8,4.3-5.4c0.2-1.7,1.2-2.1,2.6-2.5C321.5,267.8,321.6,268,321.7,268.2z"/>
		<path class="st18" d="M308.5,272.2c-0.1-1.2,1.1-1.4,1.6-2.2c1.3-0.3,2.5-0.4,3.9-0.7c0.3,0.3,1.2,0.3,0.3,1
			c-1.2,1.1-2.3,2.3-3.6,3.4C309.7,273.5,309,272.9,308.5,272.2z"/>
		<path class="st19" d="M320.7,275.9c-1.5-0.8-3.1,0.5-4.6,0c0.9-1.9,2.2-3.5,4.4-4C319.9,273.3,320.4,274.5,320.7,275.9z"/>
		<path class="st19" d="M322.6,270.1c-0.6,0.5-1.1,0.8-1.6,1.3c-1.6-1.4-0.5-2.2,0.6-3.2C321.9,268.8,322.2,269.5,322.6,270.1z"/>
		<path class="st20" d="M307,270.7c0.6-1,1.9-0.6,2.9-0.7c0.1,1.2-0.9,1.5-1.6,2.2C307.9,271.8,306.6,271.4,307,270.7z"/>
	</g>
</g>
<g class="st0">
	<path class="st1" d="M257.6,305.6c-3.1,1.1-5.9,4.2-9.8,2.7c-0.4-1.1-0.1-2,0.7-3c3.7-4.8,6-10,4.2-16.2c-0.2-0.8-0.4-1.7,0.3-2.4
		c4.7-1.8,9-0.6,11.7,3.2c2.6,3.8,2.2,8.2-0.8,11.8C261.7,303.1,259.9,304.9,257.6,305.6z"/>
	<path class="st2" d="M249.8,293.9c-1.3,4.8-2.9,9.5-7.4,12.3c-1.4,0.9-2.9,2.4-4.6,2.1c-2.2-0.5-3.8,0.5-5.5,1.4
		c-3.1,0.2-5.9-0.8-8.5-2.3c-3.7-2.5-6-6-7.8-10.1c-1.2-2.7-0.7-4.6,2.2-5.5c3.1,1,4.1,3.7,5.1,6.3c0.9,2.3,2,4.8,4.6,4.8
		c3.7,0.1,7.6,0.3,10.6-2.8c0.3-0.5,0.8-1.2,1.2-1.7c1.5-2.2,1.8-4.7,2.8-6.9c2-0.8,4-1.4,5.9-2.1
		C249.8,290.6,250.1,292.2,249.8,293.9z"/>
	<path class="st3" d="M212.9,283c-1.7,3.9-1.3,7.9-1.6,11.9c-0.1,1.4,0.3,3-1.8,3.4c-1-0.1-1.7-0.9-2.4-1.6
		c-3.7-3.7-6.1-8.1-7.2-13.2c0.3-4.3,2.6-7.2,6.6-8.4c4-1.2,7.5-0.2,10.2,3.2C214.9,279.5,213.8,281.1,212.9,283z"/>
	<path class="st4" d="M220.6,284.1c-1.3,2.6,0.1,5.8-2.3,8.1c-2.1,0.9-2.6,2.3-1.6,4.6c1.6,3.8,4,6.9,7.1,9.6
		c-0.8,1.5-1.9,0.7-2.8,0.4c-3.4-1.2-6.3-3.2-9.1-5.5c-1-0.9-2.2-1.6-2.1-3.2c0.8-0.6,0.8-1.3,0.7-2.2c-0.2-5.2,0.1-10.4,2.3-15.3
		c0.8-2,1.7-3.1,3.9-2.2C218,280.3,219.3,282.3,220.6,284.1z"/>
	<path class="st5" d="M223.7,287.6c0.1,1.2-0.8,1.9-1.5,2.7c1.7-2,3.5-1.9,5.5-0.6c0.8,0.5,1.6,1,2.7,1c0.5,0.2,0.9,0.3,1.4,0.5
		c0.6,2.5-2.4,3.5-2.2,5.8c2.8,1.5,5.4,0.2,7.9-0.8c1-0.4,1.8-1.8,3.1-0.5c0.1,0.4,0.1,0.8,0,1.1c-0.3,1.4-1.5,2.4-1.7,3.8
		c0.2,1-0.3,1.5-1.3,1.9c-1.9,0.7-4,0.9-6,1.2c-5.3,0.9-7.4,0-9.1-5c-0.9-2.5-2.1-4.7-4.2-6.3c1-2.6-0.5-6,2.3-8.1
		C221.7,285.4,222.7,286.5,223.7,287.6z"/>
	<path class="st6" d="M253,286.7c1.3,4.3,1.8,8.4-0.2,12.8c-1.4,3.1-3,5.9-5.1,8.5c-2.7,2.6-11.5,3.1-15.1,0.9
		c0.8-2,2.3-2.6,4.2-1.8c0.8,0.3,1.2,0.3,2,0c5.6-1.8,11.9-11.7,9.6-17.7C249.8,288.4,251.1,287.2,253,286.7z"/>
	<path class="st7" d="M251.3,307.7c4.5-1.1,8.3-3.9,12.5-5.9c-0.2,0.3-0.4,0.6-0.6,0.9c-18.5,16-51.8,8.8-62.2-13.4
		c-0.8-1.7-1.5-3.5-1-5.6c2.5,5.3,5,10.6,9.8,14.4c4.2,3.6,8.1,7.6,14.1,8.3c2.6,1.5,5.5,2.3,8.6,2.5c5.1,0.6,10.1,1,15.1-0.9
		C249,308.7,250,307.8,251.3,307.7z"/>
	<path class="st8" d="M234.2,291.7c1.8,0.1,3.8,0.1,5.6,0.2c1.9,0.9,1.9,2.2,0.8,3.7c-0.9,0.5-1.7,1.4-2.8,1.6
		c-2.9,0.6-5.8,3.5-8.8,0.2C230.3,295.2,231.9,293.2,234.2,291.7z"/>
	<path class="st9" d="M228.3,296.3c1.6-1.4,2.5-3.4,3.6-5c0.8-0.2,1.5,0,2.3,0.4c-1.1,2.6-3.1,4.1-5.2,5.7
		C228.4,297.3,227.1,297.3,228.3,296.3z"/>
	<path class="st10" d="M226.5,289c-0.5-0.2-0.9-0.5-1.4-0.7c-0.4-0.3-0.6-0.4-1-0.7c-0.1,0-0.2-0.1-0.3-0.1
		c-1.4,1.3-2.7,2.6-4.1,3.8c2.9-1.1,5.7-1.9,8.4-1.3c-0.1,0-0.3-0.2-0.4-0.3l0,0l0,0l0,0c-0.1,0-0.1,0-0.1,0
		c-0.2-0.1-0.5-0.2-0.7-0.4l0,0C226.8,289.3,226.7,289.2,226.5,289z"/>
	<path class="st11" d="M242.5,291.6c1,3.1-1.2,5.3-2.2,7.9c-1.8-1.1,0.5-2.2-0.1-3.3c0.1-0.2,0.2-0.5,0.3-0.7c0-1.3,0.2-2.6-0.8-3.7
		C240.7,291.8,241.5,291.7,242.5,291.6z"/>
	<path class="st8" d="M238.8,300.5c-0.6-1.8,0.9-2.9,1.3-4.3c0.8,1.1-0.7,2.2,0.1,3.3C239.8,299.8,239.3,300.2,238.8,300.5z"/>
</g>
<g class="st25">
	<path class="st12" d="M63.3,303.4c2.5-0.4,2.5,1.4,2.7,3.1c-1.1,0.5-2.4,0.9-3.5,1.4c-1.1-0.6-1-1.5-0.8-2.5
		C62.3,304.7,62.8,304.1,63.3,303.4z"/>
	<g>
		<path class="st13" d="M73.7,295.3c1.2-2.5,3.8-3.2,6-4.4c4.6,0.5,9.1-0.3,13.5-1.1c4-0.8,7.8-0.1,11.2,1.5
			c6.3,2.7,12.2,6.1,16.8,11.6c1.9,2.2,2.4,4.8,2.8,7.6c-1.1,3.5-4.5,5.2-8.2,4.9c-5.7-0.6-10.4-3.9-15-6.6
			c-5-2.9-10.3-4.7-15.9-4.4c-4.1,0.2-7.6-1.2-11-3c-0.7-0.1-1.2-0.5-1.6-1.1c-0.2-0.2-0.4-0.6-0.4-0.9
			C71.4,297.5,72.3,296.3,73.7,295.3z"/>
		<path class="st14" d="M124,310.5c-0.3-0.3-0.9-0.5-1-0.9c-1.1-7.2-6.6-10.6-12.1-13.9c-3-1.8-6-3.5-9.3-4.5
			c-4.2-1.2-8-0.5-12.2,0.1c-3.2,0.4-6.6,1.8-9.9-0.3c5.8-3.1,11.9-3.8,18.4-3.4c6.8,0.5,13.3,2.4,19.1,6.2
			c4.9,3.1,7.6,7.5,7.9,13.3C125.2,308.4,125,309.5,124,310.5z"/>
		<path class="st15" d="M63.3,294.8c0.6-0.5,1.3-0.7,2-0.5c2.5,1.6,4.5,3.5,3.6,6.8c-0.2,0.7-0.1,1.4,0.4,1.8c2.1,2.1,0.1,2.4-1.3,3
			c-0.6,0.4-1.3,0.7-2,0.5c-0.7-1.3-1.7-2.2-2.7-3.1c0.2-1.4,2-2,1.9-3.5C65,298.1,62.5,297.1,63.3,294.8z"/>
		<path class="st16" d="M68.1,306c0.7-0.8,2.6-1.3,0.3-2.4c-0.4-0.2-1-1.4-0.9-1.6c2.5-3.6-1.4-5.1-2.2-7.6c0.6-0.5,1.3-0.4,2.1-0.4
			c3.1,2.4,3.4,6.2,4.7,9.4C71.2,304.8,69.8,305.7,68.1,306z"/>
		<path class="st17" d="M72.1,303.3c-1.2-0.7-2.1-1.4-1.9-3.1c0.2-2.6-2.6-3.9-2.8-6.3c0.7-0.2,1.2-0.2,1.8,0.2
			c1.4,1.4,2.2,3.3,3.2,5c0.1,0.2,0.3,0.4,0.4,0.6c-0.4,1,0.1,2.2-0.2,3.2C72.4,303.1,72.3,303.3,72.1,303.3z"/>
		<path class="st18" d="M63.3,294.8c0.9,1.4,1.7,2.8,2.6,4.2c0.6,0.9-0.2,0.7-0.5,0.9c-1.2-0.6-2.3-1.1-3.6-1.7
			c-0.2-0.9-1.3-1.4-1-2.5C61.5,295.2,62.3,294.8,63.3,294.8z"/>
		<path class="st19" d="M72.3,299.1c-2-1-2.9-2.9-3.2-5c1.6-0.1,2.8,1.6,4.5,1.1C73,296.5,72.1,297.6,72.3,299.1z"/>
		<path class="st19" d="M72.6,302.9c-0.8-1.2-1.6-2.3,0.2-3.2c0.4,0.6,0.7,1.1,1.2,1.7C73.4,301.9,73,302.4,72.6,302.9z"/>
		<path class="st20" d="M60.7,295.8c0.4,0.8,1.3,1.4,1,2.5c-0.9-0.3-2.3-0.3-2.6-1.4C58.8,296,60.1,296,60.7,295.8z"/>
	</g>
</g>
</svg>
