<?xml version="1.0" encoding="utf-8"?>
<!-- Generator: Adobe Illustrator 22.1.0, SVG Export Plug-In . SVG Version: 6.00 Build 0)  -->
<svg version="1.1" id="圖層_1" xmlns="http://www.w3.org/2000/svg" xmlns:xlink="http://www.w3.org/1999/xlink" x="0px" y="0px"
	 viewBox="0 0 160 160" style="enable-background:new 0 0 160 160;" xml:space="preserve">
<style type="text/css">
	.st0{fill:#222323;}
</style>
<g>
	<g>
		<path class="st0" d="M159.7,120.9c1.6-6.7-3.3-28.8-10-41.5c-2.8-5.5-5.6-10.9-8.8-16.2c-0.2-0.2-0.3-0.4-0.4-0.6
			c-0.1-0.1-0.2-0.3-0.3-0.4c0,0-0.1-0.1-0.1-0.1c-10.6-15.1-21.5-29.2-33.2-40.3c0,0-7.9-5.8-12.3-7.9c-9.1-4.5-18.2-4.6-27.3,0.1
			c-6.6,3.3-12.4,7.7-17.7,12.7c-17,16.1-30,35.2-40.2,56.2c-4.1,8.4-7.4,17.5-8.4,27c-0.7,7,0.8,13.1,6.3,18
			c3.6,3.3,7.4,6.2,11.8,8.4c8.7,4.5,18.1,6.8,27.7,8.2c11,1.7,21.9,2.3,33,2.4c7.6,0,15.1-0.1,22.7-0.6c9-0.7,18-1.7,26.8-4
			c7.3-1.8,14.4-4.4,20.6-8.8c4.3-3,6.9-6,9.4-11.8c0.1-0.2,0.3-0.4,0.4-0.7C159.7,121,159.7,120.9,159.7,120.9z M106.7,133.3
			c0,1.3-0.2,1.6-1.7,1.8c-15.3,1.3-30.8,1.1-46.1-0.1c-3.6-0.3-3.6-0.3-3.6-3.7V98.5c0-1.5,0.3-1.9,1.8-1.9c8,0.1,15.9,0,23.9,0
			l23.9-0.1c1.5,0,1.7,0.4,1.7,1.7C106.6,110,106.6,121.6,106.7,133.3z M141.9,125.8c-5.5,3.6-11.8,5.3-18.2,6.7
			c-1.4,0.3-2.8,0.6-4.3,0.9c-1.8,0.3-1.8,0.3-1.8-1.6v-18.6c-0.1-1.4-0.1-2.7-0.1-4c0-0.4,0-0.9,0.1-1.3c-0.1-0.4,0-0.9,0-1.3V91.9
			c0-4.5-2-6.4-6.5-6.4H81c-9.9,0-19.8,0.1-29.7-0.1c-5.1-0.1-7.1,2.9-7.1,7.2c0.2,12.8,0.1,25.6,0,38.3c0,2.1,0,2.1-2,1.6
			c-6.7-1.4-13.1-3.2-19.1-6.5c-3.5-1.9-6.6-4.4-9.3-7.4c-1-1.2-1.6-2.3-1.7-3.9c-0.4-4.4,0.5-8.4,1.7-12.6
			c3.4-11.5,8.9-22.1,15.2-32.3c7.8-12.6,16.7-24.4,27.5-34.7c4-3.9,8.4-7.3,13.1-10.3c7.7-4.8,15.3-4.8,23.1-0.3
			c6.3,3.7,11.8,8.4,16.7,13.7c12.8,13.9,22.8,29.7,31.2,46.5c0,0.1,0,0.1,0.1,0.1c0.3,0.6,0.6,1.2,0.8,1.8c0.3,0.5,0.5,1.1,0.7,1.6
			c0.2,0.3,0.3,0.7,0.5,1.1c2.7,6.2,5.1,12.5,6.5,19.2C150.5,116.7,148.6,121.5,141.9,125.8z"/>
		<path class="st0" d="M97.6,77.1c-2.1,0-3.6-0.8-4.6-2.3c-1.1-1.6-1.1-3.4,0-5.1c0.7-1.1,1.4-2,2.2-2.9c1.6-1.7,4.2-2,6.1-1
			c1.9,1.2,3,3.6,2.2,5.7c-0.7,2-2,3.7-3.8,4.9C99.2,77,98.3,77.2,97.6,77.1z"/>
		<path class="st0" d="M65.1,43.3c3,0,5.9,3.2,5.9,6.5c0,2.7-2.2,4.9-5,4.9c-2.9,0-5.8-3-5.9-6C60,45.6,62.2,43.3,65.1,43.3z"/>
		<path class="st0" d="M104.6,57.8c-2-0.1-3.6-0.6-5-1.7c-1.7-1.6-2.2-4.1-1.2-6.1c1.2-2.1,3.5-3.1,5.8-2.4c0.6,0.2,1.3,0.4,1.8,0.6
			c2.3,1,3.6,3.2,3.1,5.7C108.9,56.2,106.8,57.8,104.6,57.8z"/>
		<path class="st0" d="M77.2,78.2c0,2.8-2,4.9-4.9,5c-3.2,0.1-5.6-2.3-5.7-5.5c0-3.1,2-5.3,5-5.4C74.7,72.2,77.2,74.9,77.2,78.2z"/>
		<path class="st0" d="M45.2,66.6c2.9,0,5.5,2.6,5.5,5.5c0,2.7-2.2,4.9-5,4.9c-2.9,0-5.5-2.6-5.5-5.5C40.2,68.9,42.5,66.7,45.2,66.6
			z"/>
	</g>
</g>
</svg>
