<?xml version="1.0" encoding="utf-8"?>
<!-- Generator: Adobe Illustrator 22.1.0, SVG Export Plug-In . SVG Version: 6.00 Build 0)  -->
<svg version="1.1" id="圖層_1" xmlns="http://www.w3.org/2000/svg" xmlns:xlink="http://www.w3.org/1999/xlink" x="0px" y="0px"
	 viewBox="0 0 678.1 695.6" style="enable-background:new 0 0 678.1 695.6;" xml:space="preserve">
<g>
	<path d="M213,461.5c1.6-52.1,3.3-104.2,4.9-156.4c0.5-15.6-6.3-27.3-19.6-35.2c-28.7-17.2-42.9-42.6-42-75.9
		c1-35.5,9.4-69.2,26.7-100.4c7.1-12.8,15.6-24.4,27.4-33.4c18.4-14,38.5-14.1,56.4,0.5c6.6,5.4,13,11.7,17.8,18.7
		c26,37.8,37.4,80.1,35.3,125.6c-1.2,27.6-15.5,49-39.1,63.3c-15.4,9.4-22.4,22.1-21.8,40.1c3.1,92.9,5.8,185.8,8.7,278.8
		c0.3,10.7,0.6,21.3,1,32c0.6,17.8-12.9,32.2-30.3,32.3c-17.1,0.1-30.8-13.8-30.3-31.6c1.3-47.5,2.9-94.9,4.4-142.4
		c0.2-5.3,0-10.7,0-16C212.7,461.5,212.8,461.5,213,461.5z"/>
	<path d="M429.6,460.8c1.6-53.1,3.4-106.3,4.8-159.4c0.4-13.3-4.9-24.2-16.2-32c-19.9-13.7-29.9-32.7-30-56.8
		c-0.2-52-0.1-104-0.1-156c0-1,0-2,0.1-3c0.6-5.7,5-9.7,10.3-9.5c5.4,0.2,9.4,4.4,9.5,10.2c0.1,16.2,0,32.3,0,48.5
		c0,32.8,0,65.7,0,98.5c0,1.7-0.1,3.4,0.2,5c0.9,4.5,5,7.6,9.4,7.3c4.3-0.3,7.8-3.5,8.3-8c0.2-2,0.1-4,0.1-6c0-47.2,0-94.3,0-141.5
		c0-1.2,0-2.3,0-3.5c0.3-6.2,4.3-10.5,9.8-10.5c5.7-0.1,10,4.3,10.1,10.7c0.1,26,0,52,0,78c0,23.3,0,46.7,0,70
		c0,6.7,3.5,10.9,9,10.8c5.5,0,8.9-4.1,8.9-10.9c0-47.3,0-94.7,0-142c0-2-0.1-4,0-6c0.2-6.3,4.5-10.8,10.2-10.7
		c5.6,0.1,9.6,4.4,9.7,10.6c0.1,13.7,0.1,27.3,0.1,41c0,35.2,0,70.3,0,105.5c0,1.5-0.1,3,0.1,4.5c0.6,4.6,4.3,7.9,8.8,8
		c4.3,0,8.1-3,8.8-7.4c0.3-1.8,0.2-3.7,0.2-5.5c0-47.7,0-95.3,0-143c0-1.5-0.1-3,0.1-4.5c0.5-5.2,4.6-9,9.6-9.2
		c4.8-0.1,9.1,3.2,10,8.1c0.3,1.8,0.3,3.6,0.3,5.5c0,50.8-0.1,101.7,0,152.5c0.1,25.4-9.9,45.3-30.9,59.8
		c-10.7,7.3-15.6,18.1-15.3,30.9c1.9,66.6,4,133.3,6,199.9c1.2,40.1,2.5,80.3,3.6,120.4c0.4,16.3-13.1,29.8-29.7,30.2
		c-16.4,0.4-30.8-12.9-30.5-29.3c0.5-29.7,1.6-59.3,2.4-88.9C428.1,509.1,428.9,484.9,429.6,460.8
		C429.6,460.8,429.6,460.8,429.6,460.8z"/>
</g>
</svg>
