<?xml version="1.0" standalone="no"?>
<!-- Generator: Adobe Fireworks 10, Export SVG Extension by Aaron Beall (http://fireworks.abeall.com) . Version: 0.6.1  -->
<!DOCTYPE svg PUBLIC "-//W3C//DTD SVG 1.1//EN" "http://www.w3.org/Graphics/SVG/1.1/DTD/svg11.dtd">
<svg id="Untitled-%u9801%u9762%201" viewBox="0 0 212 6" style="background-color:#ffffff00" version="1.1"
	xmlns="http://www.w3.org/2000/svg" xmlns:xlink="http://www.w3.org/1999/xlink" xml:space="preserve"
	x="0px" y="0px" width="212px" height="6px"
>
	<g>
		<path d="M 102.4927 4.4355 C 99.4038 4.5137 96.4624 4.6035 93.7866 4.7422 C 102.4106 4.6406 103.4731 4.5381 102.4927 4.4355 Z" fill="#c0906a"/>
		<path d="M 158.5098 0.0078 C 150.2363 0.0771 146.498 0.0488 145.4766 0.5059 C 152.9043 0.5586 169.4082 0.4219 160.0449 0.9473 C 144.9707 1.1621 137.7891 0.7754 125.811 0.8164 C 126.6284 0.6895 135.1992 0.2891 130.5825 0.3896 C 101.2339 0.6934 46.7075 0.6758 18.895 1.915 C 29.4512 1.7988 30.5581 1.3438 44.5952 1.582 C 44.3628 1.9111 36.9146 1.8584 33.8267 2.0273 C 35.5835 2.6406 48.3052 1.6094 62.9302 2.0566 L 38.4429 2.7939 L 52.2231 3.3594 L -3.4722 4.9834 C 42.52 5.4043 63.6167 3.1162 101.144 3.9316 C 95.2241 4.1211 101.0298 4.2871 102.4927 4.4355 C 114.4214 4.1357 128.687 4.1357 136.0078 3.7354 L 155.0039 3.75 C 154.8008 4.0781 147.4707 4.8857 128.0747 4.8691 C 157.9297 4.8936 184.7129 4.5869 211.1563 4.2871 L 211.1563 0.7998 C 196.748 0.2852 160.1523 0.5635 158.5098 0.0078 Z" fill="#c0906a"/>
		<path d="M 192.1895 -4.166 C 195.0234 -4.0107 196.4785 -3.9326 200.2207 -3.9043 L 192.1895 -4.166 Z" fill="#c0906a"/>
		<path d="M 74.8267 5.167 C 75.6235 5.126 76.1831 5.0732 76.4526 5.0039 C 76.2153 5.0693 75.6235 5.1182 74.8267 5.167 Z" fill="#c0906a"/>
		<path d="M 35.7388 5.5508 C 46.3687 5.5107 68.6704 5.5635 74.8267 5.167 C 69.3364 5.4365 52.394 5.0205 46.3032 5.4287 L 47.0747 5.3066 L 35.7388 5.5508 Z" fill="#c0906a"/>
	</g>
</svg>