<?xml version="1.0" standalone="no"?>
<!-- Generator: Adobe Fireworks 10, Export SVG Extension by Aaron Beall (http://fireworks.abeall.com) . Version: 0.6.1  -->
<!DOCTYPE svg PUBLIC "-//W3C//DTD SVG 1.1//EN" "http://www.w3.org/Graphics/SVG/1.1/DTD/svg11.dtd">
<svg id="Untitled-%u9801%u9762%201" viewBox="0 0 212 11" style="background-color:#ffffff00" version="1.1"
	xmlns="http://www.w3.org/2000/svg" xmlns:xlink="http://www.w3.org/1999/xlink" xml:space="preserve"
	x="0px" y="0px" width="212px" height="11px"
>
	<g>
		<path d="M 109.5078 9.4355 C 112.5957 9.5137 115.5371 9.6035 118.2129 9.7422 C 109.5898 9.6406 108.5273 9.5381 109.5078 9.4355 Z" fill="#c0906a"/>
		<path d="M 53.4902 5.0078 C 61.7637 5.0771 65.502 5.0488 66.5234 5.5059 C 59.0957 5.5586 42.5918 5.4219 51.9551 5.9473 C 67.0293 6.1621 74.2109 5.7754 86.1895 5.8164 C 85.3711 5.6895 76.8008 5.2891 81.418 5.3896 C 110.7656 5.6934 165.293 5.6758 193.1055 6.915 C 182.5488 6.7988 181.4414 6.3438 167.4043 6.582 C 167.6367 6.9111 175.0859 6.8584 178.1738 7.0273 C 176.416 7.6406 163.6953 6.6094 149.0703 7.0566 L 173.5566 7.7939 L 159.7773 8.3594 L 215.4727 9.9834 C 169.4805 10.4043 148.3828 8.1162 110.8555 8.9316 C 116.7754 9.1211 110.9707 9.2871 109.5078 9.4355 C 97.5781 9.1357 83.3125 9.1357 75.9922 8.7354 L 56.9961 8.75 C 57.1992 9.0781 64.5293 9.8857 83.9258 9.8691 C 54.0703 9.8936 27.2871 9.5869 0.8438 9.2871 L 0.8438 5.7998 C 15.252 5.2852 51.8477 5.5635 53.4902 5.0078 Z" fill="#c0906a"/>
		<path d="M 19.8105 0.834 C 16.9766 0.9893 15.5215 1.0674 11.7793 1.0957 L 19.8105 0.834 Z" fill="#c0906a"/>
		<path d="M 137.1738 10.167 C 136.377 10.126 135.8164 10.0732 135.5469 10.0039 C 135.7852 10.0693 136.377 10.1182 137.1738 10.167 Z" fill="#c0906a"/>
		<path d="M 176.2617 10.5508 C 165.6309 10.5107 143.3301 10.5635 137.1738 10.167 C 142.6641 10.4365 159.6055 10.0205 165.6973 10.4287 L 164.9258 10.3066 L 176.2617 10.5508 Z" fill="#c0906a"/>
	</g>
</svg>