<?xml version="1.0" encoding="utf-8"?>
<!-- Generator: Adobe Illustrator 22.1.0, SVG Export Plug-In . SVG Version: 6.00 Build 0)  -->
<svg version="1.1" id="圖層_1" xmlns="http://www.w3.org/2000/svg" xmlns:xlink="http://www.w3.org/1999/xlink" x="0px" y="0px"
	 viewBox="0 0 50 50" style="enable-background:new 0 0 50 50;" xml:space="preserve">
<style type="text/css">
	.st0{fill:#EAAE07;}
	.st1{fill:#F9F3DC;}
	.st2{fill:#5B3824;}
	.st3{fill:#965427;}
	.st4{fill:#FFFFFF;}
</style>
<g>
	<g>
		<g>
			<g>
				<g>
					<ellipse class="st0" cx="24.8" cy="18.3" rx="17.8" ry="18"/>
				</g>
				<ellipse class="st1" cx="24.8" cy="18.3" rx="13.8" ry="14"/>
			</g>
		</g>
		<path class="st0" d="M22.3,14.7l2.4-2.5c0.1-0.1,0.2-0.1,0.2,0l2.4,2.5c0.1,0.1,0,0.3-0.1,0.3h-4.8C22.3,15,22.2,14.8,22.3,14.7z"
			/>
		<path class="st0" d="M22.9,15.6h3.8c0.2,0,0.3,0.3,0.2,0.3L25,18c-0.1,0.1-0.2,0.1-0.3,0l-1.9-2C22.6,15.9,22.7,15.6,22.9,15.6z"
			/>
		<ellipse class="st2" cx="30.7" cy="10.2" rx="1" ry="1"/>
		<ellipse class="st2" cx="18.8" cy="10.2" rx="1" ry="1"/>
	</g>
</g>
<path class="st3" d="M38.6,49H11.4c-3,0-5.4-2.4-5.4-5.4v-0.2c0-3,2.4-5.4,5.4-5.4h27.1c3,0,5.4,2.4,5.4,5.4v0.2
	C44,46.6,41.6,49,38.6,49z"/>
<g>
	<path class="st4" d="M9.9,45.7c-0.2,0-0.4-0.2-0.3-0.5l0.8-3c0.1-0.3,0.3-0.4,0.6-0.4c0.2,0,0.4,0.2,0.3,0.4l-0.8,3
		C10.5,45.5,10.2,45.7,9.9,45.7z M14,47.8c-0.2,0-0.5-0.2-0.5-0.5v-7.5c0-0.2,0.2-0.5,0.5-0.5c0.3,0,0.5,0.2,0.5,0.5v7.5
		C14.4,47.6,14.2,47.8,14,47.8z M16.9,41.8c0.3,0,0.5,0.2,0.6,0.5l0.9,3c0.1,0.2-0.1,0.5-0.3,0.5c-0.3,0-0.5-0.2-0.6-0.5l-0.9-3
		C16.5,42,16.7,41.8,16.9,41.8z"/>
	<path class="st4" d="M24.1,40.6c0.2,0,0.3,0.1,0.3,0.3c0,0.2-0.1,0.3-0.3,0.3h-3.6c-0.2,0-0.3-0.1-0.3-0.3c0-0.2,0.1-0.3,0.3-0.3
		h1.2c0.1,0,0.2-0.1,0.2-0.2s-0.1-0.2-0.2-0.2h-0.9c-0.2,0-0.3-0.1-0.3-0.3c0-0.2,0.1-0.3,0.3-0.3h0.9c0.1,0,0.2-0.1,0.2-0.1v-0.1
		c0-0.2,0.1-0.3,0.3-0.3c0.2,0,0.3,0.1,0.3,0.3v0.1c0,0.1,0.1,0.1,0.1,0.1h1c0.2,0,0.3,0.1,0.3,0.3c0,0.2-0.1,0.3-0.3,0.3h-0.9
		c-0.1,0-0.2,0.1-0.2,0.2c0,0.1,0.1,0.2,0.2,0.2H24.1z M24.1,42.5c0.2,0,0.3,0.1,0.3,0.3c0,0.2-0.1,0.3-0.3,0.3l-3.6,0.2
		c-0.2,0-0.3-0.1-0.3-0.3c0-0.2,0.1-0.3,0.3-0.3l1.2-0.1c0.1,0,0.3-0.1,0.3-0.2v-0.1c0-0.1-0.2-0.2-0.3-0.2h-0.9
		c-0.2,0-0.3-0.1-0.3-0.3c0-0.2,0.1-0.3,0.3-0.3h1.1c0.1,0,0.1,0,0.1-0.1c0-0.1,0.1-0.2,0.3-0.2h0.1c0.2,0,0.3,0.1,0.3,0.2
		c0,0,0.1,0.1,0.1,0.1h1.1c0.2,0,0.3,0.1,0.3,0.3c0,0.2-0.1,0.3-0.3,0.3h-1c-0.1,0-0.2,0.1-0.2,0.2v0c0,0.1,0.1,0.2,0.2,0.2
		L24.1,42.5z M28.8,40c0.2,0,0.4,0.1,0.4,0.3c0,0.2-0.1,0.3-0.4,0.3h-0.4c-0.1,0-0.2,0.1-0.2,0.2v2.4c0,0.2-0.1,0.3-0.4,0.3
		c-0.2,0-0.4-0.1-0.4-0.3v-2.4c0-0.1-0.1-0.2-0.3-0.2h-2.1c-0.2,0-0.4-0.1-0.4-0.3c0-0.2,0.1-0.3,0.4-0.3h2.1c0.1,0,0.3-0.1,0.3-0.2
		v-0.3c0-0.2,0.1-0.3,0.4-0.3c0.2,0,0.4,0.1,0.4,0.3v0.3c0,0.1,0.1,0.2,0.2,0.2H28.8z M25.6,41.2c0.3,0,0.5,0.1,0.6,0.3l0.2,0.4
		c0.1,0.1,0,0.3-0.2,0.3c-0.3,0-0.5-0.1-0.6-0.3l-0.2-0.4C25.3,41.3,25.4,41.2,25.6,41.2z"/>
	<path class="st4" d="M25,46.1c0,0.1,0.1,0.1,0.3,0.1h2.2c0.4,0,0.7,0.2,0.7,0.4v0.9c0,0.1-0.2,0.2-0.4,0.2c-0.2,0-0.4-0.1-0.4-0.2
		v-0.8c0-0.1-0.2-0.1-0.3-0.1h-1.9c-0.1,0-0.3,0.1-0.3,0.1V48c0,0.1-0.1,0.2-0.4,0.2s-0.4-0.1-0.4-0.2v-1.2c0-0.1-0.1-0.1-0.3-0.1
		h-1.9c-0.1,0-0.3,0.1-0.3,0.1v0.8c0,0.1-0.2,0.2-0.4,0.2c-0.2,0-0.4-0.1-0.4-0.2v-0.9c0-0.2,0.3-0.4,0.7-0.4h2.2
		c0.1,0,0.3-0.1,0.3-0.1v-0.2c0-0.1-0.1-0.1-0.3-0.1h-1.8c-0.5,0-0.8-0.2-0.8-0.4V44c0-0.2,0.3-0.4,0.8-0.4h0.8c0.1,0,0.3,0,0.3-0.1
		l0.1-0.1c0.1-0.1,0.3-0.2,0.6-0.2c0.2,0,0.3,0.1,0.2,0.2l-0.1,0.1c0,0,0,0.1,0.2,0.1H27c0.5,0,0.8,0.2,0.8,0.4v1.3
		c0,0.2-0.3,0.4-0.8,0.4h-1.8c-0.1,0-0.3,0.1-0.3,0.1V46.1z M27,44.2c0-0.1-0.1-0.2-0.2-0.2h-4.3c-0.1,0-0.2,0.1-0.2,0.2v0.1
		c0,0.1,0.1,0.1,0.2,0.1h4.3c0.1,0,0.2-0.1,0.2-0.1V44.2z M22.4,44.9c-0.1,0-0.2,0.1-0.2,0.1v0.1c0,0.1,0.1,0.1,0.2,0.1h4.3
		c0.1,0,0.2-0.1,0.2-0.1V45c0-0.1-0.1-0.1-0.2-0.1H22.4z"/>
	<path class="st4" d="M38.9,44.6c0.3,0,0.5,0.2,0.5,0.5c0,0.3-0.2,0.5-0.5,0.5h-3.1c-0.1,0-0.2,0.1-0.2,0.2v1.7
		c0,0.4-0.3,0.8-0.8,0.8h-0.4c-0.3,0-0.5-0.2-0.5-0.5c0-0.3,0.2-0.5,0.5-0.5h0.1c0.1,0,0.2-0.1,0.2-0.2v-1.4c0-0.1-0.1-0.2-0.2-0.2
		h-3.3c-0.3,0-0.5-0.2-0.5-0.5c0-0.3,0.2-0.5,0.5-0.5h3.3c0.1,0,0.2-0.1,0.2-0.2v-1.1c0-0.1-0.1-0.2-0.2-0.2h-2.8
		c-0.3,0-0.5-0.2-0.5-0.5c0-0.3,0.2-0.5,0.5-0.5h2.8c0.1,0,0.2-0.1,0.2-0.2v-1.2c0-0.1-0.1-0.2-0.2-0.2l-2.1,0.2
		c-0.3,0-0.5-0.2-0.5-0.4c0-0.3,0.2-0.5,0.5-0.5l5.5-0.4c0.3,0,0.5,0.2,0.5,0.4c0,0.3-0.2,0.5-0.5,0.5l-2,0.1
		c-0.1,0-0.2,0.1-0.2,0.2v1.2c0,0.1,0.1,0.2,0.2,0.2h2.5c0.3,0,0.5,0.2,0.5,0.5c0,0.3-0.2,0.5-0.5,0.5h-2.5c-0.1,0-0.2,0.1-0.2,0.2
		v1.1c0,0.1,0.1,0.2,0.2,0.2H38.9z"/>
</g>
</svg>
