<?xml version="1.0" encoding="utf-8"?>
<!-- Generator: Adobe Illustrator 22.1.0, SVG Export Plug-In . SVG Version: 6.00 Build 0)  -->
<svg version="1.1" id="圖層_1" xmlns="http://www.w3.org/2000/svg" xmlns:xlink="http://www.w3.org/1999/xlink" x="0px" y="0px"
	 viewBox="0 0 50 50" style="enable-background:new 0 0 50 50;" xml:space="preserve">
<style type="text/css">
	.st0{fill:#EAAE07;}
	.st1{fill:#F9F3DC;}
	.st2{fill:#5B3824;}
	.st3{fill:#965427;}
	.st4{fill:#FFFFFF;}
</style>
<g>
	<g>
		<g>
			<g>
				<g>
					<ellipse class="st0" cx="25.1" cy="17.6" rx="15.8" ry="16"/>
				</g>
				<ellipse class="st1" cx="25.1" cy="17.6" rx="12.3" ry="12.4"/>
			</g>
		</g>
		<path class="st0" d="M22.8,14.4l2.1-2.2c0.1-0.1,0.2-0.1,0.2,0l2.1,2.2c0.1,0.1,0,0.3-0.1,0.3h-4.3C22.8,14.7,22.8,14.5,22.8,14.4
			z"/>
		<path class="st0" d="M23.4,15.2h3.4c0.2,0,0.3,0.3,0.2,0.3l-1.7,1.9c-0.1,0.1-0.2,0.1-0.3,0l-1.7-1.8
			C23.1,15.5,23.2,15.2,23.4,15.2z"/>
		<ellipse class="st2" cx="30.3" cy="10.4" rx="0.9" ry="0.9"/>
		<ellipse class="st2" cx="19.7" cy="10.4" rx="0.9" ry="0.9"/>
	</g>
</g>
<path class="st3" d="M43,49H7.1c-4,0-7.1-3.2-7.1-7.1v-0.3c0-4,3.2-7.1,7.1-7.1h35.7c4,0,7.1,3.2,7.1,7.1v0.3C50.1,45.8,47,49,43,49
	z"/>
<g>
	<path class="st4" d="M5.1,44.6c-0.3,0-0.5-0.3-0.4-0.7l1.1-4c0.1-0.4,0.4-0.5,0.8-0.5c0.3,0,0.5,0.3,0.4,0.5l-1.1,4
		C5.9,44.4,5.5,44.6,5.1,44.6z M10.6,47.4c-0.3,0-0.7-0.3-0.7-0.7v-9.9c0-0.3,0.3-0.7,0.7-0.7s0.7,0.3,0.7,0.7v9.9
		C11.1,47.2,10.8,47.4,10.6,47.4z M14.4,39.5c0.4,0,0.7,0.3,0.8,0.7l1.2,4c0.1,0.3-0.1,0.7-0.4,0.7c-0.4,0-0.7-0.3-0.8-0.7l-1.2-4
		C13.9,39.8,14.1,39.5,14.4,39.5z"/>
	<path class="st4" d="M23.9,37.9c0.3,0,0.4,0.1,0.4,0.4s-0.1,0.4-0.4,0.4h-4.7c-0.3,0-0.4-0.1-0.4-0.4s0.1-0.4,0.4-0.4h1.6
		c0.1,0,0.3-0.1,0.3-0.3s-0.1-0.3-0.3-0.3h-1.2c-0.3,0-0.4-0.1-0.4-0.4s0.1-0.4,0.4-0.4h1.2c0.1,0,0.3-0.1,0.3-0.1v-0.1
		c0-0.3,0.1-0.4,0.4-0.4c0.3,0,0.4,0.1,0.4,0.4v0.1c0,0.1,0.1,0.1,0.1,0.1h1.3c0.3,0,0.4,0.1,0.4,0.4s-0.1,0.4-0.4,0.4H22
		c-0.1,0-0.3,0.1-0.3,0.3c0,0.1,0.1,0.3,0.3,0.3H23.9z M23.9,40.4c0.3,0,0.4,0.1,0.4,0.4s-0.1,0.4-0.4,0.4l-4.7,0.3
		c-0.3,0-0.4-0.1-0.4-0.4s0.1-0.4,0.4-0.4l1.6-0.1c0.1,0,0.4-0.1,0.4-0.3v-0.1c0-0.1-0.3-0.3-0.4-0.3h-1.2c-0.3,0-0.4-0.1-0.4-0.4
		s0.1-0.4,0.4-0.4H21c0.1,0,0.1,0,0.1-0.1c0-0.1,0.1-0.3,0.4-0.3h0.1c0.3,0,0.4,0.1,0.4,0.3l0.1,0.1h1.5c0.3,0,0.4,0.1,0.4,0.4
		s-0.1,0.4-0.4,0.4h-1.3c-0.1,0-0.3,0.1-0.3,0.3l0,0c0,0.1,0.1,0.3,0.3,0.3L23.9,40.4z M30.1,37.1c0.3,0,0.5,0.1,0.5,0.4
		c0,0.3-0.1,0.4-0.5,0.4h-0.5c-0.1,0-0.3,0.1-0.3,0.3v3.2c0,0.3-0.1,0.4-0.5,0.4c-0.3,0-0.5-0.1-0.5-0.4v-3.2c0-0.1-0.1-0.3-0.4-0.3
		h-2.8c-0.3,0-0.5-0.1-0.5-0.4c0-0.3,0.1-0.4,0.5-0.4h2.8c0.1,0,0.4-0.1,0.4-0.3v-0.4c0-0.3,0.1-0.4,0.5-0.4c0.3,0,0.5,0.1,0.5,0.4
		v0.4c0,0.1,0.1,0.3,0.3,0.3H30.1z M25.9,38.7c0.4,0,0.7,0.1,0.8,0.4l0.3,0.5c0.1,0.1,0,0.4-0.3,0.4c-0.4,0-0.7-0.1-0.8-0.4
		l-0.3-0.5C25.5,38.8,25.6,38.7,25.9,38.7z"/>
	<path class="st4" d="M25.1,45.2c0,0.1,0.1,0.1,0.4,0.1h2.9c0.5,0,0.9,0.3,0.9,0.5V47c0,0.1-0.3,0.3-0.5,0.3c-0.3,0-0.5-0.1-0.5-0.3
		V46c0-0.1-0.3-0.1-0.4-0.1h-2.5c-0.1,0-0.4,0.1-0.4,0.1v1.7c0,0.1-0.1,0.3-0.5,0.3c-0.4,0-0.5-0.1-0.5-0.3v-1.6
		c0-0.1-0.1-0.1-0.4-0.1H21c-0.1,0-0.4,0.1-0.4,0.1v1.1c0,0.1-0.3,0.3-0.5,0.3c-0.3,0-0.5-0.1-0.5-0.3V46c0-0.3,0.4-0.5,0.9-0.5h2.9
		c0.1,0,0.4-0.1,0.4-0.1V45c0-0.1-0.1-0.1-0.4-0.1H21c-0.7,0-1.1-0.3-1.1-0.5v-2c0-0.3,0.4-0.5,1.1-0.5H22c0.1,0,0.4,0,0.4-0.1
		l0.1-0.1c0.1-0.1,0.4-0.3,0.8-0.3c0.3,0,0.4,0.1,0.3,0.3l-0.1,0.1c0,0,0,0.1,0.3,0.1h4c0.7,0,1.1,0.3,1.1,0.5v1.7
		c0,0.3-0.4,0.5-1.1,0.5h-2.4c-0.1,0-0.4,0.1-0.4,0.1v0.4H25.1z M27.7,42.7c0-0.1-0.1-0.3-0.3-0.3h-5.7c-0.1,0-0.3,0.1-0.3,0.3v0.1
		c0,0.1,0.1,0.1,0.3,0.1h5.7c0.1,0,0.3-0.1,0.3-0.1V42.7z M21.6,43.6c-0.1,0-0.3,0.1-0.3,0.1v0.1c0,0.1,0.1,0.1,0.3,0.1h5.7
		c0.1,0,0.3-0.1,0.3-0.1v-0.1c0-0.1-0.1-0.1-0.3-0.1H21.6z"/>
	<path class="st4" d="M43.4,43.2c0.4,0,0.7,0.3,0.7,0.7c0,0.4-0.3,0.7-0.7,0.7h-4.1c-0.1,0-0.3,0.1-0.3,0.3V47
		c0,0.5-0.4,1.1-1.1,1.1h-0.5c-0.4,0-0.7-0.3-0.7-0.7s0.3-0.7,0.7-0.7h0.1c0.1,0,0.3-0.1,0.3-0.3v-1.8c0-0.1-0.1-0.3-0.3-0.3h-4.4
		c-0.4,0-0.7-0.3-0.7-0.7c0-0.4,0.3-0.7,0.7-0.7h4.4c0.1,0,0.3-0.1,0.3-0.3v-1.5c0-0.1-0.1-0.3-0.3-0.3h-3.7c-0.4,0-0.7-0.3-0.7-0.7
		s0.3-0.7,0.7-0.7h3.7c0.1,0,0.3-0.1,0.3-0.3v-1.6c0-0.1-0.1-0.3-0.3-0.3l-2.8,0.3c-0.4,0-0.7-0.3-0.7-0.5c0-0.4,0.3-0.7,0.7-0.7
		l7.3-0.5c0.4,0,0.7,0.3,0.7,0.5c0,0.4-0.3,0.7-0.7,0.7l-2.6,0.1c-0.1,0-0.3,0.1-0.3,0.3v1.6c0,0.1,0.1,0.3,0.3,0.3h3.3
		c0.4,0,0.7,0.3,0.7,0.7c0,0.4-0.3,0.7-0.7,0.7h-3.3c-0.1,0-0.3,0.1-0.3,0.3v1.5c0,0.1,0.1,0.3,0.3,0.3h4V43.2z"/>
</g>
</svg>
