<?xml version="1.0" encoding="utf-8"?>
<!-- Generator: Adobe Illustrator 21.1.0, SVG Export Plug-In . SVG Version: 6.00 Build 0)  -->
<svg version="1.1" id="圖層_1" xmlns="http://www.w3.org/2000/svg" xmlns:xlink="http://www.w3.org/1999/xlink" x="0px" y="0px"
	 viewBox="0 0 100 100" style="enable-background:new 0 0 100 100;" xml:space="preserve">
<style type="text/css">
	.st0{fill:#FF0000;}
</style>
<g>
	<path class="st0" d="M72.8,71.9c-10.8,0-21.4,0-32.1,0c3.3,0.8,6,2.5,7.9,5.4c1.9,2.9,2.5,6,1.7,9.4c-1.3,5.7-6.7,9.7-12.5,9.4
		c-5.8-0.3-10.7-5.1-11.3-11c-0.5-5.5,2.9-11.4,9.9-13.2c-0.8,0-1.7,0-2.5,0c-4.1,0-7.1-2.4-8.1-6.4C23,54.6,20.3,43.8,17.6,33
		c-0.8-3.1-1.6-6.3-2.4-9.5c-1.9,0-3.9,0-5.9,0c-1.1,0-2.2,0-3.3,0c-2.2-0.1-3.9-1.9-3.8-4.1c0-2.1,1.7-3.9,3.8-4
		c3.3-0.1,6.6-0.1,9.8,0c3.5,0.1,6.3,2.7,7.2,6.3c2,7.8,3.9,15.5,5.8,23.3c1.5,6.2,3.1,12.4,4.6,18.6c15.4,0,30.8,0,46.3,0
		c2.5-9.3,5.1-18.6,7.7-28.1c-18.4,0-36.6,0-55,0c-0.7-2.7-1.3-5.3-2-8c22.5,0,45,0,67.5,0c-1.3,4.7-2.5,9.3-3.8,14
		c-2.1,7.9-4.3,15.8-6.5,23.7c-1.2,4.5-4,6.6-8.7,6.6c-0.7,0-1.3,0-2.1,0.1c3.4,0.9,6.1,2.6,8,5.5c1.9,2.9,2.4,6.1,1.5,9.5
		c-1.5,5.7-6.7,9.4-12.5,9c-5.7-0.4-10.5-4.9-11.2-10.8C62,79.2,65.7,74.2,72.8,71.9z M38.6,79.9c-2.2,0-4,1.7-4.1,3.9
		c-0.1,2.3,1.7,4.1,4,4.1c2.3,0,4.1-1.8,4.1-4C42.6,81.7,40.8,79.9,38.6,79.9z M74.8,87.9c2.2,0,4-1.7,4.1-3.9
		c0.1-2.3-1.7-4.1-4-4.1c-2.2,0-4,1.7-4.1,3.9C70.8,86.1,72.5,87.9,74.8,87.9z"/>
</g>
</svg>
