<?xml version="1.0" encoding="utf-8"?>
<!-- Generator: Adobe Illustrator 21.1.0, SVG Export Plug-In . SVG Version: 6.00 Build 0)  -->
<svg version="1.1" id="圖層_1" xmlns="http://www.w3.org/2000/svg" xmlns:xlink="http://www.w3.org/1999/xlink" x="0px" y="0px"
	 viewBox="0 0 149 131" style="enable-background:new 0 0 149 131;" xml:space="preserve">
<style type="text/css">
	.st0{clip-path:url(#SVGID_2_);}
	.st1{fill:#FCFDFC;}
	.st2{fill:#0D0906;}
	.st3{fill:#633C1D;}
	.st4{fill:#240E06;}
	.st5{fill:#764020;}
	.st6{fill:#3A1B08;}
	.st7{fill:#180C08;}
	.st8{fill:#562D15;}
	.st9{fill:#40220F;}
	.st10{fill:none;stroke:#40220F;stroke-width:6.6226;stroke-miterlimit:10;}
	.st11{fill:#FCE444;stroke:#40220F;stroke-width:6.6226;stroke-miterlimit:10;}
	.st12{fill:none;stroke:#40220F;stroke-width:3.9735;stroke-miterlimit:10;}
</style>
<g id="圖層_3">
	<g>
		<g>
			<defs>
				<rect id="SVGID_1_" x="-1221" y="667" width="1918" height="1073"/>
			</defs>
			<clipPath id="SVGID_2_">
				<use xlink:href="#SVGID_1_"  style="overflow:visible;"/>
			</clipPath>
			<g class="st0">
				<path class="st1" d="M-1229.7-158.8c0.2,6.9,0.4,13.8,0.6,20.7c0,40.1,0,80.3,0,120.4c0,24.1,0,48.1,0,72.2
					c0,13.7-0.1,27.5-0.1,41.2c0,9.2,0,18.5,0,27.7c0,16.1,0.1,32.1,0.1,48.2c0,42.6-0.1,85.1-0.1,127.7c0,20.5,0,41,0,61.5
					c0,4.6,0,9.1,0,13.7c0,9.2,0,18.4,0.1,27.6c0,2.3,0.1,4.5,0.1,6.8c0.2,3,0.4,6.1,0.6,9.1c-3.1,11.9-0.7,23.9-0.9,35.8
					c0.1,21.8,0.2,43.5,0.3,65.3c-0.1,5.7-0.1,11.4-0.2,17.1c-0.1,26.3-0.1,52.7-0.2,79c0.1,37.8,0.1,75.7,0.2,113.5
					c0,23.1,0.1,46.1,0.1,69.2c0,34.2,0,68.5-0.1,102.7c0,57.5,0,115.1,0,172.6c0,4.5,0,9,0.1,13.5c0,6.9,0,13.7,0,20.6
					c-0.2,12.6-0.4,25.3-0.6,37.9c0,2.3,0.1,4.6,0.1,6.9c1.1,1.2,2.2,2.3,3.3,3.5c-1.1,4.5-2.2,8.9-3.3,13.4
					c0.2,11.8,0.3,23.5,0.5,35.3c-0.1,10.2-0.3,20.4-0.4,30.5c0.1,3.5,0.1,6.9,0.2,10.4c0.8,10.3-3.3,21,2.3,30.9
					c-3.8,18.1-2.8,36.4-2,54.7c0.7,18.4-4.8,37.2,3.3,55.1c-5.7,7.3-4.2,15.6-3.3,23.8c0,2.5,0,5.1,0,7.6c0,4.6,0,9.3,0.1,13.9
					c-0.6,0.8-0.6,1.6-0.2,2.5c-3.2,5.7,4.2,11.3,0.2,17c-1.3,39.1-1.5,78.2,0.1,117.4c-0.1,17.3-0.2,34.6-0.3,51.9
					c0,4.6,0,9.1,0,13.7c0,10.3,0,20.5,0,30.8c0,11.6,0,23.1,0.1,34.7c0,22.9-0.1,45.9-0.1,68.8c-4,14.2,4.7,13.8,14.9,13.8
					c284.2-0.2,568.4-0.1,852.6-0.1c357.5,0,715.1,0,1072.6,0c-0.7,1.1,1.7,3.6-1.7,3.5c-4.6-0.1-9.2,0-13.8,0
					c-637.7,0-1275.3,0-1913,0.3c-12.9,0-15.8-2.9-15.8-15.8c0.4-637.7,0.3-1275.3,0.5-1913C-1232.9-148.4-1236.9-155-1229.7-158.8z
					"/>
				<path class="st2" d="M33.9-55.6C53-57.8,60.4-77.2,51-99c-1.9-4.3-9.3-7.8-4.9-13.1c4-4.7,9.6,0.6,14.4,1.5
					c22.4,4.3,45.3,4.9,67.6,7.9c19.6,2.6,38.8,6.3,58.7,5.7c5-0.2,10.2,1.1,14.4-3.4c23.9-25.3,54.2-12.1,82-12.9
					c3.8-0.1,3.2,3.7,0.8,6.2c-2.2,0-4.4,0-6.6,0c-23.4-0.1-23.6,0.2-17.3,24c-1.2,4.6-2.3,9.1-3.5,13.7c-44.5,0-89-0.1-133.6,0.2
					c-5.9,0-12.7-2.8-17.5,3.4C102-34.8,98.4-3.9,94.8,27c-5.4,5.1-2.7,11.6-3,17.6c0.1,1-0.1,2-0.4,3c-7.6,1-6.9,6.2-6,11.6
					c0,7.3,0.1,14.6,0.1,21.9c-9.4,4.9-19.7,4.1-29.8,4.4C42,85.9,36.5,79.4,36.2,65.9c-0.2-12,1.6-23.6,3.8-35.3
					c8.4,2.4,15.4,3.5,10.6-9.3c-0.9-2.4-0.3-5.4-0.3-8.1c-0.5-6.8-5.4-6.9-10.4-6.7c-3.5,0.1-7.1,0.2-10.6,0.2
					C24.5-7.8,30.9-21.2,33-35c4.8-4.4,4.6-8.9,0.5-13.6C33.6-51,33.8-53.3,33.9-55.6z"/>
				<path class="st3" d="M33.9-55.6c-0.1,2.3-0.3,4.7-0.4,7c-0.2,4.5-0.3,9.1-0.5,13.6c-2.1,13.8-8.5,27.2-3.8,41.6
					c1.6,8.3-1.4,16-2.9,23.9c-0.2,1-0.3,2.1-0.5,3.1c-6.3,13.3-1.5,27.5-3.3,41.2c-2.8,23.1-5.9,46.1-8.5,69.2
					C8.7,191,3.6,238-1.6,285c-0.4,0.3-1.2,0.8-1.1,1c0.2,0.9,0.7,1.7,1,2.5c-0.1,2.2-0.2,4.4-0.3,6.6c-3.1,0-6.3,0.1-9.5,0.1
					c0.1-2.3,0.2-4.6,0.3-6.9c4.2-4.1,2.6-9.2,2.5-14.1c3.8-47.8,7-95.6,11.6-143.3C8.7,72,15.5,13.1,22-45.7c0.9-8-3.1-10-9.9-9.9
					c-14.9,0-29.7-0.2-44.6-0.3c-0.2-6.8,7.4-5.1,10.5-9c-11.7-2.9-23.7,2.1-34.5-3.8c10.4-0.3,20.7-0.5,31.1-0.8
					c16,0.3,32,0.6,48,0.8C28.6-66.3,29.4-59.3,33.9-55.6z"/>
				<path class="st4" d="M25.9,33.6c0.2-1,0.3-2.1,0.5-3.1c4.5,0,9.1,0,13.6,0.1c-2.2,11.7-4,23.3-3.8,35.3
					c0.2,13.5,5.7,20.1,19.5,19.6c10.1-0.3,20.4,0.4,29.8-4.4c7.3,14.4-3.1,28.2-1.5,42.4c-31.8-0.5-25.8-1.7-27.1,27.3
					c-0.8,17.2,4.3,34.9-3.3,51.6c-6.3-5.1-0.5-14.1-5.7-19c-4.2-3.9-4.2-13.6-13-11.2c-7.8,2.1-4,9.5-5.3,14.6
					c-3.1,11.5,9.1,28.8-12.6,33.5c-0.9,0.2-0.9,5.3-1,8.1c-0.1,6.3,0.1,12.6,0.2,18.9c-1.4,18.2-2.8,36.5-4.3,54.7
					c-2.1,3.4-4.1,6.9-6.2,10.3C-5.4,310.3,0.1,301-2,295c0.1-2.2,0.2-4.4,0.3-6.6c0-1.2,0.1-2.3,0.1-3.5c5.2-47,10.3-94,15.6-141
					c2.6-23.1,5.6-46.1,8.5-69.2c1,3.5-1.5,7.9,4.7,12.5C29.4,68.3,33.1,51.1,25.9,33.6z"/>
				<path class="st5" d="M84,123.5c-1.6-14.2,8.9-28,1.5-42.4c0-7.3-0.1-14.6-0.1-21.9c5.9-1.9,6.5-6.4,6-11.6c0.3-1,0.4-2,0.4-3
					c4.7-5.2,2.9-11.6,3-17.6c3.6-30.9,7.1-61.9,10.7-92.8c7.2,0.7,6.4,6.1,6.6,11c0.2,5.3-1.3,11.5,6.4,13.1
					c-1,9.6-1.9,19.3-3.1,28.9c-3.2,24.8-6.5,49.6-9.7,74.4c-8.5,0.7-7.2,7.2-7.3,12.7c-0.1,17.6,0,35.1,0.1,52.7
					c-4.8,44.5-9.5,89-14.3,133.5c-5.2-3-0.5-10.1-6.5-14.2c1.8,8.2-4.4,17,6.1,21.8c-0.2,2-0.4,4-0.5,6c-2.7,1-7.2-0.3-7.1,4.4
					c0,1,3.1,2,4.8,3.1c-0.1,1.2-0.1,2.3-0.2,3.5c-6.2,4,1.3,15.7-9.6,17.1c-0.3-6.9-0.7-13.8-1-20.6c0.4-13.6,0.7-27.2,1.1-40.8
					c4.6-6.5,2.6-13.9,2.9-21C77.4,187.6,80.7,155.6,84,123.5z"/>
				<path class="st6" d="M40,30.6c-4.5,0-9.1,0-13.6-0.1c1.4-7.9,4.4-15.6,2.9-23.9c3.5-0.1,7.1-0.2,10.6-0.2
					c0.6,6.7,5.4,6.9,10.4,6.7c0.1,2.7-0.6,5.7,0.3,8.1C55.4,34.1,48.4,33,40,30.6z"/>
				<path class="st4" d="M50.3,13.1c-5,0.2-9.9,0-10.4-6.7C44.9,6.2,49.7,6.3,50.3,13.1z"/>
				<path class="st4" d="M91.4,47.6c0.5,5.2-0.1,9.7-6,11.6C84.5,53.8,83.8,48.6,91.4,47.6z"/>
				<path class="st4" d="M94.8,27c-0.2,6,1.7,12.3-3,17.6C92.1,38.6,89.4,32.1,94.8,27z"/>
				<path class="st7" d="M-128.9-56c13.8,0,27.5,0,41.3,0c18.4,0,36.7,0,55.1,0c14.9,0.1,29.7,0.3,44.6,0.3c6.9,0,10.8,1.9,9.9,9.9
					C15.5,13.1,8.7,72,2.9,131c-4.6,47.7-7.8,95.5-11.6,143.3c-3.9,4.2-2.9,9.2-2.5,14.1c-0.1,2.3-0.2,4.6-0.3,6.9
					c-1.6,15.2-3.2,30.5-4.7,45.7c-1.1,12.1-6.3,17-19.7,16.6c-35.9-1.1-71.8-0.5-107.7-0.4c-10.1,0-20.5,2.6-29.9-3.4
					c13-58,12.6-117.2,16.6-176.1c2.2-34.2,4.4-68.5,6.5-102.7c2.3-28.6,4.5-57.3,6.8-85.9c0.3-11.4,0.7-22.9,1-34.3
					c3.7-2.2,3.5-6,3.7-9.6C-135.4-55.3-132.1-55.6-128.9-56z M-155.3,298.5c-0.1,5.8-0.3,11.5-0.4,17.3c-8.9,28.6-7.2,31,22.7,31.1
					c29.1,0.1,58.3-0.8,87.4,0.4c14.5,0.6,19.1-5.7,20.2-18.5c1.5-18.1,3.7-36.2,5.6-54.2c1.6-15.9,3.1-31.7,4.7-47.6
					c4.4-43.1,8.9-86.1,13-129.2C1.8,56.3,5,14.8,9.1-26.6c1.3-13.7-2.2-19.8-17.4-18.7C-27-44-46-45.7-64.8-45
					c-13.4,0.5-27.2-4-40.2,2.5c-24.5,1-24.5,1-27.1,26.2c-0.3,2.8-2,5.5-1.8,8.2c1.1,16.4-10.9,32.3-2,49
					c-2.3,14.8-9.2,29.1-5.5,44.6c0,8-0.1,15.9-0.1,23.9c-1.2,4.6-2.4,9.1-3.6,13.7c-1.1,20.7-2.2,41.5-3.2,62.2
					c-2.3,33.3-4.7,66.6-7,99.9C-155.4,289.6-155.4,294.1-155.3,298.5z"/>
				<path class="st2" d="M25.9,33.6c7.2,17.4,3.5,34.7,1.3,53.7c-6.2-4.6-3.7-8.9-4.7-12.5C24.4,61.2,19.6,46.9,25.9,33.6z"/>
				<path class="st2" d="M71.1,240.7c-0.4,13.6-0.7,27.2-1.1,40.8c-11.9,7.1-3.4,18.8-6.3,27.9c-2.3-0.1-4.6-0.2-6.9-0.3
					c0.1-11.5,0.2-22.9,0.2-34.4c-1.6-14.9,3.8-30.2-3.1-44.7c-0.1-1.2-0.2-2.3-0.3-3.5c0-8,0-16.1,0-24.1
					c7.6-16.8,2.5-34.4,3.3-51.6c1.3-29.1-4.7-27.8,27.1-27.3c-3.3,32.1-6.6,64.2-9.9,96.3C68.4,226.1,71.6,233.6,71.1,240.7z"/>
				<path class="st7" d="M260.1-55.8c13.7-0.9,21,0.2,18,19.1c-14,88.2-26,176.8-38.4,265.2c-2.1,15.2-2.8,30.5-4.1,45.8
					c-4.8,14.5-6.8,29.4-6.9,44.6c-0.8,2.4-1.7,4.8-2.5,7.2c-0.1,3.4-0.2,6.9-0.3,10.3c-5,5.5,2.6,17.8-11.5,18.8
					c-38.8,2.9-77.5,1.4-116.3,1.8c-2.1,0-4.2-0.1-6.3-0.1c-18.7-2-19.4-12.9-16-28.4c3.1-14.2,6.8-28.7,4.7-43.6
					c0.1-1.2,0.1-2.3,0.2-3.5c3.1-1.8,3.4-4.4,2.3-7.5c0.2-2,0.4-4,0.5-6c0.2-2.5,0.3-5.1,0.4-7.6c4.8-44.5,9.5-89,14.3-133.5
					c4.9-21.5,6.1-43.4,7.2-65.4c3.3-24.8,6.6-49.6,9.7-74.4c1.2-9.6,2.1-19.2,3.1-28.9c-0.7-11,4.6-14.4,15.4-14.3
					C176-55.4,218.1-55.8,260.1-55.8z M263.2-0.8c2.1-11.5,4.1-23,6.2-34.4c1.3-7.2-1.2-10.7-8.9-9.6c-41.5,0-82.9,0-124.4,0
					c-8.7,0.5-9.6,7.2-10,13.4c-3.9,52.3-11.2,104.3-17,156.4c-7.6,67.4-13.9,134.9-23.7,202c-0.8,5.7-4.9,14.4,6.2,16.4
					c26.3,0.2,52.7-1.2,78.8,1.1c49.7,4.3,43.8,8.2,48.7-42.1c1.2-6.8,2.4-13.7,3.5-20.5c5.9-11,2.3-23.6,6.2-35
					c2.4-19.5,4.8-38.9,7.2-58.4c3-19.7,6.2-39.4,9-59.1C251.1,86.1,257.1,42.6,263.2-0.8z"/>
				<path class="st3" d="M105.7,61.6c-1.1,21.9-2.3,43.8-7.2,65.4c0-17.6-0.1-35.1-0.1-52.7C98.5,68.8,97.2,62.3,105.7,61.6z"/>
				<path class="st5" d="M-19.9,274.5c-5.6,0.5-12.2-0.7-12.4,8c-0.1,6.6-2.2,10.3-9.3,6.3c-5.1-2.8-13.5-4-8.6-13.1
					C-47,270-49,260.2-36,261.9c6.4,0.8,2.3-9.4,3.7-14.4c8.1-15.1-3.1-17.7-13.5-20.8c-3.3-0.1-6.5-0.2-9.8-0.3
					c-0.3-2.2-0.6-4.5-0.8-6.7c3.5-2.6,3.2-4.9-0.4-7.1c0.3-2.3,0.6-4.5,0.9-6.8c4.4-6,5.2-11.2-3.5-13.8l-0.2-0.2
					c-0.7-5.1-2.7-9.6-6.3-13.3c-2-3.9-4.6-10.4-7.4-1.1c-1.8,5.9-0.3,12.8-0.3,24.8c-12.9-18.2-15-3.5-20.6,0.1
					c-7.7-0.3-9.9-3.6-6.4-10.8c3.2-6.4,7.3-12.6,7.2-20.3c9.1,0.6,18.2,1.1,20.5-11c13,1.7,22.3-2.1,27.1-15.6
					c1.9-5.6,6.6-10.1,10.1-15.2c15.5,12.2-1.2,20.4-4.2,31.5c11.7,1,17.2-6,20.3-14.8c4.1-11.8-4-17.8-13-22.6
					c-0.2-2.3-0.5-4.6-0.7-7c1-3.2,2.3-7.9-1.2-8.6c-5.7-1.1-3.4,5.4-5.3,8.1c-3.1,1.2-5.6,6.6-9.7,1.5c1.2-6.1,2.4-12.2,3.5-18.3
					c5-0.3,10.2,0.3,14.9-1c13.8-3.8,17.9-15.2,10.2-27.4c-1.5-9.5-11.2-4.3-15.9-8.4c2-6.8,12.4-8.9,10.1-16.6
					c-2.9-9.8-12.4,0.5-17.5-4.3c-0.4-0.3-1.1-0.3-1.6-0.5c-0.3-7.4,7-11.5,8-18.3c1.4,2.9,3.4,8.5,4.2,8.3
					c5.9-1.2,9.2-6.2,11.1-11.4C-18.2,8-20-6.2-8.2-14.9c-0.8-6.2-5.3-6.5-10.1-6.3c-0.4-0.9-0.5-1.8-0.4-2.8
					c-0.6-14.4-8-19.4-22.3-18.2C-55.2-41-69.6-41.9-83.9-42c-3.5,0-6.9,0.1-10.4,0.1c-3.5-0.2-7.1-0.5-10.6-0.7
					c13-6.5,26.8-2,40.2-2.5C-46-45.7-27-44-8.3-45.3c15.2-1,18.7,5,17.4,18.7C5,14.8,1.8,56.3-2.1,97.7
					c-4.1,43.1-8.7,86.1-13,129.2C-16.8,242.7-18.3,258.6-19.9,274.5z M-35.9,172c-3.5,5.6,2.9,8.9,3.4,13.7c0.5,4-0.1,11,6.9,8.6
					c5.5-1.9,3.3-7.7,1.6-11.9C-26.1,177-28.1,171.3-35.9,172z"/>
				<path class="st8" d="M136.1-44.8c41.5,0,82.9,0,124.4,0c-0.2,1-0.3,2-0.4,3c-8,0-16,0-24,0c-20.5,0.3-22,2.6-14.3,21.2
					c-12.3-6.9-25-17.5-34.9,10.1c0.1-10.9,2.5-19.8-6.8-19.9c-9.1-0.1-4.4,8.7-6.7,13.2c-1,2-2.3,3.9-3.7,5.7
					C159.4,1.1,169.7-1,177.2-1l0.9,1.1c-2.9,5.6-9.3,6.2-13.7,9.7c-4.1,3.2-14.4,1.5-12,8.7c2.8,8.5,11.3,4.3,17.8,2.2
					c2.7-0.9,5.4-1.7,8.1-2.6c7.3-2.4,9.6-0.1,7.4,7.3c-5.2,17.7,2.6,18,15.4,11.4c-0.7,20.3,8.5,39,8.1,59.8
					c-0.4,23.6-9.2,48.8,5.9,71.4c0.5,0.8,0.1,2.2,0.1,3.4c-13.6,6.4-4.1,18.6-6.8,27.7c-12.8,9.7-7.7,27-16.3,38.6
					c-2.3,3.1-0.6,8,4.6,9c7.9,1.5,11.9-1.7,11.7-10c-0.1-4.7,0.4-9.6,6.9-9.5c6.6,0.1,6.5,5.1,6.7,9.8s0.2,9.4,6.5,10.1
					c-3.9,11.3-0.3,24-6.2,35c-0.7-3.1,0.6-7.8-3.5-8.4c-3.5-0.5-3.8,3.7-3.5,6.3c0.8,7.6-3,15.9,3.5,22.6
					c-4.9,50.3,1,46.4-48.7,42.1c-26.1-2.2-52.5-0.8-78.8-1.1C106.7,214.1,118.5,84.3,136.1-44.8z M153.3,291.5
					c8.8,3.2-3.4,15.1,7.3,17.5c-1.8,3.6-4.1,7-5.4,10.7c-1.4,4-5.6,9.5-1.2,12.3c5.7,3.7,11-0.9,14.3-5.8
					c6.5-9.7,9.3-20.6,9.4-32.3c0.2-22-3.1-25.2-24.4-22.1c-9.5,1.4-11.1,10.4-15.2,16.7c-3.8,5.8-7.8,13.4,1.1,17.5
					c10.2,4.7,6.5-7.6,10.7-10.7C151.3,294.3,152.2,292.8,153.3,291.5z M187.8,150.8c-0.4-0.3-0.9-0.5-1.3-0.8
					C187,150.3,187.4,150.5,187.8,150.8c0.5,7-0.4,13.7-5,19.3c-3.1,3.8-7.5,6.5-11.9,3.8c-5.4-3.4,0.2-6.3,1.5-9.6
					c3.8-10.4,6.9-21.2,10.3-31.7c1.6-4.9-1.6-7.7-4.9-9.8c-5.7-3.9-5.7,1.9-8,4.8c-5.2,6.3-9.1,17.8-11.7,19.6
					c-13.9,9.6-1,17.5-0.6,25.3c0.6,11.5,8.4,18.2,20.1,19.6c-2.8,3.6-7.1,4.4-10.9,3.5c-11.8-2.8-17.3,5-23.9,12.4
					c-8,9,1,23.8-11.5,31.4c-1.9,1.2,2.6,3.7,5.4,4.2c3.5,0.7,8-1.9,10.5,2.6c-1.8,8.5-10.6,6.7-16.4,10c4.8,6.3,8.9,9.8,14.8,4
					c7.5-7.4,14.1-10,22.9-0.8c4.9,5.1,15.8,9.5,19.8,2.8c4.8-8.1-7.7-8.2-12.1-12.5c-3.5-3.4-10.7-4.4-10.1-10.1
					c0.5-4.9,6.8-5,11.2-6.1c3.5-0.8,7.2-1.8,6.1-6.4c-1.1-4.6-4.7-4.1-8.2-2.8c-2.7,0.9-5.6,2.4-7-1.6c-1.2-3.3,1.2-5.2,3.6-6.9
					c2.8-2,5.4-4.2,8.3-6c3.8-2.5,9.4-4.2,8.8-9.3c-0.6-5.7-5.9-7.9-11.5-8.3c0.5-7.1,6.3-9.9,10.7-14.2
					C197,169.3,200,159.7,187.8,150.8z M199.7,76.4c-1.9,8.6-2,17-9.3,21.9c-3.4,2.3-5.7,8.9-10.9,4.9c-3.3-2.5-1.3-7.1,0.2-11.1
					c4-10.7,7.5-21.5,10.7-32.5c1.6-5.6-2.6-13.5-6.3-9.9c-9.3,9.1-18.9,20.6-21.5,32.6c-1.3,6,2.7,18.4,7.2,26.9
					c2.9,5.5,8,7.9,14.5,6.7C200.8,113,208.9,94.2,199.7,76.4z"/>
				<path class="st3" d="M136.1-44.8c-17.5,129.1-29.4,258.9-44.5,388.3c-11.1-2-7-10.8-6.2-16.4c9.8-67.1,16.1-134.7,23.7-202
					c5.8-52.1,13.1-104,17-156.4C126.5-37.6,127.4-44.3,136.1-44.8z"/>
			</g>
		</g>
	</g>
</g>
<g id="圖層_4">
</g>
<g id="圖層_1_1_">
	<g id="圖層_6">
	</g>
	<g id="圖層_7">
	</g>
	<g id="圖層_5">
	</g>
	<g id="圖層_8">
	</g>
	<g>
		<g>
			<path class="st9" d="M114.3,34.9c0,0,12.4-4.4,17.1,7.3c4.7,11.7-3.1,17.2-3.1,17.2L115,50.8L114.3,34.9z"/>
			<path class="st10" d="M77.9,15.3c0,0,21.1,0.8,30.5,9.4s11.7,15.6,11.7,15.6"/>
			<path class="st9" d="M41.5,34.9c0,0-12.4-4.4-17.1,7.3s3.1,17.2,3.1,17.2l13.3-8.6L41.5,34.9z"/>
			<path class="st10" d="M77.9,15.3c0,0-21.1,0.8-30.5,9.4S35.7,40.2,35.7,40.2"/>
			<path class="st11" d="M133,68c-0.8,8.6-7,14.8-7,14.8s-1.6,28.1-48.4,28.1S29.1,82.8,29.1,82.8s-6.2-6.2-7-14.8
				s10.2-15.6,10.2-15.6C40.8,18,74.8,17.2,77.5,17.2s36.7,0.8,45.3,35.1C122.8,52.3,133.7,59.4,133,68z"/>
			<circle class="st9" cx="95.1" cy="48.2" r="4.9"/>
			<circle class="st9" cx="53.7" cy="48.2" r="4.9"/>
			<ellipse class="st9" cx="74.4" cy="59.4" rx="13.3" ry="6.2"/>
			<ellipse class="st9" cx="101.7" cy="78.9" rx="7" ry="3.9"/>
			<path class="st12" d="M126.7,52.3c0,0-3.5,10.5-7.8,15.6c-6.4,7.6-14.1,10.9-14.1,10.9"/>
		</g>
	</g>
</g>
</svg>
