<?xml version="1.0" encoding="iso-8859-1"?>
<!-- Generator: Adobe Illustrator 19.0.0, SVG Export Plug-In . SVG Version: 6.00 Build 0)  -->
<svg version="1.1" id="Layer_1" xmlns="http://www.w3.org/2000/svg" xmlns:xlink="http://www.w3.org/1999/xlink" x="0px" y="0px"
	 viewBox="0 0 511.999 511.999" style="enable-background:new 0 0 511.999 511.999;" xml:space="preserve">
<path style="fill:#FF4C1C;" d="M220.551,20.443c-7.531-7.531-19.141-8.491-27.715-2.885C190.736,7.531,181.848,0,171.197,0
	c-10.65,0-19.539,7.531-21.638,17.558c-8.574-5.606-20.185-4.645-27.715,2.885c-8.635,8.635-8.635,22.633,0,31.268
	c2.049,2.049,4.402,3.606,6.911,4.682h84.884c2.51-1.076,4.863-2.633,6.911-4.682C229.185,43.076,229.185,29.077,220.551,20.443z"/>
<g>
	<path style="fill:#FFA01F;" d="M83.854,107.727c-4.885,0-8.846,3.961-8.846,8.846c0,4.885,3.961,8.846,8.846,8.846h41.504v-17.692
		H83.854z"/>
	<path style="fill:#FFA01F;" d="M97.974,129.796c-4.885,0-8.846,3.961-8.846,8.846c0,4.885,3.961,8.846,8.846,8.846h27.384v-17.692
		H97.974z"/>
	<path style="fill:#FFA01F;" d="M236.629,416.754v86.399c0,4.885,3.961,8.846,8.846,8.846c4.885,0,8.846-3.961,8.846-8.846v-86.399
		H236.629z"/>
</g>
<path style="fill:#FFDBA5;" d="M383.878,130.351l-36.91,86.631l-118.874-40.169V94.67c0-31.422-25.474-56.897-56.896-56.897
	s-56.896,25.474-56.896,56.897v43.972L81.197,235.95c0,80.367,57.7,147.247,133.931,161.501c0,16.774,13.587,30.361,30.348,30.361
	s30.348-13.587,30.348-30.348c73.711-13.749,130.103-76.701,133.799-153.485l0.133-0.137v-87.616
	C409.753,141.936,398.169,130.351,383.878,130.351z"/>
<circle style="fill:#493123;" cx="171.198" cy="94.407" r="14.374"/>
<g>
	<path style="fill:#FFC778;" d="M428.145,241.285h-32.737c-4.885,0-8.846-3.961-8.846-8.846s3.961-8.846,8.846-8.846h32.737
		c4.885,0,8.846,3.961,8.846,8.846S433.03,241.285,428.145,241.285z"/>
	<path style="fill:#FFC778;" d="M428.145,208.181h-32.737c-4.885,0-8.846-3.961-8.846-8.846c0-4.885,3.961-8.846,8.846-8.846h32.737
		c4.885,0,8.846,3.961,8.846,8.846C436.991,204.22,433.03,208.181,428.145,208.181z"/>
	<path style="fill:#FFC778;" d="M428.145,175.076h-32.737c-4.885,0-8.846-3.961-8.846-8.846c0-4.885,3.961-8.846,8.846-8.846h32.737
		c4.885,0,8.846,3.961,8.846,8.846C436.991,171.115,433.03,175.076,428.145,175.076z"/>
	<path style="fill:#FFC778;" d="M169.407,191.996c-5.141,11.596-8.018,24.418-8.018,37.919c0,51.746,41.948,93.693,93.692,93.693
		c44.229,0,81.275-30.656,91.111-71.872L169.407,191.996z"/>
</g>
<g>
</g>
<g>
</g>
<g>
</g>
<g>
</g>
<g>
</g>
<g>
</g>
<g>
</g>
<g>
</g>
<g>
</g>
<g>
</g>
<g>
</g>
<g>
</g>
<g>
</g>
<g>
</g>
<g>
</g>
</svg>
