<?xml version="1.0" encoding="utf-8"?>
<!-- Generator: Adobe Illustrator 21.1.0, SVG Export Plug-In . SVG Version: 6.00 Build 0)  -->
<svg version="1.1" id="圖層_1" xmlns="http://www.w3.org/2000/svg" xmlns:xlink="http://www.w3.org/1999/xlink" x="0px" y="0px"
	 viewBox="0 0 198.4 198.4" style="enable-background:new 0 0 198.4 198.4;" xml:space="preserve">
<style type="text/css">
	.st0{fill:none;stroke:#000000;stroke-width:8;stroke-linecap:round;stroke-linejoin:round;stroke-miterlimit:10;}
	.st1{fill:none;stroke:#000000;stroke-width:6;stroke-linecap:round;stroke-linejoin:round;stroke-miterlimit:10;}
	.st2{fill:none;}
	.st3{fill:#3E3A39;}
	.st4{fill:#E60012;}
	.st5{fill:none;stroke:#E60012;stroke-width:6;stroke-linecap:square;stroke-linejoin:round;stroke-miterlimit:10;}
	.st6{fill:#FFFFFF;}
	.st7{fill:#22AC38;}
	.st8{fill:#1D793A;}
	.st9{stroke:#000000;stroke-width:0.2698;stroke-miterlimit:10;}
	.st10{fill:#E60012;stroke:#E60012;stroke-width:0.2698;stroke-miterlimit:10;}
	.st11{fill:#E60012;stroke:#E60012;stroke-width:0.5;stroke-miterlimit:10;}
	.st12{stroke:#000000;stroke-width:0.7876;stroke-miterlimit:10;}
	.st13{stroke:#000000;stroke-width:0.4061;stroke-miterlimit:10;}
	.st14{fill:#E60012;stroke:#E60012;stroke-width:0.4061;stroke-miterlimit:10;}
</style>
<g>
	<g>
		<g>
			<path class="st4" d="M86.5,30.2c-1.2,0-2.3-0.6-3-1.7l-5.4-9.1c-1-1.6-0.4-3.8,1.2-4.7c1.6-1,3.8-0.4,4.7,1.2l5.4,9.1
				c1,1.6,0.4,3.8-1.2,4.7C87.8,30.1,87.1,30.2,86.5,30.2z"/>
		</g>
		<g>
			<path class="st4" d="M111.3,30.2c-0.6,0-1.2-0.2-1.8-0.5c-1.6-1-2.2-3.1-1.2-4.7l9.6-16.2c1-1.6,3.1-2.2,4.7-1.2
				c1.6,1,2.2,3.1,1.2,4.7l-9.6,16.2C113.6,29.6,112.5,30.2,111.3,30.2z"/>
		</g>
		<g>
			<path class="st3" d="M69.8,54.7c-0.2,0-0.4,0-0.6,0c-2.5-0.3-4.3-2.6-4-5.2C66.7,38,74.1,27.9,84.6,23c4.4-2.1,9.3-3.2,14.3-3.2
				c5,0,9.8,1.1,14.3,3.2c5.9,2.7,10.8,7.1,14.3,12.5c1.4,2.1,0.7,5-1.4,6.4c-2.1,1.4-5,0.7-6.4-1.4c-2.5-4-6.2-7.1-10.4-9.1
				c-3.3-1.5-6.8-2.3-10.4-2.3c-3.7,0-7.2,0.8-10.4,2.3C80.8,35,75.4,42.3,74.3,50.7C74,53,72.1,54.7,69.8,54.7z"/>
		</g>
		<g>
			<line class="st2" x1="167.9" y1="96.8" x2="166.8" y2="97.4"/>
		</g>
		<g>
			<g>
				<path class="st3" d="M121.5,111.4V104l-0.6-0.3L98.2,90.5l-30,17.3v34.6l7,4.1l22.9,13.2l30-17.3v-27.2L121.5,111.4z
					 M86.1,140.2l-7-4.1v-8.4l30.9-17.8l7.3,4.2v8.1L86.1,140.2z"/>
			</g>
			<g>
				<polygon class="st4" points="110,109.9 79.1,127.7 79.1,114.1 98.2,103.1 				"/>
			</g>
			<g>
				<polygon class="st3" points="117.3,114.1 117.3,122.2 86.1,140.2 79.1,136.1 				"/>
			</g>
			<g>
				<polygon class="st4" points="117.3,122.2 117.3,136.1 98.2,147.1 86.1,140.2 				"/>
			</g>
			<g>
				<polygon class="st3" points="117.3,114.1 117.3,114.1 79.1,136.1 79.1,127.7 110,109.9 				"/>
			</g>
		</g>
		<g>
			<path class="st3" d="M55.5,104.9c-24.2,0-35.1-14-35.1-27.8c0-14.1,9.7-30.5,37.2-30.5c16.6,0,25.5,6.4,31.4,12
				c1.2,1.1,2.2,2.2,3.2,3.2c0.6,0.7,1.3,1.3,1.9,1.9c1.1,1.1,1.3,2.7,0.7,4c-0.7,1.3-2.2,2.1-3.6,1.9l-17.5-2.8
				c-1.7-0.3-2.9-1.7-2.9-3.4c0-1.7,1.2-3.1,2.9-3.4l5-0.9c-4.8-3.1-11.2-5.5-20.9-5.5c-28.1,0-30.3,18-30.3,23.5
				c0,9.6,7.4,20.9,28.2,20.9c17,0,28-11.7,40.8-25.2l2.4-2.5l5,4.8l-2.4,2.5C88,91.6,75.5,104.9,55.5,104.9z"/>
		</g>
		<g>
			<path class="st3" d="M140.1,103.7c-19.8,0-28.7-9.1-34.6-15.2c-0.6-0.7-1.3-1.3-1.9-1.9c-1.1-1.1-1.4-2.8-0.6-4.2
				c0.8-1.4,2.4-2,3.9-1.6l18.1,4.7c1.5,0.4,2.6,1.7,2.6,3.3c0,1.5-0.9,2.9-2.4,3.4l-2.9,0.9c4.4,2.2,10.1,3.7,17.7,3.7
				c27.3,0,30.3-15.5,30.3-22.2c0-10.7-8.8-22.2-28.2-22.2c-17.4,0-26.1,9.4-37.1,21.2c-1.2,1.3-2.4,2.6-3.7,3.9L99,80l-5-4.8
				l2.4-2.5c1.2-1.3,2.4-2.6,3.6-3.9c11.7-12.6,21.8-23.4,42.2-23.4c24.1,0,35.1,15.1,35.1,29.1C177.3,88.6,167.5,103.7,140.1,103.7
				z"/>
		</g>
		<g>
			<g>
				<g>
					<path class="st8" d="M67.3,71.6h-9.1v-9.1c0-0.5-0.4-1-1-1h-7.5c-0.5,0-1,0.4-1,1v9.1h-9.1c-0.5,0-1,0.4-1,1V80
						c0,0.5,0.4,1,1,1h9.1v9.1c0,0.5,0.4,1,1,1h7.5c0.5,0,1-0.4,1-1V81h9.1c0.5,0,1-0.4,1-1v-7.5C68.2,72,67.8,71.6,67.3,71.6z"/>
				</g>
			</g>
		</g>
		<g>
			<g>
				<g>
					<circle class="st8" cx="142.9" cy="65.7" r="4.7"/>
				</g>
				<g>
					<circle class="st8" cx="142.9" cy="85.8" r="4.7"/>
				</g>
				<g>
					<circle class="st8" cx="132.9" cy="75.8" r="4.7"/>
				</g>
				<g>
					<circle class="st8" cx="152.5" cy="75.8" r="4.7"/>
				</g>
			</g>
		</g>
	</g>
	<g>
		<path class="st13" d="M36.8,189.5h-8.3v-2.3h2v-9.7h-2V175h7.3c3.7,0,4.9,2.2,4.9,3.9c0,1.1-0.5,2.2-1.4,2.9l0.8,0.5
			c1,0.6,1.5,1.8,1.5,3C41.6,187.6,39.9,189.5,36.8,189.5z M36.2,177.4h-3.4v3.5H36c0.5,0,2.4-0.2,2.4-1.8
			C38.4,178.3,37.9,177.4,36.2,177.4z M35.6,183.2h-2.8v3.9h4.1c0.7,0,2.3-0.4,2.3-1.9C39.3,183.2,36.6,183.2,35.6,183.2z"/>
		<path class="st13" d="M44.6,189.5v-2.3h2v-9.7h-1.9V175h12.6v5.3h-2.3v-3h-6v3.6h2.7v-1.7h2.3v5.6h-2.3v-1.7h-2.7v3.8h6v-2.9h2.3
			v5.3H44.6z"/>
		<path class="st13" d="M60.3,189.5v-2.3h2v-9.7h-1.9V175H73v5.3h-2.3v-3h-6v3.6h2.7v-1.7h2.3v5.6h-2.3v-1.7h-2.7v3.8h6v-2.9H73v5.3
			H60.3z"/>
		<path class="st14" d="M83.2,189.8c-5.4,0-7-4.7-7-7.6c0-4.3,2.9-7.4,6.9-7.4c2.1,0,3.4,0.8,3.7,1.1v-1.1h2.3v5.9h-2.3v-2.4
			c-1.1-0.7-2.4-1.2-3.7-1.2c-1.8,0-4.6,1.3-4.6,5.1c0,2.6,1.3,5.2,4.6,5.2c2,0,3.8-1.1,4.6-1.6l1.4,1.7
			C87.2,189.3,84.2,189.8,83.2,189.8z"/>
		<path class="st14" d="M99,189.5v-2.3h2v-3.9h-5.5v3.9h2v2.3h-6.2v-2.3h1.9v-9.7h-1.9V175h6.2v2.3h-2v3.5h5.5v-3.5h-2V175h6.2v2.3
			h-1.9v9.7h1.9v2.3H99z"/>
		<path class="st14" d="M115.5,189.5v-2.3h2.1l-0.7-1.7H111l-0.7,1.7h2.2v2.3h-6v-2.3h1.5l4.1-9.7H109V175h6.1l4.9,12.1h1.4v2.3
			H115.5z M114,178.4l-2,4.7h3.9L114,178.4z"/>
		<path class="st14" d="M135.4,177.4v12.1h-2.2l-6.5-10.3v7.9h2.4v2.3h-6.7v-2.3h1.9v-9.7h-1.9V175h4.5l6.1,10v-7.7h-2.3V175h6.6
			v2.3H135.4z"/>
		<path class="st14" d="M151.5,184.8v3.7c-0.5,0.2-3,1.3-5.3,1.3c-3.8,0-7.2-2.5-7.2-7.3c0-4.6,3-7.7,6.9-7.7c1.8,0,2.6,0.5,3.6,1.2
			v-1.2h2.3v5.9h-2.3v-2.3c-1.2-0.8-2.1-1.3-3.6-1.3c-2.3,0-4.5,1.8-4.5,5.3c0,1.3,0.3,2.7,1.2,3.7c1,1.1,2.3,1.4,3.7,1.4
			c0.8,0,1.5,0,2.2-0.2l0.9-0.2v-2.2h-3.6v-2.3h7v2.3H151.5z"/>
		<path class="st14" d="M154.9,189.5v-2.3h2v-9.7h-1.9V175h12.6v5.3h-2.3v-3h-6v3.6h2.7v-1.7h2.3v5.6h-2.3v-1.7h-2.7v3.8h6v-2.9h2.3
			v5.3H154.9z"/>
	</g>
</g>
</svg>
