<?xml version="1.0" encoding="utf-8"?>
<!-- Generator: Adobe Illustrator 21.1.0, SVG Export Plug-In . SVG Version: 6.00 Build 0)  -->
<svg version="1.1" id="圖層_1" xmlns="http://www.w3.org/2000/svg" xmlns:xlink="http://www.w3.org/1999/xlink" x="0px" y="0px"
	 viewBox="0 0 198.4 198.4" style="enable-background:new 0 0 198.4 198.4;" xml:space="preserve">
<style type="text/css">
	.st0{fill:none;stroke:#000000;stroke-width:8;stroke-linecap:round;stroke-linejoin:round;stroke-miterlimit:10;}
	.st1{fill:none;stroke:#000000;stroke-width:6;stroke-linecap:round;stroke-linejoin:round;stroke-miterlimit:10;}
	.st2{fill:none;}
	.st3{fill:#3E3A39;}
	.st4{fill:#E60012;}
	.st5{fill:none;stroke:#E60012;stroke-width:6;stroke-linecap:square;stroke-linejoin:round;stroke-miterlimit:10;}
	.st6{fill:#FFFFFF;}
	.st7{fill:#22AC38;}
	.st8{fill:#1D793A;}
	.st9{stroke:#000000;stroke-width:0.2698;stroke-miterlimit:10;}
	.st10{fill:#E60012;stroke:#E60012;stroke-width:0.2698;stroke-miterlimit:10;}
	.st11{fill:#E60012;stroke:#E60012;stroke-width:0.5;stroke-miterlimit:10;}
	.st12{stroke:#000000;stroke-width:0.7876;stroke-miterlimit:10;}
	.st13{stroke:#000000;stroke-width:0.4061;stroke-miterlimit:10;}
	.st14{fill:#E60012;stroke:#E60012;stroke-width:0.4061;stroke-miterlimit:10;}
</style>
<g>
	<path class="st3" d="M44.9,102.1H11.1v-9.5h8V52.9h-8v-9.5H41c15.2,0,19.9,9.1,19.9,16c0,4.6-1.9,8.8-5.9,11.9l3.3,2.1
		c4.2,2.6,6.1,7.4,6.1,12.1C64.4,94.5,57.5,102.1,44.9,102.1z M42.2,52.9H28.5V67h13.1c2.2,0,9.9-0.8,9.9-7.3
		C51.5,56.6,49.2,52.9,42.2,52.9z M40,76.6H28.5v16h16.8c3,0,9.5-1.4,9.5-7.7C54.9,76.6,43.8,76.6,40,76.6z"/>
	<path class="st3" d="M73.9,102.1v-9.5H82V52.9h-7.9v-9.5h51.4v21.8H116V52.9H91.5v14.6h10.9v-6.8h9.6v23h-9.6V77H91.5v15.6H116
		V80.7h9.6v21.5H73.9z"/>
	<path class="st3" d="M135.5,102.1v-9.5h8.1V52.9h-7.9v-9.5h51.4v21.8h-9.5V52.9h-24.5v14.6H164v-6.8h9.5v23H164V77h-10.9v15.6h24.5
		V80.7h9.5v21.5H135.5z"/>
	<path class="st3" d="M22.5,151.4c-11.3,0-14.7-9.8-14.7-15.8c0-8.9,6-15.5,14.4-15.5c4.4,0,7,1.7,7.7,2.2v-2.2h4.8v12.3H30v-5
		c-2.3-1.4-4.9-2.5-7.7-2.5c-3.7,0-9.5,2.7-9.5,10.7c0,5.5,2.8,10.9,9.6,10.9c4.2,0,7.9-2.3,9.6-3.4l2.9,3.6
		C30.9,150.3,24.6,151.4,22.5,151.4z"/>
	<path class="st3" d="M54.2,150.8v-4.9h4.1v-8.2H46.8v8.2H51v4.9H38v-4.9h4v-20.3h-4v-4.9h13v4.9h-4.2v7.3h11.5v-7.3h-4.1v-4.9h12.9
		v4.9h-4v20.3h4v4.9H54.2z"/>
	<path class="st3" d="M87.3,150.8v-4.9h4.4l-1.5-3.6H78l-1.5,3.6H81v4.9H68.4v-4.9h3.1l8.6-20.3h-6.5v-4.9h12.7l10.3,25.2h2.9v4.9
		H87.3z M84.1,127.7l-4.1,9.7h8.2L84.1,127.7z"/>
	<path class="st3" d="M127.6,125.6v25.2h-4.6l-13.6-21.5v16.6h5.1v4.9h-13.9v-4.9h4v-20.3h-4v-4.9h9.4l12.8,20.9v-16h-4.9v-4.9h13.8
		v4.9H127.6z"/>
	<path class="st3" d="M159.7,141v7.7c-1.1,0.4-6.3,2.7-11.1,2.7c-7.9,0-15.1-5.3-15.1-15.3c0-9.7,6.3-16,14.3-16
		c3.7,0,5.5,1.1,7.6,2.4v-2.4h4.9v12.3h-4.9v-4.8c-2.6-1.6-4.4-2.7-7.5-2.7c-4.8,0-9.4,3.7-9.4,11c0,2.8,0.7,5.6,2.4,7.6
		c2,2.3,4.8,3,7.7,3c1.6,0,3.1-0.1,4.6-0.5l1.8-0.4V141h-7.5v-4.9h14.6v4.9H159.7z"/>
	<path class="st3" d="M165.4,150.8v-4.9h4.2v-20.3h-4v-4.9h26.3v11.1H187v-6.3h-12.6v7.5h5.6v-3.5h4.9v11.8H180v-3.5h-5.6v8H187
		v-6.1h4.9v11H165.4z"/>
</g>
</svg>
